<?xml version="1.0" encoding="UTF-8" standalone="no"?>
<!-- Created with Inkscape (http://www.inkscape.org/) -->

<svg
   xmlns:dc="http://purl.org/dc/elements/1.1/"
   xmlns:cc="http://creativecommons.org/ns#"
   xmlns:rdf="http://www.w3.org/1999/02/22-rdf-syntax-ns#"
   xmlns:svg="http://www.w3.org/2000/svg"
   xmlns="http://www.w3.org/2000/svg"
   xmlns:sodipodi="http://sodipodi.sourceforge.net/DTD/sodipodi-0.dtd"
   xmlns:inkscape="http://www.inkscape.org/namespaces/inkscape"
   version="1.1"
   id="svg4163"
   width="180.8"
   height="192.32001"
   viewBox="0 0 180.8 192.32001"
   sodipodi:docname="doge.svg"
   inkscape:version="0.92.4 (5da689c313, 2019-01-14)">
  <metadata
     id="metadata4169">
    <rdf:RDF>
      <cc:Work
         rdf:about="">
        <dc:format>image/svg+xml</dc:format>
        <dc:type
           rdf:resource="http://purl.org/dc/dcmitype/StillImage" />
        <dc:title></dc:title>
      </cc:Work>
    </rdf:RDF>
  </metadata>
  <defs
     id="defs4167" />
  <sodipodi:namedview
     pagecolor="#ffffff"
     bordercolor="#666666"
     borderopacity="1"
     objecttolerance="10"
     gridtolerance="10"
     guidetolerance="10"
     inkscape:pageopacity="0"
     inkscape:pageshadow="2"
     inkscape:window-width="1278"
     inkscape:window-height="1368"
     id="namedview4165"
     showgrid="false"
     inkscape:zoom="3.4708235"
     inkscape:cx="143.69986"
     inkscape:cy="161.54534"
     inkscape:window-x="-7"
     inkscape:window-y="0"
     inkscape:window-maximized="0"
     inkscape:current-layer="svg4163" />
  <path
     style="fill:#000000;stroke-width:0.32000002"
     d="m 58.623768,188.74922 -7.25875,-0.61157 -5.442113,-0.92705 -5.025657,-2.28428 -5.536262,-3.75853 -4.938732,-4.51581 -4.096046,-5.28656 -4.18714,-4.99729 -3.25903,3.96625 -2.17627,7.52858 -0.69494,3.38991 -1.3605,3.63656 -2.58998,2.70756 -0.37474,-3.77433 0.985358,-6.32601 2.004942,-6.08738 1.50082,-6.00114 -1.761484,-6.56389 -2.77221,-6.28064 -2.8130662,-6.26393 -3.1007589,-8.60966 -1.3733214,-9.04528 -0.2726897,-9.1566 0.055813,-5.43118 0.3597973,-5.41609 1.5492092,-5.71901 1.9755308,-5.59602 2.2741032,-7.209033 2.087237,-7.265496 2.072665,-7.331864 2.359223,-7.244554 3.566712,-6.706764 4.245571,-4.496629 4.874429,-3.833803 6.96218,-5.712324 3.4148,-5.646064 2.449192,-9.525228 1.808437,-9.669062 1.259491,-9.756892 2.15961,-8.9954342 7.02776,1.277008 3.763931,5.3806482 3.308549,5.682346 3.37796,5.772103 3.873251,5.440178 5.526809,3.692041 7.571719,2.721176 7.949115,1.320822 8.029476,0.747321 5.748312,0.414166 5.33376,-1.292374 3.62287,-4.24 5.19651,-6.089053 5.55513,-5.763282 6.01865,-5.274413 6.81435,-4.1494332 6.22343,0.337278 3.82729,5.0525592 2.15144,8.795022 1.13826,8.992645 0.47902,9.051487 -0.42725,9.047191 -0.66158,5.164301 -0.0821,5.189942 2.95869,8.480001 2.50346,6.604238 1.51133,6.888921 0.65552,7.032599 0.61291,5.557611 1.46055,5.385308 1.57299,6.16927 2.04694,7.3886 2.13893,6.39394 1.43074,6.59335 1.5113,6.72577 1.99792,6.59363 3.13827,6.11622 2.17222,7.70812 -1.32026,-0.27855 -4.9192,-6.01546 -4.04557,-6.6447 -0.10236,-5.20115 -0.27684,-2.28357 -0.70564,-3.35112 -1.62913,-5.00563 0.0373,-3.05903 -0.30534,-3.11745 -1.4596,-3.75515 -1.89187,-4.16 -2.27622,-5.91445 -1.00213,-3.68 -1.25122,-8.473815 -0.73597,-7.637545 -1.37245,-7.548437 -2.86931,-8.924403 -1.55969,2.19599 -1.04384,3.04 -1.04,4.14265 0.23335,4.08 -1.87051,0.16 -3.00337,-4.212166 1.43315,-2.93545 1.44,-2.641911 -0.63315,-1.243155 -0.63861,-1.170474 1.26415,-2.851961 0.20138,-3.424884 -1.26601,-0.410515 0.41285,-1.636467 3.26863,-7.316917 1.05853,-7.999742 0.0801,-8.07636 -0.49501,-8.056478 -1.18223,-7.982351 -2.50658,-7.644859 -3.96293,-3.258935 -6.32515,3.081524 -5.35244,4.8896 -5.20535,5.044948 -5.61791,5.447006 -5.75642,5.299657 -6.66764,3.795706 -2.78374,-0.541626 -6.034835,-0.609515 -6.082067,-0.180117 -5.401265,-0.135014 -5.401265,-0.135015 -1.1798,-1.383574 -3.7231,-1.650013 -5.44997,-0.28369 -3.12094,-0.231529 1.06667,-0.978138 -0.27835,-4.855622 -2.770363,-4.681377 -2.679867,-4.734638 -3.512487,-6.210138 -4.066523,-5.8279382 -2.31521,-0.176713 -1.402854,5.2749012 -0.720336,5.443937 -0.912366,6.861559 -1.521684,6.751177 -1.68169,8.661287 2.65758,0.305751 2.82242,0.224717 -5.83273,5.792691 -4.565951,3.586158 -4.489779,3.679631 -6.54864,5.118189 -3.77927,3.102567 -3.500021,6.845269 -2.574499,7.274373 -2.711859,8.808285 -2.222471,8.945105 -2.44308,6.467424 -2.2048254,5.89187 -0.9619348,6.21953 -0.3458562,7.80159 0.7006396,7.7757 1.5919866,7.64714 2.6032582,8.75141 3.621152,8.37602 4.86049,7.72249 5.536622,6.5493 6.382238,5.68863 3.79382,3.77652 5.768754,4.42892 7.018528,2.25334 7.238068,1.42893 6.934368,0.78756 6.970662,-0.14045 7.66182,-1.82478 8.36118,-1.47111 -5.24243,3.60114 -6.252767,2.56427 -6.744803,0.48333 -9.28,-0.19443 v 0"
     id="path4291" />
  <path
     style="fill:#000000;stroke-width:0.32000002"
     d="m 138.94377,172.23833 3.56801,-4.97734 2.32547,-4.24458 2.21674,-3.06368 4.3763,-6.00485 1.393,0.76499 -1.88569,6.7093 -3.65266,5.97457 -5.1622,4.67057 -3.17897,0.17102 v 0"
     id="path4289" />
  <path
     style="fill:#000000;stroke-width:0.32000002"
     d="m 33.155288,148.43369 -4.578996,-5.58558 -3.271354,-6.39998 -3.99651,-7.8627 -3.364733,-6.14831 -0.680967,-6.92258 2.572812,-7.48797 4.838055,-6.32127 5.538083,-5.732814 3.563172,-3.580017 3.408918,-3.716188 -2.39724,-2.965908 -3.70728,-6.03719 0.719302,-5.385944 4.061788,-3.679119 7.15144,0.17847 4.09199,5.965213 -4.18853,8.647997 -5.52161,7.967796 -3.08986,4.522679 2.59701,0.633478 8.48705,4.944267 2.37871,6.60578 -3.238897,4.79327 -4.182953,4.03958 -6.36092,7.22743 7.31773,5.49091 6.408078,2.24422 6.757617,0.59181 6.796575,-0.0144 5.604548,-0.0244 5.515452,0.38522 -0.43739,0.80536 -6.114691,2.19905 -6.284309,1.69255 -6.660228,0.34919 -6.583382,-1.28301 -7.205406,-1.50638 -7.300344,-0.88368 -3.09429,0.53365 -0.10455,1.51539 3.355545,4.34826 3.897215,3.89221 2.28656,2.02186 6.80263,-0.48412 7.69875,-0.51922 7.6899,-0.0252 -5.06601,2.41838 -8.765834,1.04686 -8.797856,0.71958 h -1.72429 l -2.8205,-3.21444"
     id="path4287" />
  <path
     style="fill:#000000;stroke-width:0.32000002"
     d="m 29.903768,128.34989 -0.13222,-4.42136 -3.49261,-5.27411 -3.3359,-5.32389 -0.78226,-2.0024 -2.05708,0.41623 -0.50497,7.20377 2.816823,5.86596 4.932577,4.1009 2.55564,-0.5651 v 0"
     id="path4285" />
  <path
     style="fill:#000000;stroke-width:0.32000002"
     d="m 39.572628,112.89498 1.13114,-1.73545 -4.44966,-3.36764 -0.99034,2.87925 4.30886,2.22384 v 0"
     id="path4283" />
  <path
     style="fill:#000000;stroke-width:0.32000002"
     d="m 38.432828,82.905931 -1.95375,-3.226204 -0.71515,-4.561678 0.53921,-2.55856 -1.21016,0.51033 -0.72844,4.119274 1.71463,5.78871 2.35366,-0.07187 v -2e-6"
     id="path4281" />
  <path
     style="fill:#000000;stroke-width:0.32000002"
     d="m 123.91223,145.80813 1.59968,-2.96 3.02633,-4.66005 2.40055,-5.00551 2.45212,-6.16725 3.22302,-5.79455 3.03706,-5.0404 2.26968,-5.39597 -1.47335,-2.59176 -1.50355,-1.89008 1.04,-0.58596 1.44,-0.54461 -0.23984,-4.48043 0.98676,-0.888661 3.21175,5.447851 -0.51639,6.26212 -2.15149,4.63867 -2.29644,4.56864 -2.34414,4.70024 -2.15671,4.78771 -3.80626,7.37345 -5.08674,6.56541 -3.11204,1.66114 v 0"
     id="path4279" />
  <path
     style="fill:#000000;stroke-width:0.32000002"
     d="m 63.597198,120.52813 -0.44155,-3.6 -2.43643,-7.75641 -2.29112,-1.66982 -1.66576,-1.70114 2.64116,-0.44627 5.87707,5.81364 0.15852,8.24 -1.84189,1.12 v 0"
     id="path4277" />
  <path
     style="fill:#000000;stroke-width:0.32000002"
     d="m 79.075548,93.927004 -6.66855,-3.85521 -1.221086,-4.917633 3.241606,-4.318313 7.6664,-5.378746 6.32546,0.881284 4.880069,4.023338 4.364321,4.552876 -7.16631,6.811857 -5.505431,2.227448 -5.916479,-0.0269 v 0"
     id="path4275" />
  <path
     style="fill:#000000;stroke-width:0.32000002"
     d="m 85.352428,90.194105 -2.58499,-1.265984 -2.92504,-2.783207 3.26544,-5.216794 1.59593,-1.6 -0.96318,-0.894544 -6.67697,5.598653 2.4485,5.966746 5.84031,0.19513 v 0"
     id="path4273" />
  <path
     style="fill:#000000;stroke-width:0.32000002"
     d="m 132.15382,93.488121 -0.87441,-1.76 -3.91717,-0.4 -3.96127,0.0231 5.94841,-3.063104 5.75439,3.154969 -2.94995,2.045031 v 4e-6"
     id="path4271" />
  <path
     style="fill:#000000;stroke-width:0.32000002"
     d="m 132.25746,73.268101 -6.38391,-5.914756 -5.50608,-3.854381 -4.84283,-4.676639 -4.20544,-5.254206 -3.26594,-4.584877 -1.10949,-1.690042 3.00392,0.191584 4.41477,-1.08504 2.73051,-4.71218 2.00532,-5.079446 2.60083,-6.229754 3.59827,-5.704124 4.50741,-5.026123 3.76985,-3.327161 4.61486,-1.776961 2.28389,0.561041 3.14228,7.530822 1.10398,8.049585 -2.57059,-5.641376 -3.41233,-7.996348 -5.19116,2.238495 -4.24568,3.96665 -3.68243,4.501138 -2.62076,5.174116 -1.89905,6.02242 -2.37416,5.846329 -3.1746,4.805216 -0.6159,4.954925 4.32697,5.251111 2.2919,-2.956237 4.28617,-5.043763 -0.31284,3.473475 -1.30143,3.587021 5.9793,6.128752 1.40678,-0.315536 4.83883,-6.809209 4.28069,-7.184503 2.22263,-6.560001 1.76738,-5.910352 0.0649,5.346609 -0.91894,5.332947 -3.25701,6.413907 -2.99496,4.91124 -2.20328,5.318524 -0.51172,6.478256 -0.0605,4.108871 -2.58035,-2.860019 h -2e-5"
     id="path4269" />
  <path
     style="fill:#000000;stroke-width:0.32000002"
     d="m 125.24694,50.349309 -2.94317,-1.406733 1.68,-0.832608 1.84831,-3.820707 -1.60831,-0.603012 2.08,-1.578124 1.28,-3.100007 -0.8,-1.342758 6.42346,-4.087009 2.21654,2.043536 -1.92,2.124519 1.95081,0.97863 2.12334,1.160919 -1.1438,1.790864 -1.52905,2.456275 -2.51302,4.289425 -7.14511,1.92679 v 0"
     id="path4173" />
</svg>
