  0
SECTION
  2
HEADER
  9
$ACADVER
  1
AC1014
  9
$HANDSEED
  5
FFFF
  9
$MEASUREMENT
 70
     1
  0
ENDSEC
  0
SECTION
  2
TABLES
  0
TABLE
  2
VPORT
  5
8
330
0
100
AcDbSymbolTable
 70
     4
  0
VPORT
  5
2E
330
8
100
AcDbSymbolTableRecord
100
AcDbViewportTableRecord
  2
*ACTIVE
 70
     0
 10
0.0
 20
0.0
 11
1.0
 21
1.0
 12
210.0
 22
148.5
 13
0.0
 23
0.0
 14
10.0
 24
10.0
 15
10.0
 25
10.0
 16
0.0
 26
0.0
 36
1.0
 17
0.0
 27
0.0
 37
0.0
 40
341.0
 41
1.24
 42
50.0
 43
0.0
 44
0.0
 50
0.0
 51
0.0
 71
     0
 72
   100
 73
     1
 74
     3
 75
     0
 76
     0
 77
     0
 78
     0
  0
ENDTAB
  0
TABLE
  2
LTYPE
  5
5
330
0
100
AcDbSymbolTable
 70
     1
  0
LTYPE
  5
14
330
5
100
AcDbSymbolTableRecord
100
AcDbLinetypeTableRecord
  2
BYBLOCK
 70
     0
  3

 72
    65
 73
     0
 40
0.0
  0
LTYPE
  5
15
330
5
100
AcDbSymbolTableRecord
100
AcDbLinetypeTableRecord
  2
BYLAYER
 70
     0
  3

 72
    65
 73
     0
 40
0.0
  0
LTYPE
  5
16
330
5
100
AcDbSymbolTableRecord
100
AcDbLinetypeTableRecord
  2
CONTINUOUS
 70
     0
  3
Solid line
 72
    65
 73
     0
 40
0.0
  0
ENDTAB
  0
TABLE
  2
LAYER
  5
2
100
AcDbSymbolTable
 70
1
  0
LAYER
  5
50
100
AcDbSymbolTableRecord
100
AcDbLayerTableRecord
  2
0
 70
0
  6
CONTINUOUS
  0
ENDTAB
  0
TABLE
  2
STYLE
  5
3
330
0
100
AcDbSymbolTable
 70
     1
  0
STYLE
  5
11
330
3
100
AcDbSymbolTableRecord
100
AcDbTextStyleTableRecord
  2
STANDARD
 70
     0
 40
0.0
 41
1.0
 50
0.0
 71
     0
 42
2.5
  3
txt
  4

  0
ENDTAB
  0
TABLE
  2
VIEW
  5
6
330
0
100
AcDbSymbolTable
 70
     0
  0
ENDTAB
  0
TABLE
  2
UCS
  5
7
330
0
100
AcDbSymbolTable
 70
     0
  0
ENDTAB
  0
TABLE
  2
APPID
  5
9
330
0
100
AcDbSymbolTable
 70
     2
  0
APPID
  5
12
330
9
100
AcDbSymbolTableRecord
100
AcDbRegAppTableRecord
  2
ACAD
 70
     0
  0
ENDTAB
  0
TABLE
  2
DIMSTYLE
  5
A
330
0
100
AcDbSymbolTable
 70
     1
  0
DIMSTYLE
105
27
330
A
100
AcDbSymbolTableRecord
100
AcDbDimStyleTableRecord
  2
ISO-25
 70
     0
  3

  4

  5

  6

  7

 40
1.0
 41
2.5
 42
0.625
 43
3.75
 44
1.25
 45
0.0
 46
0.0
 47
0.0
 48
0.0
140
2.5
141
2.5
142
0.0
143
0.03937007874016
144
1.0
145
0.0
146
1.0
147
0.625
 71
     0
 72
     0
 73
     0
 74
     0
 75
     0
 76
     0
 77
     1
 78
     8
170
     0
171
     3
172
     1
173
     0
174
     0
175
     0
176
     0
177
     0
178
     0
270
     2
271
     2
272
     2
273
     2
274
     3
340
11
275
     0
280
     0
281
     0
282
     0
283
     0
284
     8
285
     0
286
     0
287
     3
288
     0
  0
ENDTAB
  0
TABLE
  2
BLOCK_RECORD
  5
1
330
0
100
AcDbSymbolTable
 70
     1
  0
BLOCK_RECORD
  5
1F
330
1
100
AcDbSymbolTableRecord
100
AcDbBlockTableRecord
  2
*MODEL_SPACE
  0
BLOCK_RECORD
  5
1B
330
1
100
AcDbSymbolTableRecord
100
AcDbBlockTableRecord
  2
*PAPER_SPACE
  0
ENDTAB
  0
ENDSEC
  0
SECTION
  2
BLOCKS
  0
BLOCK
  5
20
330
1F
100
AcDbEntity
  8
0
100
AcDbBlockBegin
  2
*MODEL_SPACE
 70
     0
 10
0.0
 20
0.0
 30
0.0
  3
*MODEL_SPACE
  1

  0
ENDBLK
  5
21
330
1F
100
AcDbEntity
  8
0
100
AcDbBlockEnd
  0
BLOCK
  5
1C
330
1B
100
AcDbEntity
 67
     1
  8
0
100
AcDbBlockBegin
  2
*PAPER_SPACE
  1

  0
ENDBLK
  5
1D
330
1B
100
AcDbEntity
 67
     1
  8
0
100
AcDbBlockEnd
  0
ENDSEC
  0
SECTION
  2
ENTITIES
  0
LWPOLYLINE
  5
100
100
AcDbEntity
  8
0
 62
7
100
AcDbPolyline
 90
177
 70
1
 10
43.967826
 20
2.678092
 30
0.0
 10
38.523764
 20
3.136770
 30
0.0
 10
34.442179
 20
3.832057
 30
0.0
 10
30.672936
 20
5.545267
 30
0.0
 10
26.520739
 20
8.364165
 30
0.0
 10
22.816690
 20
11.751022
 30
0.0
 10
19.744656
 20
15.715942
 30
0.0
 10
16.604301
 20
19.463910
 30
0.0
 10
14.160028
 20
16.489222
 30
0.0
 10
12.527826
 20
10.842787
 30
0.0
 10
12.006621
 20
8.300355
 30
0.0
 10
10.986246
 20
5.572935
 30
0.0
 10
9.043761
 20
3.542265
 30
0.0
 10
8.762706
 20
6.373012
 30
0.0
 10
9.501724
 20
11.117520
 30
0.0
 10
11.005431
 20
15.683055
 30
0.0
 10
12.131046
 20
20.183910
 30
0.0
 10
10.809933
 20
25.106827
 30
0.0
 10
8.730776
 20
29.817307
 30
0.0
 10
6.620976
 20
34.515255
 30
0.0
 10
4.295407
 20
40.972500
 30
0.0
 10
3.265416
 20
47.756460
 30
0.0
 10
3.060898
 20
54.623910
 30
0.0
 10
3.102758
 20
58.697295
 30
0.0
 10
3.372606
 20
62.759362
 30
0.0
 10
4.534513
 20
67.048620
 30
0.0
 10
6.016161
 20
71.245635
 30
0.0
 10
7.721738
 20
76.652410
 30
0.0
 10
9.287166
 20
82.101532
 30
0.0
 10
10.841665
 20
87.600430
 30
0.0
 10
12.611082
 20
93.033845
 30
0.0
 10
15.286116
 20
98.063918
 30
0.0
 10
18.470294
 20
101.436390
 30
0.0
 10
22.126116
 20
104.311742
 30
0.0
 10
27.347751
 20
108.595985
 30
0.0
 10
29.908851
 20
112.830533
 30
0.0
 10
31.745745
 20
119.974454
 30
0.0
 10
33.102073
 20
127.226251
 30
0.0
 10
34.046691
 20
134.543920
 30
0.0
 10
35.666399
 20
141.290495
 30
0.0
 10
40.937219
 20
140.332739
 30
0.0
 10
43.760167
 20
136.297253
 30
0.0
 10
46.241579
 20
132.035494
 30
0.0
 10
48.775049
 20
127.706416
 30
0.0
 10
51.679987
 20
123.626283
 30
0.0
 10
55.825094
 20
120.857252
 30
0.0
 10
61.503883
 20
118.816370
 30
0.0
 10
67.465719
 20
117.825754
 30
0.0
 10
73.487826
 20
117.265263
 30
0.0
 10
77.799060
 20
116.954638
 30
0.0
 10
81.799380
 20
117.923919
 30
0.0
 10
84.516533
 20
121.103919
 30
0.0
 10
88.413915
 20
125.670709
 30
0.0
 10
92.580263
 20
129.993170
 30
0.0
 10
97.094250
 20
133.948980
 30
0.0
 10
102.205013
 20
137.061055
 30
0.0
 10
106.872585
 20
136.808096
 30
0.0
 10
109.743053
 20
133.018677
 30
0.0
 10
111.356633
 20
126.422410
 30
0.0
 10
112.210328
 20
119.677927
 30
0.0
 10
112.569593
 20
112.889311
 30
0.0
 10
112.249155
 20
106.103918
 30
0.0
 10
111.752970
 20
102.230692
 30
0.0
 10
111.691395
 20
98.338236
 30
0.0
 10
113.910413
 20
91.978235
 30
0.0
 10
115.788008
 20
87.025057
 30
0.0
 10
116.921505
 20
81.858366
 30
0.0
 10
117.413145
 20
76.583917
 30
0.0
 10
117.872828
 20
72.415708
 30
0.0
 10
118.968240
 20
68.376727
 30
0.0
 10
120.147983
 20
63.749775
 30
0.0
 10
121.683188
 20
58.208325
 30
0.0
 10
123.287385
 20
53.412870
 30
0.0
 10
124.360440
 20
48.467857
 30
0.0
 10
125.493915
 20
43.423530
 30
0.0
 10
126.992355
 20
38.478307
 30
0.0
 10
129.346058
 20
33.891142
 30
0.0
 10
130.975223
 20
28.110052
 30
0.0
 10
129.985028
 20
28.318965
 30
0.0
 10
126.295628
 20
32.830560
 30
0.0
 10
123.261450
 20
37.814085
 30
0.0
 10
123.184680
 20
41.714947
 30
0.0
 10
122.977050
 20
43.427625
 30
0.0
 10
122.447820
 20
45.940965
 30
0.0
 10
121.225973
 20
49.695187
 30
0.0
 10
121.253948
 20
51.989460
 30
0.0
 10
121.024943
 20
54.327547
 30
0.0
 10
119.930243
 20
57.143910
 30
0.0
 10
118.511340
 20
60.263910
 30
0.0
 10
116.804175
 20
64.699747
 30
0.0
 10
116.052578
 20
67.459747
 30
0.0
 10
115.114163
 20
73.815109
 30
0.0
 10
114.562185
 20
79.543267
 30
0.0
 10
113.532848
 20
85.204595
 30
0.0
 10
111.380865
 20
91.897897
 30
0.0
 10
110.211098
 20
90.250905
 30
0.0
 10
109.428218
 20
87.970905
 30
0.0
 10
108.648218
 20
84.863917
 30
0.0
 10
108.823230
 20
81.803917
 30
0.0
 10
107.420348
 20
81.683917
 30
0.0
 10
105.167820
 20
84.843042
 30
0.0
 10
106.242683
 20
87.044629
 30
0.0
 10
107.322683
 20
89.026063
 30
0.0
 10
106.847820
 20
89.958429
 30
0.0
 10
106.368863
 20
90.836284
 30
0.0
 10
107.316975
 20
92.975255
 30
0.0
 10
107.468010
 20
95.543918
 30
0.0
 10
106.518503
 20
95.851804
 30
0.0
 10
106.828140
 20
97.079155
 30
0.0
 10
109.279613
 20
102.566842
 30
0.0
 10
110.073510
 20
108.566649
 30
0.0
 10
110.133585
 20
114.623919
 30
0.0
 10
109.762328
 20
120.666277
 30
0.0
 10
108.875655
 20
126.653041
 30
0.0
 10
106.995720
 20
132.386685
 30
0.0
 10
104.023523
 20
134.830886
 30
0.0
 10
99.279660
 20
132.519743
 30
0.0
 10
95.265330
 20
128.852543
 30
0.0
 10
91.361318
 20
125.068832
 30
0.0
 10
87.147885
 20
120.983578
 30
0.0
 10
82.830570
 20
117.008835
 30
0.0
 10
77.829840
 20
114.162055
 30
0.0
 10
75.742035
 20
114.568275
 30
0.0
 10
71.215909
 20
115.025411
 30
0.0
 10
66.654359
 20
115.160499
 30
0.0
 10
62.603410
 20
115.261759
 30
0.0
 10
58.552461
 20
115.363021
 30
0.0
 10
57.667611
 20
116.400701
 30
0.0
 10
54.875286
 20
117.638211
 30
0.0
 10
50.787809
 20
117.850978
 30
0.0
 10
48.447104
 20
118.024625
 30
0.0
 10
49.247106
 20
118.758229
 30
0.0
 10
49.038344
 20
122.399945
 30
0.0
 10
46.960571
 20
125.910978
 30
0.0
 10
44.950671
 20
129.461956
 30
0.0
 10
42.316306
 20
134.119560
 30
0.0
 10
39.266414
 20
138.490514
 30
0.0
 10
37.530006
 20
138.623048
 30
0.0
 10
36.477866
 20
134.666872
 30
0.0
 10
35.937614
 20
130.583920
 30
0.0
 10
35.253339
 20
125.437750
 30
0.0
 10
34.112076
 20
120.374368
 30
0.0
 10
32.850809
 20
113.878402
 30
0.0
 10
34.843994
 20
113.649089
 30
0.0
 10
36.960809
 20
113.480551
 30
0.0
 10
32.586261
 20
109.136033
 30
0.0
 10
29.161798
 20
106.446415
 30
0.0
 10
25.794464
 20
103.686691
 30
0.0
 10
20.882984
 20
99.848050
 30
0.0
 10
18.048531
 20
97.521124
 30
0.0
 10
15.423515
 20
92.387173
 30
0.0
 10
13.492641
 20
86.931393
 30
0.0
 10
11.458747
 20
80.325179
 30
0.0
 10
9.791894
 20
73.616350
 30
0.0
 10
7.959584
 20
68.765782
 30
0.0
 10
6.305965
 20
64.346880
 30
0.0
 10
5.584514
 20
59.682232
 30
0.0
 10
5.325121
 20
53.831040
 30
0.0
 10
5.850601
 20
47.999265
 30
0.0
 10
7.044591
 20
42.263910
 30
0.0
 10
8.997035
 20
35.700352
 30
0.0
 10
11.712899
 20
29.418337
 30
0.0
 10
15.358266
 20
23.626470
 30
0.0
 10
19.510733
 20
18.714495
 30
0.0
 10
24.297411
 20
14.448023
 30
0.0
 10
27.142776
 20
11.615633
 30
0.0
 10
31.469342
 20
8.293943
 30
0.0
 10
36.733238
 20
6.603938
 30
0.0
 10
42.161789
 20
5.532240
 30
0.0
 10
47.362565
 20
4.941570
 30
0.0
 10
52.590561
 20
5.046907
 30
0.0
 10
58.336926
 20
6.415492
 30
0.0
 10
64.607811
 20
7.518825
 30
0.0
 10
60.675989
 20
4.817970
 30
0.0
 10
55.986413
 20
2.894768
 30
0.0
 10
50.927811
 20
2.532270
 30
0.0
 10
43.967811
 20
2.678092
 30
0.0
  0
LWPOLYLINE
  5
101
100
AcDbEntity
  8
0
 62
7
100
AcDbPolyline
 90
10
 70
1
 10
104.207828
 20
15.061260
 30
0.0
 10
106.883835
 20
18.794265
 30
0.0
 10
108.627937
 20
21.977700
 30
0.0
 10
110.290492
 20
24.275460
 30
0.0
 10
113.572717
 20
28.779098
 30
0.0
 10
114.617467
 20
28.205355
 30
0.0
 10
113.203200
 20
23.173380
 30
0.0
 10
110.463705
 20
18.692453
 30
0.0
 10
106.592055
 20
15.189525
 30
0.0
 10
104.207827
 20
15.061260
 30
0.0
  0
LWPOLYLINE
  5
102
100
AcDbEntity
  8
0
 62
7
100
AcDbPolyline
 90
51
 70
1
 10
24.866466
 20
32.914740
 30
0.0
 10
21.432219
 20
37.103925
 30
0.0
 10
18.978704
 20
41.903910
 30
0.0
 10
15.981321
 20
47.800935
 30
0.0
 10
13.457771
 20
52.412167
 30
0.0
 10
12.947046
 20
57.604102
 30
0.0
 10
14.876655
 20
63.220080
 30
0.0
 10
18.505196
 20
67.961032
 30
0.0
 10
22.658758
 20
72.260643
 30
0.0
 10
25.331138
 20
74.945656
 30
0.0
 10
27.887826
 20
77.732797
 30
0.0
 10
26.089896
 20
79.957228
 30
0.0
 10
23.309436
 20
84.485120
 30
0.0
 10
23.848913
 20
88.524578
 30
0.0
 10
26.895253
 20
91.283917
 30
0.0
 10
32.258834
 20
91.150065
 30
0.0
 10
35.327826
 20
86.676155
 30
0.0
 10
32.186429
 20
80.190157
 30
0.0
 10
28.045221
 20
74.214310
 30
0.0
 10
25.727826
 20
70.822301
 30
0.0
 10
27.675583
 20
70.347193
 30
0.0
 10
34.040871
 20
66.638992
 30
0.0
 10
35.824903
 20
61.684657
 30
0.0
 10
33.395731
 20
58.089705
 30
0.0
 10
30.258516
 20
55.060020
 30
0.0
 10
25.487826
 20
49.639447
 30
0.0
 10
30.976123
 20
45.521265
 30
0.0
 10
35.782182
 20
43.838100
 30
0.0
 10
40.850395
 20
43.394242
 30
0.0
 10
45.947826
 20
43.405042
 30
0.0
 10
50.151237
 20
43.423342
 30
0.0
 10
54.287826
 20
43.134427
 30
0.0
 10
53.959784
 20
42.530407
 30
0.0
 10
49.373765
 20
40.881120
 30
0.0
 10
44.660533
 20
39.611707
 30
0.0
 10
39.665363
 20
39.349815
 30
0.0
 10
34.727826
 20
40.312072
 30
0.0
 10
29.323772
 20
41.441857
 30
0.0
 10
23.848514
 20
42.104617
 30
0.0
 10
21.527796
 20
41.704380
 30
0.0
 10
21.449384
 20
40.567837
 30
0.0
 10
23.966042
 20
37.306642
 30
0.0
 10
26.888954
 20
34.387485
 30
0.0
 10
28.603874
 20
32.871090
 30
0.0
 10
33.705846
 20
33.234180
 30
0.0
 10
39.479909
 20
33.623595
 30
0.0
 10
45.247334
 20
33.642495
 30
0.0
 10
41.447826
 20
31.828710
 30
0.0
 10
34.873451
 20
31.043565
 30
0.0
 10
28.275059
 20
30.503880
 30
0.0
 10
26.981841
 20
30.503880
 30
0.0
  0
LWPOLYLINE
  5
103
100
AcDbEntity
  8
0
 62
7
100
AcDbPolyline
 90
10
 70
1
 10
22.427826
 20
47.977590
 30
0.0
 10
22.328661
 20
51.293610
 30
0.0
 10
19.709204
 20
55.249192
 30
0.0
 10
17.207279
 20
59.242110
 30
0.0
 10
16.620584
 20
60.743910
 30
0.0
 10
15.077774
 20
60.431737
 30
0.0
 10
14.699046
 20
55.028910
 30
0.0
 10
16.811663
 20
50.629440
 30
0.0
 10
20.511096
 20
47.553765
 30
0.0
 10
22.427826
 20
47.977590
 30
0.0
  0
LWPOLYLINE
  5
104
100
AcDbEntity
  8
0
 62
7
100
AcDbPolyline
 90
5
 70
1
 10
29.679471
 20
59.568772
 30
0.0
 10
30.527826
 20
60.870360
 30
0.0
 10
27.190581
 20
63.396090
 30
0.0
 10
26.447826
 20
61.236652
 30
0.0
 10
29.679471
 20
59.568772
 30
0.0
  0
LWPOLYLINE
  5
105
100
AcDbEntity
  8
0
 62
7
100
AcDbPolyline
 90
8
 70
1
 10
28.824621
 20
82.060559
 30
0.0
 10
27.359309
 20
84.480212
 30
0.0
 10
26.822946
 20
87.901471
 30
0.0
 10
27.227353
 20
89.820391
 30
0.0
 10
26.319733
 20
89.437643
 30
0.0
 10
25.773403
 20
86.348188
 30
0.0
 10
27.059376
 20
82.006655
 30
0.0
 10
28.824621
 20
82.060558
 30
0.0
  0
LWPOLYLINE
  5
106
100
AcDbEntity
  8
0
 62
7
100
AcDbPolyline
 90
23
 70
1
 10
92.934172
 20
34.883910
 30
0.0
 10
94.133933
 20
37.103910
 30
0.0
 10
96.403680
 20
40.598948
 30
0.0
 10
98.204093
 20
44.353080
 30
0.0
 10
100.043183
 20
48.978517
 30
0.0
 10
102.460448
 20
53.324430
 30
0.0
 10
104.738243
 20
57.104730
 30
0.0
 10
106.440503
 20
61.151708
 30
0.0
 10
105.335490
 20
63.095527
 30
0.0
 10
104.207828
 20
64.513087
 30
0.0
 10
104.987827
 20
64.952557
 30
0.0
 10
106.067827
 20
65.361015
 30
0.0
 10
105.887947
 20
68.721337
 30
0.0
 10
106.628017
 20
69.387833
 30
0.0
 10
109.036830
 20
65.301945
 30
0.0
 10
108.649538
 20
60.605355
 30
0.0
 10
107.035920
 20
57.126352
 30
0.0
 10
105.313590
 20
53.699872
 30
0.0
 10
103.555485
 20
50.174692
 30
0.0
 10
101.937952
 20
46.583910
 30
0.0
 10
99.083258
 20
41.053823
 30
0.0
 10
95.268202
 20
36.129765
 30
0.0
 10
92.934172
 20
34.883910
 30
0.0
  0
LWPOLYLINE
  5
107
100
AcDbEntity
  8
0
 62
7
100
AcDbPolyline
 90
9
 70
1
 10
47.697899
 20
53.843910
 30
0.0
 10
47.366736
 20
56.543910
 30
0.0
 10
45.539413
 20
62.361217
 30
0.0
 10
43.821073
 20
63.613582
 30
0.0
 10
42.571753
 20
64.889437
 30
0.0
 10
44.552623
 20
65.224140
 30
0.0
 10
48.960426
 20
60.863910
 30
0.0
 10
49.079316
 20
54.683910
 30
0.0
 10
47.697899
 20
53.843910
 30
0.0
  0
LWPOLYLINE
  5
108
100
AcDbEntity
  8
0
 62
7
100
AcDbPolyline
 90
11
 70
1
 10
59.306661
 20
73.794754
 30
0.0
 10
54.305249
 20
76.686162
 30
0.0
 10
53.389434
 20
80.374387
 30
0.0
 10
55.820639
 20
83.613121
 30
0.0
 10
61.570439
 20
87.647181
 30
0.0
 10
66.314533
 20
86.986218
 30
0.0
 10
69.974585
 20
83.968715
 30
0.0
 10
73.247826
 20
80.554057
 30
0.0
 10
67.873094
 20
75.445165
 30
0.0
 10
63.744020
 20
73.774579
 30
0.0
 10
59.306661
 20
73.794754
 30
0.0
  0
LWPOLYLINE
  5
109
100
AcDbEntity
  8
0
 62
7
100
AcDbPolyline
 90
9
 70
1
 10
64.014321
 20
76.594429
 30
0.0
 10
62.075578
 20
77.543917
 30
0.0
 10
59.881799
 20
79.631322
 30
0.0
 10
62.330878
 20
83.543918
 30
0.0
 10
63.527826
 20
84.743918
 30
0.0
 10
62.805441
 20
85.414826
 30
0.0
 10
57.797714
 20
81.215836
 30
0.0
 10
59.634089
 20
76.740776
 30
0.0
 10
64.014321
 20
76.594429
 30
0.0
  0
LWPOLYLINE
  5
10a
100
AcDbEntity
  8
0
 62
7
100
AcDbPolyline
 90
7
 70
1
 10
99.115365
 20
74.123917
 30
0.0
 10
98.459557
 20
75.443917
 30
0.0
 10
95.521680
 20
75.743917
 30
0.0
 10
92.550727
 20
75.726592
 30
0.0
 10
97.012035
 20
78.023920
 30
0.0
 10
101.327827
 20
75.657693
 30
0.0
 10
99.115365
 20
74.123920
 30
0.0
  0
LWPOLYLINE
  5
10b
100
AcDbEntity
  8
0
 62
7
100
AcDbPolyline
 90
48
 70
1
 10
99.193095
 20
89.288932
 30
0.0
 10
94.405163
 20
93.724999
 30
0.0
 10
90.275603
 20
96.615784
 30
0.0
 10
86.643480
 20
100.123264
 30
0.0
 10
83.489400
 20
104.063918
 30
0.0
 10
81.039945
 20
107.502576
 30
0.0
 10
80.207828
 20
108.770107
 30
0.0
 10
82.460768
 20
108.626419
 30
0.0
 10
85.771845
 20
109.440199
 30
0.0
 10
87.819727
 20
112.974334
 30
0.0
 10
89.323718
 20
116.783919
 30
0.0
 10
91.274340
 20
121.456234
 30
0.0
 10
93.973043
 20
125.734327
 30
0.0
 10
97.353600
 20
129.503920
 30
0.0
 10
100.180987
 20
131.999291
 30
0.0
 10
103.642132
 20
133.332011
 30
0.0
 10
105.355050
 20
132.911230
 30
0.0
 10
107.711760
 20
127.263114
 30
0.0
 10
108.539745
 20
121.225925
 30
0.0
 10
106.611802
 20
125.456957
 30
0.0
 10
104.052555
 20
131.454218
 30
0.0
 10
100.159185
 20
129.775347
 30
0.0
 10
96.974925
 20
126.800359
 30
0.0
 10
94.213103
 20
123.424506
 30
0.0
 10
92.247533
 20
119.543919
 30
0.0
 10
90.823245
 20
115.027104
 30
0.0
 10
89.042625
 20
110.642357
 30
0.0
 10
86.661675
 20
107.038445
 30
0.0
 10
86.199750
 20
103.322251
 30
0.0
 10
89.444978
 20
99.383918
 30
0.0
 10
91.163903
 20
101.601096
 30
0.0
 10
94.378530
 20
105.383918
 30
0.0
 10
94.143900
 20
102.778812
 30
0.0
 10
93.167828
 20
100.088546
 30
0.0
 10
97.652303
 20
95.491982
 30
0.0
 10
98.707388
 20
95.728634
 30
0.0
 10
102.336510
 20
100.835541
 30
0.0
 10
105.547028
 20
106.223918
 30
0.0
 10
107.214000
 20
111.143919
 30
0.0
 10
108.539535
 20
115.576683
 30
0.0
 10
108.588210
 20
111.566726
 30
0.0
 10
107.899005
 20
107.567016
 30
0.0
 10
105.456248
 20
102.756586
 30
0.0
 10
103.210028
 20
99.073156
 30
0.0
 10
101.557568
 20
95.084263
 30
0.0
 10
101.173778
 20
90.225571
 30
0.0
 10
101.128403
 20
87.143917
 30
0.0
 10
99.193140
 20
89.288932
 30
0.0
  0
LWPOLYLINE
  5
10c
100
AcDbEntity
  8
0
 62
7
100
AcDbPolyline
 90
17
 70
1
 10
93.935205
 20
106.478026
 30
0.0
 10
91.727828
 20
107.533075
 30
0.0
 10
92.987828
 20
108.157531
 30
0.0
 10
94.374060
 20
111.023062
 30
0.0
 10
93.167828
 20
111.475321
 30
0.0
 10
94.727828
 20
112.658914
 30
0.0
 10
95.687827
 20
114.983919
 30
0.0
 10
95.087828
 20
115.990987
 30
0.0
 10
99.905423
 20
119.056244
 30
0.0
 10
101.567828
 20
117.523592
 30
0.0
 10
100.127828
 20
115.930203
 30
0.0
 10
101.590935
 20
115.196230
 30
0.0
 10
103.183440
 20
114.325541
 30
0.0
 10
102.325590
 20
112.982393
 30
0.0
 10
101.178803
 20
111.140187
 30
0.0
 10
99.294038
 20
107.923118
 30
0.0
 10
93.935205
 20
106.478026
 30
0.0
  0
ENDSEC
  0
SECTION
  2
OBJECTS
  0
DICTIONARY
  5
C
330
0
100
AcDbDictionary
  3
ACAD_GROUP
350
D
  3
ACAD_MLINESTYLE
350
17
  0
DICTIONARY
  5
D
330
C
100
AcDbDictionary
  0
DICTIONARY
  5
1A
330
C
100
AcDbDictionary
  0
DICTIONARY
  5
17
330
C
100
AcDbDictionary
  3
STANDARD
350
18
  0
DICTIONARY
  5
19
330
C
100
AcDbDictionary
  0
ENDSEC
  0
EOF
