  0
SECTION
  2
HEADER
  9
$ACADVER
  1
AC1014
  9
$HANDSEED
  5
FFFF
  9
$MEASUREMENT
 70
     1
  0
ENDSEC
  0
SECTION
  2
TABLES
  0
TABLE
  2
VPORT
  5
8
330
0
100
AcDbSymbolTable
 70
     4
  0
VPORT
  5
2E
330
8
100
AcDbSymbolTableRecord
100
AcDbViewportTableRecord
  2
*ACTIVE
 70
     0
 10
0.0
 20
0.0
 11
1.0
 21
1.0
 12
210.0
 22
148.5
 13
0.0
 23
0.0
 14
10.0
 24
10.0
 15
10.0
 25
10.0
 16
0.0
 26
0.0
 36
1.0
 17
0.0
 27
0.0
 37
0.0
 40
341.0
 41
1.24
 42
50.0
 43
0.0
 44
0.0
 50
0.0
 51
0.0
 71
     0
 72
   100
 73
     1
 74
     3
 75
     0
 76
     0
 77
     0
 78
     0
  0
ENDTAB
  0
TABLE
  2
LTYPE
  5
5
330
0
100
AcDbSymbolTable
 70
     1
  0
LTYPE
  5
14
330
5
100
AcDbSymbolTableRecord
100
AcDbLinetypeTableRecord
  2
BYBLOCK
 70
     0
  3

 72
    65
 73
     0
 40
0.0
  0
LTYPE
  5
15
330
5
100
AcDbSymbolTableRecord
100
AcDbLinetypeTableRecord
  2
BYLAYER
 70
     0
  3

 72
    65
 73
     0
 40
0.0
  0
LTYPE
  5
16
330
5
100
AcDbSymbolTableRecord
100
AcDbLinetypeTableRecord
  2
CONTINUOUS
 70
     0
  3
Solid line
 72
    65
 73
     0
 40
0.0
  0
ENDTAB
  0
TABLE
  2
LAYER
  5
2
100
AcDbSymbolTable
 70
1
  0
LAYER
  5
50
100
AcDbSymbolTableRecord
100
AcDbLayerTableRecord
  2
0
 70
0
  6
CONTINUOUS
  0
ENDTAB
  0
TABLE
  2
STYLE
  5
3
330
0
100
AcDbSymbolTable
 70
     1
  0
STYLE
  5
11
330
3
100
AcDbSymbolTableRecord
100
AcDbTextStyleTableRecord
  2
STANDARD
 70
     0
 40
0.0
 41
1.0
 50
0.0
 71
     0
 42
2.5
  3
txt
  4

  0
ENDTAB
  0
TABLE
  2
VIEW
  5
6
330
0
100
AcDbSymbolTable
 70
     0
  0
ENDTAB
  0
TABLE
  2
UCS
  5
7
330
0
100
AcDbSymbolTable
 70
     0
  0
ENDTAB
  0
TABLE
  2
APPID
  5
9
330
0
100
AcDbSymbolTable
 70
     2
  0
APPID
  5
12
330
9
100
AcDbSymbolTableRecord
100
AcDbRegAppTableRecord
  2
ACAD
 70
     0
  0
ENDTAB
  0
TABLE
  2
DIMSTYLE
  5
A
330
0
100
AcDbSymbolTable
 70
     1
  0
DIMSTYLE
105
27
330
A
100
AcDbSymbolTableRecord
100
AcDbDimStyleTableRecord
  2
ISO-25
 70
     0
  3

  4

  5

  6

  7

 40
1.0
 41
2.5
 42
0.625
 43
3.75
 44
1.25
 45
0.0
 46
0.0
 47
0.0
 48
0.0
140
2.5
141
2.5
142
0.0
143
0.03937007874016
144
1.0
145
0.0
146
1.0
147
0.625
 71
     0
 72
     0
 73
     0
 74
     0
 75
     0
 76
     0
 77
     1
 78
     8
170
     0
171
     3
172
     1
173
     0
174
     0
175
     0
176
     0
177
     0
178
     0
270
     2
271
     2
272
     2
273
     2
274
     3
340
11
275
     0
280
     0
281
     0
282
     0
283
     0
284
     8
285
     0
286
     0
287
     3
288
     0
  0
ENDTAB
  0
TABLE
  2
BLOCK_RECORD
  5
1
330
0
100
AcDbSymbolTable
 70
     1
  0
BLOCK_RECORD
  5
1F
330
1
100
AcDbSymbolTableRecord
100
AcDbBlockTableRecord
  2
*MODEL_SPACE
  0
BLOCK_RECORD
  5
1B
330
1
100
AcDbSymbolTableRecord
100
AcDbBlockTableRecord
  2
*PAPER_SPACE
  0
ENDTAB
  0
ENDSEC
  0
SECTION
  2
BLOCKS
  0
BLOCK
  5
20
330
1F
100
AcDbEntity
  8
0
100
AcDbBlockBegin
  2
*MODEL_SPACE
 70
     0
 10
0.0
 20
0.0
 30
0.0
  3
*MODEL_SPACE
  1

  0
ENDBLK
  5
21
330
1F
100
AcDbEntity
  8
0
100
AcDbBlockEnd
  0
BLOCK
  5
1C
330
1B
100
AcDbEntity
 67
     1
  8
0
100
AcDbBlockBegin
  2
*PAPER_SPACE
  1

  0
ENDBLK
  5
1D
330
1B
100
AcDbEntity
 67
     1
  8
0
100
AcDbBlockEnd
  0
ENDSEC
  0
SECTION
  2
ENTITIES
  0
LWPOLYLINE
  5
100
100
AcDbEntity
  8
0
 62
7
100
AcDbPolyline
 90
551
 70
0
 10
919.302150
 20
18.548558
 30
0.0
 10
912.354900
 20
19.726290
 30
0.0
 10
905.424975
 20
21.009480
 30
0.0
 10
898.502100
 20
22.327852
 30
0.0
 10
891.583800
 20
23.666520
 30
0.0
 10
884.667675
 20
25.019468
 30
0.0
 10
877.753650
 20
26.383298
 30
0.0
 10
870.841500
 20
27.755940
 30
0.0
 10
863.930925
 20
29.136143
 30
0.0
 10
857.022000
 20
30.522915
 30
0.0
 10
850.114050
 20
31.915732
 30
0.0
 10
843.206625
 20
33.314227
 30
0.0
 10
836.300400
 20
34.717875
 30
0.0
 10
829.396425
 20
36.126210
 30
0.0
 10
822.492450
 20
37.539532
 30
0.0
 10
815.466750
 20
38.980245
 30
0.0
 10
808.439925
 20
40.421175
 30
0.0
 10
801.413850
 20
41.861955
 30
0.0
 10
794.386950
 20
43.302907
 30
0.0
 10
787.360350
 20
44.743807
 30
0.0
 10
780.334275
 20
46.184587
 30
0.0
 10
773.307750
 20
47.625457
 30
0.0
 10
765.877125
 20
47.626957
 30
0.0
 10
758.446800
 20
47.628457
 30
0.0
 10
751.016550
 20
47.629957
 30
0.0
 10
743.585895
 20
47.631457
 30
0.0
 10
736.155825
 20
47.632957
 30
0.0
 10
728.725927
 20
47.634457
 30
0.0
 10
721.295197
 20
47.635957
 30
0.0
 10
713.865067
 20
47.637457
 30
0.0
 10
706.434773
 20
47.638957
 30
0.0
 10
699.004657
 20
47.640457
 30
0.0
 10
691.573980
 20
47.641957
 30
0.0
 10
684.143235
 20
47.643457
 30
0.0
 10
676.712985
 20
47.644957
 30
0.0
 10
669.283057
 20
47.646457
 30
0.0
 10
661.852522
 20
47.647957
 30
0.0
 10
654.421605
 20
47.649457
 30
0.0
 10
646.991168
 20
47.650957
 30
0.0
 10
639.561023
 20
47.652457
 30
0.0
 10
632.130480
 20
47.653957
 30
0.0
 10
624.699848
 20
47.655457
 30
0.0
 10
617.268773
 20
47.656957
 30
0.0
 10
609.838687
 20
47.658457
 30
0.0
 10
602.408378
 20
47.659957
 30
0.0
 10
594.977603
 20
47.661457
 30
0.0
 10
587.547645
 20
47.662957
 30
0.0
 10
580.116720
 20
47.664457
 30
0.0
 10
572.686290
 20
47.665957
 30
0.0
 10
565.255395
 20
47.667457
 30
0.0
 10
557.825460
 20
47.668957
 30
0.0
 10
550.394572
 20
47.670457
 30
0.0
 10
542.964427
 20
47.671957
 30
0.0
 10
535.533742
 20
47.673457
 30
0.0
 10
528.102952
 20
47.674957
 30
0.0
 10
520.672545
 20
47.676457
 30
0.0
 10
513.241567
 20
47.677957
 30
0.0
 10
505.811422
 20
47.679457
 30
0.0
 10
498.380400
 20
47.680957
 30
0.0
 10
490.950382
 20
47.682457
 30
0.0
 10
483.519630
 20
47.683957
 30
0.0
 10
476.088840
 20
47.685457
 30
0.0
 10
468.658755
 20
47.686957
 30
0.0
 10
461.228902
 20
47.688457
 30
0.0
 10
453.798157
 20
47.689957
 30
0.0
 10
446.367472
 20
47.691457
 30
0.0
 10
438.947437
 20
47.692957
 30
0.0
 10
431.527575
 20
47.694457
 30
0.0
 10
424.107052
 20
47.695957
 30
0.0
 10
416.686237
 20
47.698207
 30
0.0
 10
409.265752
 20
47.700457
 30
0.0
 10
401.844915
 20
47.702707
 30
0.0
 10
394.425007
 20
47.704957
 30
0.0
 10
387.004492
 20
47.707957
 30
0.0
 10
379.583842
 20
47.710957
 30
0.0
 10
372.163920
 20
47.713957
 30
0.0
 10
364.743052
 20
47.716957
 30
0.0
 10
357.322995
 20
47.720707
 30
0.0
 10
349.903110
 20
47.724457
 30
0.0
 10
342.483330
 20
47.728207
 30
0.0
 10
335.062852
 20
47.732707
 30
0.0
 10
327.642847
 20
47.737207
 30
0.0
 10
320.222535
 20
47.742457
 30
0.0
 10
312.803107
 20
47.747707
 30
0.0
 10
305.382870
 20
47.752957
 30
0.0
 10
297.963412
 20
47.758957
 30
0.0
 10
290.543692
 20
47.764957
 30
0.0
 10
283.123732
 20
47.771707
 30
0.0
 10
275.703555
 20
47.778457
 30
0.0
 10
268.283272
 20
47.785957
 30
0.0
 10
260.863252
 20
47.793907
 30
0.0
 10
253.443255
 20
47.802307
 30
0.0
 10
246.022717
 20
47.811232
 30
0.0
 10
238.602765
 20
47.820757
 30
0.0
 10
231.182767
 20
47.830807
 30
0.0
 10
223.762507
 20
47.841532
 30
0.0
 10
216.342435
 20
47.852932
 30
0.0
 10
208.922377
 20
47.865082
 30
0.0
 10
201.502027
 20
47.877982
 30
0.0
 10
194.081482
 20
47.891707
 30
0.0
 10
186.661680
 20
47.906407
 30
0.0
 10
179.241097
 20
47.922082
 30
0.0
 10
171.820672
 20
47.938807
 30
0.0
 10
164.400742
 20
47.956732
 30
0.0
 10
156.981270
 20
47.976007
 30
0.0
 10
149.561265
 20
47.996707
 30
0.0
 10
142.141740
 20
48.018982
 30
0.0
 10
134.721105
 20
48.043057
 30
0.0
 10
127.300350
 20
48.069157
 30
0.0
 10
119.879685
 20
48.097582
 30
0.0
 10
112.459207
 20
48.128632
 30
0.0
 10
105.038767
 20
48.162757
 30
0.0
 10
97.618530
 20
48.200482
 30
0.0
 10
90.198510
 20
48.242407
 30
0.0
 10
82.778872
 20
48.289507
 30
0.0
 10
75.358972
 20
48.343057
 30
0.0
 10
67.939646
 20
48.404932
 30
0.0
 10
60.520260
 20
48.477907
 30
0.0
 10
53.100745
 20
48.566850
 30
0.0
 10
45.681739
 20
48.681292
 30
0.0
 10
38.263750
 20
48.846097
 30
0.0
 10
30.871381
 20
49.306290
 30
0.0
 10
33.198041
 20
53.908335
 30
0.0
 10
35.999658
 20
58.288140
 30
0.0
 10
40.057184
 20
64.321657
 30
0.0
 10
44.144053
 20
70.334940
 30
0.0
 10
48.249964
 20
76.335607
 30
0.0
 10
52.369878
 20
82.327612
 30
0.0
 10
56.499629
 20
88.311480
 30
0.0
 10
60.637703
 20
94.289227
 30
0.0
 10
64.783282
 20
100.262520
 30
0.0
 10
68.935087
 20
106.231552
 30
0.0
 10
73.092700
 20
112.197217
 30
0.0
 10
77.254597
 20
118.158442
 30
0.0
 10
81.421267
 20
124.116765
 30
0.0
 10
85.592347
 20
130.072312
 30
0.0
 10
89.767582
 20
136.025182
 30
0.0
 10
93.946845
 20
141.975532
 30
0.0
 10
98.129370
 20
147.922507
 30
0.0
 10
102.316005
 20
153.867420
 30
0.0
 10
106.506487
 20
159.809940
 30
0.0
 10
110.700555
 20
165.749610
 30
0.0
 10
114.898312
 20
171.686407
 30
0.0
 10
119.100030
 20
177.620437
 30
0.0
 10
123.305752
 20
183.551355
 30
0.0
 10
127.516522
 20
189.480030
 30
0.0
 10
131.731545
 20
195.404595
 30
0.0
 10
135.951750
 20
201.325297
 30
0.0
 10
140.178000
 20
207.241927
 30
0.0
 10
144.411270
 20
213.153885
 30
0.0
 10
148.652677
 20
219.059880
 30
0.0
 10
152.904255
 20
224.958495
 30
0.0
 10
157.169347
 20
230.847427
 30
0.0
 10
161.453655
 20
236.721945
 30
0.0
 10
165.770925
 20
242.572672
 30
0.0
 10
170.170410
 20
248.361315
 30
0.0
 10
174.758355
 20
253.370610
 30
0.0
 10
179.972587
 20
257.725147
 30
0.0
 10
185.663842
 20
261.437145
 30
0.0
 10
191.722147
 20
264.516262
 30
0.0
 10
198.063427
 20
266.960085
 30
0.0
 10
204.618465
 20
268.749570
 30
0.0
 10
211.325347
 20
269.846085
 30
0.0
 10
218.111917
 20
270.187410
 30
0.0
 10
224.886615
 20
269.688907
 30
0.0
 10
231.951000
 20
268.442730
 30
0.0
 10
238.844850
 20
266.469052
 30
0.0
 10
245.513497
 20
263.824942
 30
0.0
 10
252.038025
 20
260.836905
 30
0.0
 10
258.493282
 20
257.704687
 30
0.0
 10
264.244215
 20
254.914635
 30
0.0
 10
270.025312
 20
252.189630
 30
0.0
 10
275.841742
 20
249.539445
 30
0.0
 10
281.731875
 20
247.057312
 30
0.0
 10
288.177135
 20
244.682040
 30
0.0
 10
295.559835
 20
244.679040
 30
0.0
 10
302.942782
 20
244.676040
 30
0.0
 10
310.326210
 20
244.673040
 30
0.0
 10
317.709405
 20
244.670040
 30
0.0
 10
325.091797
 20
244.667040
 30
0.0
 10
332.474572
 20
244.664040
 30
0.0
 10
339.858075
 20
244.661040
 30
0.0
 10
347.240790
 20
244.658040
 30
0.0
 10
354.623685
 20
244.655040
 30
0.0
 10
362.007195
 20
244.652040
 30
0.0
 10
369.389355
 20
244.649040
 30
0.0
 10
376.771650
 20
244.646040
 30
0.0
 10
384.154897
 20
244.643040
 30
0.0
 10
391.537582
 20
244.640040
 30
0.0
 10
398.920500
 20
244.637040
 30
0.0
 10
406.303552
 20
244.634040
 30
0.0
 10
413.685630
 20
244.631040
 30
0.0
 10
421.068165
 20
244.628040
 30
0.0
 10
428.451082
 20
244.625040
 30
0.0
 10
435.833737
 20
244.622040
 30
0.0
 10
443.216767
 20
244.619040
 30
0.0
 10
450.599670
 20
244.616040
 30
0.0
 10
457.982580
 20
244.613040
 30
0.0
 10
465.365347
 20
244.610040
 30
0.0
 10
472.747432
 20
244.607040
 30
0.0
 10
480.130357
 20
244.604040
 30
0.0
 10
487.513005
 20
244.601040
 30
0.0
 10
494.896057
 20
244.598040
 30
0.0
 10
502.278540
 20
244.595040
 30
0.0
 10
509.661315
 20
244.592040
 30
0.0
 10
517.043955
 20
244.589040
 30
0.0
 10
524.427135
 20
244.586040
 30
0.0
 10
531.791347
 20
244.583040
 30
0.0
 10
539.155455
 20
244.580040
 30
0.0
 10
546.520290
 20
244.577790
 30
0.0
 10
553.885035
 20
244.575540
 30
0.0
 10
561.249435
 20
244.573290
 30
0.0
 10
568.614465
 20
244.571040
 30
0.0
 10
575.979870
 20
244.568790
 30
0.0
 10
583.344052
 20
244.567290
 30
0.0
 10
590.709465
 20
244.565790
 30
0.0
 10
598.074345
 20
244.564290
 30
0.0
 10
605.439765
 20
244.563540
 30
0.0
 10
612.805237
 20
244.562887
 30
0.0
 10
620.169855
 20
244.562647
 30
0.0
 10
627.535147
 20
244.562895
 30
0.0
 10
634.899367
 20
244.563645
 30
0.0
 10
642.264750
 20
244.565145
 30
0.0
 10
649.630065
 20
244.567395
 30
0.0
 10
656.994150
 20
244.570395
 30
0.0
 10
664.358730
 20
244.574895
 30
0.0
 10
671.723437
 20
244.580145
 30
0.0
 10
679.087732
 20
244.586895
 30
0.0
 10
686.452215
 20
244.595745
 30
0.0
 10
693.817552
 20
244.606920
 30
0.0
 10
701.181667
 20
244.620945
 30
0.0
 10
708.546817
 20
244.638570
 30
0.0
 10
715.910737
 20
244.660920
 30
0.0
 10
723.275452
 20
244.689645
 30
0.0
 10
730.639942
 20
244.727145
 30
0.0
 10
738.004477
 20
244.777695
 30
0.0
 10
745.369402
 20
244.848945
 30
0.0
 10
752.733825
 20
244.958010
 30
0.0
 10
760.095450
 20
245.155672
 30
0.0
 10
767.427150
 20
245.776702
 30
0.0
 10
773.832825
 20
247.198627
 30
0.0
 10
780.136050
 20
249.022987
 30
0.0
 10
786.305025
 20
251.258197
 30
0.0
 10
792.305700
 20
253.911667
 30
0.0
 10
798.099900
 20
256.988707
 30
0.0
 10
803.646825
 20
260.492415
 30
0.0
 10
808.900800
 20
264.421215
 30
0.0
 10
813.814500
 20
268.769070
 30
0.0
 10
818.814825
 20
274.210027
 30
0.0
 10
823.412925
 20
279.999082
 30
0.0
 10
827.854875
 20
285.908677
 30
0.0
 10
832.226175
 20
291.870870
 30
0.0
 10
836.559075
 20
297.860422
 30
0.0
 10
840.869550
 20
303.866865
 30
0.0
 10
845.165475
 20
309.884137
 30
0.0
 10
849.451050
 20
315.908077
 30
0.0
 10
853.729725
 20
321.937192
 30
0.0
 10
858.002925
 20
327.969360
 30
0.0
 10
862.272825
 20
334.004632
 30
0.0
 10
866.539575
 20
340.041442
 30
0.0
 10
870.804825
 20
346.080472
 30
0.0
 10
875.068425
 20
352.120432
 30
0.0
 10
879.388800
 20
358.234792
 30
0.0
 10
883.716375
 20
364.343400
 30
0.0
 10
888.053325
 20
370.446686
 30
0.0
 10
892.400100
 20
376.542331
 30
0.0
 10
896.759100
 20
382.629166
 30
0.0
 10
901.133475
 20
388.705371
 30
0.0
 10
905.527650
 20
394.767122
 30
0.0
 10
909.949425
 20
400.808195
 30
0.0
 10
914.415450
 20
406.817149
 30
0.0
 10
918.971250
 20
412.756940
 30
0.0
 10
921.447075
 20
415.887691
 30
0.0
 10
923.922900
 20
419.018443
 30
0.0
 10
925.822875
 20
417.256940
 30
0.0
 10
930.361425
 20
411.876099
 30
0.0
 10
934.610325
 20
406.257313
 30
0.0
 10
938.778675
 20
400.579355
 30
0.0
 10
942.906225
 20
394.870357
 30
0.0
 10
947.007225
 20
389.143533
 30
0.0
 10
951.090750
 20
383.403376
 30
0.0
 10
955.161150
 20
377.653867
 30
0.0
 10
959.221200
 20
371.897642
 30
0.0
 10
963.273000
 20
366.136303
 30
0.0
 10
967.318350
 20
360.370432
 30
0.0
 10
971.523450
 20
354.372990
 30
0.0
 10
975.731250
 20
348.376935
 30
0.0
 10
979.941300
 20
342.383617
 30
0.0
 10
984.155025
 20
336.392070
 30
0.0
 10
988.372125
 20
330.403762
 30
0.0
 10
992.594325
 20
324.418012
 30
0.0
 10
996.821850
 20
318.436492
 30
0.0
 10
1001.056425
 20
312.459592
 30
0.0
 10
1005.299325
 20
306.489690
 30
0.0
 10
1009.554300
 20
300.527445
 30
0.0
 10
1013.826000
 20
294.576442
 30
0.0
 10
1018.122300
 20
288.644017
 30
0.0
 10
1022.462850
 20
282.744262
 30
0.0
 10
1026.614775
 20
277.463242
 30
0.0
 10
1031.067900
 20
272.433195
 30
0.0
 10
1035.850125
 20
267.715110
 30
0.0
 10
1040.968875
 20
263.365192
 30
0.0
 10
1046.407875
 20
259.421812
 30
0.0
 10
1052.127225
 20
255.897405
 30
0.0
 10
1058.075250
 20
252.775402
 30
0.0
 10
1064.200725
 20
250.016557
 30
0.0
 10
1070.458200
 20
247.571047
 30
0.0
 10
1074.223800
 20
246.194895
 30
0.0
 10
1077.989325
 20
244.818742
 30
0.0
 10
1085.324175
 20
244.827592
 30
0.0
 10
1092.659250
 20
244.836442
 30
0.0
 10
1099.994850
 20
244.845292
 30
0.0
 10
1107.330225
 20
244.854142
 30
0.0
 10
1114.664775
 20
244.862992
 30
0.0
 10
1121.999700
 20
244.871842
 30
0.0
 10
1129.335300
 20
244.880692
 30
0.0
 10
1136.670225
 20
244.889542
 30
0.0
 10
1144.005225
 20
244.898392
 30
0.0
 10
1151.340900
 20
244.907242
 30
0.0
 10
1158.675225
 20
244.916092
 30
0.0
 10
1166.009700
 20
244.924942
 30
0.0
 10
1173.345075
 20
244.933792
 30
0.0
 10
1180.679925
 20
244.942642
 30
0.0
 10
1188.015000
 20
244.951492
 30
0.0
 10
1195.350150
 20
244.960342
 30
0.0
 10
1202.684400
 20
244.969117
 30
0.0
 10
1210.019100
 20
244.977967
 30
0.0
 10
1217.354175
 20
244.986817
 30
0.0
 10
1224.688950
 20
244.995667
 30
0.0
 10
1232.024175
 20
245.004442
 30
0.0
 10
1239.359175
 20
245.013292
 30
0.0
 10
1246.694250
 20
245.022142
 30
0.0
 10
1254.029175
 20
245.030992
 30
0.0
 10
1261.363425
 20
245.039842
 30
0.0
 10
1268.698500
 20
245.048692
 30
0.0
 10
1276.033275
 20
245.057542
 30
0.0
 10
1283.368500
 20
245.066392
 30
0.0
 10
1290.703125
 20
245.075242
 30
0.0
 10
1298.038050
 20
245.084092
 30
0.0
 10
1305.372900
 20
245.092942
 30
0.0
 10
1312.708200
 20
245.101792
 30
0.0
 10
1320.048225
 20
245.110717
 30
0.0
 10
1327.387200
 20
245.119942
 30
0.0
 10
1334.726400
 20
245.129467
 30
0.0
 10
1342.065600
 20
245.139292
 30
0.0
 10
1349.404575
 20
245.149492
 30
0.0
 10
1356.744525
 20
245.160067
 30
0.0
 10
1364.084400
 20
245.171092
 30
0.0
 10
1371.424125
 20
245.182492
 30
0.0
 10
1378.764075
 20
245.194417
 30
0.0
 10
1386.102975
 20
245.206792
 30
0.0
 10
1393.441950
 20
245.219767
 30
0.0
 10
1400.780775
 20
245.233342
 30
0.0
 10
1408.119975
 20
245.247592
 30
0.0
 10
1415.459925
 20
245.262592
 30
0.0
 10
1422.798525
 20
245.278417
 30
0.0
 10
1430.138175
 20
245.295142
 30
0.0
 10
1437.477000
 20
245.312842
 30
0.0
 10
1444.815675
 20
245.331667
 30
0.0
 10
1452.154500
 20
245.351767
 30
0.0
 10
1459.493400
 20
245.373367
 30
0.0
 10
1466.832900
 20
245.396617
 30
0.0
 10
1474.171650
 20
245.421742
 30
0.0
 10
1481.511225
 20
245.449117
 30
0.0
 10
1488.850200
 20
245.479117
 30
0.0
 10
1496.190150
 20
245.512267
 30
0.0
 10
1503.529050
 20
245.549242
 30
0.0
 10
1510.868400
 20
245.591092
 30
0.0
 10
1518.207525
 20
245.639242
 30
0.0
 10
1525.547025
 20
245.695867
 30
0.0
 10
1532.886975
 20
245.764717
 30
0.0
 10
1540.225950
 20
245.853210
 30
0.0
 10
1547.564025
 20
245.980275
 30
0.0
 10
1554.896850
 20
246.275212
 30
0.0
 10
1562.007900
 20
247.218195
 30
0.0
 10
1569.027075
 20
248.679952
 30
0.0
 10
1575.787725
 20
251.068567
 30
0.0
 10
1582.317375
 20
254.038627
 30
0.0
 10
1588.759425
 20
257.196660
 30
0.0
 10
1594.996500
 20
260.250585
 30
0.0
 10
1601.287575
 20
263.191762
 30
0.0
 10
1607.678775
 20
265.906155
 30
0.0
 10
1614.246300
 20
268.154407
 30
0.0
 10
1621.034775
 20
269.598082
 30
0.0
 10
1627.437450
 20
270.192270
 30
0.0
 10
1633.867725
 20
270.132570
 30
0.0
 10
1640.258400
 20
269.420977
 30
0.0
 10
1646.543550
 20
268.064385
 30
0.0
 10
1652.658225
 20
266.073735
 30
0.0
 10
1658.535225
 20
263.465362
 30
0.0
 10
1664.108700
 20
260.261107
 30
0.0
 10
1669.254375
 20
256.637850
 30
0.0
 10
1673.923425
 20
252.423517
 30
0.0
 10
1678.098450
 20
247.713555
 30
0.0
 10
1682.001675
 20
242.775480
 30
0.0
 10
1685.787525
 20
237.746205
 30
0.0
 10
1690.170150
 20
231.800542
 30
0.0
 10
1694.520975
 20
225.833265
 30
0.0
 10
1698.853125
 20
219.850950
 30
0.0
 10
1703.171175
 20
213.858787
 30
0.0
 10
1707.478125
 20
207.859620
 30
0.0
 10
1711.776675
 20
201.853695
 30
0.0
 10
1716.068025
 20
195.842407
 30
0.0
 10
1720.352625
 20
189.826957
 30
0.0
 10
1724.632125
 20
183.806662
 30
0.0
 10
1728.906000
 20
177.783150
 30
0.0
 10
1733.175075
 20
171.756165
 30
0.0
 10
1737.439800
 20
165.725587
 30
0.0
 10
1741.700025
 20
159.692085
 30
0.0
 10
1745.955675
 20
153.656025
 30
0.0
 10
1750.207125
 20
147.616942
 30
0.0
 10
1754.454600
 20
141.574492
 30
0.0
 10
1758.697800
 20
135.529192
 30
0.0
 10
1762.936725
 20
129.480517
 30
0.0
 10
1767.171150
 20
123.428602
 30
0.0
 10
1771.400100
 20
117.374227
 30
0.0
 10
1775.623875
 20
111.316072
 30
0.0
 10
1779.842250
 20
105.253522
 30
0.0
 10
1784.053950
 20
99.187072
 30
0.0
 10
1788.258675
 20
93.114930
 30
0.0
 10
1792.454850
 20
87.036787
 30
0.0
 10
1796.640300
 20
80.951520
 30
0.0
 10
1800.812250
 20
74.856712
 30
0.0
 10
1804.965075
 20
68.749417
 30
0.0
 10
1809.089100
 20
62.621175
 30
0.0
 10
1812.011175
 20
58.246177
 30
0.0
 10
1814.933250
 20
53.871202
 30
0.0
 10
1817.855400
 20
49.496175
 30
0.0
 10
1812.766275
 20
48.901800
 30
0.0
 10
1805.345700
 20
48.783930
 30
0.0
 10
1797.924750
 20
48.728355
 30
0.0
 10
1790.503725
 20
48.684480
 30
0.0
 10
1783.081500
 20
48.646755
 30
0.0
 10
1775.660250
 20
48.613005
 30
0.0
 10
1768.239075
 20
48.582105
 30
0.0
 10
1760.816700
 20
48.553455
 30
0.0
 10
1753.395075
 20
48.526605
 30
0.0
 10
1745.973375
 20
48.501180
 30
0.0
 10
1738.551225
 20
48.477030
 30
0.0
 10
1731.129450
 20
48.453930
 30
0.0
 10
1723.707000
 20
48.431805
 30
0.0
 10
1716.284775
 20
48.410580
 30
0.0
 10
1708.863600
 20
48.390105
 30
0.0
 10
1701.442125
 20
48.370305
 30
0.0
 10
1694.020875
 20
48.351180
 30
0.0
 10
1686.599325
 20
48.332655
 30
0.0
 10
1679.177475
 20
48.314655
 30
0.0
 10
1671.755850
 20
48.297255
 30
0.0
 10
1664.334600
 20
48.280305
 30
0.0
 10
1656.912075
 20
48.263805
 30
0.0
 10
1649.490300
 20
48.247755
 30
0.0
 10
1642.068225
 20
48.232155
 30
0.0
 10
1634.645775
 20
48.216930
 30
0.0
 10
1627.223400
 20
48.202080
 30
0.0
 10
1619.801775
 20
48.187605
 30
0.0
 10
1612.380075
 20
48.173505
 30
0.0
 10
1604.958750
 20
48.159705
 30
0.0
 10
1597.537425
 20
48.146280
 30
0.0
 10
1590.115875
 20
48.133155
 30
0.0
 10
1582.693500
 20
48.120330
 30
0.0
 10
1575.272100
 20
48.107805
 30
0.0
 10
1567.850775
 20
48.095580
 30
0.0
 10
1560.429225
 20
48.083655
 30
0.0
 10
1553.007675
 20
48.072030
 30
0.0
 10
1545.585150
 20
48.060705
 30
0.0
 10
1538.163750
 20
48.049605
 30
0.0
 10
1530.742125
 20
48.038805
 30
0.0
 10
1523.320500
 20
48.028305
 30
0.0
 10
1515.898200
 20
48.018030
 30
0.0
 10
1508.475750
 20
48.008055
 30
0.0
 10
1501.053600
 20
47.998305
 30
0.0
 10
1493.631525
 20
47.988780
 30
0.0
 10
1486.210125
 20
47.979555
 30
0.0
 10
1478.787975
 20
47.970555
 30
0.0
 10
1471.366050
 20
47.961780
 30
0.0
 10
1463.944200
 20
47.953305
 30
0.0
 10
1456.522350
 20
47.945055
 30
0.0
 10
1449.099900
 20
47.937030
 30
0.0
 10
1441.677150
 20
47.929230
 30
0.0
 10
1434.208125
 20
47.921505
 30
0.0
 10
1426.738950
 20
47.913780
 30
0.0
 10
1419.270150
 20
47.906055
 30
0.0
 10
1411.801050
 20
47.898330
 30
0.0
 10
1404.331725
 20
47.890605
 30
0.0
 10
1396.861800
 20
47.882880
 30
0.0
 10
1389.392550
 20
47.875155
 30
0.0
 10
1381.922925
 20
47.867430
 30
0.0
 10
1374.454200
 20
47.859705
 30
0.0
 10
1366.984650
 20
47.851980
 30
0.0
 10
1359.515250
 20
47.844255
 30
0.0
 10
1352.046000
 20
47.836530
 30
0.0
 10
1344.576900
 20
47.828805
 30
0.0
 10
1337.108175
 20
47.821080
 30
0.0
 10
1329.638700
 20
47.813355
 30
0.0
 10
1322.169675
 20
47.805630
 30
0.0
 10
1314.699750
 20
47.797905
 30
0.0
 10
1307.230950
 20
47.790180
 30
0.0
 10
1299.761100
 20
47.782455
 30
0.0
 10
1292.292075
 20
47.774730
 30
0.0
 10
1284.822225
 20
47.767005
 30
0.0
 10
1277.352225
 20
47.759280
 30
0.0
 10
1269.883350
 20
47.751555
 30
0.0
 10
1262.413650
 20
47.743830
 30
0.0
 10
1254.944100
 20
47.736105
 30
0.0
 10
1247.474025
 20
47.728380
 30
0.0
 10
1240.004100
 20
47.720655
 30
0.0
 10
1232.534475
 20
47.712930
 30
0.0
 10
1225.065450
 20
47.705205
 30
0.0
 10
1217.596275
 20
47.697480
 30
0.0
 10
1210.126800
 20
47.689755
 30
0.0
 10
1202.657700
 20
47.682030
 30
0.0
 10
1195.188075
 20
47.674305
 30
0.0
 10
1187.718825
 20
47.666580
 30
0.0
 10
1180.248900
 20
47.658855
 30
0.0
 10
1172.779650
 20
47.651130
 30
0.0
 10
1165.310550
 20
47.643405
 30
0.0
 10
1157.841600
 20
47.635680
 30
0.0
 10
1150.371825
 20
47.627955
 30
0.0
 10
1142.902125
 20
47.620230
 30
0.0
 10
1135.432650
 20
47.612505
 30
0.0
 10
1127.963925
 20
47.604780
 30
0.0
 10
1120.494975
 20
47.597055
 30
0.0
 10
1113.025350
 20
47.589330
 30
0.0
 10
1105.556325
 20
47.581605
 30
0.0
 10
1098.087225
 20
47.573880
 30
0.0
 10
1090.616550
 20
47.566155
 30
0.0
 10
1083.147150
 20
47.558430
 30
0.0
 10
1075.677150
 20
47.550705
 30
0.0
 10
1068.874200
 20
46.170472
 30
0.0
 10
1062.070275
 20
44.790030
 30
0.0
 10
1055.267025
 20
43.409722
 30
0.0
 10
1048.462950
 20
42.029257
 30
0.0
 10
1041.659100
 20
40.648845
 30
0.0
 10
1034.855850
 20
39.268537
 30
0.0
 10
1028.052150
 20
37.888155
 30
0.0
 10
1020.779100
 20
36.413055
 30
0.0
 10
1013.506275
 20
34.939282
 30
0.0
 10
1006.232775
 20
33.467175
 30
0.0
 10
998.958600
 20
31.997482
 30
0.0
 10
991.684350
 20
30.531442
 30
0.0
 10
984.409125
 20
29.070577
 30
0.0
 10
977.131950
 20
27.617347
 30
0.0
 10
969.852600
 20
26.176087
 30
0.0
 10
962.569650
 20
24.753780
 30
0.0
 10
955.280325
 20
23.361367
 30
0.0
 10
947.983125
 20
22.012965
 30
0.0
 10
940.677150
 20
20.714655
 30
0.0
 10
933.583950
 20
19.484775
 30
0.0
 10
926.469975
 20
18.383835
 30
0.0
 10
919.302150
 20
18.543705
 30
0.0
 10
919.302150
 20
18.543705
 30
0.0
  0
LWPOLYLINE
  5
101
100
AcDbEntity
  8
0
 62
7
100
AcDbPolyline
 90
571
 70
0
 10
773.751675
 20
52.568408
 30
0.0
 10
778.388175
 20
56.607668
 30
0.0
 10
782.092800
 20
61.646730
 30
0.0
 10
785.677500
 20
66.770933
 30
0.0
 10
789.872700
 20
72.812392
 30
0.0
 10
794.072550
 20
78.851648
 30
0.0
 10
798.275475
 20
84.888615
 30
0.0
 10
802.480050
 20
90.922815
 30
0.0
 10
806.687175
 20
96.956625
 30
0.0
 10
810.895500
 20
102.988575
 30
0.0
 10
815.105700
 20
109.020157
 30
0.0
 10
819.316800
 20
115.050345
 30
0.0
 10
823.529250
 20
121.079985
 30
0.0
 10
827.742600
 20
127.108620
 30
0.0
 10
831.957300
 20
133.137270
 30
0.0
 10
836.172525
 20
139.164615
 30
0.0
 10
840.388650
 20
145.191262
 30
0.0
 10
844.605525
 20
151.217302
 30
0.0
 10
848.823825
 20
157.243552
 30
0.0
 10
853.042875
 20
163.269060
 30
0.0
 10
857.262150
 20
169.293030
 30
0.0
 10
861.482550
 20
175.316843
 30
0.0
 10
865.703850
 20
181.340092
 30
0.0
 10
869.926200
 20
187.362900
 30
0.0
 10
874.149225
 20
193.384537
 30
0.0
 10
878.373450
 20
199.405590
 30
0.0
 10
882.598950
 20
205.425975
 30
0.0
 10
886.826025
 20
211.445767
 30
0.0
 10
891.054900
 20
217.464855
 30
0.0
 10
895.285125
 20
223.481887
 30
0.0
 10
899.518125
 20
229.497840
 30
0.0
 10
903.754125
 20
235.511422
 30
0.0
 10
907.994550
 20
241.521045
 30
0.0
 10
912.243450
 20
247.523970
 30
0.0
 10
916.531650
 20
253.500487
 30
0.0
 10
920.086275
 20
257.835000
 30
0.0
 10
924.339975
 20
261.375487
 30
0.0
 10
929.287725
 20
255.850530
 30
0.0
 10
933.747525
 20
249.851775
 30
0.0
 10
938.131950
 20
243.797745
 30
0.0
 10
942.483150
 20
237.718867
 30
0.0
 10
946.814625
 20
231.627308
 30
0.0
 10
951.134025
 20
225.527010
 30
0.0
 10
955.445325
 20
219.420412
 30
0.0
 10
959.750850
 20
213.309262
 30
0.0
 10
964.051500
 20
207.195577
 30
0.0
 10
968.348625
 20
201.079485
 30
0.0
 10
972.643200
 20
194.961390
 30
0.0
 10
976.936050
 20
188.841180
 30
0.0
 10
981.227100
 20
182.719950
 30
0.0
 10
985.516200
 20
176.598465
 30
0.0
 10
989.804175
 20
170.476252
 30
0.0
 10
994.091700
 20
164.352540
 30
0.0
 10
998.378250
 20
158.228678
 30
0.0
 10
1002.664050
 20
152.104500
 30
0.0
 10
1006.949175
 20
145.980157
 30
0.0
 10
1011.085650
 20
140.067802
 30
0.0
 10
1015.222350
 20
134.155050
 30
0.0
 10
1019.359350
 20
128.241960
 30
0.0
 10
1023.496050
 20
122.329252
 30
0.0
 10
1027.632750
 20
116.416605
 30
0.0
 10
1031.769300
 20
110.504122
 30
0.0
 10
1035.906150
 20
104.591227
 30
0.0
 10
1040.042850
 20
98.678482
 30
0.0
 10
1044.179625
 20
92.765692
 30
0.0
 10
1048.316625
 20
86.852565
 30
0.0
 10
1052.453775
 20
80.939220
 30
0.0
 10
1056.590700
 20
75.026190
 30
0.0
 10
1060.727250
 20
69.113767
 30
0.0
 10
1064.863950
 20
63.201060
 30
0.0
 10
1069.000500
 20
57.288555
 30
0.0
 10
1073.137500
 20
51.375457
 30
0.0
 10
1080.516675
 20
51.375457
 30
0.0
 10
1087.896075
 20
51.375457
 30
0.0
 10
1095.275625
 20
51.375457
 30
0.0
 10
1102.655250
 20
51.375457
 30
0.0
 10
1110.034200
 20
51.375457
 30
0.0
 10
1117.412625
 20
51.375457
 30
0.0
 10
1124.791950
 20
51.375457
 30
0.0
 10
1132.170825
 20
51.375457
 30
0.0
 10
1139.549925
 20
51.375457
 30
0.0
 10
1146.929400
 20
51.375457
 30
0.0
 10
1154.308875
 20
51.375457
 30
0.0
 10
1161.687825
 20
51.375457
 30
0.0
 10
1169.066850
 20
51.375457
 30
0.0
 10
1176.446550
 20
51.375457
 30
0.0
 10
1183.826175
 20
51.375457
 30
0.0
 10
1191.205275
 20
51.375457
 30
0.0
 10
1198.584750
 20
51.375457
 30
0.0
 10
1205.963550
 20
51.375457
 30
0.0
 10
1213.342425
 20
51.375457
 30
0.0
 10
1220.721825
 20
51.375457
 30
0.0
 10
1228.100850
 20
51.375457
 30
0.0
 10
1235.479200
 20
51.375457
 30
0.0
 10
1242.858300
 20
51.375457
 30
0.0
 10
1250.237175
 20
51.375457
 30
0.0
 10
1257.615750
 20
51.375457
 30
0.0
 10
1264.994700
 20
51.375457
 30
0.0
 10
1272.373875
 20
51.375457
 30
0.0
 10
1279.752750
 20
51.375457
 30
0.0
 10
1287.132450
 20
51.375457
 30
0.0
 10
1294.511775
 20
51.375457
 30
0.0
 10
1301.890725
 20
51.375457
 30
0.0
 10
1309.269600
 20
51.375457
 30
0.0
 10
1316.648700
 20
51.375457
 30
0.0
 10
1324.028175
 20
51.375457
 30
0.0
 10
1331.408025
 20
51.375457
 30
0.0
 10
1338.787725
 20
51.375457
 30
0.0
 10
1346.167500
 20
51.375457
 30
0.0
 10
1353.546525
 20
51.375457
 30
0.0
 10
1360.925025
 20
51.375457
 30
0.0
 10
1368.303975
 20
51.375457
 30
0.0
 10
1375.683675
 20
51.375457
 30
0.0
 10
1383.062925
 20
51.375457
 30
0.0
 10
1390.442025
 20
51.375457
 30
0.0
 10
1397.821125
 20
51.375457
 30
0.0
 10
1405.200750
 20
51.375457
 30
0.0
 10
1412.579475
 20
51.375457
 30
0.0
 10
1419.958200
 20
51.375457
 30
0.0
 10
1427.337075
 20
51.375457
 30
0.0
 10
1434.715350
 20
51.375457
 30
0.0
 10
1442.094825
 20
51.375457
 30
0.0
 10
1449.473625
 20
51.375525
 30
0.0
 10
1456.853325
 20
51.375727
 30
0.0
 10
1464.232800
 20
51.376072
 30
0.0
 10
1471.612200
 20
51.376552
 30
0.0
 10
1478.990925
 20
51.377167
 30
0.0
 10
1486.370475
 20
51.377917
 30
0.0
 10
1493.749575
 20
51.378667
 30
0.0
 10
1501.128675
 20
51.379417
 30
0.0
 10
1508.507775
 20
51.380917
 30
0.0
 10
1515.886350
 20
51.382417
 30
0.0
 10
1523.265300
 20
51.383917
 30
0.0
 10
1530.644025
 20
51.385417
 30
0.0
 10
1538.024025
 20
51.386917
 30
0.0
 10
1545.403200
 20
51.389167
 30
0.0
 10
1552.782525
 20
51.391417
 30
0.0
 10
1560.162150
 20
51.393667
 30
0.0
 10
1567.541250
 20
51.395917
 30
0.0
 10
1574.919675
 20
51.398167
 30
0.0
 10
1582.299600
 20
51.401167
 30
0.0
 10
1589.678550
 20
51.404167
 30
0.0
 10
1597.057725
 20
51.407167
 30
0.0
 10
1604.436600
 20
51.410167
 30
0.0
 10
1611.816075
 20
51.413917
 30
0.0
 10
1619.195325
 20
51.417667
 30
0.0
 10
1626.574125
 20
51.421417
 30
0.0
 10
1633.953975
 20
51.425167
 30
0.0
 10
1641.332700
 20
51.429667
 30
0.0
 10
1648.712475
 20
51.434167
 30
0.0
 10
1656.092325
 20
51.438667
 30
0.0
 10
1663.471950
 20
51.443917
 30
0.0
 10
1670.851200
 20
51.449167
 30
0.0
 10
1678.230225
 20
51.454417
 30
0.0
 10
1685.609250
 20
51.460417
 30
0.0
 10
1692.989025
 20
51.466417
 30
0.0
 10
1700.367675
 20
51.473167
 30
0.0
 10
1707.746175
 20
51.479917
 30
0.0
 10
1715.124825
 20
51.487417
 30
0.0
 10
1722.504000
 20
51.495217
 30
0.0
 10
1729.883625
 20
51.503467
 30
0.0
 10
1737.262725
 20
51.512317
 30
0.0
 10
1744.641825
 20
51.521767
 30
0.0
 10
1752.021450
 20
51.531967
 30
0.0
 10
1759.400775
 20
51.542992
 30
0.0
 10
1766.780025
 20
51.555067
 30
0.0
 10
1774.159125
 20
51.568417
 30
0.0
 10
1781.537925
 20
51.583417
 30
0.0
 10
1788.916500
 20
51.600742
 30
0.0
 10
1796.295300
 20
51.621592
 30
0.0
 10
1803.674400
 20
51.649192
 30
0.0
 10
1811.052150
 20
51.717292
 30
0.0
 10
1806.834225
 20
57.894577
 30
0.0
 10
1802.567175
 20
64.038877
 30
0.0
 10
1798.291800
 20
70.176870
 30
0.0
 10
1794.011400
 20
76.312410
 30
0.0
 10
1789.727925
 20
82.445797
 30
0.0
 10
1785.442500
 20
88.577017
 30
0.0
 10
1781.154975
 20
94.707172
 30
0.0
 10
1776.866100
 20
100.835970
 30
0.0
 10
1772.576175
 20
106.963282
 30
0.0
 10
1768.284375
 20
113.090415
 30
0.0
 10
1763.991525
 20
119.216565
 30
0.0
 10
1759.697700
 20
125.341590
 30
0.0
 10
1755.402975
 20
131.465460
 30
0.0
 10
1751.106525
 20
137.589142
 30
0.0
 10
1746.808800
 20
143.712240
 30
0.0
 10
1742.510025
 20
149.833980
 30
0.0
 10
1738.209825
 20
155.954835
 30
0.0
 10
1733.908275
 20
162.074257
 30
0.0
 10
1729.604700
 20
168.192870
 30
0.0
 10
1725.298950
 20
174.309937
 30
0.0
 10
1720.990125
 20
180.425745
 30
0.0
 10
1716.678150
 20
186.538485
 30
0.0
 10
1712.361000
 20
192.647415
 30
0.0
 10
1708.034475
 20
198.749767
 30
0.0
 10
1703.899725
 20
204.564007
 30
0.0
 10
1699.761525
 20
210.376492
 30
0.0
 10
1695.617925
 20
216.184365
 30
0.0
 10
1691.463975
 20
221.985435
 30
0.0
 10
1687.291800
 20
227.774377
 30
0.0
 10
1683.087600
 20
233.539650
 30
0.0
 10
1678.820850
 20
239.257717
 30
0.0
 10
1674.412500
 20
244.868302
 30
0.0
 10
1669.628250
 20
250.156687
 30
0.0
 10
1664.052150
 20
254.591925
 30
0.0
 10
1657.808475
 20
258.489645
 30
0.0
 10
1651.175700
 20
261.676725
 30
0.0
 10
1644.164850
 20
263.903415
 30
0.0
 10
1636.904325
 20
265.100347
 30
0.0
 10
1629.552150
 20
265.434877
 30
0.0
 10
1623.257325
 20
265.276620
 30
0.0
 10
1617.066000
 20
264.184425
 30
0.0
 10
1611.137325
 20
262.067872
 30
0.0
 10
1605.359700
 20
259.561927
 30
0.0
 10
1599.635250
 20
256.936267
 30
0.0
 10
1593.927150
 20
254.273977
 30
0.0
 10
1588.041525
 20
251.543985
 30
0.0
 10
1582.125825
 20
248.880120
 30
0.0
 10
1576.147500
 20
246.361837
 30
0.0
 10
1570.044825
 20
244.166167
 30
0.0
 10
1563.756525
 20
242.586150
 30
0.0
 10
1557.333225
 20
241.687237
 30
0.0
 10
1549.875150
 20
241.414155
 30
0.0
 10
1542.412425
 20
241.301797
 30
0.0
 10
1534.948800
 20
241.227772
 30
0.0
 10
1527.485400
 20
241.173322
 30
0.0
 10
1520.021775
 20
241.131172
 30
0.0
 10
1512.558450
 20
241.097497
 30
0.0
 10
1505.095500
 20
241.070122
 30
0.0
 10
1497.631800
 20
241.047622
 30
0.0
 10
1490.168400
 20
241.029022
 30
0.0
 10
1482.705675
 20
241.013572
 30
0.0
 10
1475.241975
 20
241.000747
 30
0.0
 10
1467.779025
 20
240.990172
 30
0.0
 10
1460.315700
 20
240.981547
 30
0.0
 10
1452.851850
 20
240.974797
 30
0.0
 10
1445.388675
 20
240.969547
 30
0.0
 10
1437.925125
 20
240.965047
 30
0.0
 10
1430.460900
 20
240.962047
 30
0.0
 10
1422.996750
 20
240.959797
 30
0.0
 10
1415.532975
 20
240.958297
 30
0.0
 10
1408.070100
 20
240.957975
 30
0.0
 10
1400.606850
 20
240.958402
 30
0.0
 10
1393.143000
 20
240.959152
 30
0.0
 10
1385.679225
 20
240.960652
 30
0.0
 10
1378.215900
 20
240.962902
 30
0.0
 10
1370.752500
 20
240.965902
 30
0.0
 10
1363.288950
 20
240.968902
 30
0.0
 10
1355.825325
 20
240.972652
 30
0.0
 10
1348.362150
 20
240.977152
 30
0.0
 10
1340.899050
 20
240.981652
 30
0.0
 10
1333.435575
 20
240.986902
 30
0.0
 10
1325.971275
 20
240.992152
 30
0.0
 10
1318.508250
 20
240.997402
 30
0.0
 10
1311.044625
 20
241.003402
 30
0.0
 10
1303.610925
 20
241.009402
 30
0.0
 10
1296.176925
 20
241.015402
 30
0.0
 10
1288.742475
 20
241.021402
 30
0.0
 10
1281.308250
 20
241.027402
 30
0.0
 10
1273.874850
 20
241.033402
 30
0.0
 10
1266.441075
 20
241.039402
 30
0.0
 10
1259.006550
 20
241.045402
 30
0.0
 10
1251.572850
 20
241.051402
 30
0.0
 10
1244.138925
 20
241.057402
 30
0.0
 10
1236.705225
 20
241.063402
 30
0.0
 10
1229.272050
 20
241.069402
 30
0.0
 10
1221.838725
 20
241.075402
 30
0.0
 10
1214.404425
 20
241.081402
 30
0.0
 10
1206.970725
 20
241.087402
 30
0.0
 10
1199.536725
 20
241.093402
 30
0.0
 10
1192.102650
 20
241.099402
 30
0.0
 10
1184.669550
 20
241.105402
 30
0.0
 10
1177.235925
 20
241.111402
 30
0.0
 10
1169.802000
 20
241.117402
 30
0.0
 10
1162.368225
 20
241.123402
 30
0.0
 10
1154.934150
 20
241.129402
 30
0.0
 10
1147.500225
 20
241.135402
 30
0.0
 10
1140.066225
 20
241.141402
 30
0.0
 10
1132.632450
 20
241.147402
 30
0.0
 10
1125.199275
 20
241.153402
 30
0.0
 10
1117.765275
 20
241.159402
 30
0.0
 10
1110.331575
 20
241.165402
 30
0.0
 10
1102.897425
 20
241.171402
 30
0.0
 10
1095.463950
 20
241.177402
 30
0.0
 10
1088.030100
 20
241.183402
 30
0.0
 10
1080.596325
 20
241.189402
 30
0.0
 10
1073.162100
 20
241.195402
 30
0.0
 10
1069.060950
 20
242.833350
 30
0.0
 10
1064.959725
 20
244.471297
 30
0.0
 10
1059.098250
 20
246.928800
 30
0.0
 10
1053.339525
 20
249.617107
 30
0.0
 10
1047.720600
 20
252.587610
 30
0.0
 10
1042.292925
 20
255.892972
 30
0.0
 10
1037.116950
 20
259.579575
 30
0.0
 10
1032.255825
 20
263.672145
 30
0.0
 10
1027.406550
 20
268.892632
 30
0.0
 10
1022.936025
 20
274.445760
 30
0.0
 10
1018.608225
 20
280.112092
 30
0.0
 10
1014.353175
 20
285.833317
 30
0.0
 10
1010.141325
 20
291.586620
 30
0.0
 10
1005.957900
 20
297.360217
 30
0.0
 10
1001.793825
 20
303.148215
 30
0.0
 10
997.644375
 20
308.945790
 30
0.0
 10
993.505200
 20
314.751495
 30
0.0
 10
989.374275
 20
320.562900
 30
0.0
 10
985.250025
 20
326.378535
 30
0.0
 10
981.130575
 20
332.198272
 30
0.0
 10
977.015250
 20
338.020830
 30
0.0
 10
972.903450
 20
343.845622
 30
0.0
 10
968.794350
 20
349.672275
 30
0.0
 10
964.686975
 20
355.501425
 30
0.0
 10
960.706500
 20
361.150110
 30
0.0
 10
956.723700
 20
366.795932
 30
0.0
 10
952.736175
 20
372.439408
 30
0.0
 10
948.742125
 20
378.078720
 30
0.0
 10
944.738775
 20
383.711166
 30
0.0
 10
940.720950
 20
389.332282
 30
0.0
 10
936.677475
 20
394.935832
 30
0.0
 10
932.585925
 20
400.503779
 30
0.0
 10
928.376025
 20
405.983127
 30
0.0
 10
923.415750
 20
410.626423
 30
0.0
 10
919.162575
 20
405.357979
 30
0.0
 10
915.129225
 20
399.900466
 30
0.0
 10
911.144400
 20
394.406899
 30
0.0
 10
907.190250
 20
388.892290
 30
0.0
 10
903.259500
 20
383.360660
 30
0.0
 10
899.349000
 20
377.813923
 30
0.0
 10
895.074825
 20
371.729151
 30
0.0
 10
890.799825
 20
365.644822
 30
0.0
 10
886.523775
 20
359.560882
 30
0.0
 10
882.246375
 20
353.477370
 30
0.0
 10
877.968525
 20
347.395807
 30
0.0
 10
873.688950
 20
341.315280
 30
0.0
 10
869.407275
 20
335.235825
 30
0.0
 10
865.122600
 20
329.157277
 30
0.0
 10
860.834925
 20
323.080927
 30
0.0
 10
856.543950
 20
317.008275
 30
0.0
 10
852.248025
 20
310.939372
 30
0.0
 10
847.945125
 20
304.875187
 30
0.0
 10
843.632400
 20
298.817302
 30
0.0
 10
839.305800
 20
292.769355
 30
0.0
 10
834.957225
 20
286.736542
 30
0.0
 10
830.571300
 20
280.730790
 30
0.0
 10
826.108875
 20
274.783605
 30
0.0
 10
821.414475
 20
269.018407
 30
0.0
 10
816.156300
 20
263.853555
 30
0.0
 10
810.411000
 20
259.234657
 30
0.0
 10
804.328875
 20
255.067597
 30
0.0
 10
797.992350
 20
251.296987
 30
0.0
 10
791.452650
 20
247.892842
 30
0.0
 10
784.740600
 20
244.840485
 30
0.0
 10
780.317325
 20
242.965965
 30
0.0
 10
775.893975
 20
241.091437
 30
0.0
 10
768.470250
 20
241.099237
 30
0.0
 10
761.046000
 20
241.107037
 30
0.0
 10
753.622950
 20
241.114837
 30
0.0
 10
746.198498
 20
241.122637
 30
0.0
 10
738.775028
 20
241.130437
 30
0.0
 10
731.351918
 20
241.138237
 30
0.0
 10
723.927728
 20
241.146037
 30
0.0
 10
716.504085
 20
241.153837
 30
0.0
 10
709.080983
 20
241.161637
 30
0.0
 10
701.657153
 20
241.169437
 30
0.0
 10
694.233555
 20
241.177237
 30
0.0
 10
686.809793
 20
241.185037
 30
0.0
 10
679.386405
 20
241.192837
 30
0.0
 10
671.963220
 20
241.200637
 30
0.0
 10
664.539293
 20
241.208437
 30
0.0
 10
657.115103
 20
241.216237
 30
0.0
 10
649.690845
 20
241.224037
 30
0.0
 10
642.266595
 20
241.231837
 30
0.0
 10
634.842855
 20
241.239637
 30
0.0
 10
627.418928
 20
241.247437
 30
0.0
 10
619.994940
 20
241.255237
 30
0.0
 10
612.571020
 20
241.263037
 30
0.0
 10
605.147250
 20
241.270837
 30
0.0
 10
597.724170
 20
241.278637
 30
0.0
 10
590.299838
 20
241.286437
 30
0.0
 10
582.875753
 20
241.294237
 30
0.0
 10
575.451780
 20
241.302037
 30
0.0
 10
568.028618
 20
241.309837
 30
0.0
 10
560.604293
 20
241.317637
 30
0.0
 10
553.180890
 20
241.325437
 30
0.0
 10
545.757360
 20
241.333237
 30
0.0
 10
538.333560
 20
241.341037
 30
0.0
 10
530.910585
 20
241.348837
 30
0.0
 10
523.527353
 20
241.356637
 30
0.0
 10
516.144555
 20
241.364512
 30
0.0
 10
508.761540
 20
241.372537
 30
0.0
 10
501.378030
 20
241.380712
 30
0.0
 10
493.995345
 20
241.389037
 30
0.0
 10
486.612165
 20
241.397512
 30
0.0
 10
479.229225
 20
241.406137
 30
0.0
 10
471.846368
 20
241.414987
 30
0.0
 10
464.463945
 20
241.424137
 30
0.0
 10
457.081290
 20
241.433512
 30
0.0
 10
449.698238
 20
241.443262
 30
0.0
 10
442.315545
 20
241.453312
 30
0.0
 10
434.932163
 20
241.463812
 30
0.0
 10
427.549320
 20
241.474762
 30
0.0
 10
420.166665
 20
241.486237
 30
0.0
 10
412.784295
 20
241.498312
 30
0.0
 10
405.401438
 20
241.511137
 30
0.0
 10
398.019390
 20
241.524712
 30
0.0
 10
390.637395
 20
241.539262
 30
0.0
 10
383.254605
 20
241.554937
 30
0.0
 10
375.872333
 20
241.571887
 30
0.0
 10
368.489475
 20
241.590412
 30
0.0
 10
361.107083
 20
241.610812
 30
0.0
 10
353.724540
 20
241.633537
 30
0.0
 10
346.341075
 20
241.659037
 30
0.0
 10
338.958945
 20
241.688062
 30
0.0
 10
331.576298
 20
241.721662
 30
0.0
 10
324.193313
 20
241.761337
 30
0.0
 10
316.810163
 20
241.809262
 30
0.0
 10
309.427335
 20
241.869262
 30
0.0
 10
302.045685
 20
241.948020
 30
0.0
 10
294.663435
 20
242.060070
 30
0.0
 10
287.283180
 20
242.247000
 30
0.0
 10
279.927135
 20
242.803267
 30
0.0
 10
273.398385
 20
244.345395
 30
0.0
 10
267.154770
 20
246.780457
 30
0.0
 10
261.296678
 20
250.052302
 30
0.0
 10
255.160958
 20
253.560862
 30
0.0
 10
248.892773
 20
256.828312
 30
0.0
 10
242.514420
 20
259.873905
 30
0.0
 10
236.013180
 20
262.647060
 30
0.0
 10
229.302135
 20
264.843480
 30
0.0
 10
223.026863
 20
265.578810
 30
0.0
 10
216.704085
 20
265.647135
 30
0.0
 10
210.395603
 20
265.224652
 30
0.0
 10
204.177135
 20
264.115845
 30
0.0
 10
197.912970
 20
262.080667
 30
0.0
 10
191.889255
 20
259.418655
 30
0.0
 10
186.260865
 20
256.003605
 30
0.0
 10
181.128383
 20
251.878695
 30
0.0
 10
176.470050
 20
247.220902
 30
0.0
 10
172.183725
 20
242.217517
 30
0.0
 10
168.157673
 20
237.001545
 30
0.0
 10
163.840463
 20
231.138195
 30
0.0
 10
159.552533
 20
225.254355
 30
0.0
 10
155.281020
 20
219.357090
 30
0.0
 10
151.021650
 20
213.451680
 30
0.0
 10
146.771430
 20
207.540135
 30
0.0
 10
142.528163
 20
201.623227
 30
0.0
 10
138.290790
 20
195.702030
 30
0.0
 10
134.058803
 20
189.777600
 30
0.0
 10
129.831285
 20
183.849952
 30
0.0
 10
125.607315
 20
177.918757
 30
0.0
 10
121.387515
 20
171.985590
 30
0.0
 10
117.170483
 20
166.049025
 30
0.0
 10
112.957403
 20
160.111117
 30
0.0
 10
108.747465
 20
154.171012
 30
0.0
 10
104.539793
 20
148.227652
 30
0.0
 10
100.335173
 20
142.282222
 30
0.0
 10
96.133830
 20
136.335067
 30
0.0
 10
91.935458
 20
130.385647
 30
0.0
 10
87.740333
 20
124.434187
 30
0.0
 10
83.548313
 20
118.480185
 30
0.0
 10
79.359608
 20
112.523505
 30
0.0
 10
75.175073
 20
106.564800
 30
0.0
 10
70.994669
 20
100.603177
 30
0.0
 10
66.818663
 20
94.637872
 30
0.0
 10
62.648720
 20
88.669657
 30
0.0
 10
58.484809
 20
82.696102
 30
0.0
 10
54.329794
 20
76.717597
 30
0.0
 10
50.185274
 20
70.730137
 30
0.0
 10
46.058034
 20
64.731157
 30
0.0
 10
41.963486
 20
58.711005
 30
0.0
 10
38.052135
 20
52.578540
 30
0.0
 10
41.239635
 20
51.914340
 30
0.0
 10
48.712667
 20
51.813360
 30
0.0
 10
56.187526
 20
51.774435
 30
0.0
 10
63.662811
 20
51.747360
 30
0.0
 10
71.138103
 20
51.726510
 30
0.0
 10
78.612855
 20
51.709635
 30
0.0
 10
86.088098
 20
51.695610
 30
0.0
 10
93.562658
 20
51.683760
 30
0.0
 10
101.037540
 20
51.673635
 30
0.0
 10
108.512025
 20
51.664935
 30
0.0
 10
115.987343
 20
51.657435
 30
0.0
 10
123.462683
 20
51.650685
 30
0.0
 10
130.937093
 20
51.645435
 30
0.0
 10
138.411113
 20
51.640935
 30
0.0
 10
145.886130
 20
51.637185
 30
0.0
 10
153.360638
 20
51.633435
 30
0.0
 10
160.835070
 20
51.630435
 30
0.0
 10
168.309998
 20
51.628185
 30
0.0
 10
175.784378
 20
51.626685
 30
0.0
 10
183.258758
 20
51.625185
 30
0.0
 10
190.733813
 20
51.624435
 30
0.0
 10
198.208823
 20
51.624007
 30
0.0
 10
205.683968
 20
51.623970
 30
0.0
 10
213.158933
 20
51.624292
 30
0.0
 10
220.634010
 20
51.624967
 30
0.0
 10
228.108780
 20
51.625717
 30
0.0
 10
235.583258
 20
51.627217
 30
0.0
 10
243.057825
 20
51.628717
 30
0.0
 10
250.533165
 20
51.630967
 30
0.0
 10
258.007703
 20
51.633217
 30
0.0
 10
265.482585
 20
51.635467
 30
0.0
 10
272.956635
 20
51.638467
 30
0.0
 10
280.431285
 20
51.641467
 30
0.0
 10
287.905590
 20
51.644467
 30
0.0
 10
295.379918
 20
51.648217
 30
0.0
 10
302.854688
 20
51.651967
 30
0.0
 10
310.329098
 20
51.655717
 30
0.0
 10
317.803605
 20
51.659467
 30
0.0
 10
325.278608
 20
51.663967
 30
0.0
 10
332.753295
 20
51.668467
 30
0.0
 10
340.227990
 20
51.672967
 30
0.0
 10
347.702925
 20
51.678217
 30
0.0
 10
355.177103
 20
51.683467
 30
0.0
 10
362.651723
 20
51.688717
 30
0.0
 10
370.126695
 20
51.693967
 30
0.0
 10
377.600663
 20
51.699967
 30
0.0
 10
385.075500
 20
51.705967
 30
0.0
 10
392.550615
 20
51.711967
 30
0.0
 10
400.025273
 20
51.717967
 30
0.0
 10
407.499615
 20
51.724717
 30
0.0
 10
414.974573
 20
51.731467
 30
0.0
 10
422.449763
 20
51.738217
 30
0.0
 10
429.924525
 20
51.745717
 30
0.0
 10
437.398958
 20
51.753217
 30
0.0
 10
444.873773
 20
51.760717
 30
0.0
 10
452.348355
 20
51.768442
 30
0.0
 10
459.823628
 20
51.776317
 30
0.0
 10
467.298143
 20
51.784417
 30
0.0
 10
474.771968
 20
51.792742
 30
0.0
 10
482.246453
 20
51.801292
 30
0.0
 10
489.720548
 20
51.809992
 30
0.0
 10
497.194433
 20
51.818917
 30
0.0
 10
504.669330
 20
51.828067
 30
0.0
 10
512.144003
 20
51.837442
 30
0.0
 10
519.618188
 20
51.847042
 30
0.0
 10
527.092388
 20
51.856867
 30
0.0
 10
534.567698
 20
51.866917
 30
0.0
 10
542.042595
 20
51.877267
 30
0.0
 10
549.517538
 20
51.887842
 30
0.0
 10
556.991715
 20
51.898642
 30
0.0
 10
564.465825
 20
51.909742
 30
0.0
 10
571.940340
 20
51.921142
 30
0.0
 10
579.415298
 20
51.932767
 30
0.0
 10
586.890128
 20
51.944692
 30
0.0
 10
594.364658
 20
51.956917
 30
0.0
 10
601.838745
 20
51.969517
 30
0.0
 10
609.312953
 20
51.982417
 30
0.0
 10
616.788000
 20
51.995692
 30
0.0
 10
624.263070
 20
52.009417
 30
0.0
 10
631.737488
 20
52.023517
 30
0.0
 10
639.211718
 20
52.038067
 30
0.0
 10
646.686180
 20
52.053067
 30
0.0
 10
654.160050
 20
52.068517
 30
0.0
 10
661.634805
 20
52.084567
 30
0.0
 10
669.108773
 20
52.101217
 30
0.0
 10
676.583985
 20
52.118467
 30
0.0
 10
684.058058
 20
52.136467
 30
0.0
 10
691.532333
 20
52.155217
 30
0.0
 10
699.007328
 20
52.174942
 30
0.0
 10
706.482368
 20
52.195642
 30
0.0
 10
713.957063
 20
52.217542
 30
0.0
 10
721.431540
 20
52.240867
 30
0.0
 10
728.906730
 20
52.265917
 30
0.0
 10
736.381155
 20
52.293142
 30
0.0
 10
743.855535
 20
52.323217
 30
0.0
 10
751.330500
 20
52.357267
 30
0.0
 10
758.805075
 20
52.397467
 30
0.0
 10
766.279950
 20
52.449517
 30
0.0
 10
773.751675
 20
52.569645
 30
0.0
 10
773.751675
 20
52.569645
 30
0.0
  0
LWPOLYLINE
  5
102
100
AcDbEntity
  8
0
 62
7
100
AcDbPolyline
 90
16
 70
1
 10
796.030125
 20
192.724132
 30
0.0
 10
790.566600
 20
196.176855
 30
0.0
 10
787.009350
 20
201.580110
 30
0.0
 10
785.892750
 20
207.951368
 30
0.0
 10
787.547850
 20
214.195027
 30
0.0
 10
791.418000
 20
218.814143
 30
0.0
 10
796.834125
 20
221.463923
 30
0.0
 10
802.856400
 20
221.860988
 30
0.0
 10
808.638150
 20
220.110720
 30
0.0
 10
813.658575
 20
216.258015
 30
0.0
 10
815.562375
 20
210.231653
 30
0.0
 10
815.263350
 20
203.063843
 30
0.0
 10
812.115450
 20
196.671683
 30
0.0
 10
806.142525
 20
192.782408
 30
0.0
 10
801.089850
 20
191.718660
 30
0.0
 10
796.030125
 20
192.723908
 30
0.0
  0
LWPOLYLINE
  5
103
100
AcDbEntity
  8
0
 62
7
100
AcDbPolyline
 90
11
 70
1
 10
807.476100
 20
198.960315
 30
0.0
 10
810.687300
 20
203.027107
 30
0.0
 10
812.052150
 20
208.024972
 30
0.0
 10
808.781325
 20
213.945990
 30
0.0
 10
802.961550
 20
217.496618
 30
0.0
 10
796.692000
 20
216.323235
 30
0.0
 10
791.719200
 20
212.315078
 30
0.0
 10
790.453350
 20
205.427295
 30
0.0
 10
794.197350
 20
199.460910
 30
0.0
 10
800.760825
 20
196.865048
 30
0.0
 10
807.476100
 20
198.960315
 30
0.0
  0
LWPOLYLINE
  5
104
100
AcDbEntity
  8
0
 62
7
100
AcDbPolyline
 90
15
 70
1
 10
1042.575675
 20
192.339982
 30
0.0
 10
1036.892325
 20
195.486345
 30
0.0
 10
1033.533975
 20
201.074318
 30
0.0
 10
1032.564525
 20
207.554813
 30
0.0
 10
1033.777350
 20
214.092518
 30
0.0
 10
1037.732925
 20
219.395093
 30
0.0
 10
1043.819625
 20
222.003435
 30
0.0
 10
1050.425925
 20
221.777693
 30
0.0
 10
1056.303150
 20
218.771288
 30
0.0
 10
1060.328475
 20
213.533483
 30
0.0
 10
1061.898525
 20
207.109230
 30
0.0
 10
1060.981050
 20
200.549903
 30
0.0
 10
1056.590025
 20
194.842703
 30
0.0
 10
1049.850675
 20
192.118530
 30
0.0
 10
1042.575675
 20
192.339983
 30
0.0
  0
LWPOLYLINE
  5
105
100
AcDbEntity
  8
0
 62
7
100
AcDbPolyline
 90
14
 70
0
 10
1051.001325
 20
197.554583
 30
0.0
 10
1055.307675
 20
200.623335
 30
0.0
 10
1057.539675
 20
205.372095
 30
0.0
 10
1056.711300
 20
210.565448
 30
0.0
 10
1052.319375
 20
216.022778
 30
0.0
 10
1045.540950
 20
217.407180
 30
0.0
 10
1039.481550
 20
213.923857
 30
0.0
 10
1036.535400
 20
209.799315
 30
0.0
 10
1036.590150
 20
204.852232
 30
0.0
 10
1039.535775
 20
200.724585
 30
0.0
 10
1043.038725
 20
197.881732
 30
0.0
 10
1047.177300
 20
196.171282
 30
0.0
 10
1051.001475
 20
197.554582
 30
0.0
 10
1051.001550
 20
197.554582
 30
0.0
  0
LWPOLYLINE
  5
106
100
AcDbEntity
  8
0
 62
7
100
AcDbPolyline
 90
10
 70
1
 10
1449.364650
 20
242.436165
 30
0.0
 10
1442.489175
 20
242.522610
 30
0.0
 10
1435.613475
 20
242.522603
 30
0.0
 10
1428.739650
 20
242.436165
 30
0.0
 10
1428.943425
 20
242.248635
 30
0.0
 10
1433.998200
 20
242.212635
 30
0.0
 10
1439.052150
 20
242.204460
 30
0.0
 10
1444.106325
 20
242.212635
 30
0.0
 10
1449.160800
 20
242.248635
 30
0.0
 10
1449.364650
 20
242.436165
 30
0.0
  0
ENDSEC
  0
SECTION
  2
OBJECTS
  0
DICTIONARY
  5
C
330
0
100
AcDbDictionary
  3
ACAD_GROUP
350
D
  3
ACAD_MLINESTYLE
350
17
  0
DICTIONARY
  5
D
330
C
100
AcDbDictionary
  0
DICTIONARY
  5
1A
330
C
100
AcDbDictionary
  0
DICTIONARY
  5
17
330
C
100
AcDbDictionary
  3
STANDARD
350
18
  0
DICTIONARY
  5
19
330
C
100
AcDbDictionary
  0
ENDSEC
  0
EOF
