M48
;GenerationSoftware,Autodesk,EAGLE,9.2.2*%
;CreationDate,2019-11-16T12:49:13Z*%
FMAT,2
ICI,OFF
METRIC,TZ,000.000
T4C0.254
T3C0.350
T2C0.450
T1C1.000
%
G90
M71
T1
X8350Y26800
X3450Y26810
X8350Y15090
X3440Y15100
T2
X19090Y27370
X18090Y28270
X18090Y27370
X19090Y28270
T3
X12590Y20570
X12590Y18920
X12590Y17270
X25100Y15500
X12590Y15620
X12590Y5720
X12590Y12320
X12590Y9020
X12590Y7370
X12590Y4070
X12590Y2420
X12590Y13970
X18108Y10127
X18101Y9447
X15250Y12335
X14670Y12335
X12590Y28820
X12590Y27170
X12590Y25520
X12590Y23870
X14130Y12335
X12590Y22220
X6880Y28330
X7490Y28330
X10030Y20370
X10030Y20970
X10030Y21560
X11880Y20370
X11880Y20970
X11880Y21560
X10200Y11120
X10200Y10480
X11750Y11120
X11750Y10480
X10200Y4745
X10200Y4130
X11750Y4130
X11750Y4745
X23750Y2760
X23750Y2180
X24985Y2760
X24985Y2180
X23750Y29220
X23750Y28565
X24985Y29220
X24985Y28565
X23700Y15500
X23700Y16300
X25100Y16300
T4
X27408Y12322
X22002Y15012
X22002Y16282
X30430Y25499
X28845Y14524
X29714Y14642
X22317Y10026
X20991Y12907
X28080Y12190
X32410Y8090
X26666Y8876
X30890Y14150
X16898Y23104
X12710Y11340
X12713Y11826
X34800Y19950
X32714Y16815
X30840Y17618
X31823Y25490
X35297Y19501
X34308Y18225
X32334Y28190
X30392Y14586
X18063Y12623
X17689Y15730
X22064Y4491
X21990Y12920
X18980Y26420
X13453Y26249
X13362Y20511
X13990Y15020
X13990Y9520
X17871Y17820
X18640Y17820
X13640Y3970
X19249Y16808
X18629Y16788
X19909Y16808
X18590Y27570
X18590Y27070
X17790Y27820
X18590Y28570
X19390Y27820
X18590Y28070
X18390Y26420
X19580Y26420
X20090Y26620
X20090Y27220
X20090Y27820
X21651Y19544
X17732Y21307
X13353Y18063
X14792Y18113
X13939Y7063
X21990Y7370
X20240Y17820
X23029Y8880
X19707Y7802
X22246Y5570
X3200Y20340
X6410Y23130
X5900Y24750
X3200Y19067
X7400Y25734
X30573Y19649
X7720Y23640
X3200Y21595
X7400Y20410
X3650Y11860
X3650Y12760
X4450Y11860
X4450Y12760
X5250Y11860
X5250Y12760
X6050Y11860
X6050Y12760
X6850Y11860
X6850Y12760
X7650Y11860
X7650Y12760
X8450Y11860
X8450Y12760
X9250Y11860
X9250Y12760
X9250Y9460
X9250Y8560
X8450Y9460
X8450Y8560
X7650Y9460
X7650Y8560
X6850Y9460
X6850Y8560
X6050Y9460
X6050Y8560
X5250Y9460
X5250Y8560
X4450Y9460
X4450Y8560
X3650Y9460
X3650Y8560
X3640Y2780
X3640Y1715
X4440Y2780
X4440Y1715
X5240Y2780
X5240Y1715
X6040Y2780
X6040Y1715
X6840Y2780
X6840Y1715
X7640Y2780
X7640Y1715
X8440Y2780
X8440Y1715
X9240Y2780
X9240Y1715
X9240Y6000
X9240Y7015
X8440Y6000
X8440Y7015
X7640Y6000
X7640Y7015
X6840Y6000
X6840Y7015
X28364Y17804
X6040Y7015
X5240Y6000
X5240Y7015
X4440Y6000
X4440Y7015
X3640Y6000
X3640Y7015
X35649Y16607
X30976Y8960
X32402Y8834
X29005Y11496
X35920Y13655
X35948Y11532
X26063Y19040
X26215Y9905
X25800Y24670
X35670Y28260
X33779Y28286
X34348Y22552
X31301Y19655
X36280Y22670
X29860Y16120
X29800Y17570
X29611Y23384
X30768Y10786
X31010Y12250
X34992Y16736
X35047Y24112
X30312Y9478
X5390Y21777
X31390Y15920
X33460Y14840
X31080Y24120
X34751Y26742
X32843Y22940
X31730Y22650
X35326Y20359
X32970Y9200
X33413Y10402
X34240Y12840
X34274Y8243
X29666Y26616
X27500Y22980
X31670Y14110
X30880Y16342
X34230Y20300
X26675Y5804
X31695Y15129
X26898Y12772
X32146Y14582
X22002Y26032
X22002Y27302
X22512Y20480
X33290Y16457
X22514Y21755
X34532Y16252
X34080Y15770
X28183Y14597
X30431Y8571
X6040Y6000
M30