G04 EAGLE Gerber RS-274X export*
G75*
%MOMM*%
%FSLAX34Y34*%
%LPD*%
%INBottom Copper*%
%IPPOS*%
%AMOC8*
5,1,8,0,0,1.08239X$1,22.5*%
G01*
%ADD10R,1.200000X1.400000*%
%ADD11R,0.700000X0.900000*%
%ADD12R,0.635000X1.270000*%
%ADD13R,0.483600X1.211800*%
%ADD14R,0.900000X0.700000*%
%ADD15R,1.250000X2.500000*%
%ADD16R,1.270000X2.540000*%
%ADD17R,5.080000X2.540000*%
%ADD18R,2.540000X1.270000*%
%ADD19R,1.270000X0.635000*%
%ADD20R,0.550000X1.200000*%
%ADD21R,1.400000X1.600000*%
%ADD22C,0.300000*%
%ADD23R,0.300000X0.850000*%
%ADD24R,0.850000X0.300000*%
%ADD25R,1.270000X0.800000*%
%ADD26R,0.630000X0.830000*%
%ADD27R,1.200000X0.800000*%
%ADD28R,1.100000X1.000000*%
%ADD29R,1.000000X1.400000*%
%ADD30C,0.508000*%
%ADD31C,0.203200*%
%ADD32C,0.609600*%
%ADD33C,0.604000*%
%ADD34C,0.254000*%
%ADD35C,0.700000*%
%ADD36C,0.812800*%
%ADD37C,1.016000*%
%ADD38C,0.304800*%
%ADD39C,0.704000*%
%ADD40C,0.500000*%

G36*
X214907Y70860D02*
X214907Y70860D01*
X214936Y70860D01*
X215046Y70888D01*
X215157Y70911D01*
X215183Y70924D01*
X215211Y70931D01*
X215309Y70989D01*
X215409Y71041D01*
X215431Y71062D01*
X215456Y71077D01*
X215533Y71159D01*
X215615Y71237D01*
X215630Y71263D01*
X215650Y71284D01*
X215702Y71385D01*
X215759Y71483D01*
X215766Y71511D01*
X215780Y71537D01*
X215793Y71614D01*
X215829Y71758D01*
X215827Y71821D01*
X215835Y71868D01*
X215835Y75384D01*
X217062Y76610D01*
X217114Y76680D01*
X217174Y76744D01*
X217200Y76793D01*
X217233Y76838D01*
X217264Y76919D01*
X217304Y76997D01*
X217312Y77045D01*
X217334Y77103D01*
X217346Y77251D01*
X217359Y77328D01*
X217359Y83472D01*
X225228Y91341D01*
X226664Y91341D01*
X226751Y91353D01*
X226838Y91356D01*
X226891Y91373D01*
X226946Y91381D01*
X227025Y91416D01*
X227109Y91443D01*
X227148Y91471D01*
X227205Y91497D01*
X227318Y91593D01*
X227382Y91638D01*
X228609Y92865D01*
X232344Y92865D01*
X232402Y92873D01*
X232460Y92871D01*
X232542Y92893D01*
X232626Y92905D01*
X232679Y92928D01*
X232735Y92943D01*
X232808Y92986D01*
X232885Y93021D01*
X232930Y93059D01*
X232980Y93088D01*
X233038Y93150D01*
X233102Y93204D01*
X233134Y93253D01*
X233174Y93296D01*
X233213Y93371D01*
X233260Y93441D01*
X233277Y93497D01*
X233304Y93549D01*
X233315Y93617D01*
X233345Y93712D01*
X233348Y93812D01*
X233359Y93880D01*
X233359Y152052D01*
X233620Y152313D01*
X233655Y152360D01*
X233698Y152400D01*
X233740Y152473D01*
X233791Y152540D01*
X233812Y152595D01*
X233841Y152645D01*
X233862Y152727D01*
X233892Y152806D01*
X233897Y152864D01*
X233911Y152921D01*
X233909Y153005D01*
X233916Y153089D01*
X233904Y153146D01*
X233902Y153205D01*
X233876Y153285D01*
X233860Y153368D01*
X233833Y153420D01*
X233815Y153476D01*
X233775Y153532D01*
X233729Y153620D01*
X233725Y153624D01*
X233725Y156356D01*
X234618Y157249D01*
X234670Y157319D01*
X234730Y157383D01*
X234756Y157432D01*
X234789Y157476D01*
X234820Y157558D01*
X234860Y157636D01*
X234868Y157683D01*
X234890Y157742D01*
X234902Y157890D01*
X234915Y157967D01*
X234915Y160033D01*
X234903Y160120D01*
X234900Y160207D01*
X234883Y160260D01*
X234875Y160315D01*
X234840Y160394D01*
X234813Y160478D01*
X234785Y160517D01*
X234759Y160574D01*
X234663Y160687D01*
X234618Y160751D01*
X233725Y161644D01*
X233725Y164385D01*
X233740Y164411D01*
X233791Y164478D01*
X233812Y164533D01*
X233841Y164583D01*
X233862Y164665D01*
X233892Y164744D01*
X233897Y164802D01*
X233911Y164859D01*
X233909Y164943D01*
X233916Y165027D01*
X233904Y165085D01*
X233902Y165143D01*
X233876Y165223D01*
X233860Y165306D01*
X233833Y165358D01*
X233815Y165414D01*
X233775Y165470D01*
X233729Y165558D01*
X233660Y165631D01*
X233620Y165687D01*
X233359Y165948D01*
X233359Y234975D01*
X233355Y235004D01*
X233358Y235033D01*
X233335Y235144D01*
X233319Y235256D01*
X233307Y235283D01*
X233302Y235312D01*
X233249Y235413D01*
X233203Y235516D01*
X233184Y235538D01*
X233171Y235564D01*
X233093Y235646D01*
X233020Y235733D01*
X232995Y235749D01*
X232975Y235770D01*
X232877Y235828D01*
X232783Y235890D01*
X232755Y235899D01*
X232730Y235914D01*
X232620Y235942D01*
X232512Y235976D01*
X232482Y235977D01*
X232454Y235984D01*
X232341Y235981D01*
X232228Y235983D01*
X232199Y235976D01*
X232170Y235975D01*
X232062Y235940D01*
X231953Y235912D01*
X231927Y235897D01*
X231899Y235888D01*
X231835Y235842D01*
X231708Y235766D01*
X231665Y235721D01*
X231626Y235693D01*
X230993Y235060D01*
X224314Y235060D01*
X224266Y235053D01*
X224217Y235055D01*
X224126Y235033D01*
X224033Y235020D01*
X223988Y235000D01*
X223941Y234989D01*
X223859Y234942D01*
X223773Y234904D01*
X223736Y234872D01*
X223693Y234848D01*
X223628Y234781D01*
X223556Y234720D01*
X223529Y234680D01*
X223495Y234645D01*
X223451Y234562D01*
X223399Y234484D01*
X223384Y234437D01*
X223361Y234394D01*
X223341Y234302D01*
X223313Y234213D01*
X223311Y234164D01*
X223301Y234116D01*
X223308Y234042D01*
X223305Y233928D01*
X223327Y233844D01*
X223333Y233782D01*
X223504Y233143D01*
X223504Y226840D01*
X214980Y226840D01*
X214922Y226832D01*
X214863Y226833D01*
X214782Y226812D01*
X214698Y226800D01*
X214645Y226776D01*
X214588Y226762D01*
X214516Y226719D01*
X214439Y226684D01*
X214394Y226646D01*
X214344Y226616D01*
X214286Y226555D01*
X214222Y226500D01*
X214190Y226452D01*
X214149Y226409D01*
X214111Y226334D01*
X214064Y226264D01*
X214047Y226208D01*
X214020Y226156D01*
X214009Y226088D01*
X213979Y225993D01*
X213976Y225893D01*
X213965Y225825D01*
X213965Y224808D01*
X213963Y224808D01*
X213963Y225825D01*
X213955Y225883D01*
X213956Y225941D01*
X213935Y226023D01*
X213923Y226106D01*
X213899Y226160D01*
X213884Y226216D01*
X213841Y226289D01*
X213807Y226366D01*
X213769Y226410D01*
X213739Y226461D01*
X213678Y226518D01*
X213623Y226583D01*
X213574Y226615D01*
X213532Y226655D01*
X213457Y226694D01*
X213386Y226740D01*
X213331Y226758D01*
X213279Y226785D01*
X213211Y226796D01*
X213115Y226826D01*
X213016Y226829D01*
X212948Y226840D01*
X204423Y226840D01*
X204423Y233143D01*
X204606Y233825D01*
X204634Y233874D01*
X204653Y233946D01*
X204680Y234015D01*
X204687Y234083D01*
X204704Y234149D01*
X204702Y234224D01*
X204710Y234298D01*
X204697Y234365D01*
X204695Y234433D01*
X204672Y234504D01*
X204659Y234578D01*
X204629Y234639D01*
X204608Y234704D01*
X204571Y234755D01*
X204533Y234832D01*
X204456Y234917D01*
X204413Y234977D01*
X203722Y235668D01*
X203652Y235721D01*
X203588Y235781D01*
X203539Y235806D01*
X203495Y235839D01*
X203413Y235870D01*
X203335Y235910D01*
X203288Y235918D01*
X203229Y235940D01*
X203081Y235953D01*
X203004Y235966D01*
X202819Y235966D01*
X202761Y235957D01*
X202703Y235959D01*
X202621Y235938D01*
X202538Y235926D01*
X202484Y235902D01*
X202428Y235887D01*
X202355Y235844D01*
X202278Y235809D01*
X202234Y235772D01*
X202183Y235742D01*
X202126Y235680D01*
X202061Y235626D01*
X202029Y235577D01*
X201989Y235534D01*
X201950Y235459D01*
X201904Y235389D01*
X201886Y235333D01*
X201859Y235281D01*
X201848Y235213D01*
X201818Y235118D01*
X201815Y235018D01*
X201804Y234950D01*
X201804Y215817D01*
X191311Y205323D01*
X191258Y205254D01*
X191198Y205190D01*
X191173Y205140D01*
X191140Y205096D01*
X191109Y205015D01*
X191069Y204937D01*
X191061Y204889D01*
X191039Y204831D01*
X191026Y204683D01*
X191013Y204606D01*
X191013Y193911D01*
X191022Y193853D01*
X191020Y193795D01*
X191041Y193713D01*
X191053Y193629D01*
X191077Y193576D01*
X191092Y193520D01*
X191135Y193447D01*
X191170Y193370D01*
X191207Y193325D01*
X191237Y193275D01*
X191299Y193217D01*
X191353Y193153D01*
X191402Y193121D01*
X191445Y193081D01*
X191520Y193042D01*
X191590Y192995D01*
X191646Y192978D01*
X191698Y192951D01*
X191766Y192940D01*
X191861Y192910D01*
X191961Y192907D01*
X192029Y192896D01*
X199933Y192896D01*
X199991Y192904D01*
X200049Y192902D01*
X200131Y192924D01*
X200214Y192936D01*
X200268Y192959D01*
X200324Y192974D01*
X200397Y193017D01*
X200474Y193052D01*
X200518Y193090D01*
X200569Y193119D01*
X200626Y193181D01*
X200691Y193235D01*
X200723Y193284D01*
X200763Y193327D01*
X200802Y193402D01*
X200848Y193472D01*
X200866Y193528D01*
X200893Y193580D01*
X200904Y193648D01*
X200934Y193743D01*
X200937Y193843D01*
X200948Y193911D01*
X200948Y198904D01*
X209473Y198904D01*
X209531Y198912D01*
X209589Y198910D01*
X209671Y198932D01*
X209754Y198943D01*
X209808Y198967D01*
X209864Y198982D01*
X209936Y199025D01*
X210014Y199060D01*
X210058Y199097D01*
X210108Y199127D01*
X210166Y199189D01*
X210231Y199243D01*
X210263Y199292D01*
X210303Y199335D01*
X210341Y199410D01*
X210388Y199480D01*
X210406Y199536D01*
X210432Y199588D01*
X210444Y199656D01*
X210474Y199751D01*
X210476Y199851D01*
X210488Y199919D01*
X210488Y200936D01*
X211505Y200936D01*
X211563Y200944D01*
X211621Y200942D01*
X211703Y200964D01*
X211786Y200975D01*
X211840Y200999D01*
X211896Y201014D01*
X211969Y201057D01*
X212046Y201092D01*
X212090Y201129D01*
X212140Y201159D01*
X212198Y201221D01*
X212263Y201275D01*
X212295Y201324D01*
X212335Y201367D01*
X212373Y201442D01*
X212420Y201512D01*
X212438Y201568D01*
X212464Y201620D01*
X212476Y201688D01*
X212506Y201783D01*
X212509Y201883D01*
X212520Y201951D01*
X212520Y211475D01*
X217823Y211475D01*
X218470Y211302D01*
X219049Y210968D01*
X219059Y210958D01*
X219106Y210922D01*
X219146Y210880D01*
X219219Y210837D01*
X219286Y210787D01*
X219341Y210766D01*
X219391Y210736D01*
X219473Y210715D01*
X219552Y210685D01*
X219610Y210681D01*
X219667Y210666D01*
X219751Y210669D01*
X219835Y210662D01*
X219893Y210673D01*
X219951Y210675D01*
X220031Y210701D01*
X220114Y210718D01*
X220166Y210745D01*
X220222Y210763D01*
X220278Y210803D01*
X220366Y210849D01*
X220439Y210917D01*
X220495Y210957D01*
X222073Y212535D01*
X222090Y212558D01*
X222113Y212577D01*
X222175Y212672D01*
X222243Y212762D01*
X222254Y212790D01*
X222270Y212814D01*
X222304Y212922D01*
X222345Y213028D01*
X222347Y213057D01*
X222356Y213085D01*
X222359Y213199D01*
X222368Y213311D01*
X222362Y213340D01*
X222363Y213369D01*
X222335Y213479D01*
X222312Y213590D01*
X222299Y213616D01*
X222291Y213644D01*
X222234Y213742D01*
X222181Y213842D01*
X222161Y213864D01*
X222146Y213889D01*
X222064Y213966D01*
X221986Y214048D01*
X221960Y214063D01*
X221939Y214083D01*
X221838Y214135D01*
X221740Y214192D01*
X221712Y214199D01*
X221686Y214213D01*
X221608Y214226D01*
X221465Y214262D01*
X221402Y214260D01*
X221355Y214268D01*
X215995Y214268D01*
X215995Y222778D01*
X223504Y222778D01*
X223504Y222630D01*
X223513Y222572D01*
X223511Y222514D01*
X223532Y222432D01*
X223544Y222348D01*
X223568Y222295D01*
X223583Y222239D01*
X223626Y222166D01*
X223661Y222089D01*
X223698Y222044D01*
X223728Y221994D01*
X223790Y221936D01*
X223844Y221872D01*
X223893Y221840D01*
X223936Y221800D01*
X224011Y221761D01*
X224081Y221714D01*
X224137Y221697D01*
X224189Y221670D01*
X224257Y221659D01*
X224352Y221629D01*
X224452Y221626D01*
X224520Y221615D01*
X226821Y221615D01*
X229202Y219234D01*
X229202Y215866D01*
X227975Y214640D01*
X227922Y214570D01*
X227863Y214506D01*
X227837Y214457D01*
X227804Y214413D01*
X227781Y214352D01*
X227777Y214346D01*
X227772Y214328D01*
X227733Y214253D01*
X227725Y214205D01*
X227703Y214147D01*
X227699Y214098D01*
X227692Y214075D01*
X227690Y213992D01*
X227678Y213922D01*
X227678Y210954D01*
X226913Y210189D01*
X226878Y210142D01*
X226835Y210102D01*
X226793Y210029D01*
X226742Y209962D01*
X226721Y209907D01*
X226692Y209857D01*
X226671Y209775D01*
X226641Y209696D01*
X226636Y209638D01*
X226621Y209581D01*
X226624Y209497D01*
X226617Y209413D01*
X226629Y209356D01*
X226630Y209297D01*
X226656Y209217D01*
X226673Y209134D01*
X226700Y209082D01*
X226718Y209027D01*
X226758Y208971D01*
X226804Y208882D01*
X226873Y208809D01*
X226913Y208753D01*
X229181Y206485D01*
X229181Y203118D01*
X228095Y202032D01*
X228042Y201962D01*
X227982Y201898D01*
X227957Y201849D01*
X227924Y201804D01*
X227893Y201723D01*
X227853Y201645D01*
X227845Y201597D01*
X227823Y201539D01*
X227810Y201391D01*
X227797Y201314D01*
X227797Y188612D01*
X226012Y186826D01*
X225230Y186044D01*
X223444Y184258D01*
X215358Y184258D01*
X215300Y184250D01*
X215242Y184252D01*
X215160Y184230D01*
X215076Y184218D01*
X215023Y184195D01*
X214967Y184180D01*
X214894Y184137D01*
X214817Y184102D01*
X214772Y184064D01*
X214722Y184035D01*
X214664Y183973D01*
X214600Y183919D01*
X214568Y183870D01*
X214528Y183827D01*
X214489Y183752D01*
X214442Y183682D01*
X214425Y183626D01*
X214398Y183574D01*
X214387Y183506D01*
X214357Y183411D01*
X214354Y183311D01*
X214343Y183243D01*
X214343Y171509D01*
X213450Y170616D01*
X212824Y170616D01*
X212738Y170604D01*
X212650Y170601D01*
X212598Y170584D01*
X212543Y170576D01*
X212463Y170541D01*
X212380Y170514D01*
X212340Y170486D01*
X212283Y170460D01*
X212170Y170364D01*
X212106Y170319D01*
X211155Y169368D01*
X203974Y162187D01*
X203957Y162164D01*
X203934Y162145D01*
X203871Y162050D01*
X203803Y161960D01*
X203793Y161932D01*
X203777Y161908D01*
X203742Y161800D01*
X203702Y161694D01*
X203700Y161665D01*
X203691Y161637D01*
X203688Y161524D01*
X203679Y161411D01*
X203684Y161382D01*
X203684Y161353D01*
X203712Y161243D01*
X203735Y161132D01*
X203748Y161106D01*
X203755Y161078D01*
X203813Y160980D01*
X203866Y160880D01*
X203886Y160858D01*
X203901Y160833D01*
X203983Y160756D01*
X204061Y160674D01*
X204087Y160659D01*
X204108Y160639D01*
X204209Y160587D01*
X204307Y160530D01*
X204335Y160523D01*
X204361Y160509D01*
X204439Y160496D01*
X204582Y160460D01*
X204645Y160462D01*
X204692Y160454D01*
X213640Y160454D01*
X213727Y160466D01*
X213814Y160469D01*
X213867Y160486D01*
X213922Y160494D01*
X214001Y160529D01*
X214085Y160556D01*
X214124Y160584D01*
X214181Y160610D01*
X214294Y160706D01*
X214358Y160751D01*
X215658Y162051D01*
X215710Y162121D01*
X215770Y162185D01*
X215796Y162234D01*
X215829Y162278D01*
X215860Y162360D01*
X215900Y162438D01*
X215908Y162485D01*
X215930Y162544D01*
X215942Y162692D01*
X215955Y162769D01*
X215955Y164504D01*
X218336Y166885D01*
X221704Y166885D01*
X224085Y164504D01*
X224085Y161136D01*
X221704Y158755D01*
X219969Y158755D01*
X219882Y158743D01*
X219795Y158740D01*
X219742Y158723D01*
X219687Y158715D01*
X219608Y158680D01*
X219524Y158653D01*
X219485Y158625D01*
X219428Y158599D01*
X219315Y158503D01*
X219251Y158458D01*
X217981Y157188D01*
X217946Y157141D01*
X217903Y157101D01*
X217861Y157028D01*
X217810Y156961D01*
X217789Y156906D01*
X217760Y156856D01*
X217739Y156774D01*
X217709Y156695D01*
X217704Y156637D01*
X217690Y156580D01*
X217692Y156496D01*
X217685Y156412D01*
X217697Y156354D01*
X217699Y156296D01*
X217725Y156216D01*
X217741Y156133D01*
X217768Y156081D01*
X217786Y156025D01*
X217826Y155969D01*
X217872Y155881D01*
X217941Y155808D01*
X217981Y155752D01*
X218714Y155019D01*
X219251Y154482D01*
X219321Y154430D01*
X219385Y154370D01*
X219434Y154344D01*
X219478Y154311D01*
X219560Y154280D01*
X219638Y154240D01*
X219685Y154232D01*
X219744Y154210D01*
X219892Y154198D01*
X219969Y154185D01*
X221704Y154185D01*
X224085Y151804D01*
X224085Y148436D01*
X221704Y146055D01*
X218336Y146055D01*
X215955Y148436D01*
X215955Y150171D01*
X215943Y150258D01*
X215940Y150345D01*
X215923Y150398D01*
X215915Y150453D01*
X215880Y150532D01*
X215853Y150616D01*
X215825Y150655D01*
X215799Y150712D01*
X215703Y150825D01*
X215658Y150889D01*
X215121Y151426D01*
X215051Y151478D01*
X214987Y151538D01*
X214938Y151564D01*
X214894Y151597D01*
X214812Y151628D01*
X214734Y151668D01*
X214687Y151676D01*
X214628Y151698D01*
X214480Y151710D01*
X214403Y151723D01*
X189868Y151723D01*
X189781Y151711D01*
X189694Y151708D01*
X189641Y151691D01*
X189586Y151683D01*
X189507Y151648D01*
X189423Y151621D01*
X189384Y151593D01*
X189327Y151567D01*
X189214Y151471D01*
X189150Y151426D01*
X187241Y149517D01*
X187223Y149493D01*
X187201Y149474D01*
X187138Y149380D01*
X187070Y149290D01*
X187060Y149262D01*
X187043Y149238D01*
X187009Y149130D01*
X186969Y149024D01*
X186966Y148995D01*
X186957Y148967D01*
X186955Y148853D01*
X186945Y148741D01*
X186951Y148712D01*
X186950Y148683D01*
X186979Y148573D01*
X187001Y148462D01*
X187015Y148436D01*
X187022Y148408D01*
X187080Y148310D01*
X187132Y148210D01*
X187152Y148188D01*
X187167Y148163D01*
X187250Y148086D01*
X187328Y148004D01*
X187353Y147989D01*
X187375Y147969D01*
X187475Y147917D01*
X187573Y147860D01*
X187602Y147853D01*
X187628Y147839D01*
X187705Y147826D01*
X187849Y147790D01*
X187911Y147792D01*
X187959Y147784D01*
X189450Y147784D01*
X189682Y147551D01*
X189729Y147516D01*
X189769Y147474D01*
X189842Y147431D01*
X189909Y147380D01*
X189964Y147360D01*
X190014Y147330D01*
X190096Y147309D01*
X190175Y147279D01*
X190233Y147274D01*
X190290Y147260D01*
X190374Y147263D01*
X190458Y147256D01*
X190516Y147267D01*
X190574Y147269D01*
X190654Y147295D01*
X190737Y147311D01*
X190789Y147338D01*
X190845Y147356D01*
X190901Y147396D01*
X190989Y147442D01*
X191062Y147511D01*
X191118Y147551D01*
X191350Y147784D01*
X197450Y147784D01*
X197682Y147551D01*
X197729Y147516D01*
X197769Y147474D01*
X197842Y147431D01*
X197909Y147380D01*
X197964Y147360D01*
X198014Y147330D01*
X198096Y147309D01*
X198175Y147279D01*
X198233Y147274D01*
X198290Y147260D01*
X198374Y147263D01*
X198458Y147256D01*
X198516Y147267D01*
X198574Y147269D01*
X198654Y147295D01*
X198737Y147311D01*
X198789Y147338D01*
X198845Y147356D01*
X198901Y147396D01*
X198989Y147442D01*
X199062Y147511D01*
X199118Y147551D01*
X199350Y147784D01*
X205450Y147784D01*
X205682Y147551D01*
X205729Y147516D01*
X205769Y147474D01*
X205842Y147431D01*
X205909Y147380D01*
X205964Y147360D01*
X206014Y147330D01*
X206096Y147309D01*
X206175Y147279D01*
X206233Y147274D01*
X206290Y147260D01*
X206374Y147263D01*
X206458Y147256D01*
X206516Y147267D01*
X206574Y147269D01*
X206654Y147295D01*
X206737Y147311D01*
X206789Y147338D01*
X206845Y147356D01*
X206901Y147396D01*
X206989Y147442D01*
X207062Y147511D01*
X207118Y147551D01*
X207350Y147784D01*
X213450Y147784D01*
X214343Y146891D01*
X214343Y133509D01*
X213495Y132662D01*
X213460Y132615D01*
X213418Y132575D01*
X213375Y132502D01*
X213324Y132435D01*
X213304Y132380D01*
X213274Y132330D01*
X213253Y132248D01*
X213223Y132169D01*
X213218Y132111D01*
X213204Y132054D01*
X213207Y131970D01*
X213200Y131886D01*
X213211Y131829D01*
X213213Y131770D01*
X213239Y131690D01*
X213256Y131607D01*
X213282Y131555D01*
X213300Y131500D01*
X213341Y131443D01*
X213386Y131355D01*
X213455Y131282D01*
X213495Y131226D01*
X213972Y130750D01*
X213972Y127382D01*
X211591Y125001D01*
X211075Y125001D01*
X211046Y124997D01*
X211017Y125000D01*
X210906Y124977D01*
X210794Y124961D01*
X210767Y124949D01*
X210738Y124944D01*
X210638Y124892D01*
X210534Y124845D01*
X210512Y124826D01*
X210486Y124813D01*
X210404Y124735D01*
X210317Y124662D01*
X210301Y124637D01*
X210280Y124617D01*
X210223Y124519D01*
X210160Y124425D01*
X210151Y124397D01*
X210136Y124372D01*
X210108Y124262D01*
X210074Y124154D01*
X210073Y124124D01*
X210066Y124096D01*
X210070Y123983D01*
X210067Y123870D01*
X210074Y123841D01*
X210075Y123812D01*
X210110Y123704D01*
X210139Y123595D01*
X210154Y123569D01*
X210163Y123541D01*
X210208Y123478D01*
X210284Y123350D01*
X210330Y123307D01*
X210358Y123268D01*
X225712Y107913D01*
X225712Y103885D01*
X225725Y103798D01*
X225727Y103711D01*
X225744Y103658D01*
X225752Y103603D01*
X225788Y103524D01*
X225815Y103440D01*
X225843Y103401D01*
X225868Y103344D01*
X225964Y103231D01*
X226010Y103167D01*
X227236Y101940D01*
X227236Y98573D01*
X224855Y96192D01*
X221488Y96192D01*
X219107Y98573D01*
X219107Y101940D01*
X220333Y103167D01*
X220386Y103237D01*
X220446Y103301D01*
X220471Y103350D01*
X220504Y103394D01*
X220535Y103476D01*
X220575Y103554D01*
X220583Y103601D01*
X220606Y103660D01*
X220618Y103808D01*
X220631Y103885D01*
X220631Y105388D01*
X220619Y105475D01*
X220616Y105562D01*
X220599Y105615D01*
X220591Y105669D01*
X220555Y105749D01*
X220528Y105833D01*
X220500Y105872D01*
X220475Y105929D01*
X220379Y106042D01*
X220333Y106106D01*
X214181Y112258D01*
X214158Y112276D01*
X214139Y112298D01*
X214045Y112361D01*
X213954Y112429D01*
X213927Y112439D01*
X213902Y112456D01*
X213794Y112490D01*
X213688Y112530D01*
X213659Y112533D01*
X213631Y112542D01*
X213518Y112544D01*
X213405Y112554D01*
X213376Y112548D01*
X213347Y112549D01*
X213237Y112520D01*
X213126Y112498D01*
X213100Y112484D01*
X213072Y112477D01*
X212975Y112419D01*
X212874Y112367D01*
X212853Y112347D01*
X212828Y112332D01*
X212750Y112249D01*
X212668Y112171D01*
X212653Y112146D01*
X212633Y112124D01*
X212581Y112024D01*
X212524Y111926D01*
X212517Y111897D01*
X212504Y111871D01*
X212491Y111794D01*
X212454Y111650D01*
X212456Y111588D01*
X212448Y111540D01*
X212448Y73225D01*
X212460Y73138D01*
X212463Y73051D01*
X212480Y72998D01*
X212488Y72943D01*
X212524Y72864D01*
X212551Y72780D01*
X212579Y72741D01*
X212604Y72684D01*
X212700Y72571D01*
X212745Y72507D01*
X214102Y71150D01*
X214126Y71133D01*
X214145Y71110D01*
X214239Y71048D01*
X214329Y70979D01*
X214357Y70969D01*
X214381Y70953D01*
X214489Y70919D01*
X214595Y70878D01*
X214624Y70876D01*
X214652Y70867D01*
X214766Y70864D01*
X214878Y70855D01*
X214907Y70860D01*
G37*
G36*
X336465Y21577D02*
X336465Y21577D01*
X336531Y21579D01*
X336574Y21597D01*
X336621Y21605D01*
X336678Y21639D01*
X336738Y21664D01*
X336773Y21695D01*
X336814Y21720D01*
X336856Y21771D01*
X336904Y21815D01*
X336926Y21857D01*
X336955Y21894D01*
X336976Y21956D01*
X337007Y22015D01*
X337015Y22069D01*
X337027Y22106D01*
X337026Y22146D01*
X337034Y22200D01*
X337034Y73200D01*
X337023Y73265D01*
X337021Y73331D01*
X337003Y73374D01*
X336995Y73421D01*
X336961Y73478D01*
X336936Y73538D01*
X336905Y73573D01*
X336880Y73614D01*
X336829Y73656D01*
X336785Y73704D01*
X336743Y73726D01*
X336706Y73755D01*
X336644Y73776D01*
X336585Y73807D01*
X336531Y73815D01*
X336494Y73827D01*
X336454Y73826D01*
X336400Y73834D01*
X306400Y73834D01*
X306335Y73823D01*
X306269Y73821D01*
X306226Y73803D01*
X306179Y73795D01*
X306122Y73761D01*
X306062Y73736D01*
X306027Y73705D01*
X305986Y73680D01*
X305945Y73629D01*
X305896Y73585D01*
X305874Y73543D01*
X305845Y73506D01*
X305824Y73444D01*
X305793Y73385D01*
X305785Y73331D01*
X305773Y73294D01*
X305774Y73254D01*
X305766Y73200D01*
X305766Y22200D01*
X305777Y22135D01*
X305779Y22069D01*
X305797Y22026D01*
X305805Y21979D01*
X305839Y21922D01*
X305864Y21862D01*
X305895Y21827D01*
X305920Y21786D01*
X305971Y21745D01*
X306015Y21696D01*
X306057Y21674D01*
X306094Y21645D01*
X306156Y21624D01*
X306215Y21593D01*
X306269Y21585D01*
X306306Y21573D01*
X306346Y21574D01*
X306400Y21566D01*
X336400Y21566D01*
X336465Y21577D01*
G37*
G36*
X172165Y21677D02*
X172165Y21677D01*
X172231Y21679D01*
X172274Y21697D01*
X172321Y21705D01*
X172378Y21739D01*
X172438Y21764D01*
X172473Y21795D01*
X172514Y21820D01*
X172556Y21871D01*
X172604Y21915D01*
X172626Y21957D01*
X172655Y21994D01*
X172676Y22056D01*
X172707Y22115D01*
X172715Y22169D01*
X172727Y22206D01*
X172726Y22246D01*
X172734Y22300D01*
X172734Y73100D01*
X172723Y73165D01*
X172721Y73231D01*
X172703Y73274D01*
X172695Y73321D01*
X172661Y73378D01*
X172636Y73438D01*
X172605Y73473D01*
X172580Y73514D01*
X172529Y73556D01*
X172485Y73604D01*
X172443Y73626D01*
X172406Y73655D01*
X172344Y73676D01*
X172285Y73707D01*
X172231Y73715D01*
X172194Y73727D01*
X172154Y73726D01*
X172100Y73734D01*
X144160Y73734D01*
X144095Y73723D01*
X144029Y73721D01*
X143986Y73703D01*
X143939Y73695D01*
X143882Y73661D01*
X143822Y73636D01*
X143787Y73605D01*
X143746Y73580D01*
X143705Y73529D01*
X143656Y73485D01*
X143634Y73443D01*
X143605Y73406D01*
X143584Y73344D01*
X143553Y73285D01*
X143545Y73231D01*
X143533Y73194D01*
X143534Y73154D01*
X143526Y73100D01*
X143526Y22300D01*
X143537Y22235D01*
X143539Y22169D01*
X143557Y22126D01*
X143565Y22079D01*
X143599Y22022D01*
X143624Y21962D01*
X143655Y21927D01*
X143680Y21886D01*
X143731Y21845D01*
X143775Y21796D01*
X143817Y21774D01*
X143854Y21745D01*
X143916Y21724D01*
X143975Y21693D01*
X144029Y21685D01*
X144066Y21673D01*
X144106Y21674D01*
X144160Y21666D01*
X172100Y21666D01*
X172165Y21677D01*
G37*
G36*
X207965Y21577D02*
X207965Y21577D01*
X208031Y21579D01*
X208074Y21597D01*
X208121Y21605D01*
X208178Y21639D01*
X208238Y21664D01*
X208273Y21695D01*
X208314Y21720D01*
X208356Y21771D01*
X208404Y21815D01*
X208426Y21857D01*
X208455Y21894D01*
X208476Y21956D01*
X208507Y22015D01*
X208515Y22069D01*
X208527Y22106D01*
X208526Y22146D01*
X208534Y22200D01*
X208534Y57200D01*
X208527Y57242D01*
X208529Y57284D01*
X208507Y57351D01*
X208495Y57421D01*
X208473Y57457D01*
X208460Y57498D01*
X208406Y57571D01*
X208380Y57614D01*
X208364Y57627D01*
X208348Y57648D01*
X192348Y73648D01*
X192314Y73673D01*
X192285Y73704D01*
X192222Y73736D01*
X192164Y73777D01*
X192123Y73787D01*
X192085Y73807D01*
X191996Y73820D01*
X191947Y73833D01*
X191926Y73830D01*
X191900Y73834D01*
X177900Y73834D01*
X177835Y73823D01*
X177769Y73821D01*
X177726Y73803D01*
X177679Y73795D01*
X177622Y73761D01*
X177562Y73736D01*
X177527Y73705D01*
X177486Y73680D01*
X177445Y73629D01*
X177396Y73585D01*
X177374Y73543D01*
X177345Y73506D01*
X177324Y73444D01*
X177293Y73385D01*
X177285Y73331D01*
X177273Y73294D01*
X177274Y73254D01*
X177266Y73200D01*
X177266Y22200D01*
X177277Y22135D01*
X177279Y22069D01*
X177297Y22026D01*
X177305Y21979D01*
X177339Y21922D01*
X177364Y21862D01*
X177395Y21827D01*
X177420Y21786D01*
X177471Y21745D01*
X177515Y21696D01*
X177557Y21674D01*
X177594Y21645D01*
X177656Y21624D01*
X177715Y21593D01*
X177769Y21585D01*
X177806Y21573D01*
X177846Y21574D01*
X177900Y21566D01*
X207900Y21566D01*
X207965Y21577D01*
G37*
G36*
X300665Y21677D02*
X300665Y21677D01*
X300731Y21679D01*
X300774Y21697D01*
X300821Y21705D01*
X300878Y21739D01*
X300938Y21764D01*
X300973Y21795D01*
X301014Y21820D01*
X301056Y21871D01*
X301104Y21915D01*
X301126Y21957D01*
X301155Y21994D01*
X301176Y22056D01*
X301207Y22115D01*
X301215Y22169D01*
X301227Y22206D01*
X301226Y22246D01*
X301234Y22300D01*
X301234Y73100D01*
X301223Y73165D01*
X301221Y73231D01*
X301203Y73274D01*
X301195Y73321D01*
X301161Y73378D01*
X301136Y73438D01*
X301105Y73473D01*
X301080Y73514D01*
X301029Y73556D01*
X300985Y73604D01*
X300943Y73626D01*
X300906Y73655D01*
X300844Y73676D01*
X300785Y73707D01*
X300731Y73715D01*
X300694Y73727D01*
X300654Y73726D01*
X300600Y73734D01*
X286800Y73734D01*
X286758Y73727D01*
X286716Y73729D01*
X286649Y73707D01*
X286579Y73695D01*
X286543Y73673D01*
X286502Y73660D01*
X286429Y73606D01*
X286386Y73580D01*
X286373Y73564D01*
X286352Y73548D01*
X272212Y59408D01*
X272187Y59374D01*
X272156Y59345D01*
X272124Y59282D01*
X272083Y59224D01*
X272073Y59183D01*
X272053Y59145D01*
X272040Y59056D01*
X272028Y59007D01*
X272030Y58986D01*
X272026Y58960D01*
X272026Y22300D01*
X272037Y22235D01*
X272039Y22169D01*
X272057Y22126D01*
X272065Y22079D01*
X272099Y22022D01*
X272124Y21962D01*
X272155Y21927D01*
X272180Y21886D01*
X272231Y21845D01*
X272275Y21796D01*
X272317Y21774D01*
X272354Y21745D01*
X272416Y21724D01*
X272475Y21693D01*
X272529Y21685D01*
X272566Y21673D01*
X272606Y21674D01*
X272660Y21666D01*
X300600Y21666D01*
X300665Y21677D01*
G37*
G36*
X141043Y20003D02*
X141043Y20003D01*
X141101Y20001D01*
X141183Y20023D01*
X141267Y20035D01*
X141320Y20058D01*
X141376Y20073D01*
X141449Y20116D01*
X141526Y20151D01*
X141571Y20189D01*
X141621Y20218D01*
X141679Y20280D01*
X141743Y20334D01*
X141775Y20383D01*
X141815Y20426D01*
X141854Y20501D01*
X141901Y20571D01*
X141918Y20627D01*
X141945Y20679D01*
X141956Y20747D01*
X141986Y20842D01*
X141989Y20942D01*
X142000Y21010D01*
X142000Y58168D01*
X141996Y58199D01*
X141998Y58230D01*
X141981Y58306D01*
X141980Y58313D01*
X141980Y91451D01*
X142831Y93505D01*
X147448Y98123D01*
X149502Y98974D01*
X156559Y98974D01*
X156617Y98982D01*
X156676Y98980D01*
X156757Y99002D01*
X156841Y99014D01*
X156894Y99037D01*
X156951Y99052D01*
X157023Y99095D01*
X157100Y99130D01*
X157145Y99168D01*
X157195Y99197D01*
X157253Y99259D01*
X157317Y99313D01*
X157350Y99362D01*
X157390Y99405D01*
X157428Y99480D01*
X157475Y99550D01*
X157492Y99606D01*
X157519Y99658D01*
X157530Y99726D01*
X157561Y99821D01*
X157563Y99921D01*
X157574Y99989D01*
X157574Y101296D01*
X157566Y101354D01*
X157568Y101412D01*
X157546Y101494D01*
X157535Y101578D01*
X157511Y101631D01*
X157496Y101687D01*
X157453Y101760D01*
X157418Y101837D01*
X157381Y101882D01*
X157351Y101932D01*
X157289Y101990D01*
X157235Y102054D01*
X157186Y102086D01*
X157143Y102126D01*
X157068Y102165D01*
X156998Y102212D01*
X156942Y102229D01*
X156890Y102256D01*
X156822Y102267D01*
X156727Y102297D01*
X156627Y102300D01*
X156559Y102311D01*
X132499Y102311D01*
X132412Y102299D01*
X132325Y102296D01*
X132272Y102279D01*
X132217Y102271D01*
X132137Y102236D01*
X132054Y102209D01*
X132015Y102181D01*
X131958Y102155D01*
X131844Y102059D01*
X131781Y102014D01*
X130770Y101003D01*
X130718Y100934D01*
X130658Y100870D01*
X130632Y100820D01*
X130599Y100776D01*
X130568Y100694D01*
X130528Y100616D01*
X130520Y100569D01*
X130498Y100510D01*
X130486Y100363D01*
X130473Y100285D01*
X130473Y22306D01*
X129895Y21728D01*
X129877Y21704D01*
X129855Y21685D01*
X129792Y21591D01*
X129724Y21501D01*
X129713Y21473D01*
X129697Y21449D01*
X129663Y21341D01*
X129623Y21235D01*
X129620Y21206D01*
X129611Y21178D01*
X129608Y21064D01*
X129599Y20952D01*
X129605Y20923D01*
X129604Y20894D01*
X129633Y20784D01*
X129655Y20673D01*
X129668Y20647D01*
X129676Y20619D01*
X129734Y20521D01*
X129786Y20421D01*
X129806Y20399D01*
X129821Y20374D01*
X129904Y20297D01*
X129982Y20215D01*
X130007Y20200D01*
X130028Y20180D01*
X130129Y20128D01*
X130227Y20071D01*
X130255Y20064D01*
X130282Y20050D01*
X130359Y20037D01*
X130502Y20001D01*
X130565Y20003D01*
X130613Y19995D01*
X140985Y19995D01*
X141043Y20003D01*
G37*
G36*
X149500Y136351D02*
X149500Y136351D01*
X149558Y136349D01*
X149640Y136370D01*
X149724Y136382D01*
X149777Y136406D01*
X149833Y136421D01*
X149906Y136464D01*
X149983Y136498D01*
X150028Y136536D01*
X150078Y136566D01*
X150136Y136628D01*
X150200Y136682D01*
X150232Y136731D01*
X150272Y136773D01*
X150311Y136849D01*
X150358Y136919D01*
X150375Y136975D01*
X150402Y137027D01*
X150413Y137095D01*
X150443Y137190D01*
X150446Y137290D01*
X150457Y137358D01*
X150457Y142813D01*
X150445Y142900D01*
X150442Y142987D01*
X150425Y143040D01*
X150417Y143095D01*
X150382Y143175D01*
X150355Y143258D01*
X150327Y143297D01*
X150301Y143354D01*
X150227Y143442D01*
X150207Y143476D01*
X150184Y143497D01*
X150160Y143531D01*
X133592Y160099D01*
X133592Y176967D01*
X135377Y178752D01*
X135778Y179153D01*
X135831Y179223D01*
X135891Y179287D01*
X135916Y179336D01*
X135949Y179380D01*
X135980Y179462D01*
X136020Y179540D01*
X136028Y179587D01*
X136050Y179646D01*
X136062Y179793D01*
X136075Y179871D01*
X136075Y181261D01*
X136063Y181348D01*
X136060Y181435D01*
X136043Y181488D01*
X136036Y181543D01*
X136000Y181623D01*
X135973Y181706D01*
X135945Y181745D01*
X135919Y181802D01*
X135823Y181916D01*
X135778Y181979D01*
X132604Y185154D01*
X132604Y200503D01*
X135865Y203765D01*
X135918Y203834D01*
X135978Y203898D01*
X136003Y203948D01*
X136036Y203992D01*
X136067Y204073D01*
X136107Y204151D01*
X136115Y204199D01*
X136137Y204257D01*
X136149Y204405D01*
X136162Y204482D01*
X136162Y205745D01*
X136150Y205832D01*
X136147Y205919D01*
X136130Y205972D01*
X136123Y206027D01*
X136087Y206106D01*
X136060Y206190D01*
X136032Y206229D01*
X136006Y206286D01*
X135913Y206396D01*
X135898Y206421D01*
X135888Y206431D01*
X135865Y206463D01*
X132503Y209825D01*
X132503Y256512D01*
X141281Y265289D01*
X141335Y265304D01*
X141408Y265347D01*
X141485Y265381D01*
X141530Y265419D01*
X141580Y265449D01*
X141638Y265510D01*
X141702Y265565D01*
X141734Y265613D01*
X141774Y265656D01*
X141813Y265731D01*
X141860Y265801D01*
X141877Y265857D01*
X141904Y265909D01*
X141915Y265977D01*
X141945Y266073D01*
X141948Y266172D01*
X141959Y266240D01*
X141959Y276169D01*
X168884Y276169D01*
X168942Y276177D01*
X169000Y276175D01*
X169082Y276197D01*
X169165Y276209D01*
X169219Y276233D01*
X169275Y276247D01*
X169348Y276290D01*
X169425Y276325D01*
X169469Y276363D01*
X169520Y276393D01*
X169577Y276454D01*
X169642Y276509D01*
X169674Y276557D01*
X169714Y276600D01*
X169753Y276675D01*
X169799Y276745D01*
X169817Y276801D01*
X169844Y276853D01*
X169855Y276921D01*
X169885Y277016D01*
X169888Y277116D01*
X169899Y277184D01*
X169899Y279216D01*
X169891Y279274D01*
X169892Y279332D01*
X169871Y279414D01*
X169859Y279497D01*
X169835Y279551D01*
X169821Y279607D01*
X169778Y279680D01*
X169743Y279757D01*
X169705Y279801D01*
X169675Y279852D01*
X169614Y279909D01*
X169559Y279974D01*
X169511Y280006D01*
X169468Y280046D01*
X169393Y280085D01*
X169323Y280131D01*
X169267Y280149D01*
X169215Y280176D01*
X169147Y280187D01*
X169052Y280217D01*
X168952Y280220D01*
X168884Y280231D01*
X141959Y280231D01*
X141959Y291234D01*
X142132Y291881D01*
X142133Y291882D01*
X142148Y291918D01*
X142170Y291951D01*
X142201Y292050D01*
X142240Y292146D01*
X142244Y292185D01*
X142255Y292222D01*
X142258Y292326D01*
X142269Y292429D01*
X142262Y292467D01*
X142263Y292506D01*
X142237Y292606D01*
X142218Y292708D01*
X142201Y292744D01*
X142191Y292781D01*
X142138Y292870D01*
X142092Y292963D01*
X142066Y292992D01*
X142046Y293026D01*
X141970Y293097D01*
X141900Y293173D01*
X141867Y293194D01*
X141838Y293220D01*
X141746Y293267D01*
X141658Y293322D01*
X141620Y293332D01*
X141585Y293350D01*
X141509Y293363D01*
X141384Y293397D01*
X141309Y293396D01*
X141254Y293405D01*
X129613Y293405D01*
X129583Y293401D01*
X129554Y293404D01*
X129443Y293381D01*
X129331Y293365D01*
X129304Y293353D01*
X129276Y293348D01*
X129175Y293295D01*
X129072Y293249D01*
X129049Y293230D01*
X129023Y293217D01*
X128941Y293139D01*
X128855Y293066D01*
X128838Y293041D01*
X128817Y293021D01*
X128760Y292923D01*
X128697Y292829D01*
X128688Y292801D01*
X128673Y292776D01*
X128646Y292666D01*
X128611Y292558D01*
X128611Y292528D01*
X128603Y292500D01*
X128607Y292387D01*
X128604Y292274D01*
X128611Y292245D01*
X128612Y292216D01*
X128647Y292108D01*
X128676Y291999D01*
X128691Y291973D01*
X128700Y291945D01*
X128745Y291882D01*
X128821Y291754D01*
X128867Y291711D01*
X128895Y291672D01*
X130473Y290094D01*
X130473Y142692D01*
X130481Y142634D01*
X130479Y142575D01*
X130501Y142494D01*
X130513Y142410D01*
X130536Y142357D01*
X130551Y142300D01*
X130594Y142228D01*
X130629Y142151D01*
X130667Y142106D01*
X130696Y142056D01*
X130758Y141998D01*
X130812Y141934D01*
X130861Y141901D01*
X130904Y141861D01*
X130979Y141823D01*
X131049Y141776D01*
X131105Y141758D01*
X131157Y141732D01*
X131225Y141720D01*
X131320Y141690D01*
X131420Y141688D01*
X131488Y141676D01*
X133169Y141676D01*
X133183Y141666D01*
X133223Y141623D01*
X133296Y141581D01*
X133364Y141530D01*
X133418Y141509D01*
X133469Y141480D01*
X133550Y141459D01*
X133629Y141429D01*
X133688Y141424D01*
X133744Y141409D01*
X133828Y141412D01*
X133913Y141405D01*
X133970Y141417D01*
X134028Y141418D01*
X134109Y141444D01*
X134191Y141461D01*
X134243Y141488D01*
X134299Y141506D01*
X134355Y141546D01*
X134444Y141592D01*
X134516Y141661D01*
X134538Y141676D01*
X142161Y141676D01*
X143054Y140783D01*
X143054Y137358D01*
X143062Y137300D01*
X143061Y137241D01*
X143082Y137160D01*
X143094Y137076D01*
X143118Y137023D01*
X143133Y136966D01*
X143176Y136894D01*
X143210Y136817D01*
X143248Y136772D01*
X143278Y136722D01*
X143339Y136664D01*
X143394Y136600D01*
X143442Y136567D01*
X143485Y136527D01*
X143560Y136489D01*
X143630Y136442D01*
X143686Y136424D01*
X143738Y136398D01*
X143806Y136386D01*
X143901Y136356D01*
X144001Y136354D01*
X144069Y136342D01*
X149442Y136342D01*
X149500Y136351D01*
G37*
G36*
X158516Y147267D02*
X158516Y147267D01*
X158574Y147269D01*
X158654Y147295D01*
X158737Y147311D01*
X158789Y147338D01*
X158845Y147356D01*
X158901Y147396D01*
X158989Y147442D01*
X159062Y147511D01*
X159118Y147551D01*
X159353Y147786D01*
X159424Y147796D01*
X159512Y147799D01*
X159565Y147816D01*
X159619Y147824D01*
X159699Y147859D01*
X159782Y147886D01*
X159822Y147914D01*
X159879Y147940D01*
X159992Y148036D01*
X160056Y148081D01*
X166756Y154781D01*
X169173Y154781D01*
X169221Y154777D01*
X169298Y154764D01*
X171806Y154764D01*
X171864Y154773D01*
X171922Y154771D01*
X172004Y154792D01*
X172088Y154804D01*
X172141Y154828D01*
X172197Y154843D01*
X172270Y154886D01*
X172347Y154920D01*
X172392Y154958D01*
X172442Y154988D01*
X172500Y155050D01*
X172564Y155104D01*
X172596Y155153D01*
X172636Y155195D01*
X172675Y155271D01*
X172722Y155341D01*
X172739Y155397D01*
X172766Y155449D01*
X172777Y155517D01*
X172807Y155612D01*
X172810Y155712D01*
X172821Y155780D01*
X172821Y158987D01*
X175202Y161368D01*
X176937Y161368D01*
X177024Y161381D01*
X177111Y161383D01*
X177164Y161400D01*
X177219Y161408D01*
X177298Y161444D01*
X177382Y161471D01*
X177421Y161499D01*
X177478Y161524D01*
X177591Y161620D01*
X177655Y161666D01*
X179545Y163556D01*
X181330Y165341D01*
X199522Y165341D01*
X199608Y165353D01*
X199696Y165356D01*
X199748Y165373D01*
X199803Y165381D01*
X199883Y165417D01*
X199966Y165444D01*
X200006Y165472D01*
X200063Y165497D01*
X200176Y165593D01*
X200240Y165639D01*
X203484Y168883D01*
X203502Y168907D01*
X203524Y168926D01*
X203587Y169020D01*
X203655Y169110D01*
X203666Y169138D01*
X203682Y169162D01*
X203716Y169270D01*
X203756Y169376D01*
X203759Y169405D01*
X203768Y169433D01*
X203771Y169547D01*
X203780Y169659D01*
X203774Y169688D01*
X203775Y169717D01*
X203746Y169827D01*
X203724Y169938D01*
X203711Y169964D01*
X203703Y169992D01*
X203645Y170090D01*
X203593Y170190D01*
X203573Y170212D01*
X203558Y170237D01*
X203475Y170314D01*
X203397Y170396D01*
X203372Y170411D01*
X203351Y170431D01*
X203250Y170483D01*
X203152Y170540D01*
X203124Y170547D01*
X203097Y170561D01*
X203020Y170574D01*
X202876Y170610D01*
X202814Y170608D01*
X202766Y170616D01*
X199350Y170616D01*
X199118Y170849D01*
X199071Y170884D01*
X199031Y170926D01*
X198958Y170969D01*
X198891Y171020D01*
X198836Y171040D01*
X198786Y171070D01*
X198704Y171091D01*
X198625Y171121D01*
X198567Y171126D01*
X198510Y171140D01*
X198426Y171137D01*
X198342Y171144D01*
X198284Y171133D01*
X198226Y171131D01*
X198146Y171105D01*
X198063Y171089D01*
X198011Y171062D01*
X197955Y171044D01*
X197899Y171004D01*
X197811Y170958D01*
X197738Y170889D01*
X197682Y170849D01*
X197450Y170616D01*
X191307Y170616D01*
X191220Y170604D01*
X191133Y170601D01*
X191080Y170584D01*
X191025Y170576D01*
X190946Y170541D01*
X190862Y170514D01*
X190823Y170486D01*
X190766Y170460D01*
X190653Y170364D01*
X190589Y170319D01*
X190378Y170108D01*
X189799Y169773D01*
X189152Y169600D01*
X187608Y169600D01*
X187608Y176992D01*
X189442Y176992D01*
X189500Y177000D01*
X189558Y176998D01*
X189640Y177020D01*
X189724Y177032D01*
X189777Y177055D01*
X189833Y177070D01*
X189906Y177113D01*
X189983Y177148D01*
X190028Y177186D01*
X190078Y177215D01*
X190136Y177277D01*
X190200Y177331D01*
X190232Y177380D01*
X190272Y177423D01*
X190311Y177498D01*
X190358Y177568D01*
X190375Y177624D01*
X190402Y177676D01*
X190413Y177744D01*
X190443Y177839D01*
X190446Y177939D01*
X190457Y178007D01*
X190457Y178393D01*
X190449Y178448D01*
X190451Y178490D01*
X190450Y178492D01*
X190451Y178509D01*
X190429Y178591D01*
X190417Y178675D01*
X190394Y178728D01*
X190379Y178784D01*
X190336Y178857D01*
X190301Y178934D01*
X190263Y178979D01*
X190234Y179029D01*
X190172Y179087D01*
X190118Y179151D01*
X190069Y179183D01*
X190026Y179223D01*
X189951Y179262D01*
X189881Y179309D01*
X189825Y179326D01*
X189773Y179353D01*
X189705Y179364D01*
X189610Y179394D01*
X189510Y179397D01*
X189442Y179408D01*
X187608Y179408D01*
X187608Y183243D01*
X187600Y183301D01*
X187602Y183359D01*
X187580Y183441D01*
X187568Y183525D01*
X187545Y183578D01*
X187530Y183634D01*
X187487Y183707D01*
X187452Y183784D01*
X187414Y183829D01*
X187385Y183879D01*
X187323Y183937D01*
X187269Y184001D01*
X187220Y184033D01*
X187177Y184073D01*
X187102Y184112D01*
X187032Y184159D01*
X186976Y184176D01*
X186924Y184203D01*
X186856Y184214D01*
X186761Y184244D01*
X186661Y184247D01*
X186593Y184258D01*
X186207Y184258D01*
X186149Y184250D01*
X186091Y184252D01*
X186009Y184230D01*
X185925Y184218D01*
X185872Y184195D01*
X185816Y184180D01*
X185743Y184137D01*
X185666Y184102D01*
X185621Y184064D01*
X185571Y184035D01*
X185513Y183973D01*
X185449Y183919D01*
X185417Y183870D01*
X185377Y183827D01*
X185338Y183752D01*
X185291Y183682D01*
X185274Y183626D01*
X185247Y183574D01*
X185236Y183506D01*
X185206Y183411D01*
X185203Y183311D01*
X185192Y183243D01*
X185192Y179408D01*
X178593Y179408D01*
X178535Y179400D01*
X178477Y179402D01*
X178408Y179384D01*
X178375Y179394D01*
X178275Y179397D01*
X178207Y179408D01*
X175622Y179408D01*
X175535Y179396D01*
X175448Y179393D01*
X175395Y179376D01*
X175340Y179368D01*
X175261Y179333D01*
X175177Y179306D01*
X175138Y179278D01*
X175081Y179252D01*
X174968Y179156D01*
X174904Y179111D01*
X174640Y178847D01*
X174588Y178777D01*
X174528Y178713D01*
X174502Y178664D01*
X174469Y178620D01*
X174438Y178538D01*
X174398Y178460D01*
X174390Y178413D01*
X174368Y178354D01*
X174356Y178206D01*
X174343Y178129D01*
X174343Y178007D01*
X174351Y177949D01*
X174349Y177891D01*
X174371Y177809D01*
X174383Y177725D01*
X174406Y177672D01*
X174421Y177616D01*
X174464Y177543D01*
X174499Y177466D01*
X174537Y177421D01*
X174566Y177371D01*
X174628Y177313D01*
X174682Y177249D01*
X174731Y177217D01*
X174774Y177177D01*
X174849Y177138D01*
X174919Y177091D01*
X174975Y177074D01*
X175027Y177047D01*
X175095Y177036D01*
X175190Y177006D01*
X175290Y177003D01*
X175358Y176992D01*
X177192Y176992D01*
X177192Y169600D01*
X175648Y169600D01*
X175001Y169773D01*
X174422Y170108D01*
X174211Y170319D01*
X174141Y170371D01*
X174077Y170431D01*
X174028Y170457D01*
X173984Y170490D01*
X173902Y170521D01*
X173824Y170561D01*
X173777Y170569D01*
X173718Y170591D01*
X173570Y170603D01*
X173493Y170616D01*
X167350Y170616D01*
X167118Y170849D01*
X167071Y170884D01*
X167031Y170926D01*
X166958Y170969D01*
X166891Y171020D01*
X166836Y171040D01*
X166786Y171070D01*
X166704Y171091D01*
X166625Y171121D01*
X166567Y171126D01*
X166510Y171140D01*
X166426Y171137D01*
X166342Y171144D01*
X166284Y171133D01*
X166226Y171131D01*
X166146Y171105D01*
X166063Y171089D01*
X166011Y171062D01*
X165955Y171044D01*
X165899Y171004D01*
X165811Y170958D01*
X165738Y170889D01*
X165682Y170849D01*
X165450Y170616D01*
X159350Y170616D01*
X159118Y170849D01*
X159071Y170884D01*
X159031Y170926D01*
X158958Y170969D01*
X158891Y171020D01*
X158836Y171040D01*
X158786Y171070D01*
X158704Y171091D01*
X158625Y171121D01*
X158567Y171126D01*
X158510Y171140D01*
X158426Y171137D01*
X158342Y171144D01*
X158284Y171133D01*
X158226Y171131D01*
X158146Y171105D01*
X158063Y171089D01*
X158011Y171062D01*
X157955Y171044D01*
X157899Y171004D01*
X157811Y170958D01*
X157738Y170889D01*
X157682Y170849D01*
X157450Y170616D01*
X151350Y170616D01*
X150457Y171509D01*
X150457Y172497D01*
X150449Y172555D01*
X150451Y172613D01*
X150429Y172695D01*
X150417Y172778D01*
X150394Y172832D01*
X150379Y172888D01*
X150336Y172961D01*
X150301Y173038D01*
X150263Y173083D01*
X150234Y173133D01*
X150172Y173191D01*
X150118Y173255D01*
X150069Y173287D01*
X150026Y173327D01*
X149951Y173366D01*
X149881Y173412D01*
X149825Y173430D01*
X149773Y173457D01*
X149705Y173468D01*
X149610Y173498D01*
X149510Y173501D01*
X149442Y173512D01*
X144761Y173512D01*
X141760Y176513D01*
X141713Y176548D01*
X141673Y176590D01*
X141600Y176633D01*
X141533Y176684D01*
X141478Y176705D01*
X141428Y176734D01*
X141346Y176755D01*
X141267Y176785D01*
X141209Y176790D01*
X141152Y176804D01*
X141068Y176802D01*
X140984Y176809D01*
X140927Y176797D01*
X140868Y176795D01*
X140788Y176769D01*
X140705Y176753D01*
X140653Y176726D01*
X140598Y176708D01*
X140541Y176668D01*
X140453Y176622D01*
X140380Y176553D01*
X140324Y176513D01*
X138971Y175159D01*
X138918Y175089D01*
X138858Y175025D01*
X138833Y174976D01*
X138800Y174932D01*
X138769Y174850D01*
X138729Y174772D01*
X138721Y174725D01*
X138698Y174666D01*
X138686Y174519D01*
X138673Y174441D01*
X138673Y162625D01*
X138685Y162538D01*
X138688Y162451D01*
X138705Y162398D01*
X138713Y162343D01*
X138749Y162263D01*
X138776Y162180D01*
X138804Y162141D01*
X138829Y162084D01*
X138925Y161971D01*
X138971Y161907D01*
X152796Y148081D01*
X152866Y148029D01*
X152930Y147969D01*
X152979Y147943D01*
X153024Y147910D01*
X153105Y147879D01*
X153183Y147839D01*
X153231Y147831D01*
X153289Y147809D01*
X153437Y147797D01*
X153514Y147784D01*
X157450Y147784D01*
X157682Y147551D01*
X157729Y147516D01*
X157769Y147474D01*
X157842Y147431D01*
X157909Y147380D01*
X157964Y147360D01*
X158014Y147330D01*
X158096Y147309D01*
X158175Y147279D01*
X158233Y147274D01*
X158290Y147260D01*
X158374Y147263D01*
X158458Y147256D01*
X158516Y147267D01*
G37*
G36*
X202480Y249023D02*
X202480Y249023D01*
X202538Y249022D01*
X202620Y249043D01*
X202703Y249055D01*
X202757Y249079D01*
X202813Y249094D01*
X202886Y249137D01*
X202963Y249171D01*
X203007Y249209D01*
X203058Y249239D01*
X203115Y249300D01*
X203180Y249355D01*
X203212Y249403D01*
X203252Y249446D01*
X203291Y249521D01*
X203337Y249591D01*
X203355Y249647D01*
X203382Y249699D01*
X203393Y249767D01*
X203423Y249862D01*
X203424Y249903D01*
X204330Y250809D01*
X230993Y250809D01*
X231626Y250177D01*
X231650Y250159D01*
X231669Y250137D01*
X231763Y250074D01*
X231853Y250006D01*
X231881Y249995D01*
X231905Y249979D01*
X232013Y249945D01*
X232119Y249904D01*
X232148Y249902D01*
X232176Y249893D01*
X232290Y249890D01*
X232402Y249881D01*
X232431Y249887D01*
X232460Y249886D01*
X232570Y249915D01*
X232681Y249937D01*
X232707Y249950D01*
X232735Y249958D01*
X232833Y250015D01*
X232933Y250068D01*
X232955Y250088D01*
X232980Y250103D01*
X233057Y250186D01*
X233139Y250264D01*
X233154Y250289D01*
X233174Y250310D01*
X233226Y250411D01*
X233283Y250509D01*
X233290Y250537D01*
X233304Y250563D01*
X233317Y250641D01*
X233353Y250784D01*
X233351Y250847D01*
X233359Y250894D01*
X233359Y282252D01*
X234095Y282988D01*
X234130Y283035D01*
X234173Y283075D01*
X234215Y283148D01*
X234266Y283215D01*
X234287Y283270D01*
X234316Y283320D01*
X234337Y283402D01*
X234367Y283481D01*
X234372Y283539D01*
X234386Y283596D01*
X234384Y283680D01*
X234391Y283764D01*
X234379Y283821D01*
X234377Y283880D01*
X234351Y283960D01*
X234335Y284043D01*
X234308Y284095D01*
X234290Y284151D01*
X234250Y284207D01*
X234225Y284254D01*
X234225Y287006D01*
X234618Y287399D01*
X234670Y287469D01*
X234730Y287533D01*
X234756Y287582D01*
X234789Y287626D01*
X234820Y287708D01*
X234860Y287786D01*
X234868Y287833D01*
X234890Y287892D01*
X234902Y288040D01*
X234915Y288117D01*
X234915Y289733D01*
X234903Y289820D01*
X234900Y289907D01*
X234883Y289960D01*
X234875Y290015D01*
X234840Y290094D01*
X234813Y290178D01*
X234785Y290217D01*
X234759Y290274D01*
X234663Y290387D01*
X234618Y290451D01*
X234225Y290844D01*
X234225Y292390D01*
X234217Y292448D01*
X234219Y292506D01*
X234197Y292588D01*
X234185Y292672D01*
X234162Y292725D01*
X234147Y292781D01*
X234104Y292854D01*
X234069Y292931D01*
X234031Y292976D01*
X234002Y293026D01*
X233940Y293084D01*
X233886Y293148D01*
X233837Y293180D01*
X233794Y293220D01*
X233719Y293259D01*
X233649Y293306D01*
X233593Y293323D01*
X233541Y293350D01*
X233473Y293361D01*
X233378Y293391D01*
X233278Y293394D01*
X233210Y293405D01*
X230296Y293405D01*
X230267Y293401D01*
X230238Y293404D01*
X230127Y293381D01*
X230015Y293365D01*
X229988Y293353D01*
X229959Y293348D01*
X229859Y293295D01*
X229756Y293249D01*
X229733Y293230D01*
X229707Y293217D01*
X229625Y293139D01*
X229539Y293066D01*
X229522Y293041D01*
X229501Y293021D01*
X229444Y292923D01*
X229381Y292829D01*
X229372Y292801D01*
X229357Y292775D01*
X229329Y292666D01*
X229295Y292558D01*
X229294Y292528D01*
X229287Y292500D01*
X229291Y292387D01*
X229288Y292274D01*
X229295Y292245D01*
X229296Y292216D01*
X229331Y292108D01*
X229360Y291999D01*
X229375Y291973D01*
X229384Y291945D01*
X229429Y291881D01*
X229505Y291754D01*
X229551Y291711D01*
X229579Y291672D01*
X229593Y291658D01*
X229927Y291079D01*
X230100Y290433D01*
X230100Y285779D01*
X215876Y285779D01*
X215818Y285771D01*
X215759Y285773D01*
X215678Y285751D01*
X215594Y285739D01*
X215541Y285715D01*
X215484Y285701D01*
X215412Y285658D01*
X215335Y285623D01*
X215290Y285585D01*
X215240Y285555D01*
X215182Y285494D01*
X215118Y285439D01*
X215085Y285391D01*
X215045Y285348D01*
X215007Y285273D01*
X214960Y285203D01*
X214943Y285147D01*
X214916Y285095D01*
X214905Y285027D01*
X214874Y284932D01*
X214872Y284832D01*
X214860Y284764D01*
X214860Y282732D01*
X214869Y282674D01*
X214867Y282616D01*
X214888Y282534D01*
X214900Y282451D01*
X214924Y282397D01*
X214939Y282341D01*
X214982Y282268D01*
X215017Y282191D01*
X215054Y282147D01*
X215084Y282096D01*
X215146Y282039D01*
X215200Y281974D01*
X215249Y281942D01*
X215292Y281902D01*
X215367Y281863D01*
X215437Y281817D01*
X215493Y281799D01*
X215545Y281772D01*
X215613Y281761D01*
X215708Y281731D01*
X215808Y281728D01*
X215876Y281717D01*
X230100Y281717D01*
X230100Y277064D01*
X229927Y276417D01*
X229593Y275838D01*
X229120Y275365D01*
X228540Y275030D01*
X227894Y274857D01*
X225100Y274857D01*
X225042Y274849D01*
X224984Y274851D01*
X224902Y274829D01*
X224818Y274817D01*
X224765Y274794D01*
X224709Y274779D01*
X224636Y274736D01*
X224559Y274701D01*
X224514Y274663D01*
X224464Y274634D01*
X224406Y274572D01*
X224342Y274518D01*
X224310Y274469D01*
X224270Y274426D01*
X224231Y274351D01*
X224184Y274281D01*
X224167Y274225D01*
X224140Y274173D01*
X224129Y274105D01*
X224099Y274010D01*
X224096Y273910D01*
X224085Y273842D01*
X224085Y271336D01*
X221704Y268955D01*
X218336Y268955D01*
X217110Y270182D01*
X217040Y270234D01*
X216976Y270294D01*
X216927Y270320D01*
X216883Y270353D01*
X216801Y270384D01*
X216723Y270424D01*
X216675Y270432D01*
X216617Y270454D01*
X216537Y270461D01*
X216487Y270473D01*
X216437Y270472D01*
X216392Y270479D01*
X216377Y270479D01*
X216354Y270476D01*
X216334Y270478D01*
X216279Y270467D01*
X216203Y270464D01*
X216151Y270447D01*
X216096Y270439D01*
X216057Y270422D01*
X216055Y270422D01*
X216047Y270418D01*
X216016Y270404D01*
X215933Y270377D01*
X215893Y270349D01*
X215836Y270323D01*
X215723Y270227D01*
X215659Y270182D01*
X210071Y264594D01*
X210054Y264570D01*
X210031Y264551D01*
X209968Y264457D01*
X209900Y264367D01*
X209890Y264339D01*
X209874Y264315D01*
X209839Y264207D01*
X209799Y264101D01*
X209797Y264072D01*
X209788Y264044D01*
X209785Y263930D01*
X209776Y263818D01*
X209781Y263789D01*
X209781Y263760D01*
X209809Y263650D01*
X209831Y263539D01*
X209845Y263513D01*
X209852Y263485D01*
X209910Y263387D01*
X209962Y263287D01*
X209983Y263265D01*
X209998Y263240D01*
X210080Y263163D01*
X210158Y263081D01*
X210184Y263066D01*
X210205Y263046D01*
X210306Y262994D01*
X210404Y262937D01*
X210432Y262930D01*
X210458Y262916D01*
X210535Y262903D01*
X210679Y262867D01*
X210742Y262869D01*
X210789Y262861D01*
X216392Y262861D01*
X216478Y262873D01*
X216566Y262876D01*
X216618Y262893D01*
X216673Y262901D01*
X216753Y262936D01*
X216836Y262963D01*
X216876Y262991D01*
X216933Y263017D01*
X217046Y263113D01*
X217110Y263158D01*
X218336Y264385D01*
X221704Y264385D01*
X224085Y262004D01*
X224085Y258636D01*
X221704Y256255D01*
X218336Y256255D01*
X217110Y257482D01*
X217040Y257534D01*
X216976Y257594D01*
X216927Y257620D01*
X216882Y257653D01*
X216801Y257684D01*
X216723Y257724D01*
X216675Y257732D01*
X216617Y257754D01*
X216469Y257766D01*
X216392Y257779D01*
X208706Y257779D01*
X208620Y257767D01*
X208532Y257764D01*
X208480Y257747D01*
X208425Y257739D01*
X208345Y257704D01*
X208262Y257677D01*
X208222Y257649D01*
X208165Y257623D01*
X208052Y257527D01*
X207988Y257482D01*
X203530Y253023D01*
X194880Y253023D01*
X194851Y253019D01*
X194821Y253022D01*
X194710Y252999D01*
X194598Y252983D01*
X194571Y252971D01*
X194543Y252966D01*
X194442Y252913D01*
X194339Y252867D01*
X194316Y252848D01*
X194290Y252835D01*
X194208Y252757D01*
X194122Y252684D01*
X194105Y252659D01*
X194084Y252639D01*
X194027Y252541D01*
X193964Y252447D01*
X193955Y252419D01*
X193940Y252394D01*
X193913Y252284D01*
X193878Y252176D01*
X193878Y252146D01*
X193870Y252118D01*
X193874Y252005D01*
X193871Y251892D01*
X193878Y251863D01*
X193879Y251834D01*
X193914Y251726D01*
X193943Y251617D01*
X193958Y251591D01*
X193967Y251563D01*
X194012Y251500D01*
X194088Y251372D01*
X194134Y251329D01*
X194162Y251290D01*
X196140Y249312D01*
X196209Y249260D01*
X196273Y249200D01*
X196323Y249175D01*
X196367Y249141D01*
X196448Y249110D01*
X196526Y249071D01*
X196574Y249063D01*
X196632Y249040D01*
X196780Y249028D01*
X196857Y249015D01*
X202422Y249015D01*
X202480Y249023D01*
G37*
G36*
X175815Y74597D02*
X175815Y74597D01*
X175929Y74594D01*
X175957Y74601D01*
X175986Y74602D01*
X176094Y74637D01*
X176204Y74666D01*
X176229Y74681D01*
X176257Y74690D01*
X176321Y74735D01*
X176448Y74811D01*
X176491Y74857D01*
X176530Y74885D01*
X177005Y75360D01*
X179588Y75360D01*
X179617Y75364D01*
X179646Y75361D01*
X179757Y75384D01*
X179869Y75400D01*
X179896Y75412D01*
X179925Y75417D01*
X180025Y75469D01*
X180129Y75516D01*
X180151Y75535D01*
X180177Y75548D01*
X180259Y75626D01*
X180346Y75699D01*
X180362Y75724D01*
X180383Y75744D01*
X180440Y75842D01*
X180503Y75936D01*
X180512Y75964D01*
X180527Y75989D01*
X180555Y76099D01*
X180589Y76207D01*
X180590Y76236D01*
X180597Y76265D01*
X180593Y76378D01*
X180596Y76491D01*
X180589Y76520D01*
X180588Y76549D01*
X180553Y76657D01*
X180524Y76766D01*
X180510Y76792D01*
X180500Y76820D01*
X180455Y76883D01*
X180379Y77011D01*
X180334Y77054D01*
X180306Y77093D01*
X180059Y77339D01*
X180059Y77340D01*
X177657Y79741D01*
X177599Y79810D01*
X177553Y79874D01*
X177424Y80003D01*
X177424Y89766D01*
X178318Y90659D01*
X185659Y90659D01*
X185717Y90667D01*
X185776Y90666D01*
X185857Y90687D01*
X185941Y90699D01*
X185994Y90723D01*
X186051Y90738D01*
X186123Y90781D01*
X186200Y90815D01*
X186245Y90853D01*
X186295Y90883D01*
X186353Y90944D01*
X186417Y90999D01*
X186450Y91048D01*
X186490Y91090D01*
X186528Y91165D01*
X186575Y91236D01*
X186592Y91291D01*
X186619Y91343D01*
X186630Y91411D01*
X186661Y91507D01*
X186663Y91606D01*
X186674Y91674D01*
X186674Y107094D01*
X186666Y107152D01*
X186668Y107211D01*
X186646Y107292D01*
X186635Y107376D01*
X186611Y107429D01*
X186596Y107486D01*
X186553Y107558D01*
X186518Y107635D01*
X186481Y107680D01*
X186451Y107730D01*
X186389Y107788D01*
X186335Y107852D01*
X186286Y107885D01*
X186243Y107925D01*
X186168Y107963D01*
X186098Y108010D01*
X186042Y108028D01*
X185990Y108054D01*
X185922Y108066D01*
X185827Y108096D01*
X185727Y108098D01*
X185659Y108110D01*
X184438Y108110D01*
X184352Y108097D01*
X184264Y108095D01*
X184211Y108078D01*
X184157Y108070D01*
X184077Y108034D01*
X183994Y108007D01*
X183954Y107979D01*
X183897Y107954D01*
X183784Y107858D01*
X183720Y107812D01*
X183509Y107601D01*
X182930Y107267D01*
X182284Y107094D01*
X181465Y107094D01*
X181465Y113884D01*
X181456Y113942D01*
X181458Y114000D01*
X181437Y114082D01*
X181425Y114166D01*
X181401Y114219D01*
X181386Y114276D01*
X181343Y114348D01*
X181309Y114425D01*
X181271Y114470D01*
X181241Y114520D01*
X181240Y114520D01*
X181179Y114578D01*
X181125Y114642D01*
X181124Y114643D01*
X181076Y114675D01*
X181033Y114715D01*
X180958Y114753D01*
X180888Y114800D01*
X180832Y114818D01*
X180780Y114844D01*
X180712Y114856D01*
X180617Y114886D01*
X180517Y114888D01*
X180449Y114900D01*
X176408Y114900D01*
X176408Y118469D01*
X176582Y119115D01*
X176916Y119695D01*
X177389Y120168D01*
X177968Y120502D01*
X178357Y120606D01*
X178393Y120622D01*
X178432Y120629D01*
X178524Y120677D01*
X178619Y120718D01*
X178649Y120742D01*
X178684Y120760D01*
X178759Y120831D01*
X178840Y120897D01*
X178862Y120929D01*
X178890Y120956D01*
X178943Y121045D01*
X179002Y121131D01*
X179014Y121168D01*
X179034Y121201D01*
X179059Y121302D01*
X179093Y121400D01*
X179094Y121439D01*
X179104Y121477D01*
X179101Y121580D01*
X179105Y121684D01*
X179096Y121722D01*
X179095Y121761D01*
X179063Y121859D01*
X179039Y121960D01*
X179019Y121994D01*
X179007Y122031D01*
X178963Y122095D01*
X178898Y122207D01*
X178845Y122260D01*
X178813Y122305D01*
X176567Y124550D01*
X176567Y128045D01*
X176559Y128103D01*
X176560Y128161D01*
X176539Y128243D01*
X176527Y128327D01*
X176503Y128380D01*
X176489Y128436D01*
X176446Y128509D01*
X176411Y128586D01*
X176373Y128631D01*
X176343Y128681D01*
X176282Y128739D01*
X176227Y128803D01*
X176179Y128835D01*
X176136Y128875D01*
X176061Y128914D01*
X175991Y128961D01*
X175935Y128978D01*
X175883Y129005D01*
X175815Y129016D01*
X175720Y129046D01*
X175620Y129049D01*
X175552Y129060D01*
X173647Y129060D01*
X171002Y131704D01*
X170956Y131740D01*
X170915Y131782D01*
X170843Y131825D01*
X170775Y131875D01*
X170721Y131896D01*
X170670Y131926D01*
X170589Y131946D01*
X170510Y131977D01*
X170451Y131981D01*
X170395Y131996D01*
X170310Y131993D01*
X170226Y132000D01*
X170169Y131989D01*
X170111Y131987D01*
X170030Y131961D01*
X169948Y131944D01*
X169896Y131917D01*
X169840Y131899D01*
X169784Y131859D01*
X169695Y131813D01*
X169623Y131744D01*
X169567Y131704D01*
X166923Y129060D01*
X162244Y129060D01*
X162215Y129056D01*
X162186Y129059D01*
X162075Y129036D01*
X161963Y129020D01*
X161936Y129008D01*
X161907Y129003D01*
X161807Y128951D01*
X161703Y128904D01*
X161681Y128885D01*
X161655Y128872D01*
X161573Y128794D01*
X161486Y128721D01*
X161470Y128696D01*
X161449Y128676D01*
X161392Y128578D01*
X161329Y128484D01*
X161320Y128456D01*
X161305Y128431D01*
X161277Y128321D01*
X161243Y128213D01*
X161242Y128183D01*
X161235Y128155D01*
X161239Y128042D01*
X161236Y127929D01*
X161243Y127900D01*
X161244Y127871D01*
X161279Y127763D01*
X161308Y127654D01*
X161323Y127628D01*
X161332Y127600D01*
X161377Y127537D01*
X161453Y127409D01*
X161499Y127366D01*
X161527Y127327D01*
X163116Y125738D01*
X164973Y123881D01*
X164973Y123880D01*
X170187Y118667D01*
X171038Y116612D01*
X171038Y110924D01*
X171046Y110867D01*
X171045Y110808D01*
X171066Y110726D01*
X171078Y110643D01*
X171102Y110590D01*
X171116Y110533D01*
X171160Y110461D01*
X171194Y110384D01*
X171232Y110339D01*
X171262Y110289D01*
X171323Y110231D01*
X171378Y110167D01*
X171426Y110134D01*
X171469Y110094D01*
X171544Y110056D01*
X171614Y110009D01*
X171670Y109991D01*
X171722Y109965D01*
X171790Y109953D01*
X171885Y109923D01*
X171985Y109921D01*
X172053Y109909D01*
X172431Y109909D01*
X173324Y109016D01*
X173324Y99019D01*
X173336Y98932D01*
X173339Y98845D01*
X173356Y98792D01*
X173364Y98737D01*
X173400Y98657D01*
X173426Y98574D01*
X173454Y98535D01*
X173480Y98478D01*
X173576Y98364D01*
X173621Y98301D01*
X174797Y97125D01*
X174797Y75602D01*
X174801Y75573D01*
X174799Y75544D01*
X174821Y75433D01*
X174837Y75321D01*
X174849Y75294D01*
X174855Y75265D01*
X174907Y75165D01*
X174953Y75061D01*
X174972Y75039D01*
X174986Y75013D01*
X175064Y74931D01*
X175137Y74844D01*
X175161Y74828D01*
X175181Y74807D01*
X175279Y74750D01*
X175373Y74687D01*
X175401Y74678D01*
X175427Y74663D01*
X175536Y74635D01*
X175644Y74601D01*
X175674Y74600D01*
X175702Y74593D01*
X175815Y74597D01*
G37*
G36*
X173007Y196968D02*
X173007Y196968D01*
X173065Y196966D01*
X173147Y196988D01*
X173230Y197000D01*
X173284Y197023D01*
X173340Y197038D01*
X173413Y197081D01*
X173490Y197116D01*
X173534Y197154D01*
X173585Y197183D01*
X173642Y197245D01*
X173707Y197299D01*
X173739Y197348D01*
X173779Y197391D01*
X173818Y197466D01*
X173864Y197536D01*
X173882Y197592D01*
X173909Y197644D01*
X173920Y197712D01*
X173950Y197807D01*
X173953Y197907D01*
X173964Y197975D01*
X173964Y209566D01*
X174857Y210459D01*
X188122Y210459D01*
X188208Y210472D01*
X188296Y210475D01*
X188348Y210492D01*
X188403Y210499D01*
X188483Y210535D01*
X188566Y210562D01*
X188605Y210590D01*
X188662Y210616D01*
X188776Y210711D01*
X188839Y210757D01*
X191634Y213551D01*
X191651Y213575D01*
X191674Y213593D01*
X191737Y213688D01*
X191805Y213778D01*
X191815Y213806D01*
X191831Y213830D01*
X191866Y213938D01*
X191906Y214044D01*
X191908Y214073D01*
X191917Y214101D01*
X191920Y214215D01*
X191929Y214327D01*
X191924Y214356D01*
X191924Y214385D01*
X191896Y214495D01*
X191874Y214606D01*
X191860Y214632D01*
X191853Y214660D01*
X191795Y214758D01*
X191743Y214858D01*
X191722Y214880D01*
X191707Y214905D01*
X191625Y214982D01*
X191547Y215064D01*
X191521Y215079D01*
X191500Y215099D01*
X191399Y215151D01*
X191301Y215208D01*
X191273Y215215D01*
X191247Y215229D01*
X191170Y215242D01*
X191026Y215278D01*
X190963Y215276D01*
X190916Y215284D01*
X178332Y215284D01*
X177439Y216177D01*
X177439Y220999D01*
X177431Y221057D01*
X177432Y221115D01*
X177411Y221197D01*
X177399Y221280D01*
X177375Y221334D01*
X177360Y221390D01*
X177317Y221463D01*
X177283Y221540D01*
X177245Y221585D01*
X177215Y221635D01*
X177154Y221693D01*
X177099Y221757D01*
X177051Y221789D01*
X177008Y221829D01*
X176933Y221868D01*
X176863Y221914D01*
X176807Y221932D01*
X176755Y221959D01*
X176687Y221970D01*
X176592Y222000D01*
X176492Y222003D01*
X176424Y222014D01*
X174427Y222014D01*
X174369Y222006D01*
X174311Y222008D01*
X174229Y221986D01*
X174146Y221974D01*
X174092Y221950D01*
X174036Y221936D01*
X173963Y221893D01*
X173886Y221858D01*
X173842Y221820D01*
X173791Y221790D01*
X173734Y221729D01*
X173669Y221674D01*
X173637Y221626D01*
X173597Y221583D01*
X173558Y221508D01*
X173512Y221438D01*
X173494Y221382D01*
X173467Y221330D01*
X173456Y221262D01*
X173426Y221167D01*
X173423Y221067D01*
X173412Y220999D01*
X173412Y215788D01*
X172519Y214895D01*
X165746Y214895D01*
X165737Y214904D01*
X165664Y214947D01*
X165596Y214998D01*
X165542Y215019D01*
X165491Y215048D01*
X165410Y215069D01*
X165331Y215099D01*
X165272Y215104D01*
X165216Y215118D01*
X165132Y215116D01*
X165047Y215123D01*
X164990Y215111D01*
X164932Y215109D01*
X164852Y215083D01*
X164769Y215067D01*
X164717Y215040D01*
X164661Y215022D01*
X164605Y214982D01*
X164516Y214936D01*
X164444Y214867D01*
X164388Y214827D01*
X163947Y214386D01*
X163657Y214219D01*
X163641Y214207D01*
X163623Y214199D01*
X163529Y214119D01*
X163433Y214043D01*
X163421Y214028D01*
X163406Y214015D01*
X163338Y213912D01*
X163266Y213813D01*
X163260Y213795D01*
X163249Y213778D01*
X163212Y213661D01*
X163170Y213545D01*
X163169Y213526D01*
X163163Y213507D01*
X163160Y213385D01*
X163152Y213262D01*
X163156Y213243D01*
X163156Y213223D01*
X163187Y213104D01*
X163213Y212984D01*
X163223Y212967D01*
X163227Y212948D01*
X163290Y212842D01*
X163349Y212734D01*
X163363Y212720D01*
X163373Y212704D01*
X163462Y212619D01*
X163549Y212532D01*
X163566Y212522D01*
X163580Y212509D01*
X163689Y212453D01*
X163797Y212393D01*
X163816Y212389D01*
X163833Y212380D01*
X163906Y212367D01*
X164073Y212328D01*
X164124Y212331D01*
X164164Y212324D01*
X166288Y212324D01*
X166934Y212151D01*
X167513Y211817D01*
X167986Y211344D01*
X168321Y210764D01*
X168494Y210118D01*
X168494Y207033D01*
X163187Y207033D01*
X163130Y207025D01*
X163071Y207026D01*
X162989Y207005D01*
X162906Y206993D01*
X162853Y206969D01*
X162796Y206954D01*
X162724Y206911D01*
X162647Y206877D01*
X162602Y206839D01*
X162552Y206809D01*
X162494Y206747D01*
X162430Y206693D01*
X162397Y206644D01*
X162357Y206602D01*
X162319Y206527D01*
X162272Y206456D01*
X162254Y206401D01*
X162228Y206349D01*
X162216Y206280D01*
X162186Y206185D01*
X162184Y206086D01*
X162172Y206017D01*
X162172Y204549D01*
X162180Y204492D01*
X162179Y204433D01*
X162200Y204351D01*
X162212Y204268D01*
X162236Y204215D01*
X162251Y204158D01*
X162294Y204086D01*
X162328Y204008D01*
X162366Y203964D01*
X162396Y203914D01*
X162457Y203856D01*
X162512Y203791D01*
X162561Y203759D01*
X162603Y203719D01*
X162678Y203681D01*
X162749Y203634D01*
X162804Y203616D01*
X162856Y203590D01*
X162924Y203578D01*
X163020Y203548D01*
X163119Y203546D01*
X163187Y203534D01*
X168494Y203534D01*
X168494Y200449D01*
X168321Y199803D01*
X167986Y199223D01*
X167456Y198693D01*
X167438Y198669D01*
X167416Y198650D01*
X167353Y198556D01*
X167285Y198466D01*
X167274Y198438D01*
X167258Y198414D01*
X167224Y198306D01*
X167184Y198200D01*
X167181Y198171D01*
X167172Y198143D01*
X167169Y198029D01*
X167160Y197917D01*
X167166Y197888D01*
X167165Y197859D01*
X167194Y197749D01*
X167216Y197638D01*
X167230Y197612D01*
X167237Y197584D01*
X167295Y197486D01*
X167347Y197386D01*
X167367Y197364D01*
X167382Y197339D01*
X167465Y197262D01*
X167543Y197180D01*
X167568Y197165D01*
X167589Y197145D01*
X167690Y197093D01*
X167788Y197036D01*
X167816Y197029D01*
X167843Y197015D01*
X167920Y197002D01*
X168064Y196966D01*
X168126Y196968D01*
X168174Y196960D01*
X172949Y196960D01*
X173007Y196968D01*
G37*
G36*
X199618Y261673D02*
X199618Y261673D01*
X199705Y261676D01*
X199758Y261693D01*
X199813Y261701D01*
X199893Y261736D01*
X199976Y261763D01*
X200015Y261791D01*
X200072Y261817D01*
X200185Y261913D01*
X200249Y261958D01*
X211415Y273124D01*
X211433Y273148D01*
X211455Y273167D01*
X211518Y273261D01*
X211586Y273351D01*
X211597Y273379D01*
X211613Y273403D01*
X211647Y273511D01*
X211687Y273617D01*
X211690Y273646D01*
X211699Y273674D01*
X211702Y273788D01*
X211711Y273900D01*
X211705Y273929D01*
X211706Y273958D01*
X211677Y274068D01*
X211655Y274179D01*
X211642Y274205D01*
X211634Y274233D01*
X211576Y274331D01*
X211524Y274431D01*
X211504Y274453D01*
X211489Y274478D01*
X211406Y274555D01*
X211328Y274637D01*
X211303Y274652D01*
X211282Y274672D01*
X211181Y274724D01*
X211083Y274781D01*
X211055Y274788D01*
X211028Y274802D01*
X210951Y274815D01*
X210807Y274851D01*
X210745Y274849D01*
X210697Y274857D01*
X201825Y274857D01*
X201179Y275030D01*
X200600Y275365D01*
X200127Y275838D01*
X199735Y276516D01*
X199723Y276531D01*
X199715Y276549D01*
X199636Y276643D01*
X199560Y276740D01*
X199544Y276751D01*
X199531Y276766D01*
X199527Y276769D01*
X199537Y276801D01*
X199563Y276853D01*
X199575Y276921D01*
X199605Y277016D01*
X199607Y277116D01*
X199619Y277184D01*
X199619Y279216D01*
X199611Y279274D01*
X199612Y279332D01*
X199591Y279414D01*
X199579Y279497D01*
X199555Y279551D01*
X199540Y279607D01*
X199497Y279680D01*
X199463Y279757D01*
X199425Y279801D01*
X199395Y279852D01*
X199334Y279909D01*
X199279Y279974D01*
X199230Y280006D01*
X199188Y280046D01*
X199113Y280085D01*
X199042Y280131D01*
X198987Y280149D01*
X198935Y280176D01*
X198867Y280187D01*
X198771Y280217D01*
X198672Y280220D01*
X198604Y280231D01*
X170916Y280231D01*
X170858Y280223D01*
X170800Y280224D01*
X170718Y280203D01*
X170635Y280191D01*
X170581Y280167D01*
X170525Y280153D01*
X170452Y280110D01*
X170375Y280075D01*
X170331Y280037D01*
X170280Y280007D01*
X170223Y279946D01*
X170158Y279891D01*
X170126Y279843D01*
X170086Y279800D01*
X170047Y279725D01*
X170001Y279655D01*
X169983Y279599D01*
X169956Y279547D01*
X169945Y279479D01*
X169915Y279384D01*
X169912Y279284D01*
X169901Y279216D01*
X169901Y277184D01*
X169909Y277126D01*
X169908Y277068D01*
X169929Y276986D01*
X169941Y276903D01*
X169965Y276849D01*
X169979Y276793D01*
X170022Y276720D01*
X170057Y276643D01*
X170095Y276598D01*
X170125Y276548D01*
X170186Y276490D01*
X170241Y276426D01*
X170289Y276394D01*
X170332Y276354D01*
X170407Y276315D01*
X170477Y276269D01*
X170533Y276251D01*
X170585Y276224D01*
X170653Y276213D01*
X170748Y276183D01*
X170848Y276180D01*
X170916Y276169D01*
X197861Y276169D01*
X197845Y276099D01*
X197847Y276048D01*
X197841Y276008D01*
X197841Y265166D01*
X197668Y264519D01*
X197333Y263940D01*
X196787Y263394D01*
X196769Y263370D01*
X196747Y263351D01*
X196684Y263257D01*
X196616Y263167D01*
X196606Y263139D01*
X196589Y263115D01*
X196555Y263007D01*
X196515Y262901D01*
X196512Y262872D01*
X196504Y262844D01*
X196501Y262730D01*
X196491Y262618D01*
X196497Y262589D01*
X196496Y262560D01*
X196525Y262450D01*
X196547Y262339D01*
X196561Y262313D01*
X196568Y262285D01*
X196626Y262187D01*
X196678Y262087D01*
X196698Y262065D01*
X196713Y262040D01*
X196796Y261963D01*
X196874Y261881D01*
X196899Y261866D01*
X196921Y261846D01*
X197022Y261794D01*
X197119Y261737D01*
X197148Y261730D01*
X197174Y261716D01*
X197251Y261703D01*
X197395Y261667D01*
X197457Y261669D01*
X197505Y261661D01*
X199531Y261661D01*
X199618Y261673D01*
G37*
G36*
X148635Y178606D02*
X148635Y178606D01*
X148723Y178609D01*
X148775Y178626D01*
X148830Y178633D01*
X148910Y178669D01*
X148993Y178696D01*
X149033Y178724D01*
X149090Y178750D01*
X149203Y178846D01*
X149267Y178891D01*
X150160Y179784D01*
X150212Y179854D01*
X150272Y179918D01*
X150298Y179967D01*
X150331Y180012D01*
X150362Y180093D01*
X150402Y180171D01*
X150410Y180219D01*
X150432Y180277D01*
X150444Y180425D01*
X150457Y180502D01*
X150457Y183211D01*
X150449Y183268D01*
X150451Y183327D01*
X150429Y183409D01*
X150417Y183492D01*
X150394Y183545D01*
X150379Y183602D01*
X150336Y183674D01*
X150301Y183752D01*
X150263Y183796D01*
X150234Y183846D01*
X150172Y183904D01*
X150118Y183969D01*
X150069Y184001D01*
X150026Y184041D01*
X149951Y184079D01*
X149881Y184126D01*
X149825Y184144D01*
X149773Y184170D01*
X149705Y184182D01*
X149610Y184212D01*
X149510Y184214D01*
X149442Y184226D01*
X148594Y184226D01*
X148594Y189517D01*
X153805Y189517D01*
X153863Y189525D01*
X153921Y189524D01*
X154003Y189545D01*
X154086Y189557D01*
X154140Y189581D01*
X154196Y189596D01*
X154269Y189639D01*
X154346Y189673D01*
X154390Y189711D01*
X154441Y189741D01*
X154498Y189803D01*
X154563Y189857D01*
X154595Y189906D01*
X154635Y189948D01*
X154673Y190023D01*
X154720Y190094D01*
X154738Y190149D01*
X154764Y190201D01*
X154776Y190270D01*
X154806Y190365D01*
X154809Y190464D01*
X154820Y190533D01*
X154820Y192001D01*
X154812Y192058D01*
X154813Y192117D01*
X154792Y192199D01*
X154780Y192282D01*
X154756Y192335D01*
X154741Y192392D01*
X154698Y192464D01*
X154664Y192542D01*
X154626Y192586D01*
X154596Y192636D01*
X154535Y192694D01*
X154480Y192759D01*
X154432Y192791D01*
X154389Y192831D01*
X154314Y192869D01*
X154244Y192916D01*
X154188Y192934D01*
X154136Y192960D01*
X154068Y192972D01*
X153973Y193002D01*
X153873Y193004D01*
X153805Y193016D01*
X147579Y193016D01*
X147521Y193008D01*
X147463Y193009D01*
X147381Y192988D01*
X147297Y192976D01*
X147244Y192952D01*
X147187Y192937D01*
X147115Y192894D01*
X147038Y192860D01*
X146993Y192822D01*
X146943Y192792D01*
X146885Y192731D01*
X146821Y192676D01*
X146789Y192627D01*
X146749Y192585D01*
X146710Y192510D01*
X146663Y192439D01*
X146646Y192384D01*
X146619Y192332D01*
X146608Y192264D01*
X146578Y192168D01*
X146575Y192069D01*
X146564Y192001D01*
X146564Y191548D01*
X146111Y191548D01*
X146053Y191539D01*
X145994Y191541D01*
X145913Y191520D01*
X145829Y191508D01*
X145776Y191484D01*
X145719Y191469D01*
X145647Y191426D01*
X145570Y191392D01*
X145525Y191354D01*
X145475Y191324D01*
X145417Y191262D01*
X145353Y191208D01*
X145320Y191159D01*
X145280Y191117D01*
X145242Y191041D01*
X145195Y190971D01*
X145177Y190915D01*
X145151Y190863D01*
X145139Y190795D01*
X145109Y190700D01*
X145107Y190600D01*
X145095Y190532D01*
X145095Y184004D01*
X145092Y184002D01*
X145035Y183941D01*
X144970Y183886D01*
X144938Y183837D01*
X144898Y183795D01*
X144859Y183720D01*
X144813Y183649D01*
X144795Y183594D01*
X144768Y183542D01*
X144757Y183474D01*
X144727Y183378D01*
X144724Y183279D01*
X144713Y183211D01*
X144713Y181167D01*
X144725Y181080D01*
X144728Y180993D01*
X144745Y180940D01*
X144753Y180885D01*
X144789Y180806D01*
X144815Y180722D01*
X144843Y180683D01*
X144869Y180626D01*
X144965Y180513D01*
X145010Y180449D01*
X146568Y178891D01*
X146638Y178839D01*
X146702Y178779D01*
X146751Y178753D01*
X146795Y178720D01*
X146877Y178689D01*
X146955Y178649D01*
X147003Y178641D01*
X147061Y178619D01*
X147209Y178607D01*
X147286Y178594D01*
X148549Y178594D01*
X148635Y178606D01*
G37*
%LPC*%
G36*
X200948Y202966D02*
X200948Y202966D01*
X200948Y209269D01*
X201121Y209916D01*
X201456Y210495D01*
X201929Y210968D01*
X202508Y211302D01*
X203154Y211475D01*
X208458Y211475D01*
X208458Y202966D01*
X200948Y202966D01*
G37*
%LPD*%
%LPC*%
G36*
X206629Y214268D02*
X206629Y214268D01*
X205983Y214441D01*
X205404Y214776D01*
X204931Y215249D01*
X204596Y215828D01*
X204423Y216474D01*
X204423Y222778D01*
X211933Y222778D01*
X211933Y214268D01*
X206629Y214268D01*
G37*
%LPD*%
%LPC*%
G36*
X179608Y169600D02*
X179608Y169600D01*
X179608Y176992D01*
X185192Y176992D01*
X185192Y169600D01*
X183648Y169600D01*
X183001Y169773D01*
X182908Y169827D01*
X182835Y169857D01*
X182767Y169895D01*
X182704Y169910D01*
X182644Y169934D01*
X182566Y169942D01*
X182491Y169959D01*
X182426Y169956D01*
X182361Y169963D01*
X182285Y169949D01*
X182207Y169945D01*
X182154Y169925D01*
X182081Y169912D01*
X181965Y169855D01*
X181892Y169827D01*
X181799Y169773D01*
X181152Y169600D01*
X179608Y169600D01*
G37*
%LPD*%
%LPC*%
G36*
X178615Y107094D02*
X178615Y107094D01*
X177968Y107267D01*
X177389Y107601D01*
X176916Y108074D01*
X176582Y108654D01*
X176408Y109300D01*
X176408Y112869D01*
X179434Y112869D01*
X179434Y107094D01*
X178615Y107094D01*
G37*
%LPD*%
D10*
X292500Y222776D03*
X262500Y222776D03*
D11*
X290148Y241626D03*
X303148Y241626D03*
X293300Y115050D03*
X280300Y115050D03*
D12*
X281300Y97050D03*
X290300Y97050D03*
D13*
X210400Y140200D03*
X202400Y140200D03*
X194400Y140200D03*
X186400Y140200D03*
X178400Y140200D03*
X170400Y140200D03*
X162400Y140200D03*
X154400Y140200D03*
X154400Y178200D03*
X162400Y178200D03*
X170400Y178200D03*
X178400Y178200D03*
X186400Y178200D03*
X194400Y178200D03*
X202400Y178200D03*
X210400Y178200D03*
D14*
X317900Y285589D03*
X317900Y272589D03*
X328453Y268889D03*
X328453Y281889D03*
D15*
X159400Y47700D03*
D16*
X189880Y47700D03*
D17*
X169900Y278200D03*
D11*
X52500Y260200D03*
X65500Y260200D03*
D16*
X59000Y236400D03*
X77200Y236400D03*
X41100Y236400D03*
D18*
X348737Y252538D03*
X348737Y282301D03*
X348737Y267419D03*
D13*
X276900Y134160D03*
X284900Y134160D03*
X292900Y134160D03*
X300900Y134160D03*
X308900Y134160D03*
X316900Y134160D03*
X324900Y134160D03*
X332900Y134160D03*
X332900Y186300D03*
X324900Y186300D03*
X316900Y186300D03*
X308900Y186300D03*
X300900Y186300D03*
X292900Y186300D03*
X284900Y186300D03*
X276900Y186300D03*
D15*
X287900Y47700D03*
D16*
X318380Y47700D03*
D18*
X217662Y242935D03*
X214860Y283748D03*
D19*
X220400Y36834D03*
X220400Y27834D03*
D20*
X169137Y222420D03*
X159637Y222420D03*
X150137Y222420D03*
X150137Y248422D03*
X169137Y248422D03*
D21*
X213964Y224809D03*
X185964Y224809D03*
D22*
X177969Y238990D02*
X177969Y245990D01*
X184969Y245990D01*
X184969Y238990D01*
X177969Y238990D01*
X177969Y241840D02*
X184969Y241840D01*
X184969Y244690D02*
X177969Y244690D01*
X195509Y245990D02*
X195509Y238990D01*
X195509Y245990D02*
X202509Y245990D01*
X202509Y238990D01*
X195509Y238990D01*
X195509Y241840D02*
X202509Y241840D01*
X202509Y244690D02*
X195509Y244690D01*
D21*
X210489Y200935D03*
X182489Y200935D03*
D11*
X162453Y205283D03*
X149453Y205283D03*
X146845Y191267D03*
X159845Y191267D03*
D12*
X129354Y133802D03*
X138354Y133802D03*
X63500Y196400D03*
X54500Y196400D03*
X54500Y212100D03*
X63500Y212100D03*
D13*
X36500Y125600D03*
X44500Y125600D03*
X52500Y125600D03*
X60500Y125600D03*
X68500Y125600D03*
X76500Y125600D03*
X84500Y125600D03*
X92500Y125600D03*
X92500Y87600D03*
X84500Y87600D03*
X76500Y87600D03*
X68500Y87600D03*
X60500Y87600D03*
X52500Y87600D03*
X44500Y87600D03*
X36500Y87600D03*
X36400Y20300D03*
X44400Y20300D03*
X52400Y20300D03*
X60400Y20300D03*
X68400Y20300D03*
X76400Y20300D03*
X84400Y20300D03*
X92400Y20300D03*
X92400Y67500D03*
X84400Y67500D03*
X76400Y67500D03*
X68400Y67500D03*
X60400Y67500D03*
X52400Y67500D03*
X44400Y67500D03*
X36400Y67500D03*
D16*
X355100Y90300D03*
D23*
X180449Y84884D03*
X180449Y113884D03*
D24*
X192449Y96884D03*
D23*
X185449Y84884D03*
X185449Y113884D03*
D24*
X192449Y91884D03*
X192449Y101884D03*
X192449Y106884D03*
D25*
X165449Y94384D03*
X165449Y104384D03*
D26*
X307393Y285099D03*
X284393Y285099D03*
D27*
X328296Y255469D03*
X328296Y237469D03*
D28*
X304104Y257359D03*
X287104Y257359D03*
X304096Y272259D03*
X287096Y272259D03*
D29*
X315777Y235282D03*
X306277Y213282D03*
X325277Y213282D03*
X347245Y236650D03*
X337745Y214650D03*
X356745Y214650D03*
D18*
X268104Y242950D03*
X268104Y286070D03*
X268104Y257323D03*
X268104Y271697D03*
D30*
X305733Y196486D03*
D31*
X292942Y186342D02*
X292900Y186300D01*
X292942Y196486D02*
X305733Y196486D01*
X292942Y196486D02*
X292942Y186342D01*
D30*
X283638Y178038D03*
D31*
X284900Y179300D01*
X284900Y186300D01*
X292900Y186300D01*
X290300Y97050D02*
X300850Y97050D01*
X303125Y94775D01*
D30*
X303125Y94775D03*
X313900Y159200D03*
D31*
X316729Y156371D01*
X319059Y156371D01*
X324730Y150700D01*
D30*
X334600Y148400D03*
D31*
X332300Y150700D01*
X324730Y150700D01*
D30*
X310800Y241200D03*
D31*
X313400Y241200D02*
X315777Y238823D01*
X313400Y241200D02*
X310800Y241200D01*
X315777Y238823D02*
X315777Y235282D01*
X347507Y267419D02*
X348737Y267419D01*
D30*
X347507Y267419D03*
X328432Y229405D03*
D31*
X328156Y229129D01*
X323044Y229129D01*
X316891Y235282D02*
X315777Y235282D01*
X316891Y235282D02*
X323044Y229129D01*
D30*
X317300Y226500D03*
D31*
X317300Y233758D01*
X315777Y235282D01*
X284393Y285099D02*
X283422Y286070D01*
X268104Y286070D01*
X284393Y285099D02*
X296501Y285099D01*
X303191Y291789D01*
X361891Y291789D01*
X363977Y289703D01*
X363977Y237474D01*
X349205Y222702D02*
X349205Y206597D01*
X349205Y222702D02*
X363977Y237474D01*
D30*
X353265Y203586D03*
D31*
X352217Y203586D01*
X349205Y206597D01*
D30*
X329700Y92000D03*
D31*
X329700Y99597D01*
X334126Y104023D01*
D30*
X334126Y104023D03*
X342400Y128400D03*
D31*
X342400Y82767D01*
X342742Y82425D01*
D30*
X342742Y82425D03*
D31*
X290148Y225128D02*
X290148Y241626D01*
X290148Y225128D02*
X292500Y222776D01*
X297999Y266163D02*
X304096Y272259D01*
X297999Y266163D02*
X296660Y266163D01*
D30*
X296660Y266163D03*
X275000Y229800D03*
D31*
X271942Y193411D02*
X271942Y172789D01*
X275000Y196469D02*
X275000Y229800D01*
X275000Y196469D02*
X271942Y193411D01*
X316900Y140900D02*
X316900Y134160D01*
X316900Y140900D02*
X316700Y141100D01*
D30*
X316700Y141100D03*
X308800Y163421D03*
D31*
X305819Y166402D01*
X278329Y166402D02*
X271942Y172789D01*
X278329Y166402D02*
X305819Y166402D01*
X284108Y236074D02*
X284108Y247378D01*
X285496Y248766D01*
X277834Y229800D02*
X275000Y229800D01*
X277834Y229800D02*
X284108Y236074D01*
X317900Y272589D02*
X317900Y274592D01*
X310860Y281632D02*
X307393Y285099D01*
X310860Y281632D02*
X310860Y281037D01*
X312348Y279549D01*
X312943Y279549D01*
X317900Y274592D01*
X323317Y242448D02*
X328296Y237469D01*
X323317Y242448D02*
X323317Y243334D01*
X317900Y261752D02*
X317900Y272589D01*
X317900Y261752D02*
X313152Y257004D01*
X313152Y248766D02*
X285496Y248766D01*
X313152Y248766D02*
X313152Y257004D01*
X319771Y245373D02*
X321278Y245373D01*
X316378Y248766D02*
X313152Y248766D01*
X316378Y248766D02*
X319771Y245373D01*
X321278Y245373D02*
X323317Y243334D01*
D30*
X342300Y203000D03*
D31*
X308237Y236537D02*
X303148Y241626D01*
X308237Y236537D02*
X308237Y227229D01*
X317737Y217729D02*
X317737Y205229D01*
X317737Y217729D02*
X308237Y227229D01*
X317737Y205229D02*
X319966Y203000D01*
X342300Y203000D01*
X261580Y81688D02*
X265130Y78138D01*
D30*
X266750Y58036D03*
D31*
X265130Y59656D01*
X265130Y78138D01*
X314555Y151291D02*
X316955Y151291D01*
X314555Y151291D02*
X310702Y155144D01*
D30*
X316955Y151291D03*
D31*
X267933Y120982D02*
X267933Y97549D01*
X267933Y120982D02*
X263903Y125012D01*
X263903Y140250D01*
X267933Y97549D02*
X261580Y91196D01*
X261580Y81688D01*
X278797Y155144D02*
X310702Y155144D01*
X278797Y155144D02*
X263903Y140250D01*
D30*
X268983Y127716D03*
D31*
X271942Y130675D01*
X271942Y143260D01*
D30*
X321459Y145821D03*
D31*
X319163Y145821D01*
X318804Y146180D01*
X313404Y146180D01*
X307996Y151588D01*
X280270Y151588D01*
X271942Y143260D01*
D30*
X220020Y260320D03*
D31*
X154400Y178200D02*
X152169Y178200D01*
X150022Y176053D01*
X145813Y176053D01*
X142172Y179694D02*
X142172Y184207D01*
X142172Y179694D02*
X145813Y176053D01*
X138700Y197978D02*
X142259Y201537D01*
X142259Y208691D01*
X138700Y187679D02*
X142172Y184207D01*
X138700Y187679D02*
X138700Y197978D01*
X142259Y208691D02*
X138600Y212350D01*
X138600Y253268D01*
X176758Y259128D02*
X180323Y255564D01*
X207233Y260320D02*
X220020Y260320D01*
X144461Y259128D02*
X138600Y253268D01*
X144461Y259128D02*
X176758Y259128D01*
X180323Y255564D02*
X202477Y255564D01*
X207233Y260320D01*
D30*
X220020Y273020D03*
D31*
X138703Y203010D02*
X135144Y199451D01*
X135144Y186206D02*
X138616Y182734D01*
X138616Y178398D01*
X136132Y175914D01*
X135144Y186206D02*
X135144Y199451D01*
X138703Y203010D02*
X138703Y207218D01*
X135044Y210877D01*
X135044Y255459D01*
X214904Y273020D02*
X220020Y273020D01*
X214904Y273020D02*
X201004Y259120D01*
X181796Y259120D01*
X178231Y262684D01*
X142269Y262684D01*
X135044Y255459D01*
X136132Y161152D02*
X154400Y142884D01*
X154400Y140200D01*
X136132Y161152D02*
X136132Y175914D01*
D30*
X225116Y204801D03*
D31*
X173442Y181242D02*
X170400Y178200D01*
X173442Y181242D02*
X173442Y185311D01*
X174930Y186799D01*
X222392Y186799D02*
X225257Y189664D01*
X225257Y204661D02*
X225116Y204801D01*
X225257Y204661D02*
X225257Y189664D01*
X222392Y186799D02*
X174930Y186799D01*
X275558Y174934D02*
X280534Y169958D01*
X275558Y184958D02*
X276900Y186300D01*
X275558Y184958D02*
X275558Y174934D01*
D30*
X332895Y164571D03*
D31*
X309447Y169958D02*
X280534Y169958D01*
X309447Y169958D02*
X314834Y164571D01*
X323537Y164571D02*
X325034Y163074D01*
X329243Y163074D01*
X330740Y164571D01*
X332895Y164571D01*
X323537Y164571D02*
X314834Y164571D01*
D30*
X225137Y217550D03*
D31*
X165442Y181242D02*
X162400Y178200D01*
X165442Y181242D02*
X165442Y185311D01*
X170486Y190355D01*
X220919Y190355D02*
X221701Y191137D01*
X221701Y201033D02*
X220036Y202697D01*
X220036Y206906D01*
X225137Y212006D01*
X225137Y217550D01*
X220919Y190355D02*
X170486Y190355D01*
X221701Y191137D02*
X221701Y201033D01*
D30*
X345320Y162520D03*
D31*
X345320Y160365D02*
X345880Y159804D01*
X345320Y160365D02*
X345320Y162520D01*
X345880Y147140D02*
X332900Y134160D01*
X345880Y147140D02*
X345880Y159804D01*
X324900Y141800D02*
X324900Y134160D01*
D30*
X340800Y157700D03*
D31*
X336470Y142759D02*
X325859Y142759D01*
X324900Y141800D01*
X340800Y147089D02*
X340800Y157700D01*
X340800Y147089D02*
X336470Y142759D01*
D30*
X308900Y141500D03*
D31*
X308900Y134160D01*
X276900Y134160D02*
X276900Y141033D01*
X281833Y145967D01*
D30*
X281833Y145967D03*
X304314Y85711D03*
D31*
X298559Y79955D01*
X276300Y79955D01*
X271740Y84515D01*
D30*
X274082Y123218D03*
D31*
X271740Y120876D01*
X271740Y84515D01*
X178659Y140459D02*
X178659Y144528D01*
X178659Y140459D02*
X178400Y140200D01*
X178659Y144528D02*
X188395Y154264D01*
D30*
X220020Y150120D03*
D31*
X215876Y154264D01*
X188395Y154264D01*
D30*
X220020Y162820D03*
D31*
X162500Y146932D02*
X162500Y140300D01*
X162400Y140200D01*
X215113Y157913D02*
X220020Y162820D01*
X215113Y157913D02*
X184680Y157913D01*
X178990Y152224D01*
X167808Y152241D02*
X162500Y146932D01*
X167825Y152224D02*
X178990Y152224D01*
X167825Y152224D02*
X167808Y152241D01*
D30*
X304300Y254991D03*
D31*
X304104Y255188D01*
X304104Y257359D01*
D30*
X288448Y145244D03*
D31*
X284866Y141662D01*
X284864Y138148D01*
X284864Y134196D01*
X284900Y134160D01*
X292800Y134260D02*
X292900Y134160D01*
X292800Y134260D02*
X292800Y142182D01*
X297136Y146418D02*
X297086Y146468D01*
X292800Y142182D01*
D30*
X297136Y146418D03*
X223172Y100257D03*
D31*
X223172Y106861D01*
X202285Y127747D01*
X202285Y140085D02*
X202400Y140200D01*
X202285Y140085D02*
X202285Y127747D01*
D30*
X209907Y129066D03*
D31*
X210400Y129559D01*
X210400Y140200D01*
D30*
X280800Y121900D03*
D31*
X280300Y121400D01*
X280300Y115050D01*
X281300Y114050D01*
X281300Y97050D01*
D30*
X324100Y80899D03*
D31*
X319600Y76399D01*
X271954Y76399D01*
D30*
X266660Y88764D03*
D31*
X266660Y81693D01*
X271954Y76399D01*
D32*
X152500Y123350D02*
X152500Y123400D01*
D33*
X152500Y123350D03*
X146700Y123350D03*
X141300Y123350D03*
D32*
X146700Y123350D02*
X152500Y123350D01*
X146700Y123350D02*
X141300Y123350D01*
X125900Y113200D02*
X131200Y107900D01*
X125900Y140594D02*
X125900Y288200D01*
X125900Y140594D02*
X125900Y139700D01*
X125900Y123200D01*
X125900Y113200D01*
X131200Y107900D02*
X125900Y102600D01*
X125900Y24200D01*
D33*
X125900Y288200D03*
X125900Y271700D03*
X125900Y255200D03*
X125900Y238700D03*
X125900Y222200D03*
X125900Y205700D03*
X125900Y189200D03*
X125900Y172700D03*
X125900Y156200D03*
X125900Y139700D03*
X125900Y123200D03*
X125900Y90200D03*
X125900Y73700D03*
X125900Y57200D03*
X125900Y40700D03*
X125900Y24200D03*
D32*
X125900Y123200D02*
X126050Y123350D01*
X141300Y123350D01*
D31*
X212545Y45269D02*
X220400Y36834D01*
X212545Y45269D02*
X212545Y59056D01*
X202795Y68806D01*
D34*
X125932Y140626D02*
X125900Y140594D01*
X125900Y139700D02*
X125900Y113200D01*
X139636Y128732D02*
X138354Y133802D01*
X129354Y133802D02*
X126626Y140426D01*
X125900Y139700D01*
X169137Y222420D02*
X171527Y224809D01*
X185964Y224809D01*
X169137Y225675D02*
X169137Y222420D01*
X169137Y225675D02*
X165615Y229197D01*
X162315Y232497D01*
X165615Y229197D02*
X167461Y231043D01*
X168980Y231043D01*
D30*
X168980Y231043D03*
D34*
X150137Y225667D02*
X150137Y222420D01*
X156967Y232497D02*
X162315Y232497D01*
X156967Y232497D02*
X150137Y225667D01*
D32*
X157600Y123500D02*
X157600Y123350D01*
X152500Y123350D01*
D30*
X127100Y113400D03*
D35*
X127900Y114200D01*
D31*
X125900Y271700D02*
X125900Y288200D01*
X125900Y40700D02*
X125900Y24200D01*
X125900Y57200D01*
X125900Y73700D02*
X125900Y24200D01*
X174699Y131601D02*
X183345Y131601D01*
X174699Y131601D02*
X170400Y135900D01*
X170400Y140200D01*
X170400Y136131D02*
X165870Y131601D01*
X170400Y136131D02*
X170400Y140200D01*
X148729Y133802D02*
X138354Y133802D01*
X148729Y133802D02*
X150930Y131601D01*
X165870Y131601D01*
X202795Y112150D02*
X202795Y68806D01*
X202795Y112150D02*
X183345Y131601D01*
D36*
X165449Y115501D02*
X165449Y104384D01*
X165449Y115501D02*
X160093Y120857D01*
X157600Y123350D01*
X161934Y107900D02*
X131200Y107900D01*
X161934Y107900D02*
X165449Y104384D01*
X156434Y113400D02*
X127100Y113400D01*
X156434Y113400D02*
X165449Y104384D01*
X152635Y113400D02*
X127100Y113400D01*
X152635Y113400D02*
X156827Y117592D01*
D30*
X127135Y118259D03*
D36*
X156827Y117592D02*
X160093Y120857D01*
X156160Y118259D02*
X127135Y118259D01*
X156160Y118259D02*
X156827Y117592D01*
D37*
X153700Y49150D02*
X163080Y49150D01*
X163080Y92700D01*
D31*
X157950Y49150D02*
X159400Y47700D01*
X157950Y49150D02*
X153700Y49150D01*
D32*
X159400Y47700D02*
X170224Y58524D01*
X170224Y95231D01*
D36*
X159400Y89020D02*
X159400Y80217D01*
X159400Y89020D02*
X163080Y92700D01*
X164450Y93385D02*
X165449Y94384D01*
X147568Y59532D02*
X159400Y47700D01*
X147568Y59532D02*
X147568Y90340D01*
X150614Y93385D01*
X164450Y93385D01*
X153282Y53818D02*
X159400Y47700D01*
X153282Y53818D02*
X153282Y81299D01*
X153282Y86335D02*
X159400Y80217D01*
X159400Y76654D01*
D30*
X348000Y199500D03*
X327139Y168154D03*
D31*
X318346Y168154D01*
X314680Y171820D01*
X314680Y174725D01*
X309852Y174725D01*
X308400Y176177D01*
D30*
X308400Y176177D03*
X318232Y254900D03*
D31*
X319756Y253376D01*
X319756Y250417D01*
X321244Y248929D01*
X335348Y248929D01*
X338958Y252538D02*
X348737Y252538D01*
X338958Y252538D02*
X335348Y248929D01*
X345984Y199500D02*
X348000Y199500D01*
X321430Y194899D02*
X319942Y193411D01*
X319942Y189342D01*
X316900Y186300D01*
X321430Y194899D02*
X324401Y194899D01*
X328068Y198566D01*
X344404Y197920D02*
X345984Y199500D01*
X344404Y197920D02*
X340196Y197920D01*
X339549Y198566D01*
X328068Y198566D01*
D30*
X352971Y195010D03*
D31*
X327942Y189342D02*
X324900Y186300D01*
X327942Y189342D02*
X327942Y193411D01*
X350695Y195010D02*
X352971Y195010D01*
X338723Y194364D02*
X338076Y195010D01*
X329541Y195010D01*
X327942Y193411D01*
X350048Y194364D02*
X350695Y195010D01*
X350048Y194364D02*
X338723Y194364D01*
X332900Y186300D02*
X336949Y182251D01*
X343083Y182251D01*
D30*
X343083Y182251D03*
X323338Y281900D03*
D31*
X323238Y282000D01*
X321489Y282000D02*
X317900Y285589D01*
X321489Y282000D02*
X323238Y282000D01*
X323350Y281889D02*
X328453Y281889D01*
X323350Y281889D02*
X323338Y281900D01*
D30*
X303917Y145864D03*
D31*
X300900Y142848D02*
X300900Y134160D01*
X300900Y142848D02*
X303917Y145864D01*
X210400Y172206D02*
X210400Y178200D01*
X199239Y94332D02*
X196733Y91826D01*
X199239Y94332D02*
X199239Y109437D01*
X196733Y91826D02*
X192507Y91826D01*
X192449Y91884D01*
X192449Y116227D02*
X192449Y116293D01*
X192449Y116227D02*
X199239Y109437D01*
X182509Y126234D02*
X180632Y126234D01*
D30*
X180632Y126234D03*
D31*
X182509Y126234D02*
X192449Y116293D01*
D30*
X176886Y157304D03*
D31*
X182383Y162801D01*
X200995Y162801D01*
X210400Y172206D01*
D30*
X220644Y44915D03*
D31*
X217241Y47818D02*
X217241Y59389D01*
X206351Y70279D01*
X220144Y44915D02*
X220644Y44915D01*
X220144Y44915D02*
X217241Y47818D01*
X186542Y133433D02*
X186542Y140058D01*
X186400Y140200D01*
X206351Y113623D02*
X206351Y70279D01*
X206351Y113623D02*
X186542Y133433D01*
D32*
X219820Y128620D02*
X219900Y128700D01*
X219900Y129200D01*
D30*
X219900Y129200D03*
X189800Y264200D03*
X134534Y262492D03*
X133623Y205114D03*
X139900Y150200D03*
X139900Y95200D03*
D38*
X178400Y178200D02*
X178711Y178200D01*
D30*
X178711Y178200D03*
X186400Y178200D03*
D39*
X180900Y282700D03*
X190900Y282700D03*
X190900Y273700D03*
X180900Y273700D03*
D30*
X136400Y39700D03*
D32*
X180900Y277461D02*
X180900Y282700D01*
X180900Y277461D02*
X180900Y273700D01*
X184242Y273700D02*
X190900Y273700D01*
X184242Y273700D02*
X182404Y273700D01*
X190900Y273700D02*
X190900Y280734D01*
X190900Y280734D01*
X190900Y282700D01*
X190900Y282700D01*
X180900Y282700D01*
D31*
X174400Y282700D02*
X169900Y278200D01*
X174400Y282700D02*
X180900Y282700D01*
D30*
X192491Y168081D03*
D33*
X181082Y101268D03*
X181014Y94472D03*
D30*
X186291Y167881D03*
X199091Y168081D03*
X185900Y275700D03*
X185900Y270700D03*
X177900Y278200D03*
X185900Y285700D03*
X193900Y278200D03*
X185900Y280700D03*
X183900Y264200D03*
X195800Y264200D03*
X200900Y266200D03*
X200900Y272200D03*
X200900Y278200D03*
D31*
X214047Y282936D02*
X214860Y283748D01*
X214047Y282936D02*
X195413Y282936D01*
X195178Y282700D01*
X180900Y282700D01*
D34*
X159637Y222420D02*
X159637Y203010D01*
X147907Y192329D02*
X146845Y191267D01*
X147893Y191267D02*
X159637Y203010D01*
X147893Y191267D02*
X146845Y191267D01*
X183900Y264200D02*
X177900Y270200D01*
X177900Y278200D01*
X186300Y273700D02*
X195800Y264200D01*
X186300Y273700D02*
X184242Y273700D01*
X189639Y277461D02*
X200900Y266200D01*
X189639Y277461D02*
X180900Y277461D01*
X195639Y277461D02*
X200900Y272200D01*
X195639Y277461D02*
X189639Y277461D01*
X196400Y282700D02*
X200900Y278200D01*
X196400Y282700D02*
X195178Y282700D01*
D31*
X213964Y224809D02*
X215669Y223104D01*
X215669Y198688D02*
X212314Y195332D01*
X216091Y195332D01*
X216405Y195332D02*
X216508Y195435D01*
D30*
X216508Y195435D03*
D31*
X215669Y198688D02*
X215669Y223104D01*
D38*
X169900Y278200D02*
X150241Y278200D01*
D34*
X162453Y205283D02*
X167886Y205283D01*
D30*
X177324Y213070D03*
D34*
X175673Y213070D01*
X167886Y205283D01*
D30*
X133531Y180630D03*
X147917Y181133D03*
D31*
X158176Y266476D02*
X169900Y278200D01*
X158176Y266476D02*
X140673Y266476D01*
X136689Y262492D02*
X134534Y262492D01*
X136689Y262492D02*
X140673Y266476D01*
X134534Y262492D02*
X134534Y260492D01*
X131488Y257447D01*
X131488Y207249D02*
X133623Y205114D01*
X131488Y207249D02*
X131488Y257447D01*
X133623Y205114D02*
X131488Y202979D01*
X131488Y182673D02*
X133531Y180630D01*
X131488Y182673D02*
X131488Y202979D01*
X133531Y180630D02*
X131488Y178587D01*
X139900Y150239D02*
X139900Y150200D01*
X139900Y150239D02*
X131488Y158651D01*
X131488Y178587D01*
X147907Y192329D02*
X147917Y192319D01*
X147917Y181133D01*
X169900Y278200D02*
X172400Y280700D01*
X185900Y280700D01*
X210489Y200935D02*
X216091Y195332D01*
X216405Y195332D01*
X183400Y278200D02*
X176400Y278200D01*
X183400Y278200D02*
X185900Y275700D01*
X180900Y273700D02*
X176400Y278200D01*
X169900Y278200D01*
X186400Y278200D01*
X190900Y273700D01*
X185747Y270357D02*
X185747Y268253D01*
X189800Y264200D01*
X185747Y270357D02*
X182404Y273700D01*
X136400Y72679D02*
X136400Y39700D01*
X136400Y72679D02*
X136400Y91700D01*
X139900Y95200D01*
X180449Y101900D02*
X180449Y113884D01*
X180449Y101900D02*
X181082Y101268D01*
X138445Y70634D02*
X136400Y72679D01*
X138445Y70634D02*
X139393Y70634D01*
D30*
X139393Y70634D03*
X219900Y73700D03*
D38*
X202400Y178200D02*
X194400Y178200D01*
D30*
X202400Y178200D03*
D31*
X219900Y82420D02*
X219900Y73700D01*
X219900Y82420D02*
X226280Y88800D01*
X230292Y88800D01*
D30*
X230292Y88800D03*
X197073Y78019D03*
D31*
X182897Y78095D02*
X180391Y80600D01*
X196998Y78095D02*
X197073Y78019D01*
X196998Y78095D02*
X182897Y78095D01*
X180391Y84827D02*
X180449Y84884D01*
X180391Y84827D02*
X180391Y80600D01*
D30*
X222456Y55700D03*
D31*
X194442Y140158D02*
X194400Y140200D01*
X194442Y140158D02*
X194442Y130562D01*
X222456Y59203D02*
X222456Y55700D01*
X222456Y59203D02*
X209907Y71752D01*
X209907Y115096D01*
X194442Y130562D01*
D30*
X32000Y203400D03*
D31*
X32000Y208087D01*
X37560Y213647D01*
X37560Y232460D01*
X41100Y236000D02*
X41100Y236400D01*
X41100Y236000D02*
X37560Y232460D01*
X207534Y27834D02*
X220400Y27834D01*
X207534Y27834D02*
X207500Y27800D01*
X189880Y45420D01*
X189880Y47700D01*
D34*
X199454Y242935D02*
X217662Y242935D01*
X199454Y242935D02*
X199009Y242490D01*
X199009Y216974D01*
X182970Y200935D02*
X182489Y200935D01*
X182970Y200935D02*
X199009Y216974D01*
X182489Y200935D02*
X175719Y194165D01*
X168908Y194165D01*
X166009Y191267D01*
X159845Y191267D01*
X169137Y248422D02*
X174328Y248422D01*
X176191Y250284D01*
X191215Y250284D01*
X199009Y242490D01*
D31*
X149453Y205283D02*
X149215Y205521D01*
X149215Y206764D01*
X142156Y213823D01*
X142156Y226780D02*
X151683Y236307D01*
X175286Y236307D02*
X181469Y242490D01*
X142156Y226780D02*
X142156Y213823D01*
X151683Y236307D02*
X175286Y236307D01*
D30*
X64100Y231300D03*
D31*
X59000Y236400D01*
D30*
X59000Y247500D03*
D31*
X59274Y247226D01*
X59000Y236400D01*
D30*
X32000Y190670D03*
X74000Y257344D03*
D31*
X74000Y257344D01*
X71068Y260277D01*
X65577Y260277D01*
X65500Y260200D01*
X46990Y190670D02*
X32000Y190670D01*
X46990Y190670D02*
X51634Y195314D01*
X52834Y195314D02*
X54500Y196400D01*
X52834Y195314D02*
X51634Y195314D01*
D30*
X53900Y217772D03*
X77200Y236400D03*
D31*
X52500Y260200D02*
X52372Y260328D01*
X38586Y260328D01*
X31800Y253542D01*
X31800Y216150D02*
X32000Y215950D01*
D30*
X32000Y215950D03*
D31*
X31800Y216150D02*
X31800Y253542D01*
X57620Y221100D02*
X53920Y217400D01*
X57620Y221100D02*
X67700Y221100D01*
X77200Y230600D01*
X77200Y236400D01*
X53920Y217400D02*
X54500Y212100D01*
X53920Y217752D01*
X53900Y217772D01*
D30*
X74000Y204100D03*
D31*
X66000Y212100D01*
X63500Y212100D01*
X74000Y204100D02*
X66366Y196466D01*
X64146Y196466D02*
X63500Y196400D01*
X64146Y196466D02*
X66366Y196466D01*
D30*
X36500Y118600D03*
X36500Y127600D03*
D40*
X36500Y125600D01*
X36500Y118600D01*
D30*
X44500Y118600D03*
D40*
X44500Y125600D01*
D30*
X44500Y127600D03*
D40*
X44500Y118600D01*
X52500Y118600D02*
X52500Y125600D01*
D30*
X52500Y118600D03*
X52500Y127600D03*
D40*
X52500Y118600D01*
D30*
X60500Y118600D03*
X60500Y127600D03*
D40*
X60500Y125600D02*
X60500Y118600D01*
X60500Y127600D01*
X68500Y125600D02*
X68500Y118600D01*
D30*
X68500Y118600D03*
X68500Y127600D03*
D40*
X68500Y118600D01*
D30*
X76500Y118600D03*
D40*
X76500Y125600D01*
D30*
X76500Y127600D03*
D40*
X76500Y125600D01*
D30*
X84500Y118600D03*
X84500Y127600D03*
D40*
X84500Y125600D02*
X84500Y118600D01*
X84500Y127600D01*
D30*
X92500Y118600D03*
D40*
X92500Y125600D01*
D30*
X92500Y127600D03*
D40*
X92500Y118600D01*
D30*
X92500Y94600D03*
X92500Y85600D03*
D40*
X92500Y87600D02*
X92500Y94600D01*
D31*
X92500Y87600D02*
X92500Y85600D01*
D30*
X84500Y94600D03*
D40*
X84500Y87600D01*
D30*
X84500Y85600D03*
D40*
X84500Y94600D01*
X76500Y94600D02*
X76500Y87600D01*
D30*
X76500Y94600D03*
X76500Y85600D03*
D40*
X76500Y94600D01*
D30*
X68500Y94600D03*
D40*
X68500Y87600D01*
D30*
X68500Y85600D03*
D40*
X68500Y94600D01*
X60500Y94600D02*
X60500Y87600D01*
D30*
X60500Y94600D03*
X60500Y85600D03*
D40*
X60500Y94600D01*
D30*
X52500Y94600D03*
D40*
X52500Y87600D01*
D30*
X52500Y85600D03*
D40*
X52500Y94600D01*
X44500Y94600D02*
X44500Y87600D01*
D30*
X44500Y94600D03*
X44500Y85600D03*
D40*
X44500Y94600D01*
D30*
X36500Y94600D03*
X36500Y85600D03*
D40*
X36500Y94600D01*
X36500Y87600D02*
X36500Y85600D01*
D30*
X36400Y27800D03*
D40*
X36400Y20300D01*
D30*
X36400Y17150D03*
D31*
X36400Y20300D01*
D40*
X44400Y20300D02*
X44400Y27800D01*
D30*
X44400Y27800D03*
X44400Y17150D03*
X52400Y27800D03*
X52400Y17150D03*
D40*
X52400Y20300D02*
X52400Y27800D01*
X60400Y27800D02*
X60400Y20300D01*
D30*
X60400Y27800D03*
X60400Y17150D03*
X68400Y27800D03*
X68400Y17150D03*
D40*
X68400Y21010D02*
X68400Y27800D01*
D31*
X68400Y20300D02*
X68400Y17150D01*
D30*
X76400Y27800D03*
D40*
X76400Y20300D01*
D30*
X76400Y17150D03*
X84400Y27800D03*
X84400Y17150D03*
D40*
X84400Y20300D02*
X84400Y27800D01*
D30*
X92400Y27800D03*
D40*
X92400Y20300D01*
D30*
X92400Y17150D03*
X92400Y60000D03*
X92400Y70150D03*
D40*
X92400Y67500D02*
X92400Y60000D01*
D31*
X92400Y67500D02*
X92400Y70150D01*
D30*
X84400Y60000D03*
X84400Y70150D03*
D40*
X84400Y66390D02*
X84400Y60000D01*
D31*
X84400Y66390D02*
X84400Y67500D01*
D30*
X76400Y60000D03*
D40*
X76400Y67500D01*
D30*
X76400Y70150D03*
X68400Y60000D03*
X68400Y70150D03*
D40*
X68400Y60000D01*
D31*
X68400Y67500D02*
X68400Y70150D01*
D40*
X60400Y67500D02*
X60400Y60000D01*
D30*
X60400Y60000D03*
X60400Y70150D03*
D40*
X52400Y67500D02*
X52400Y60000D01*
D30*
X52400Y60000D03*
X52400Y70150D03*
D31*
X52400Y67500D01*
D30*
X44400Y60000D03*
D40*
X44400Y67500D01*
D30*
X44400Y70150D03*
D40*
X44400Y60000D01*
D30*
X36400Y60000D03*
X36400Y70150D03*
D40*
X36400Y66390D02*
X36400Y60000D01*
D31*
X353800Y91600D02*
X353800Y160482D01*
X353800Y91600D02*
X355100Y90300D01*
X356488Y163170D02*
X356488Y166070D01*
X356488Y163170D02*
X353800Y160482D01*
D30*
X356488Y166070D03*
X309764Y89600D03*
X324024Y88337D03*
D31*
X322761Y89600D01*
X309764Y89600D01*
X309764Y98586D02*
X293300Y115050D01*
X309764Y98586D02*
X309764Y89600D01*
X293212Y114962D02*
X293300Y115050D01*
X293212Y114962D02*
X290050Y114962D01*
D30*
X290050Y114962D03*
X359200Y136547D03*
D31*
X359479Y136268D01*
X359479Y115319D01*
D30*
X359479Y115319D03*
X260630Y190404D03*
D31*
X259630Y191404D02*
X259630Y219906D01*
X259630Y191404D02*
X260630Y190404D01*
X259630Y219906D02*
X262500Y222776D01*
D30*
X262153Y99053D03*
D31*
X260330Y190104D02*
X260630Y190404D01*
X260330Y190104D02*
X260330Y164800D01*
X260330Y100877D01*
X262153Y99053D01*
D30*
X258000Y246700D03*
D31*
X264354Y246700D02*
X268104Y242950D01*
X264354Y246700D02*
X258000Y246700D01*
X262600Y237445D02*
X268104Y242950D01*
X262600Y237445D02*
X262600Y222876D01*
X262500Y222776D01*
X328296Y255469D02*
X328296Y268732D01*
X328453Y268889D01*
X333497Y273933D02*
X333497Y274822D01*
X333497Y273933D02*
X328453Y268889D01*
X340976Y282301D02*
X348737Y282301D01*
X340976Y282301D02*
X333497Y274822D01*
D30*
X356700Y282600D03*
D31*
X349037Y282600D01*
X348737Y282301D01*
D30*
X337792Y282862D03*
D31*
X356438Y282862D02*
X356700Y282600D01*
X356438Y282862D02*
X337792Y282862D01*
X337745Y215289D02*
X337745Y214650D01*
X343481Y221025D02*
X343481Y225525D01*
X343481Y221025D02*
X337745Y215289D01*
D30*
X343481Y225525D03*
X313013Y196546D03*
D31*
X308642Y190111D02*
X308642Y186558D01*
X308900Y186300D01*
X306900Y184300D01*
X302900Y184300D01*
X300900Y186300D01*
X309813Y193346D02*
X313013Y196546D01*
X309813Y193346D02*
X309813Y191282D01*
X308642Y190111D01*
D30*
X362796Y226700D03*
D31*
X362796Y224190D01*
X364285Y222702D01*
X364285Y141631D01*
X359200Y136547D01*
X266430Y158700D02*
X260330Y164800D01*
X266430Y158700D02*
X295500Y158700D01*
X298000Y161200D01*
X298600Y161200D01*
D30*
X298600Y161200D03*
D31*
X300900Y178600D02*
X300900Y186300D01*
X300900Y178600D02*
X298000Y175700D01*
D30*
X298000Y175700D03*
D31*
X306277Y213282D02*
X306277Y223672D01*
D30*
X296109Y233840D03*
D31*
X301040Y228909D02*
X306277Y223672D01*
X301040Y228909D02*
X301040Y230828D01*
X299552Y232316D01*
X297633Y232316D01*
X296109Y233840D01*
D30*
X307677Y107857D03*
D31*
X307677Y120877D01*
X309600Y122800D01*
X309900Y122500D01*
X310100Y122500D01*
D30*
X310100Y122500D03*
X349920Y167359D03*
D31*
X349920Y187520D01*
X352330Y189930D01*
X355076Y189930D01*
X358345Y193199D02*
X358345Y205690D01*
X358345Y193199D02*
X355076Y189930D01*
X358345Y205690D02*
X356745Y207290D01*
X356745Y214650D01*
X334785Y224190D02*
X331693Y224190D01*
X334785Y224190D02*
X347245Y236650D01*
X325277Y217774D02*
X325277Y213282D01*
X325277Y217774D02*
X331693Y224190D01*
X347245Y236650D02*
X350471Y239876D01*
X350471Y241124D01*
D30*
X350471Y241124D03*
D31*
X287096Y272259D02*
X286533Y271697D01*
X268104Y271697D01*
X287067Y257323D02*
X287104Y257359D01*
X287067Y257323D02*
X268104Y257323D01*
M02*
