G04 EAGLE Gerber RS-274X export*
G75*
%MOMM*%
%FSLAX34Y34*%
%LPD*%
%INTop Copper*%
%IPPOS*%
%AMOC8*
5,1,8,0,0,1.08239X$1,22.5*%
G01*
%ADD10R,0.900000X0.700000*%
%ADD11R,0.700000X0.900000*%
%ADD12R,0.260000X0.790000*%
%ADD13R,0.790000X0.260000*%
%ADD14R,2.150000X2.050000*%
%ADD15R,0.254000X1.000000*%
%ADD16R,1.000000X0.254000*%
%ADD17R,1.400000X0.600000*%
%ADD18R,1.525000X0.650000*%
%ADD19R,2.390000X2.390000*%
%ADD20R,1.270000X0.635000*%
%ADD21R,2.540000X1.270000*%
%ADD22R,1.200000X1.400000*%
%ADD23R,0.483600X1.211800*%
%ADD24R,1.100000X1.000000*%
%ADD25R,1.000000X1.100000*%
%ADD26C,0.139500*%
%ADD27C,0.196500*%
%ADD28R,1.200000X0.800000*%
%ADD29C,0.203200*%
%ADD30C,0.508000*%
%ADD31C,0.609600*%
%ADD32C,0.604000*%
%ADD33C,0.254000*%
%ADD34C,0.304800*%
%ADD35C,0.704000*%
%ADD36C,1.016000*%
%ADD37C,0.500000*%

G36*
X128718Y20003D02*
X128718Y20003D01*
X128776Y20001D01*
X128858Y20023D01*
X128942Y20035D01*
X128995Y20058D01*
X129051Y20073D01*
X129124Y20116D01*
X129201Y20151D01*
X129246Y20189D01*
X129296Y20218D01*
X129354Y20280D01*
X129418Y20334D01*
X129450Y20383D01*
X129490Y20426D01*
X129529Y20501D01*
X129576Y20571D01*
X129593Y20627D01*
X129620Y20679D01*
X129631Y20747D01*
X129661Y20842D01*
X129664Y20942D01*
X129675Y21010D01*
X129675Y34182D01*
X130568Y35075D01*
X132826Y35075D01*
X132855Y35079D01*
X132884Y35076D01*
X132995Y35099D01*
X133107Y35115D01*
X133134Y35127D01*
X133163Y35132D01*
X133264Y35185D01*
X133367Y35231D01*
X133389Y35250D01*
X133415Y35263D01*
X133497Y35341D01*
X133584Y35414D01*
X133600Y35439D01*
X133621Y35459D01*
X133678Y35557D01*
X133741Y35651D01*
X133750Y35679D01*
X133765Y35704D01*
X133793Y35814D01*
X133827Y35922D01*
X133828Y35952D01*
X133835Y35980D01*
X133832Y36093D01*
X133834Y36206D01*
X133827Y36235D01*
X133826Y36264D01*
X133791Y36372D01*
X133763Y36481D01*
X133748Y36507D01*
X133739Y36535D01*
X133693Y36599D01*
X133617Y36726D01*
X133572Y36769D01*
X133544Y36808D01*
X132335Y38016D01*
X132335Y41384D01*
X133544Y42592D01*
X133561Y42616D01*
X133584Y42635D01*
X133647Y42729D01*
X133715Y42819D01*
X133725Y42847D01*
X133741Y42871D01*
X133776Y42979D01*
X133816Y43085D01*
X133818Y43114D01*
X133827Y43142D01*
X133830Y43256D01*
X133839Y43368D01*
X133834Y43397D01*
X133834Y43426D01*
X133806Y43536D01*
X133784Y43647D01*
X133770Y43673D01*
X133763Y43701D01*
X133705Y43799D01*
X133653Y43899D01*
X133632Y43921D01*
X133617Y43946D01*
X133535Y44023D01*
X133457Y44105D01*
X133431Y44120D01*
X133410Y44140D01*
X133309Y44192D01*
X133211Y44249D01*
X133183Y44256D01*
X133157Y44270D01*
X133080Y44283D01*
X132936Y44319D01*
X132873Y44317D01*
X132826Y44325D01*
X130568Y44325D01*
X129675Y45218D01*
X129675Y59182D01*
X130568Y60075D01*
X154704Y60075D01*
X154752Y60082D01*
X154801Y60079D01*
X154892Y60101D01*
X154986Y60115D01*
X155030Y60135D01*
X155077Y60146D01*
X155159Y60192D01*
X155245Y60231D01*
X155282Y60262D01*
X155325Y60286D01*
X155390Y60354D01*
X155462Y60414D01*
X155489Y60455D01*
X155523Y60490D01*
X155567Y60573D01*
X155620Y60651D01*
X155634Y60698D01*
X155657Y60741D01*
X155677Y60833D01*
X155705Y60922D01*
X155707Y60971D01*
X155717Y61019D01*
X155710Y61093D01*
X155713Y61206D01*
X155691Y61290D01*
X155685Y61353D01*
X155614Y61616D01*
X155614Y63576D01*
X164156Y63576D01*
X164156Y59409D01*
X159140Y59409D01*
X159082Y59401D01*
X159024Y59403D01*
X158942Y59381D01*
X158858Y59369D01*
X158805Y59346D01*
X158749Y59331D01*
X158676Y59288D01*
X158599Y59253D01*
X158554Y59215D01*
X158504Y59186D01*
X158446Y59124D01*
X158382Y59070D01*
X158350Y59021D01*
X158310Y58978D01*
X158271Y58903D01*
X158224Y58833D01*
X158207Y58777D01*
X158180Y58725D01*
X158169Y58657D01*
X158139Y58562D01*
X158136Y58462D01*
X158125Y58394D01*
X158125Y58290D01*
X158133Y58232D01*
X158131Y58174D01*
X158153Y58092D01*
X158165Y58008D01*
X158188Y57955D01*
X158203Y57899D01*
X158246Y57826D01*
X158281Y57749D01*
X158319Y57704D01*
X158348Y57654D01*
X158410Y57596D01*
X158464Y57532D01*
X158513Y57500D01*
X158556Y57460D01*
X158631Y57421D01*
X158701Y57374D01*
X158757Y57357D01*
X158809Y57330D01*
X158877Y57319D01*
X158972Y57289D01*
X159072Y57286D01*
X159140Y57275D01*
X174037Y57275D01*
X174930Y56382D01*
X174930Y48618D01*
X174037Y47725D01*
X159140Y47725D01*
X159082Y47717D01*
X159024Y47719D01*
X158942Y47697D01*
X158858Y47685D01*
X158805Y47662D01*
X158749Y47647D01*
X158676Y47604D01*
X158599Y47569D01*
X158554Y47531D01*
X158504Y47502D01*
X158446Y47440D01*
X158382Y47386D01*
X158350Y47337D01*
X158310Y47294D01*
X158271Y47219D01*
X158224Y47149D01*
X158207Y47093D01*
X158180Y47041D01*
X158169Y46973D01*
X158139Y46878D01*
X158136Y46778D01*
X158125Y46710D01*
X158125Y45590D01*
X158133Y45532D01*
X158131Y45474D01*
X158153Y45392D01*
X158165Y45308D01*
X158188Y45255D01*
X158203Y45199D01*
X158246Y45126D01*
X158281Y45049D01*
X158319Y45004D01*
X158348Y44954D01*
X158410Y44896D01*
X158464Y44832D01*
X158513Y44800D01*
X158556Y44760D01*
X158631Y44721D01*
X158701Y44674D01*
X158757Y44657D01*
X158809Y44630D01*
X158877Y44619D01*
X158972Y44589D01*
X159072Y44586D01*
X159140Y44575D01*
X174037Y44575D01*
X174930Y43682D01*
X174930Y35918D01*
X174037Y35025D01*
X159140Y35025D01*
X159082Y35017D01*
X159024Y35019D01*
X158942Y34997D01*
X158858Y34985D01*
X158805Y34962D01*
X158749Y34947D01*
X158676Y34904D01*
X158599Y34869D01*
X158554Y34831D01*
X158504Y34802D01*
X158446Y34740D01*
X158382Y34686D01*
X158350Y34637D01*
X158310Y34594D01*
X158271Y34519D01*
X158224Y34449D01*
X158207Y34393D01*
X158180Y34341D01*
X158169Y34273D01*
X158139Y34178D01*
X158136Y34078D01*
X158125Y34010D01*
X158125Y32890D01*
X158133Y32832D01*
X158131Y32774D01*
X158153Y32692D01*
X158165Y32608D01*
X158188Y32555D01*
X158203Y32499D01*
X158246Y32426D01*
X158281Y32349D01*
X158319Y32304D01*
X158348Y32254D01*
X158410Y32196D01*
X158464Y32132D01*
X158513Y32100D01*
X158556Y32060D01*
X158631Y32021D01*
X158701Y31974D01*
X158757Y31957D01*
X158809Y31930D01*
X158877Y31919D01*
X158972Y31889D01*
X159072Y31886D01*
X159140Y31875D01*
X174037Y31875D01*
X174930Y30982D01*
X174930Y23218D01*
X174037Y22325D01*
X159140Y22325D01*
X159082Y22317D01*
X159024Y22319D01*
X158942Y22297D01*
X158858Y22285D01*
X158805Y22262D01*
X158749Y22247D01*
X158676Y22204D01*
X158599Y22169D01*
X158554Y22131D01*
X158504Y22102D01*
X158446Y22040D01*
X158382Y21986D01*
X158350Y21937D01*
X158310Y21894D01*
X158271Y21819D01*
X158224Y21749D01*
X158207Y21693D01*
X158180Y21641D01*
X158169Y21573D01*
X158139Y21478D01*
X158136Y21378D01*
X158125Y21310D01*
X158125Y21010D01*
X158133Y20952D01*
X158131Y20894D01*
X158153Y20812D01*
X158165Y20728D01*
X158188Y20675D01*
X158203Y20619D01*
X158246Y20546D01*
X158281Y20469D01*
X158319Y20424D01*
X158348Y20374D01*
X158410Y20316D01*
X158464Y20252D01*
X158513Y20220D01*
X158556Y20180D01*
X158631Y20141D01*
X158701Y20094D01*
X158757Y20077D01*
X158809Y20050D01*
X158877Y20039D01*
X158972Y20009D01*
X159072Y20006D01*
X159140Y19995D01*
X233210Y19995D01*
X233268Y20003D01*
X233326Y20001D01*
X233408Y20023D01*
X233492Y20035D01*
X233545Y20058D01*
X233601Y20073D01*
X233674Y20116D01*
X233751Y20151D01*
X233796Y20189D01*
X233846Y20218D01*
X233904Y20280D01*
X233968Y20334D01*
X234000Y20383D01*
X234040Y20426D01*
X234079Y20501D01*
X234126Y20571D01*
X234143Y20627D01*
X234170Y20679D01*
X234181Y20747D01*
X234211Y20842D01*
X234214Y20942D01*
X234225Y21010D01*
X234225Y23156D01*
X234618Y23549D01*
X234670Y23619D01*
X234730Y23683D01*
X234756Y23732D01*
X234789Y23776D01*
X234820Y23858D01*
X234860Y23936D01*
X234868Y23983D01*
X234890Y24042D01*
X234902Y24190D01*
X234915Y24267D01*
X234915Y25133D01*
X234908Y25181D01*
X234909Y25187D01*
X234906Y25196D01*
X234903Y25220D01*
X234900Y25307D01*
X234883Y25360D01*
X234875Y25415D01*
X234840Y25494D01*
X234813Y25578D01*
X234785Y25617D01*
X234759Y25674D01*
X234663Y25787D01*
X234618Y25851D01*
X234225Y26244D01*
X234225Y28861D01*
X234213Y28948D01*
X234210Y29035D01*
X234193Y29088D01*
X234185Y29143D01*
X234150Y29222D01*
X234123Y29306D01*
X234095Y29345D01*
X234069Y29402D01*
X233973Y29515D01*
X233928Y29579D01*
X233359Y30148D01*
X233359Y61897D01*
X233355Y61926D01*
X233358Y61955D01*
X233335Y62066D01*
X233319Y62178D01*
X233307Y62205D01*
X233302Y62234D01*
X233249Y62334D01*
X233203Y62438D01*
X233184Y62460D01*
X233171Y62486D01*
X233093Y62568D01*
X233020Y62655D01*
X232995Y62671D01*
X232975Y62692D01*
X232877Y62749D01*
X232783Y62812D01*
X232755Y62821D01*
X232730Y62836D01*
X232620Y62864D01*
X232512Y62898D01*
X232482Y62899D01*
X232454Y62906D01*
X232341Y62902D01*
X232228Y62905D01*
X232199Y62898D01*
X232170Y62897D01*
X232062Y62862D01*
X231953Y62833D01*
X231927Y62819D01*
X231899Y62809D01*
X231835Y62764D01*
X231708Y62688D01*
X231665Y62643D01*
X231626Y62615D01*
X231163Y62151D01*
X230185Y62151D01*
X230127Y62143D01*
X230069Y62145D01*
X229987Y62123D01*
X229903Y62111D01*
X229850Y62088D01*
X229794Y62073D01*
X229721Y62030D01*
X229644Y61995D01*
X229599Y61957D01*
X229549Y61928D01*
X229491Y61866D01*
X229427Y61812D01*
X229395Y61763D01*
X229355Y61720D01*
X229316Y61645D01*
X229269Y61575D01*
X229252Y61519D01*
X229225Y61467D01*
X229214Y61399D01*
X229197Y61346D01*
X228277Y60425D01*
X225930Y60425D01*
X225901Y60421D01*
X225872Y60424D01*
X225761Y60401D01*
X225649Y60385D01*
X225622Y60373D01*
X225593Y60368D01*
X225493Y60316D01*
X225389Y60269D01*
X225367Y60250D01*
X225341Y60237D01*
X225259Y60159D01*
X225172Y60086D01*
X225156Y60061D01*
X225135Y60041D01*
X225077Y59943D01*
X225015Y59849D01*
X225006Y59821D01*
X224991Y59796D01*
X224963Y59686D01*
X224929Y59578D01*
X224928Y59548D01*
X224921Y59520D01*
X224924Y59407D01*
X224922Y59294D01*
X224929Y59265D01*
X224930Y59236D01*
X224965Y59128D01*
X224993Y59019D01*
X225008Y58993D01*
X225017Y58965D01*
X225063Y58902D01*
X225139Y58774D01*
X225184Y58731D01*
X225212Y58692D01*
X226332Y57572D01*
X226402Y57520D01*
X226466Y57460D01*
X226515Y57434D01*
X226559Y57401D01*
X226641Y57370D01*
X226719Y57330D01*
X226767Y57322D01*
X226825Y57300D01*
X226973Y57288D01*
X227050Y57275D01*
X228277Y57275D01*
X229170Y56382D01*
X229170Y48618D01*
X228277Y47725D01*
X225724Y47725D01*
X225666Y47717D01*
X225608Y47719D01*
X225526Y47697D01*
X225442Y47685D01*
X225389Y47662D01*
X225333Y47647D01*
X225260Y47604D01*
X225183Y47569D01*
X225138Y47531D01*
X225088Y47502D01*
X225030Y47440D01*
X224966Y47386D01*
X224934Y47337D01*
X224894Y47294D01*
X224855Y47219D01*
X224808Y47149D01*
X224791Y47093D01*
X224764Y47041D01*
X224753Y46973D01*
X224723Y46878D01*
X224720Y46778D01*
X224709Y46710D01*
X224709Y45590D01*
X224717Y45532D01*
X224715Y45474D01*
X224737Y45392D01*
X224749Y45308D01*
X224772Y45255D01*
X224787Y45199D01*
X224830Y45126D01*
X224865Y45049D01*
X224903Y45004D01*
X224932Y44954D01*
X224994Y44896D01*
X225048Y44832D01*
X225097Y44800D01*
X225140Y44760D01*
X225215Y44721D01*
X225285Y44674D01*
X225341Y44657D01*
X225393Y44630D01*
X225461Y44619D01*
X225556Y44589D01*
X225656Y44586D01*
X225724Y44575D01*
X228277Y44575D01*
X229170Y43682D01*
X229170Y35918D01*
X228277Y35025D01*
X211763Y35025D01*
X210870Y35918D01*
X210870Y43682D01*
X211763Y44575D01*
X215564Y44575D01*
X215622Y44583D01*
X215680Y44581D01*
X215762Y44603D01*
X215846Y44615D01*
X215899Y44638D01*
X215955Y44653D01*
X216028Y44696D01*
X216105Y44731D01*
X216150Y44769D01*
X216200Y44798D01*
X216258Y44860D01*
X216322Y44914D01*
X216354Y44963D01*
X216394Y45006D01*
X216433Y45081D01*
X216480Y45151D01*
X216497Y45207D01*
X216524Y45259D01*
X216535Y45327D01*
X216565Y45422D01*
X216568Y45522D01*
X216579Y45590D01*
X216579Y46710D01*
X216571Y46768D01*
X216573Y46826D01*
X216551Y46908D01*
X216539Y46992D01*
X216516Y47045D01*
X216501Y47101D01*
X216458Y47174D01*
X216423Y47251D01*
X216385Y47296D01*
X216356Y47346D01*
X216294Y47404D01*
X216240Y47468D01*
X216191Y47500D01*
X216148Y47540D01*
X216073Y47579D01*
X216003Y47626D01*
X215947Y47643D01*
X215895Y47670D01*
X215827Y47681D01*
X215732Y47711D01*
X215632Y47714D01*
X215564Y47725D01*
X211763Y47725D01*
X210870Y48618D01*
X210870Y56382D01*
X211763Y57275D01*
X217862Y57275D01*
X217948Y57287D01*
X218036Y57290D01*
X218089Y57307D01*
X218143Y57315D01*
X218223Y57350D01*
X218306Y57377D01*
X218346Y57405D01*
X218403Y57431D01*
X218516Y57527D01*
X218580Y57572D01*
X219700Y58692D01*
X219717Y58716D01*
X219740Y58735D01*
X219803Y58829D01*
X219871Y58919D01*
X219881Y58947D01*
X219897Y58971D01*
X219932Y59079D01*
X219972Y59185D01*
X219974Y59214D01*
X219983Y59242D01*
X219986Y59356D01*
X219995Y59468D01*
X219990Y59497D01*
X219990Y59526D01*
X219962Y59636D01*
X219940Y59747D01*
X219926Y59773D01*
X219919Y59801D01*
X219861Y59899D01*
X219809Y59999D01*
X219788Y60021D01*
X219773Y60046D01*
X219691Y60123D01*
X219613Y60205D01*
X219587Y60220D01*
X219566Y60240D01*
X219465Y60292D01*
X219367Y60349D01*
X219339Y60356D01*
X219313Y60370D01*
X219236Y60383D01*
X219092Y60419D01*
X219029Y60417D01*
X218982Y60425D01*
X211763Y60425D01*
X210870Y61318D01*
X210870Y67567D01*
X210866Y67596D01*
X210869Y67625D01*
X210846Y67736D01*
X210830Y67848D01*
X210818Y67875D01*
X210813Y67904D01*
X210760Y68005D01*
X210714Y68108D01*
X210695Y68130D01*
X210682Y68156D01*
X210604Y68238D01*
X210531Y68325D01*
X210506Y68341D01*
X210486Y68362D01*
X210388Y68419D01*
X210294Y68482D01*
X210266Y68491D01*
X210241Y68506D01*
X210131Y68534D01*
X210023Y68568D01*
X209993Y68569D01*
X209965Y68576D01*
X209852Y68572D01*
X209739Y68575D01*
X209710Y68568D01*
X209681Y68567D01*
X209573Y68532D01*
X209464Y68504D01*
X209438Y68489D01*
X209410Y68480D01*
X209347Y68434D01*
X209219Y68358D01*
X209176Y68313D01*
X209137Y68285D01*
X207138Y66285D01*
X195164Y66285D01*
X195107Y66277D01*
X195048Y66278D01*
X194967Y66257D01*
X194883Y66245D01*
X194830Y66221D01*
X194773Y66207D01*
X194701Y66164D01*
X194624Y66129D01*
X194579Y66091D01*
X194529Y66061D01*
X194471Y66000D01*
X194407Y65945D01*
X194374Y65897D01*
X194334Y65854D01*
X194296Y65779D01*
X194249Y65709D01*
X194231Y65653D01*
X194205Y65601D01*
X194193Y65533D01*
X194163Y65438D01*
X194161Y65338D01*
X194149Y65270D01*
X194149Y60640D01*
X194157Y60582D01*
X194156Y60524D01*
X194177Y60442D01*
X194189Y60358D01*
X194213Y60305D01*
X194228Y60249D01*
X194271Y60176D01*
X194305Y60099D01*
X194343Y60054D01*
X194373Y60004D01*
X194435Y59946D01*
X194489Y59882D01*
X194538Y59850D01*
X194580Y59810D01*
X194655Y59771D01*
X194726Y59724D01*
X194781Y59707D01*
X194833Y59680D01*
X194901Y59669D01*
X194997Y59639D01*
X195096Y59636D01*
X195164Y59625D01*
X205482Y59625D01*
X206375Y58732D01*
X206375Y33568D01*
X206212Y33406D01*
X206195Y33382D01*
X206172Y33363D01*
X206109Y33269D01*
X206041Y33179D01*
X206031Y33151D01*
X206015Y33127D01*
X205980Y33019D01*
X205940Y32913D01*
X205938Y32884D01*
X205929Y32856D01*
X205926Y32743D01*
X205916Y32630D01*
X205922Y32601D01*
X205921Y32572D01*
X205950Y32462D01*
X205972Y32351D01*
X205986Y32325D01*
X205993Y32297D01*
X206051Y32199D01*
X206103Y32099D01*
X206124Y32077D01*
X206139Y32052D01*
X206221Y31974D01*
X206299Y31893D01*
X206324Y31878D01*
X206346Y31858D01*
X206447Y31806D01*
X206544Y31749D01*
X206573Y31742D01*
X206599Y31728D01*
X206676Y31715D01*
X206820Y31679D01*
X206882Y31681D01*
X206930Y31673D01*
X211141Y31673D01*
X211228Y31685D01*
X211315Y31688D01*
X211368Y31705D01*
X211422Y31713D01*
X211502Y31748D01*
X211585Y31775D01*
X211625Y31803D01*
X211682Y31829D01*
X211736Y31875D01*
X228277Y31875D01*
X229170Y30982D01*
X229170Y23218D01*
X228277Y22325D01*
X211743Y22325D01*
X211725Y22342D01*
X211676Y22368D01*
X211632Y22401D01*
X211550Y22432D01*
X211472Y22472D01*
X211424Y22480D01*
X211366Y22502D01*
X211218Y22514D01*
X211141Y22527D01*
X198606Y22527D01*
X188755Y32378D01*
X188685Y32430D01*
X188622Y32490D01*
X188572Y32516D01*
X188528Y32549D01*
X188446Y32580D01*
X188368Y32620D01*
X188321Y32628D01*
X188262Y32650D01*
X188115Y32662D01*
X188037Y32675D01*
X180318Y32675D01*
X179425Y33568D01*
X179425Y58732D01*
X180318Y59625D01*
X183989Y59625D01*
X184046Y59633D01*
X184105Y59631D01*
X184186Y59653D01*
X184270Y59665D01*
X184323Y59688D01*
X184380Y59703D01*
X184452Y59746D01*
X184529Y59781D01*
X184574Y59819D01*
X184624Y59848D01*
X184682Y59910D01*
X184746Y59964D01*
X184779Y60013D01*
X184819Y60056D01*
X184857Y60131D01*
X184904Y60201D01*
X184922Y60257D01*
X184948Y60309D01*
X184960Y60377D01*
X184990Y60472D01*
X184992Y60572D01*
X185004Y60640D01*
X185004Y87010D01*
X184996Y87067D01*
X184997Y87118D01*
X184997Y87126D01*
X184976Y87208D01*
X184964Y87292D01*
X184940Y87345D01*
X184925Y87401D01*
X184882Y87474D01*
X184848Y87551D01*
X184810Y87596D01*
X184780Y87646D01*
X184718Y87704D01*
X184664Y87768D01*
X184615Y87800D01*
X184573Y87840D01*
X184498Y87879D01*
X184427Y87926D01*
X184372Y87943D01*
X184320Y87970D01*
X184252Y87981D01*
X184156Y88011D01*
X184057Y88014D01*
X183989Y88025D01*
X180318Y88025D01*
X180248Y88095D01*
X180201Y88131D01*
X180161Y88173D01*
X180088Y88216D01*
X180021Y88266D01*
X179966Y88287D01*
X179916Y88317D01*
X179834Y88338D01*
X179755Y88367D01*
X179697Y88372D01*
X179640Y88387D01*
X179556Y88384D01*
X179472Y88391D01*
X179415Y88379D01*
X179356Y88378D01*
X179276Y88352D01*
X179193Y88335D01*
X179141Y88308D01*
X179085Y88290D01*
X179029Y88250D01*
X178941Y88204D01*
X178886Y88152D01*
X178865Y88139D01*
X178846Y88119D01*
X178812Y88095D01*
X178783Y88065D01*
X178752Y88024D01*
X178735Y88008D01*
X178723Y87988D01*
X178671Y87932D01*
X178645Y87883D01*
X178612Y87838D01*
X178581Y87757D01*
X178541Y87679D01*
X178533Y87631D01*
X178511Y87572D01*
X178499Y87425D01*
X178486Y87348D01*
X178486Y77095D01*
X175510Y74119D01*
X164246Y74119D01*
X164159Y74107D01*
X164072Y74104D01*
X164019Y74087D01*
X163964Y74079D01*
X163885Y74044D01*
X163801Y74017D01*
X163762Y73989D01*
X163705Y73963D01*
X163592Y73867D01*
X163528Y73822D01*
X162430Y72724D01*
X162412Y72700D01*
X162390Y72681D01*
X162327Y72587D01*
X162259Y72497D01*
X162249Y72469D01*
X162232Y72445D01*
X162198Y72337D01*
X162158Y72231D01*
X162155Y72202D01*
X162146Y72174D01*
X162144Y72060D01*
X162134Y71948D01*
X162140Y71919D01*
X162139Y71890D01*
X162168Y71780D01*
X162190Y71669D01*
X162204Y71643D01*
X162211Y71615D01*
X162269Y71517D01*
X162321Y71417D01*
X162341Y71395D01*
X162356Y71370D01*
X162439Y71293D01*
X162517Y71211D01*
X162542Y71196D01*
X162564Y71176D01*
X162665Y71124D01*
X162762Y71067D01*
X162791Y71060D01*
X162817Y71046D01*
X162894Y71033D01*
X163038Y70997D01*
X163100Y70999D01*
X163148Y70991D01*
X164156Y70991D01*
X164156Y66824D01*
X155614Y66824D01*
X155614Y67078D01*
X155606Y67136D01*
X155608Y67194D01*
X155586Y67276D01*
X155574Y67359D01*
X155551Y67413D01*
X155536Y67469D01*
X155493Y67542D01*
X155458Y67619D01*
X155420Y67663D01*
X155391Y67714D01*
X155329Y67771D01*
X155275Y67836D01*
X155226Y67868D01*
X155183Y67908D01*
X155108Y67947D01*
X155038Y67993D01*
X154982Y68011D01*
X154930Y68038D01*
X154862Y68049D01*
X154767Y68079D01*
X154667Y68082D01*
X154599Y68093D01*
X143021Y68093D01*
X142935Y68081D01*
X142847Y68078D01*
X142795Y68061D01*
X142740Y68053D01*
X142660Y68017D01*
X142577Y67991D01*
X142538Y67963D01*
X142480Y67937D01*
X142367Y67841D01*
X142303Y67796D01*
X141077Y66569D01*
X137709Y66569D01*
X135328Y68950D01*
X135328Y72317D01*
X136103Y73092D01*
X136118Y73113D01*
X136136Y73127D01*
X136138Y73130D01*
X136143Y73135D01*
X136206Y73229D01*
X136274Y73319D01*
X136284Y73347D01*
X136301Y73371D01*
X136335Y73479D01*
X136375Y73585D01*
X136378Y73614D01*
X136386Y73642D01*
X136389Y73756D01*
X136399Y73868D01*
X136393Y73897D01*
X136394Y73926D01*
X136365Y74036D01*
X136343Y74147D01*
X136329Y74173D01*
X136322Y74201D01*
X136264Y74299D01*
X136212Y74399D01*
X136192Y74421D01*
X136177Y74446D01*
X136094Y74523D01*
X136016Y74605D01*
X135991Y74620D01*
X135969Y74640D01*
X135868Y74692D01*
X135771Y74749D01*
X135742Y74756D01*
X135716Y74770D01*
X135639Y74783D01*
X135495Y74819D01*
X135433Y74817D01*
X135385Y74825D01*
X130568Y74825D01*
X129675Y75718D01*
X129675Y89682D01*
X130568Y90575D01*
X133860Y90575D01*
X133918Y90583D01*
X133976Y90581D01*
X134058Y90603D01*
X134142Y90615D01*
X134195Y90638D01*
X134251Y90653D01*
X134324Y90696D01*
X134401Y90731D01*
X134446Y90769D01*
X134496Y90798D01*
X134554Y90860D01*
X134618Y90914D01*
X134650Y90963D01*
X134690Y91006D01*
X134729Y91081D01*
X134776Y91151D01*
X134793Y91207D01*
X134820Y91259D01*
X134831Y91327D01*
X134861Y91422D01*
X134864Y91522D01*
X134875Y91590D01*
X134875Y99020D01*
X134867Y99078D01*
X134869Y99136D01*
X134847Y99218D01*
X134835Y99302D01*
X134812Y99355D01*
X134797Y99411D01*
X134754Y99484D01*
X134719Y99561D01*
X134681Y99606D01*
X134652Y99656D01*
X134590Y99714D01*
X134536Y99778D01*
X134487Y99810D01*
X134444Y99850D01*
X134369Y99889D01*
X134299Y99936D01*
X134243Y99953D01*
X134191Y99980D01*
X134123Y99991D01*
X134028Y100021D01*
X133928Y100024D01*
X133860Y100035D01*
X130568Y100035D01*
X129675Y100928D01*
X129675Y114892D01*
X130568Y115785D01*
X154608Y115785D01*
X154656Y115792D01*
X154705Y115789D01*
X154797Y115811D01*
X154889Y115825D01*
X154934Y115845D01*
X154982Y115856D01*
X155063Y115903D01*
X155148Y115941D01*
X155186Y115973D01*
X155229Y115997D01*
X155294Y116064D01*
X155365Y116124D01*
X155393Y116165D01*
X155427Y116201D01*
X155471Y116283D01*
X155523Y116361D01*
X155538Y116408D01*
X155561Y116451D01*
X155581Y116543D01*
X155609Y116632D01*
X155610Y116681D01*
X155620Y116729D01*
X155613Y116803D01*
X155614Y116830D01*
X155614Y116832D01*
X155614Y116843D01*
X155616Y116916D01*
X155614Y116924D01*
X155614Y118926D01*
X164156Y118926D01*
X164156Y114759D01*
X159140Y114759D01*
X159082Y114751D01*
X159024Y114753D01*
X158942Y114731D01*
X158858Y114719D01*
X158805Y114696D01*
X158749Y114681D01*
X158676Y114638D01*
X158599Y114603D01*
X158554Y114565D01*
X158504Y114536D01*
X158446Y114474D01*
X158382Y114420D01*
X158350Y114371D01*
X158310Y114328D01*
X158271Y114253D01*
X158224Y114183D01*
X158207Y114127D01*
X158180Y114075D01*
X158169Y114007D01*
X158139Y113912D01*
X158136Y113812D01*
X158125Y113744D01*
X158125Y113640D01*
X158133Y113582D01*
X158131Y113524D01*
X158153Y113442D01*
X158165Y113358D01*
X158188Y113305D01*
X158203Y113249D01*
X158246Y113176D01*
X158281Y113099D01*
X158319Y113054D01*
X158348Y113004D01*
X158410Y112946D01*
X158464Y112882D01*
X158513Y112850D01*
X158556Y112810D01*
X158631Y112771D01*
X158701Y112724D01*
X158757Y112707D01*
X158809Y112680D01*
X158877Y112669D01*
X158972Y112639D01*
X159072Y112636D01*
X159140Y112625D01*
X174037Y112625D01*
X174930Y111732D01*
X174930Y103994D01*
X174934Y103965D01*
X174931Y103936D01*
X174954Y103825D01*
X174970Y103713D01*
X174982Y103686D01*
X174987Y103657D01*
X175040Y103557D01*
X175086Y103453D01*
X175105Y103431D01*
X175118Y103405D01*
X175196Y103323D01*
X175269Y103236D01*
X175294Y103220D01*
X175314Y103199D01*
X175412Y103141D01*
X175506Y103079D01*
X175534Y103070D01*
X175559Y103055D01*
X175669Y103027D01*
X175777Y102993D01*
X175807Y102992D01*
X175835Y102985D01*
X175948Y102988D01*
X176061Y102986D01*
X176090Y102993D01*
X176119Y102994D01*
X176227Y103029D01*
X176336Y103057D01*
X176362Y103072D01*
X176390Y103081D01*
X176453Y103127D01*
X176581Y103203D01*
X176624Y103248D01*
X176663Y103276D01*
X179128Y105741D01*
X179180Y105811D01*
X179240Y105875D01*
X179266Y105924D01*
X179299Y105968D01*
X179330Y106050D01*
X179370Y106128D01*
X179378Y106176D01*
X179400Y106234D01*
X179412Y106382D01*
X179425Y106459D01*
X179425Y114082D01*
X180318Y114975D01*
X187312Y114975D01*
X187370Y114983D01*
X187428Y114981D01*
X187510Y115003D01*
X187594Y115015D01*
X187647Y115038D01*
X187703Y115053D01*
X187776Y115096D01*
X187853Y115131D01*
X187898Y115169D01*
X187948Y115198D01*
X188006Y115260D01*
X188070Y115314D01*
X188102Y115363D01*
X188142Y115406D01*
X188181Y115481D01*
X188228Y115551D01*
X188245Y115607D01*
X188272Y115659D01*
X188283Y115727D01*
X188313Y115822D01*
X188316Y115922D01*
X188327Y115990D01*
X188327Y141980D01*
X188319Y142038D01*
X188321Y142096D01*
X188299Y142178D01*
X188287Y142262D01*
X188264Y142315D01*
X188249Y142371D01*
X188206Y142444D01*
X188171Y142521D01*
X188133Y142566D01*
X188104Y142616D01*
X188042Y142674D01*
X187988Y142738D01*
X187939Y142770D01*
X187896Y142810D01*
X187821Y142849D01*
X187751Y142896D01*
X187695Y142913D01*
X187643Y142940D01*
X187575Y142951D01*
X187480Y142981D01*
X187380Y142984D01*
X187312Y142995D01*
X184188Y142995D01*
X184130Y142987D01*
X184072Y142989D01*
X183990Y142967D01*
X183906Y142955D01*
X183853Y142932D01*
X183796Y142917D01*
X183724Y142874D01*
X183647Y142839D01*
X183602Y142801D01*
X183552Y142772D01*
X183494Y142710D01*
X183430Y142656D01*
X183398Y142607D01*
X183358Y142564D01*
X183319Y142489D01*
X183272Y142419D01*
X183255Y142363D01*
X183228Y142311D01*
X183217Y142243D01*
X183187Y142148D01*
X183184Y142048D01*
X183173Y141980D01*
X183173Y129862D01*
X183185Y129775D01*
X183188Y129688D01*
X183205Y129635D01*
X183212Y129581D01*
X183248Y129501D01*
X183275Y129418D01*
X183303Y129378D01*
X183329Y129321D01*
X183424Y129208D01*
X183470Y129144D01*
X184697Y127918D01*
X184697Y124550D01*
X182316Y122169D01*
X178948Y122169D01*
X177679Y123439D01*
X177655Y123456D01*
X177636Y123479D01*
X177542Y123541D01*
X177452Y123609D01*
X177424Y123620D01*
X177400Y123636D01*
X177292Y123670D01*
X177186Y123711D01*
X177157Y123713D01*
X177129Y123722D01*
X177015Y123725D01*
X176903Y123734D01*
X176874Y123729D01*
X176845Y123729D01*
X176735Y123701D01*
X176624Y123678D01*
X176598Y123665D01*
X176570Y123657D01*
X176472Y123600D01*
X176372Y123547D01*
X176350Y123527D01*
X176325Y123512D01*
X176248Y123430D01*
X176166Y123352D01*
X176151Y123326D01*
X176131Y123305D01*
X176079Y123204D01*
X176022Y123106D01*
X176015Y123078D01*
X176001Y123052D01*
X175988Y122974D01*
X175952Y122831D01*
X175954Y122768D01*
X175946Y122721D01*
X175946Y122174D01*
X167404Y122174D01*
X167404Y126341D01*
X173739Y126341D01*
X174386Y126168D01*
X175044Y125787D01*
X175081Y125773D01*
X175113Y125751D01*
X175212Y125720D01*
X175308Y125681D01*
X175347Y125677D01*
X175384Y125665D01*
X175488Y125663D01*
X175591Y125652D01*
X175629Y125659D01*
X175668Y125658D01*
X175769Y125684D01*
X175870Y125703D01*
X175906Y125720D01*
X175943Y125730D01*
X176032Y125783D01*
X176125Y125829D01*
X176154Y125855D01*
X176188Y125875D01*
X176259Y125951D01*
X176335Y126020D01*
X176356Y126054D01*
X176382Y126082D01*
X176429Y126175D01*
X176484Y126263D01*
X176494Y126301D01*
X176512Y126335D01*
X176525Y126412D01*
X176559Y126537D01*
X176558Y126612D01*
X176567Y126667D01*
X176567Y127918D01*
X177794Y129144D01*
X177846Y129214D01*
X177906Y129278D01*
X177931Y129327D01*
X177965Y129371D01*
X177996Y129453D01*
X178036Y129531D01*
X178044Y129579D01*
X178066Y129637D01*
X178078Y129785D01*
X178091Y129862D01*
X178091Y139773D01*
X178079Y139860D01*
X178076Y139947D01*
X178059Y140000D01*
X178051Y140055D01*
X178016Y140134D01*
X177989Y140218D01*
X177961Y140257D01*
X177935Y140314D01*
X177868Y140393D01*
X177846Y140430D01*
X177819Y140456D01*
X177794Y140491D01*
X176663Y141622D01*
X176639Y141640D01*
X176620Y141662D01*
X176526Y141725D01*
X176436Y141793D01*
X176408Y141803D01*
X176384Y141819D01*
X176276Y141854D01*
X176170Y141894D01*
X176141Y141896D01*
X176113Y141905D01*
X175999Y141908D01*
X175887Y141918D01*
X175858Y141912D01*
X175829Y141913D01*
X175719Y141884D01*
X175608Y141862D01*
X175582Y141848D01*
X175554Y141841D01*
X175456Y141783D01*
X175356Y141731D01*
X175334Y141710D01*
X175309Y141695D01*
X175232Y141613D01*
X175150Y141535D01*
X175135Y141510D01*
X175115Y141488D01*
X175063Y141387D01*
X175006Y141290D01*
X174999Y141261D01*
X174985Y141235D01*
X174972Y141158D01*
X174936Y141014D01*
X174938Y140952D01*
X174930Y140904D01*
X174930Y133538D01*
X174037Y132645D01*
X159140Y132645D01*
X159082Y132637D01*
X159024Y132639D01*
X158942Y132617D01*
X158858Y132605D01*
X158805Y132582D01*
X158749Y132567D01*
X158676Y132524D01*
X158599Y132489D01*
X158554Y132451D01*
X158504Y132422D01*
X158446Y132360D01*
X158382Y132306D01*
X158350Y132257D01*
X158310Y132214D01*
X158271Y132139D01*
X158224Y132069D01*
X158207Y132013D01*
X158180Y131961D01*
X158169Y131893D01*
X158139Y131798D01*
X158136Y131698D01*
X158125Y131630D01*
X158125Y130648D01*
X157232Y129755D01*
X130568Y129755D01*
X129675Y130648D01*
X129675Y144612D01*
X130568Y145505D01*
X133860Y145505D01*
X133918Y145513D01*
X133976Y145511D01*
X134058Y145533D01*
X134142Y145545D01*
X134195Y145568D01*
X134251Y145583D01*
X134324Y145626D01*
X134401Y145661D01*
X134446Y145699D01*
X134496Y145728D01*
X134554Y145790D01*
X134618Y145844D01*
X134650Y145893D01*
X134690Y145936D01*
X134729Y146011D01*
X134776Y146081D01*
X134793Y146137D01*
X134820Y146189D01*
X134831Y146257D01*
X134861Y146352D01*
X134864Y146452D01*
X134875Y146520D01*
X134875Y153690D01*
X134867Y153748D01*
X134869Y153807D01*
X134847Y153888D01*
X134835Y153972D01*
X134812Y154025D01*
X134797Y154082D01*
X134754Y154154D01*
X134719Y154231D01*
X134681Y154276D01*
X134652Y154326D01*
X134590Y154384D01*
X134536Y154448D01*
X134487Y154480D01*
X134444Y154521D01*
X134369Y154559D01*
X134299Y154606D01*
X134243Y154623D01*
X134191Y154650D01*
X134123Y154661D01*
X134028Y154691D01*
X133928Y154694D01*
X133860Y154705D01*
X130568Y154705D01*
X129675Y155599D01*
X129675Y169562D01*
X130568Y170455D01*
X154688Y170455D01*
X154736Y170462D01*
X154785Y170460D01*
X154876Y170482D01*
X154969Y170495D01*
X155014Y170515D01*
X155061Y170526D01*
X155143Y170573D01*
X155229Y170611D01*
X155266Y170643D01*
X155309Y170667D01*
X155374Y170734D01*
X155446Y170795D01*
X155473Y170835D01*
X155507Y170870D01*
X155551Y170953D01*
X155603Y171031D01*
X155618Y171078D01*
X155641Y171121D01*
X155661Y171213D01*
X155689Y171302D01*
X155690Y171351D01*
X155701Y171399D01*
X155694Y171473D01*
X155696Y171586D01*
X155675Y171670D01*
X155669Y171733D01*
X155614Y171935D01*
X155614Y173896D01*
X164156Y173896D01*
X164156Y169729D01*
X159140Y169729D01*
X159082Y169721D01*
X159024Y169723D01*
X158942Y169701D01*
X158858Y169689D01*
X158805Y169666D01*
X158749Y169651D01*
X158676Y169608D01*
X158599Y169573D01*
X158554Y169535D01*
X158504Y169506D01*
X158446Y169444D01*
X158382Y169390D01*
X158350Y169341D01*
X158310Y169298D01*
X158271Y169223D01*
X158224Y169153D01*
X158207Y169097D01*
X158180Y169045D01*
X158169Y168977D01*
X158139Y168882D01*
X158136Y168782D01*
X158125Y168714D01*
X158125Y168610D01*
X158133Y168552D01*
X158131Y168494D01*
X158153Y168412D01*
X158165Y168328D01*
X158188Y168275D01*
X158203Y168219D01*
X158246Y168146D01*
X158281Y168069D01*
X158319Y168024D01*
X158348Y167974D01*
X158410Y167916D01*
X158464Y167852D01*
X158513Y167820D01*
X158556Y167780D01*
X158631Y167741D01*
X158701Y167694D01*
X158757Y167677D01*
X158809Y167650D01*
X158877Y167639D01*
X158972Y167609D01*
X159072Y167606D01*
X159140Y167595D01*
X174037Y167595D01*
X174930Y166702D01*
X174930Y162384D01*
X174938Y162326D01*
X174936Y162267D01*
X174958Y162186D01*
X174970Y162102D01*
X174993Y162049D01*
X175008Y161992D01*
X175051Y161920D01*
X175086Y161843D01*
X175124Y161798D01*
X175153Y161748D01*
X175215Y161690D01*
X175269Y161626D01*
X175318Y161593D01*
X175361Y161553D01*
X175436Y161515D01*
X175506Y161468D01*
X175562Y161450D01*
X175614Y161424D01*
X175682Y161412D01*
X175777Y161382D01*
X175877Y161380D01*
X175945Y161368D01*
X178410Y161368D01*
X178468Y161377D01*
X178526Y161375D01*
X178608Y161396D01*
X178692Y161408D01*
X178745Y161432D01*
X178801Y161447D01*
X178874Y161490D01*
X178951Y161524D01*
X178996Y161562D01*
X179046Y161592D01*
X179104Y161654D01*
X179168Y161708D01*
X179200Y161757D01*
X179240Y161799D01*
X179279Y161875D01*
X179326Y161945D01*
X179343Y162001D01*
X179370Y162053D01*
X179381Y162121D01*
X179411Y162216D01*
X179414Y162316D01*
X179425Y162384D01*
X179425Y165213D01*
X179418Y165265D01*
X179419Y165292D01*
X179413Y165315D01*
X179410Y165387D01*
X179393Y165439D01*
X179385Y165494D01*
X179350Y165574D01*
X179323Y165657D01*
X179295Y165696D01*
X179269Y165754D01*
X179173Y165867D01*
X179128Y165931D01*
X175408Y169651D01*
X175346Y169698D01*
X175290Y169752D01*
X175233Y169783D01*
X175181Y169822D01*
X175108Y169849D01*
X175039Y169886D01*
X174976Y169900D01*
X174915Y169923D01*
X174837Y169929D01*
X174761Y169946D01*
X174706Y169940D01*
X174632Y169946D01*
X174505Y169921D01*
X174427Y169914D01*
X173739Y169729D01*
X167404Y169729D01*
X167404Y174911D01*
X167396Y174969D01*
X167398Y175027D01*
X167376Y175109D01*
X167364Y175192D01*
X167341Y175246D01*
X167326Y175302D01*
X167283Y175375D01*
X167248Y175452D01*
X167210Y175496D01*
X167196Y175520D01*
X167219Y175545D01*
X167258Y175620D01*
X167305Y175690D01*
X167322Y175746D01*
X167349Y175798D01*
X167360Y175866D01*
X167390Y175961D01*
X167393Y176061D01*
X167404Y176129D01*
X167404Y181311D01*
X173739Y181311D01*
X174386Y181138D01*
X174671Y180973D01*
X174734Y180947D01*
X174793Y180913D01*
X174865Y180894D01*
X174935Y180866D01*
X175003Y180859D01*
X175069Y180843D01*
X175143Y180845D01*
X175218Y180837D01*
X175285Y180850D01*
X175353Y180852D01*
X175424Y180875D01*
X175497Y180888D01*
X175558Y180918D01*
X175623Y180939D01*
X175674Y180976D01*
X175752Y181014D01*
X175836Y181091D01*
X175897Y181134D01*
X177027Y182265D01*
X180395Y182265D01*
X181838Y180822D01*
X181884Y180787D01*
X181925Y180744D01*
X181997Y180702D01*
X182065Y180651D01*
X182119Y180630D01*
X182170Y180601D01*
X182251Y180580D01*
X182330Y180550D01*
X182389Y180545D01*
X182445Y180530D01*
X182530Y180533D01*
X182614Y180526D01*
X182671Y180538D01*
X182730Y180539D01*
X182810Y180565D01*
X182892Y180582D01*
X182944Y180609D01*
X183000Y180627D01*
X183056Y180667D01*
X183145Y180713D01*
X183217Y180782D01*
X183273Y180822D01*
X184716Y182265D01*
X187312Y182265D01*
X187370Y182273D01*
X187428Y182271D01*
X187510Y182293D01*
X187594Y182305D01*
X187647Y182328D01*
X187703Y182343D01*
X187776Y182386D01*
X187853Y182421D01*
X187898Y182459D01*
X187948Y182488D01*
X188006Y182550D01*
X188070Y182604D01*
X188102Y182653D01*
X188142Y182696D01*
X188181Y182771D01*
X188228Y182841D01*
X188245Y182897D01*
X188272Y182949D01*
X188283Y183017D01*
X188313Y183112D01*
X188316Y183212D01*
X188327Y183280D01*
X188327Y196710D01*
X188320Y196758D01*
X188321Y196765D01*
X188319Y196770D01*
X188321Y196826D01*
X188299Y196908D01*
X188287Y196992D01*
X188264Y197045D01*
X188249Y197101D01*
X188206Y197174D01*
X188171Y197251D01*
X188133Y197296D01*
X188104Y197346D01*
X188042Y197404D01*
X187988Y197468D01*
X187939Y197500D01*
X187896Y197540D01*
X187821Y197579D01*
X187751Y197626D01*
X187695Y197643D01*
X187643Y197670D01*
X187575Y197681D01*
X187480Y197711D01*
X187380Y197714D01*
X187312Y197725D01*
X180318Y197725D01*
X179425Y198618D01*
X179425Y207990D01*
X179417Y208048D01*
X179419Y208106D01*
X179397Y208188D01*
X179385Y208272D01*
X179362Y208325D01*
X179347Y208381D01*
X179304Y208454D01*
X179269Y208531D01*
X179231Y208576D01*
X179202Y208626D01*
X179140Y208684D01*
X179086Y208748D01*
X179037Y208780D01*
X178994Y208820D01*
X178919Y208859D01*
X178849Y208906D01*
X178793Y208923D01*
X178741Y208950D01*
X178673Y208961D01*
X178578Y208991D01*
X178478Y208994D01*
X178410Y209005D01*
X175945Y209005D01*
X175887Y208997D01*
X175829Y208999D01*
X175747Y208977D01*
X175663Y208965D01*
X175610Y208942D01*
X175554Y208927D01*
X175481Y208884D01*
X175404Y208849D01*
X175359Y208811D01*
X175309Y208782D01*
X175251Y208720D01*
X175187Y208666D01*
X175155Y208617D01*
X175115Y208574D01*
X175076Y208499D01*
X175029Y208429D01*
X175012Y208373D01*
X174985Y208321D01*
X174974Y208253D01*
X174944Y208158D01*
X174941Y208058D01*
X174930Y207990D01*
X174930Y200968D01*
X174037Y200075D01*
X159140Y200075D01*
X159082Y200067D01*
X159024Y200069D01*
X158942Y200047D01*
X158858Y200035D01*
X158805Y200012D01*
X158749Y199997D01*
X158676Y199954D01*
X158599Y199919D01*
X158554Y199881D01*
X158504Y199852D01*
X158446Y199790D01*
X158382Y199736D01*
X158350Y199687D01*
X158310Y199644D01*
X158271Y199569D01*
X158224Y199499D01*
X158207Y199443D01*
X158180Y199391D01*
X158169Y199323D01*
X158139Y199228D01*
X158136Y199128D01*
X158125Y199060D01*
X158125Y197940D01*
X158133Y197882D01*
X158131Y197824D01*
X158153Y197742D01*
X158165Y197658D01*
X158188Y197605D01*
X158203Y197549D01*
X158246Y197476D01*
X158281Y197399D01*
X158319Y197354D01*
X158348Y197304D01*
X158410Y197246D01*
X158464Y197182D01*
X158513Y197150D01*
X158556Y197110D01*
X158631Y197071D01*
X158701Y197024D01*
X158757Y197007D01*
X158809Y196980D01*
X158877Y196969D01*
X158972Y196939D01*
X159072Y196936D01*
X159140Y196925D01*
X174037Y196925D01*
X174930Y196032D01*
X174930Y188268D01*
X174037Y187375D01*
X159140Y187375D01*
X159082Y187367D01*
X159024Y187369D01*
X158942Y187347D01*
X158858Y187335D01*
X158805Y187312D01*
X158749Y187297D01*
X158676Y187254D01*
X158599Y187219D01*
X158554Y187181D01*
X158504Y187152D01*
X158446Y187090D01*
X158382Y187036D01*
X158350Y186987D01*
X158310Y186944D01*
X158271Y186869D01*
X158224Y186799D01*
X158207Y186743D01*
X158180Y186691D01*
X158169Y186623D01*
X158139Y186528D01*
X158136Y186428D01*
X158125Y186360D01*
X158125Y185078D01*
X157232Y184185D01*
X152997Y184185D01*
X152940Y184177D01*
X152881Y184179D01*
X152799Y184157D01*
X152716Y184145D01*
X152663Y184122D01*
X152606Y184107D01*
X152534Y184064D01*
X152456Y184029D01*
X152412Y183991D01*
X152362Y183962D01*
X152304Y183900D01*
X152239Y183846D01*
X152207Y183797D01*
X152167Y183754D01*
X152129Y183679D01*
X152082Y183609D01*
X152064Y183553D01*
X152038Y183501D01*
X152026Y183433D01*
X151996Y183338D01*
X151994Y183238D01*
X151982Y183170D01*
X151982Y179449D01*
X149601Y177068D01*
X146234Y177068D01*
X145510Y177792D01*
X145440Y177844D01*
X145376Y177904D01*
X145327Y177930D01*
X145283Y177963D01*
X145201Y177994D01*
X145123Y178034D01*
X145076Y178042D01*
X145017Y178064D01*
X144869Y178076D01*
X144792Y178089D01*
X137159Y178089D01*
X137072Y178077D01*
X136985Y178074D01*
X136932Y178057D01*
X136877Y178050D01*
X136798Y178014D01*
X136714Y177987D01*
X136675Y177959D01*
X136618Y177933D01*
X136505Y177837D01*
X136441Y177792D01*
X135214Y176565D01*
X131847Y176565D01*
X129466Y178946D01*
X129466Y182314D01*
X130235Y183083D01*
X130270Y183130D01*
X130313Y183170D01*
X130355Y183243D01*
X130406Y183310D01*
X130427Y183365D01*
X130456Y183415D01*
X130477Y183497D01*
X130507Y183576D01*
X130512Y183634D01*
X130526Y183691D01*
X130524Y183775D01*
X130531Y183859D01*
X130519Y183916D01*
X130517Y183975D01*
X130491Y184055D01*
X130475Y184138D01*
X130448Y184190D01*
X130430Y184245D01*
X130390Y184302D01*
X130344Y184390D01*
X130275Y184462D01*
X130235Y184519D01*
X129675Y185078D01*
X129675Y199042D01*
X130568Y199935D01*
X130603Y199935D01*
X130632Y199939D01*
X130661Y199936D01*
X130772Y199959D01*
X130884Y199975D01*
X130911Y199987D01*
X130940Y199992D01*
X131040Y200045D01*
X131144Y200091D01*
X131166Y200110D01*
X131192Y200123D01*
X131274Y200201D01*
X131361Y200274D01*
X131377Y200299D01*
X131398Y200319D01*
X131455Y200417D01*
X131518Y200511D01*
X131527Y200539D01*
X131542Y200564D01*
X131570Y200674D01*
X131604Y200782D01*
X131605Y200812D01*
X131612Y200840D01*
X131608Y200953D01*
X131611Y201066D01*
X131604Y201095D01*
X131603Y201124D01*
X131568Y201232D01*
X131540Y201341D01*
X131525Y201367D01*
X131516Y201395D01*
X131470Y201458D01*
X131394Y201586D01*
X131349Y201629D01*
X131321Y201668D01*
X129558Y203430D01*
X129558Y206797D01*
X130923Y208162D01*
X130941Y208186D01*
X130963Y208205D01*
X131026Y208299D01*
X131094Y208389D01*
X131105Y208417D01*
X131121Y208441D01*
X131155Y208549D01*
X131195Y208655D01*
X131198Y208684D01*
X131207Y208712D01*
X131210Y208826D01*
X131219Y208938D01*
X131213Y208967D01*
X131214Y208996D01*
X131185Y209106D01*
X131163Y209217D01*
X131149Y209243D01*
X131142Y209271D01*
X131084Y209369D01*
X131032Y209469D01*
X131012Y209491D01*
X130997Y209516D01*
X130914Y209593D01*
X130836Y209675D01*
X130811Y209690D01*
X130790Y209710D01*
X130715Y209748D01*
X129675Y210788D01*
X129675Y224752D01*
X130568Y225645D01*
X154599Y225645D01*
X154657Y225653D01*
X154715Y225651D01*
X154797Y225673D01*
X154881Y225685D01*
X154934Y225708D01*
X154990Y225723D01*
X155063Y225766D01*
X155140Y225801D01*
X155185Y225839D01*
X155235Y225868D01*
X155293Y225930D01*
X155357Y225984D01*
X155389Y226033D01*
X155429Y226076D01*
X155468Y226151D01*
X155515Y226221D01*
X155532Y226277D01*
X155559Y226329D01*
X155570Y226397D01*
X155600Y226492D01*
X155603Y226592D01*
X155614Y226660D01*
X155614Y228626D01*
X164156Y228626D01*
X164156Y224459D01*
X159140Y224459D01*
X159082Y224451D01*
X159024Y224453D01*
X158942Y224431D01*
X158858Y224419D01*
X158805Y224396D01*
X158749Y224381D01*
X158676Y224338D01*
X158599Y224303D01*
X158554Y224265D01*
X158504Y224236D01*
X158446Y224174D01*
X158382Y224120D01*
X158350Y224071D01*
X158310Y224028D01*
X158271Y223953D01*
X158224Y223883D01*
X158207Y223827D01*
X158180Y223775D01*
X158169Y223707D01*
X158139Y223612D01*
X158136Y223512D01*
X158125Y223444D01*
X158125Y223358D01*
X158133Y223300D01*
X158131Y223242D01*
X158153Y223160D01*
X158165Y223076D01*
X158188Y223023D01*
X158203Y222967D01*
X158246Y222894D01*
X158281Y222817D01*
X158319Y222772D01*
X158348Y222722D01*
X158410Y222664D01*
X158464Y222600D01*
X158513Y222568D01*
X158556Y222528D01*
X158631Y222489D01*
X158701Y222442D01*
X158757Y222425D01*
X158809Y222398D01*
X158877Y222387D01*
X158972Y222357D01*
X159072Y222354D01*
X159140Y222343D01*
X167755Y222343D01*
X167815Y222338D01*
X167893Y222325D01*
X174037Y222325D01*
X174930Y221432D01*
X174930Y218150D01*
X174938Y218092D01*
X174936Y218034D01*
X174958Y217952D01*
X174970Y217869D01*
X174993Y217815D01*
X175008Y217759D01*
X175051Y217686D01*
X175086Y217609D01*
X175124Y217564D01*
X175153Y217514D01*
X175215Y217456D01*
X175269Y217392D01*
X175318Y217360D01*
X175361Y217320D01*
X175436Y217281D01*
X175506Y217235D01*
X175562Y217217D01*
X175614Y217190D01*
X175682Y217179D01*
X175777Y217149D01*
X175877Y217146D01*
X175945Y217135D01*
X178410Y217135D01*
X178468Y217143D01*
X178526Y217141D01*
X178608Y217163D01*
X178692Y217175D01*
X178745Y217199D01*
X178801Y217213D01*
X178874Y217256D01*
X178951Y217291D01*
X178996Y217329D01*
X179046Y217359D01*
X179104Y217420D01*
X179168Y217475D01*
X179200Y217523D01*
X179240Y217566D01*
X179279Y217641D01*
X179326Y217711D01*
X179343Y217767D01*
X179370Y217819D01*
X179381Y217887D01*
X179411Y217982D01*
X179414Y218082D01*
X179425Y218150D01*
X179425Y223782D01*
X180318Y224675D01*
X187312Y224675D01*
X187370Y224683D01*
X187428Y224681D01*
X187510Y224703D01*
X187594Y224715D01*
X187647Y224738D01*
X187703Y224753D01*
X187776Y224796D01*
X187853Y224831D01*
X187898Y224869D01*
X187948Y224898D01*
X188006Y224960D01*
X188070Y225014D01*
X188102Y225063D01*
X188142Y225106D01*
X188181Y225181D01*
X188228Y225251D01*
X188245Y225307D01*
X188272Y225359D01*
X188283Y225427D01*
X188313Y225522D01*
X188316Y225622D01*
X188327Y225690D01*
X188327Y252180D01*
X188319Y252238D01*
X188321Y252296D01*
X188299Y252378D01*
X188287Y252462D01*
X188264Y252515D01*
X188249Y252571D01*
X188206Y252644D01*
X188171Y252721D01*
X188133Y252766D01*
X188104Y252816D01*
X188042Y252874D01*
X187988Y252938D01*
X187939Y252970D01*
X187896Y253010D01*
X187821Y253049D01*
X187751Y253096D01*
X187695Y253113D01*
X187643Y253140D01*
X187575Y253151D01*
X187480Y253181D01*
X187380Y253184D01*
X187312Y253195D01*
X180318Y253195D01*
X179425Y254088D01*
X179425Y266484D01*
X179425Y266485D01*
X179425Y266487D01*
X179405Y266625D01*
X179385Y266765D01*
X179385Y266767D01*
X179385Y266768D01*
X179328Y266893D01*
X179269Y267024D01*
X179268Y267026D01*
X179267Y267027D01*
X179180Y267130D01*
X179086Y267241D01*
X179084Y267242D01*
X179083Y267244D01*
X179070Y267252D01*
X178849Y267399D01*
X178820Y267408D01*
X178799Y267422D01*
X177159Y268101D01*
X176243Y269016D01*
X176197Y269051D01*
X176156Y269094D01*
X176084Y269136D01*
X176016Y269187D01*
X175961Y269208D01*
X175911Y269237D01*
X175829Y269258D01*
X175750Y269288D01*
X175692Y269293D01*
X175635Y269308D01*
X175551Y269305D01*
X175467Y269312D01*
X175410Y269300D01*
X175351Y269299D01*
X175271Y269273D01*
X175188Y269256D01*
X175136Y269229D01*
X175081Y269211D01*
X175025Y269171D01*
X174936Y269125D01*
X174864Y269056D01*
X174807Y269016D01*
X174037Y268245D01*
X159140Y268245D01*
X159082Y268237D01*
X159024Y268239D01*
X158942Y268217D01*
X158858Y268205D01*
X158805Y268182D01*
X158749Y268167D01*
X158676Y268124D01*
X158599Y268089D01*
X158554Y268051D01*
X158504Y268022D01*
X158446Y267960D01*
X158382Y267906D01*
X158350Y267857D01*
X158310Y267814D01*
X158271Y267739D01*
X158224Y267669D01*
X158207Y267613D01*
X158180Y267561D01*
X158169Y267493D01*
X158139Y267398D01*
X158136Y267298D01*
X158125Y267230D01*
X158125Y266110D01*
X158133Y266052D01*
X158131Y265994D01*
X158153Y265912D01*
X158165Y265828D01*
X158188Y265775D01*
X158203Y265719D01*
X158246Y265646D01*
X158281Y265569D01*
X158319Y265524D01*
X158348Y265474D01*
X158410Y265416D01*
X158464Y265352D01*
X158513Y265320D01*
X158556Y265280D01*
X158631Y265241D01*
X158701Y265194D01*
X158757Y265177D01*
X158809Y265150D01*
X158877Y265139D01*
X158972Y265109D01*
X159072Y265106D01*
X159140Y265095D01*
X174037Y265095D01*
X174930Y264202D01*
X174930Y256438D01*
X174037Y255545D01*
X159140Y255545D01*
X159082Y255537D01*
X159024Y255539D01*
X158942Y255517D01*
X158858Y255505D01*
X158805Y255482D01*
X158749Y255467D01*
X158676Y255424D01*
X158599Y255389D01*
X158554Y255351D01*
X158504Y255322D01*
X158446Y255260D01*
X158382Y255206D01*
X158350Y255157D01*
X158310Y255114D01*
X158271Y255039D01*
X158224Y254969D01*
X158207Y254913D01*
X158180Y254861D01*
X158169Y254793D01*
X158139Y254698D01*
X158136Y254598D01*
X158125Y254530D01*
X158125Y253410D01*
X158133Y253352D01*
X158131Y253294D01*
X158153Y253212D01*
X158165Y253128D01*
X158188Y253075D01*
X158203Y253019D01*
X158246Y252946D01*
X158281Y252869D01*
X158319Y252824D01*
X158348Y252774D01*
X158410Y252716D01*
X158464Y252652D01*
X158513Y252620D01*
X158556Y252580D01*
X158631Y252541D01*
X158701Y252494D01*
X158757Y252477D01*
X158809Y252450D01*
X158877Y252439D01*
X158972Y252409D01*
X159072Y252406D01*
X159140Y252395D01*
X174037Y252395D01*
X174930Y251502D01*
X174930Y243738D01*
X174037Y242845D01*
X159140Y242845D01*
X159082Y242837D01*
X159024Y242839D01*
X158942Y242817D01*
X158858Y242805D01*
X158805Y242782D01*
X158749Y242767D01*
X158676Y242724D01*
X158599Y242689D01*
X158554Y242651D01*
X158504Y242622D01*
X158446Y242560D01*
X158382Y242506D01*
X158350Y242457D01*
X158310Y242414D01*
X158271Y242339D01*
X158224Y242269D01*
X158207Y242213D01*
X158180Y242161D01*
X158169Y242093D01*
X158139Y241998D01*
X158136Y241898D01*
X158125Y241830D01*
X158125Y240508D01*
X157232Y239615D01*
X130568Y239615D01*
X129675Y240508D01*
X129675Y254472D01*
X130568Y255365D01*
X133860Y255365D01*
X133918Y255373D01*
X133976Y255371D01*
X134058Y255393D01*
X134142Y255405D01*
X134195Y255428D01*
X134251Y255443D01*
X134324Y255486D01*
X134401Y255521D01*
X134446Y255559D01*
X134496Y255588D01*
X134554Y255650D01*
X134618Y255704D01*
X134650Y255753D01*
X134690Y255796D01*
X134729Y255871D01*
X134776Y255941D01*
X134793Y255997D01*
X134820Y256049D01*
X134831Y256117D01*
X134861Y256212D01*
X134864Y256312D01*
X134875Y256380D01*
X134875Y257412D01*
X134867Y257470D01*
X134869Y257529D01*
X134847Y257610D01*
X134835Y257694D01*
X134812Y257747D01*
X134797Y257804D01*
X134754Y257876D01*
X134719Y257953D01*
X134681Y257998D01*
X134652Y258048D01*
X134590Y258106D01*
X134536Y258170D01*
X134487Y258203D01*
X134444Y258243D01*
X134369Y258281D01*
X134299Y258328D01*
X134243Y258345D01*
X134191Y258372D01*
X134123Y258383D01*
X134028Y258413D01*
X133928Y258416D01*
X133860Y258427D01*
X132850Y258427D01*
X130469Y260808D01*
X130469Y264196D01*
X130496Y264242D01*
X130546Y264310D01*
X130567Y264364D01*
X130597Y264415D01*
X130618Y264496D01*
X130648Y264575D01*
X130652Y264634D01*
X130667Y264690D01*
X130664Y264774D01*
X130671Y264859D01*
X130660Y264916D01*
X130658Y264974D01*
X130632Y265054D01*
X130615Y265137D01*
X130588Y265189D01*
X130570Y265245D01*
X130530Y265301D01*
X130484Y265390D01*
X130415Y265462D01*
X130375Y265518D01*
X129675Y266218D01*
X129675Y280182D01*
X130568Y281075D01*
X154599Y281075D01*
X154657Y281083D01*
X154715Y281081D01*
X154797Y281103D01*
X154881Y281115D01*
X154934Y281138D01*
X154990Y281153D01*
X155063Y281196D01*
X155140Y281231D01*
X155185Y281269D01*
X155235Y281298D01*
X155293Y281360D01*
X155357Y281414D01*
X155389Y281463D01*
X155429Y281506D01*
X155468Y281581D01*
X155515Y281651D01*
X155532Y281707D01*
X155559Y281759D01*
X155570Y281827D01*
X155600Y281922D01*
X155603Y282022D01*
X155614Y282090D01*
X155614Y284096D01*
X164156Y284096D01*
X164156Y279929D01*
X159140Y279929D01*
X159082Y279921D01*
X159024Y279923D01*
X158942Y279901D01*
X158858Y279889D01*
X158805Y279866D01*
X158749Y279851D01*
X158676Y279808D01*
X158599Y279773D01*
X158554Y279735D01*
X158504Y279706D01*
X158446Y279644D01*
X158382Y279590D01*
X158350Y279541D01*
X158310Y279498D01*
X158271Y279423D01*
X158224Y279353D01*
X158207Y279297D01*
X158180Y279245D01*
X158169Y279177D01*
X158139Y279082D01*
X158136Y278982D01*
X158125Y278914D01*
X158125Y278810D01*
X158133Y278752D01*
X158131Y278694D01*
X158153Y278612D01*
X158165Y278528D01*
X158188Y278475D01*
X158203Y278419D01*
X158246Y278346D01*
X158281Y278269D01*
X158319Y278224D01*
X158348Y278174D01*
X158410Y278116D01*
X158464Y278052D01*
X158513Y278020D01*
X158556Y277980D01*
X158631Y277941D01*
X158701Y277894D01*
X158757Y277877D01*
X158809Y277850D01*
X158877Y277839D01*
X158972Y277809D01*
X159072Y277806D01*
X159140Y277795D01*
X172820Y277795D01*
X172878Y277803D01*
X172936Y277801D01*
X173018Y277823D01*
X173102Y277835D01*
X173155Y277858D01*
X173211Y277873D01*
X173284Y277916D01*
X173361Y277951D01*
X173406Y277989D01*
X173456Y278018D01*
X173514Y278080D01*
X173578Y278134D01*
X173610Y278183D01*
X173650Y278226D01*
X173689Y278301D01*
X173736Y278371D01*
X173753Y278427D01*
X173780Y278479D01*
X173791Y278547D01*
X173821Y278642D01*
X173824Y278742D01*
X173835Y278810D01*
X173835Y278914D01*
X173828Y278967D01*
X173829Y279000D01*
X173828Y279003D01*
X173829Y279030D01*
X173807Y279112D01*
X173795Y279196D01*
X173772Y279249D01*
X173757Y279305D01*
X173714Y279378D01*
X173679Y279455D01*
X173641Y279500D01*
X173612Y279550D01*
X173550Y279608D01*
X173496Y279672D01*
X173447Y279704D01*
X173404Y279744D01*
X173329Y279783D01*
X173259Y279830D01*
X173203Y279847D01*
X173151Y279874D01*
X173083Y279885D01*
X172988Y279915D01*
X172888Y279918D01*
X172820Y279929D01*
X167404Y279929D01*
X167404Y285111D01*
X167396Y285169D01*
X167398Y285227D01*
X167376Y285309D01*
X167364Y285392D01*
X167341Y285446D01*
X167326Y285502D01*
X167283Y285575D01*
X167248Y285652D01*
X167210Y285696D01*
X167181Y285747D01*
X167119Y285804D01*
X167065Y285869D01*
X167016Y285901D01*
X166973Y285941D01*
X166898Y285980D01*
X166828Y286026D01*
X166772Y286044D01*
X166720Y286071D01*
X166652Y286082D01*
X166557Y286112D01*
X166457Y286115D01*
X166389Y286126D01*
X166186Y286126D01*
X166186Y286329D01*
X166178Y286387D01*
X166179Y286445D01*
X166158Y286527D01*
X166146Y286611D01*
X166122Y286664D01*
X166108Y286720D01*
X166064Y286793D01*
X166030Y286870D01*
X165992Y286915D01*
X165962Y286965D01*
X165901Y287023D01*
X165846Y287087D01*
X165798Y287119D01*
X165755Y287159D01*
X165680Y287198D01*
X165610Y287245D01*
X165554Y287262D01*
X165502Y287289D01*
X165434Y287300D01*
X165339Y287330D01*
X165239Y287333D01*
X165171Y287344D01*
X155614Y287344D01*
X155614Y289304D01*
X155787Y289951D01*
X156122Y290530D01*
X156595Y291003D01*
X157174Y291338D01*
X157442Y291409D01*
X157451Y291413D01*
X157461Y291415D01*
X157582Y291469D01*
X157704Y291521D01*
X157711Y291527D01*
X157720Y291531D01*
X157821Y291616D01*
X157924Y291700D01*
X157930Y291708D01*
X157937Y291715D01*
X158011Y291825D01*
X158086Y291934D01*
X158090Y291943D01*
X158095Y291951D01*
X158135Y292078D01*
X158177Y292203D01*
X158178Y292213D01*
X158181Y292222D01*
X158184Y292354D01*
X158190Y292487D01*
X158188Y292497D01*
X158188Y292506D01*
X158155Y292634D01*
X158124Y292763D01*
X158119Y292772D01*
X158116Y292781D01*
X158049Y292895D01*
X157983Y293011D01*
X157976Y293017D01*
X157971Y293026D01*
X157874Y293116D01*
X157780Y293209D01*
X157771Y293214D01*
X157764Y293220D01*
X157646Y293280D01*
X157529Y293343D01*
X157519Y293345D01*
X157511Y293350D01*
X157455Y293359D01*
X157251Y293403D01*
X157215Y293399D01*
X157180Y293405D01*
X121900Y293405D01*
X121842Y293397D01*
X121784Y293399D01*
X121702Y293377D01*
X121619Y293365D01*
X121565Y293342D01*
X121509Y293327D01*
X121436Y293284D01*
X121359Y293249D01*
X121314Y293211D01*
X121264Y293182D01*
X121206Y293120D01*
X121142Y293066D01*
X121110Y293017D01*
X121070Y292974D01*
X121031Y292899D01*
X120985Y292829D01*
X120967Y292773D01*
X120940Y292721D01*
X120929Y292653D01*
X120899Y292558D01*
X120896Y292458D01*
X120885Y292390D01*
X120885Y284588D01*
X120897Y284502D01*
X120900Y284414D01*
X120917Y284361D01*
X120925Y284307D01*
X120960Y284227D01*
X120987Y284144D01*
X121015Y284104D01*
X121041Y284047D01*
X121137Y283934D01*
X121182Y283870D01*
X122695Y282358D01*
X122695Y218442D01*
X122360Y218107D01*
X122324Y218060D01*
X122281Y218019D01*
X122239Y217947D01*
X122189Y217880D01*
X122168Y217825D01*
X122138Y217774D01*
X122117Y217693D01*
X122088Y217614D01*
X122083Y217556D01*
X122068Y217498D01*
X122071Y217414D01*
X122064Y217331D01*
X122075Y217277D01*
X122075Y214244D01*
X121199Y213368D01*
X121164Y213321D01*
X121122Y213281D01*
X121079Y213208D01*
X121028Y213141D01*
X121007Y213086D01*
X120978Y213036D01*
X120957Y212954D01*
X120927Y212875D01*
X120922Y212817D01*
X120908Y212760D01*
X120910Y212676D01*
X120903Y212592D01*
X120915Y212534D01*
X120917Y212476D01*
X120943Y212396D01*
X120959Y212313D01*
X120986Y212261D01*
X121004Y212205D01*
X121044Y212149D01*
X121090Y212061D01*
X121159Y211988D01*
X121199Y211932D01*
X122075Y211056D01*
X122075Y208344D01*
X121182Y207451D01*
X121130Y207381D01*
X121070Y207317D01*
X121044Y207268D01*
X121011Y207224D01*
X120980Y207142D01*
X120940Y207064D01*
X120932Y207017D01*
X120910Y206958D01*
X120898Y206810D01*
X120895Y206793D01*
X120891Y206777D01*
X120891Y206770D01*
X120885Y206733D01*
X120885Y206667D01*
X120897Y206580D01*
X120900Y206493D01*
X120917Y206440D01*
X120925Y206385D01*
X120960Y206306D01*
X120987Y206222D01*
X121015Y206183D01*
X121041Y206126D01*
X121137Y206013D01*
X121182Y205949D01*
X122075Y205056D01*
X122075Y202193D01*
X122068Y202165D01*
X122038Y202086D01*
X122033Y202027D01*
X122018Y201971D01*
X122021Y201887D01*
X122014Y201803D01*
X122025Y201745D01*
X122027Y201687D01*
X122053Y201607D01*
X122070Y201524D01*
X122097Y201472D01*
X122115Y201416D01*
X122155Y201360D01*
X122201Y201271D01*
X122270Y201199D01*
X122310Y201143D01*
X122695Y200758D01*
X122695Y114042D01*
X121182Y112530D01*
X121130Y112460D01*
X121070Y112396D01*
X121044Y112347D01*
X121011Y112303D01*
X120980Y112221D01*
X120940Y112143D01*
X120932Y112095D01*
X120910Y112037D01*
X120898Y111889D01*
X120885Y111812D01*
X120885Y102588D01*
X120897Y102502D01*
X120900Y102414D01*
X120917Y102361D01*
X120925Y102307D01*
X120960Y102227D01*
X120987Y102144D01*
X121015Y102104D01*
X121041Y102047D01*
X121137Y101934D01*
X121182Y101870D01*
X122695Y100358D01*
X122695Y51042D01*
X121182Y49530D01*
X121130Y49460D01*
X121070Y49396D01*
X121044Y49347D01*
X121011Y49303D01*
X120980Y49221D01*
X120940Y49143D01*
X120932Y49095D01*
X120910Y49037D01*
X120898Y48889D01*
X120885Y48812D01*
X120885Y39588D01*
X120897Y39502D01*
X120900Y39414D01*
X120917Y39361D01*
X120925Y39307D01*
X120960Y39227D01*
X120987Y39144D01*
X121015Y39104D01*
X121041Y39047D01*
X121137Y38934D01*
X121182Y38870D01*
X122695Y37358D01*
X122695Y21010D01*
X122703Y20952D01*
X122701Y20894D01*
X122723Y20812D01*
X122735Y20728D01*
X122758Y20675D01*
X122773Y20619D01*
X122816Y20546D01*
X122851Y20469D01*
X122889Y20424D01*
X122918Y20374D01*
X122980Y20316D01*
X123034Y20252D01*
X123083Y20220D01*
X123126Y20180D01*
X123201Y20141D01*
X123271Y20094D01*
X123327Y20077D01*
X123379Y20050D01*
X123447Y20039D01*
X123542Y20009D01*
X123642Y20006D01*
X123710Y19995D01*
X128660Y19995D01*
X128718Y20003D01*
G37*
G36*
X298204Y57604D02*
X298204Y57604D01*
X298206Y57601D01*
X298724Y57669D01*
X298731Y57676D01*
X298736Y57673D01*
X299219Y57872D01*
X299224Y57881D01*
X299230Y57879D01*
X299644Y58197D01*
X299647Y58206D01*
X299653Y58206D01*
X299971Y58620D01*
X299971Y58630D01*
X299978Y58631D01*
X300177Y59114D01*
X300175Y59123D01*
X300181Y59126D01*
X300249Y59644D01*
X300246Y59648D01*
X300249Y59650D01*
X300249Y82150D01*
X300246Y82154D01*
X300249Y82156D01*
X300181Y82674D01*
X300174Y82681D01*
X300177Y82686D01*
X299978Y83169D01*
X299969Y83174D01*
X299971Y83180D01*
X299653Y83594D01*
X299644Y83597D01*
X299644Y83603D01*
X299230Y83921D01*
X299221Y83921D01*
X299219Y83928D01*
X298736Y84127D01*
X298727Y84125D01*
X298724Y84131D01*
X298206Y84199D01*
X298202Y84196D01*
X298200Y84199D01*
X274700Y84199D01*
X274696Y84196D01*
X274694Y84199D01*
X274176Y84131D01*
X274169Y84124D01*
X274164Y84127D01*
X273681Y83928D01*
X273676Y83919D01*
X273670Y83921D01*
X273256Y83603D01*
X273253Y83594D01*
X273247Y83594D01*
X272929Y83180D01*
X272929Y83171D01*
X272922Y83169D01*
X272723Y82686D01*
X272723Y82684D01*
X272721Y82682D01*
X272725Y82677D01*
X272719Y82674D01*
X272651Y82156D01*
X272654Y82152D01*
X272651Y82150D01*
X272651Y60650D01*
X272667Y60629D01*
X272665Y60615D01*
X275665Y57615D01*
X275692Y57612D01*
X275700Y57601D01*
X298200Y57601D01*
X298204Y57604D01*
G37*
G36*
X360362Y69867D02*
X360362Y69867D01*
X360382Y69865D01*
X360483Y69887D01*
X360585Y69904D01*
X360602Y69913D01*
X360622Y69917D01*
X360711Y69970D01*
X360802Y70019D01*
X360816Y70033D01*
X360833Y70043D01*
X360900Y70122D01*
X360972Y70197D01*
X360980Y70215D01*
X360993Y70230D01*
X361032Y70326D01*
X361075Y70420D01*
X361077Y70440D01*
X361085Y70458D01*
X361103Y70625D01*
X361103Y86625D01*
X361101Y86639D01*
X361102Y86651D01*
X361101Y86655D01*
X361102Y86665D01*
X361080Y86766D01*
X361064Y86868D01*
X361054Y86885D01*
X361050Y86905D01*
X360997Y86994D01*
X360949Y87085D01*
X360934Y87099D01*
X360924Y87116D01*
X360845Y87183D01*
X360770Y87255D01*
X360752Y87263D01*
X360737Y87276D01*
X360641Y87315D01*
X360547Y87358D01*
X360527Y87360D01*
X360509Y87368D01*
X360342Y87386D01*
X336342Y87386D01*
X336322Y87383D01*
X336303Y87385D01*
X336201Y87363D01*
X336099Y87347D01*
X336082Y87337D01*
X336062Y87333D01*
X335973Y87280D01*
X335882Y87232D01*
X335868Y87217D01*
X335851Y87207D01*
X335784Y87128D01*
X335713Y87053D01*
X335704Y87035D01*
X335691Y87020D01*
X335653Y86924D01*
X335609Y86830D01*
X335607Y86810D01*
X335599Y86792D01*
X335581Y86625D01*
X335581Y70625D01*
X335584Y70605D01*
X335582Y70586D01*
X335604Y70484D01*
X335621Y70382D01*
X335630Y70365D01*
X335634Y70345D01*
X335687Y70256D01*
X335736Y70165D01*
X335750Y70151D01*
X335760Y70134D01*
X335839Y70067D01*
X335914Y69996D01*
X335932Y69987D01*
X335947Y69974D01*
X336043Y69935D01*
X336137Y69892D01*
X336157Y69890D01*
X336175Y69882D01*
X336342Y69864D01*
X360342Y69864D01*
X360362Y69867D01*
G37*
G36*
X360362Y35867D02*
X360362Y35867D01*
X360382Y35865D01*
X360483Y35887D01*
X360585Y35904D01*
X360602Y35913D01*
X360622Y35917D01*
X360711Y35970D01*
X360802Y36019D01*
X360816Y36033D01*
X360833Y36043D01*
X360900Y36122D01*
X360972Y36197D01*
X360980Y36215D01*
X360993Y36230D01*
X361032Y36326D01*
X361075Y36420D01*
X361077Y36440D01*
X361085Y36458D01*
X361103Y36625D01*
X361103Y52625D01*
X361101Y52639D01*
X361102Y52651D01*
X361101Y52655D01*
X361102Y52665D01*
X361080Y52766D01*
X361064Y52868D01*
X361054Y52885D01*
X361050Y52905D01*
X360997Y52994D01*
X360949Y53085D01*
X360934Y53099D01*
X360924Y53116D01*
X360845Y53183D01*
X360770Y53255D01*
X360752Y53263D01*
X360737Y53276D01*
X360641Y53315D01*
X360547Y53358D01*
X360527Y53360D01*
X360509Y53368D01*
X360342Y53386D01*
X336342Y53386D01*
X336322Y53383D01*
X336303Y53385D01*
X336201Y53363D01*
X336099Y53347D01*
X336082Y53337D01*
X336062Y53333D01*
X335973Y53280D01*
X335882Y53232D01*
X335868Y53217D01*
X335851Y53207D01*
X335784Y53128D01*
X335713Y53053D01*
X335704Y53035D01*
X335691Y53020D01*
X335653Y52924D01*
X335609Y52830D01*
X335607Y52810D01*
X335599Y52792D01*
X335581Y52625D01*
X335581Y36625D01*
X335584Y36605D01*
X335582Y36586D01*
X335604Y36484D01*
X335621Y36382D01*
X335630Y36365D01*
X335634Y36345D01*
X335687Y36256D01*
X335736Y36165D01*
X335750Y36151D01*
X335760Y36134D01*
X335839Y36067D01*
X335914Y35996D01*
X335932Y35987D01*
X335947Y35974D01*
X336043Y35935D01*
X336137Y35892D01*
X336157Y35890D01*
X336175Y35882D01*
X336342Y35864D01*
X360342Y35864D01*
X360362Y35867D01*
G37*
%LPC*%
G36*
X167404Y231874D02*
X167404Y231874D01*
X167404Y236041D01*
X173739Y236041D01*
X174386Y235868D01*
X174965Y235533D01*
X175438Y235060D01*
X175773Y234481D01*
X175946Y233834D01*
X175946Y231874D01*
X167404Y231874D01*
G37*
%LPD*%
%LPC*%
G36*
X167404Y66824D02*
X167404Y66824D01*
X167404Y70991D01*
X173739Y70991D01*
X174386Y70818D01*
X174965Y70483D01*
X175438Y70010D01*
X175773Y69431D01*
X175946Y68784D01*
X175946Y66824D01*
X167404Y66824D01*
G37*
%LPD*%
%LPC*%
G36*
X155614Y231874D02*
X155614Y231874D01*
X155614Y233834D01*
X155787Y234481D01*
X156122Y235060D01*
X156595Y235533D01*
X157174Y235868D01*
X157821Y236041D01*
X164156Y236041D01*
X164156Y231874D01*
X155614Y231874D01*
G37*
%LPD*%
%LPC*%
G36*
X155614Y177144D02*
X155614Y177144D01*
X155614Y179104D01*
X155787Y179751D01*
X156122Y180330D01*
X156595Y180803D01*
X157174Y181138D01*
X157821Y181311D01*
X164156Y181311D01*
X164156Y177144D01*
X155614Y177144D01*
G37*
%LPD*%
%LPC*%
G36*
X155614Y122174D02*
X155614Y122174D01*
X155614Y124134D01*
X155787Y124781D01*
X156122Y125360D01*
X156595Y125833D01*
X157174Y126168D01*
X157821Y126341D01*
X164156Y126341D01*
X164156Y122174D01*
X155614Y122174D01*
G37*
%LPD*%
%LPC*%
G36*
X167404Y224459D02*
X167404Y224459D01*
X167404Y228626D01*
X175946Y228626D01*
X175946Y226666D01*
X175773Y226019D01*
X175438Y225440D01*
X174965Y224967D01*
X174386Y224632D01*
X173739Y224459D01*
X167404Y224459D01*
G37*
%LPD*%
%LPC*%
G36*
X167404Y114759D02*
X167404Y114759D01*
X167404Y118926D01*
X175946Y118926D01*
X175946Y116966D01*
X175773Y116319D01*
X175438Y115740D01*
X174965Y115267D01*
X174386Y114932D01*
X173739Y114759D01*
X167404Y114759D01*
G37*
%LPD*%
%LPC*%
G36*
X167404Y59409D02*
X167404Y59409D01*
X167404Y63576D01*
X175946Y63576D01*
X175946Y61616D01*
X175773Y60969D01*
X175438Y60390D01*
X174965Y59917D01*
X174386Y59582D01*
X173739Y59409D01*
X167404Y59409D01*
G37*
%LPD*%
D10*
X291782Y25218D03*
X291782Y38218D03*
X316650Y25218D03*
X316650Y38218D03*
X302350Y25218D03*
X302350Y38218D03*
D11*
X345502Y288057D03*
X332502Y288057D03*
D10*
X281250Y38218D03*
X281250Y25218D03*
D11*
X345456Y277475D03*
X332456Y277475D03*
D10*
X260050Y38118D03*
X260050Y25118D03*
X270650Y38218D03*
X270650Y25218D03*
D12*
X273950Y51200D03*
X278950Y51200D03*
X283950Y51200D03*
X288950Y51200D03*
X293950Y51200D03*
X298950Y51200D03*
D13*
X306150Y58400D03*
X306150Y63400D03*
X306150Y68400D03*
X306150Y73400D03*
X306150Y78400D03*
X306150Y83400D03*
D12*
X298950Y90600D03*
X293950Y90600D03*
X288950Y90600D03*
X283950Y90600D03*
X278950Y90600D03*
X273950Y90600D03*
D13*
X266750Y83400D03*
X266750Y78400D03*
X266750Y73400D03*
X266750Y68400D03*
X266750Y63400D03*
X266750Y58400D03*
D14*
X286450Y70900D03*
D15*
G36*
X324194Y113865D02*
X322398Y112069D01*
X315328Y119139D01*
X317124Y120935D01*
X324194Y113865D01*
G37*
G36*
X327729Y117401D02*
X325933Y115605D01*
X318863Y122675D01*
X320659Y124471D01*
X327729Y117401D01*
G37*
G36*
X331265Y120936D02*
X329469Y119140D01*
X322399Y126210D01*
X324195Y128006D01*
X331265Y120936D01*
G37*
G36*
X334800Y124472D02*
X333004Y122676D01*
X325934Y129746D01*
X327730Y131542D01*
X334800Y124472D01*
G37*
G36*
X338336Y128007D02*
X336540Y126211D01*
X329470Y133281D01*
X331266Y135077D01*
X338336Y128007D01*
G37*
G36*
X341871Y131543D02*
X340075Y129747D01*
X333005Y136817D01*
X334801Y138613D01*
X341871Y131543D01*
G37*
G36*
X345407Y135078D02*
X343611Y133282D01*
X336541Y140352D01*
X338337Y142148D01*
X345407Y135078D01*
G37*
G36*
X348942Y138614D02*
X347146Y136818D01*
X340076Y143888D01*
X341872Y145684D01*
X348942Y138614D01*
G37*
G36*
X352478Y142149D02*
X350682Y140353D01*
X343612Y147423D01*
X345408Y149219D01*
X352478Y142149D01*
G37*
G36*
X356013Y145685D02*
X354217Y143889D01*
X347147Y150959D01*
X348943Y152755D01*
X356013Y145685D01*
G37*
G36*
X359549Y149220D02*
X357753Y147424D01*
X350683Y154494D01*
X352479Y156290D01*
X359549Y149220D01*
G37*
G36*
X363084Y152756D02*
X361288Y150960D01*
X354218Y158030D01*
X356014Y159826D01*
X363084Y152756D01*
G37*
D16*
G36*
X363084Y179243D02*
X356014Y172173D01*
X354218Y173969D01*
X361288Y181039D01*
X363084Y179243D01*
G37*
G36*
X359549Y182779D02*
X352479Y175709D01*
X350683Y177505D01*
X357753Y184575D01*
X359549Y182779D01*
G37*
G36*
X356013Y186314D02*
X348943Y179244D01*
X347147Y181040D01*
X354217Y188110D01*
X356013Y186314D01*
G37*
G36*
X352478Y189850D02*
X345408Y182780D01*
X343612Y184576D01*
X350682Y191646D01*
X352478Y189850D01*
G37*
G36*
X348942Y193385D02*
X341872Y186315D01*
X340076Y188111D01*
X347146Y195181D01*
X348942Y193385D01*
G37*
G36*
X345407Y196921D02*
X338337Y189851D01*
X336541Y191647D01*
X343611Y198717D01*
X345407Y196921D01*
G37*
G36*
X341871Y200456D02*
X334801Y193386D01*
X333005Y195182D01*
X340075Y202252D01*
X341871Y200456D01*
G37*
G36*
X338336Y203992D02*
X331266Y196922D01*
X329470Y198718D01*
X336540Y205788D01*
X338336Y203992D01*
G37*
G36*
X334800Y207527D02*
X327730Y200457D01*
X325934Y202253D01*
X333004Y209323D01*
X334800Y207527D01*
G37*
G36*
X331265Y211063D02*
X324195Y203993D01*
X322399Y205789D01*
X329469Y212859D01*
X331265Y211063D01*
G37*
G36*
X327729Y214599D02*
X320659Y207529D01*
X318863Y209325D01*
X325933Y216395D01*
X327729Y214599D01*
G37*
G36*
X324194Y218134D02*
X317124Y211064D01*
X315328Y212860D01*
X322398Y219930D01*
X324194Y218134D01*
G37*
D15*
G36*
X302980Y212860D02*
X301184Y211064D01*
X294114Y218134D01*
X295910Y219930D01*
X302980Y212860D01*
G37*
G36*
X299445Y209325D02*
X297649Y207529D01*
X290579Y214599D01*
X292375Y216395D01*
X299445Y209325D01*
G37*
G36*
X295909Y205789D02*
X294113Y203993D01*
X287043Y211063D01*
X288839Y212859D01*
X295909Y205789D01*
G37*
G36*
X292374Y202253D02*
X290578Y200457D01*
X283508Y207527D01*
X285304Y209323D01*
X292374Y202253D01*
G37*
G36*
X288838Y198718D02*
X287042Y196922D01*
X279972Y203992D01*
X281768Y205788D01*
X288838Y198718D01*
G37*
G36*
X285303Y195182D02*
X283507Y193386D01*
X276437Y200456D01*
X278233Y202252D01*
X285303Y195182D01*
G37*
G36*
X281767Y191647D02*
X279971Y189851D01*
X272901Y196921D01*
X274697Y198717D01*
X281767Y191647D01*
G37*
G36*
X278232Y188111D02*
X276436Y186315D01*
X269366Y193385D01*
X271162Y195181D01*
X278232Y188111D01*
G37*
G36*
X274696Y184576D02*
X272900Y182780D01*
X265830Y189850D01*
X267626Y191646D01*
X274696Y184576D01*
G37*
G36*
X271161Y181040D02*
X269365Y179244D01*
X262295Y186314D01*
X264091Y188110D01*
X271161Y181040D01*
G37*
G36*
X267625Y177505D02*
X265829Y175709D01*
X258759Y182779D01*
X260555Y184575D01*
X267625Y177505D01*
G37*
G36*
X264089Y173969D02*
X262293Y172173D01*
X255223Y179243D01*
X257019Y181039D01*
X264089Y173969D01*
G37*
D16*
G36*
X264089Y158030D02*
X257019Y150960D01*
X255223Y152756D01*
X262293Y159826D01*
X264089Y158030D01*
G37*
G36*
X267625Y154494D02*
X260555Y147424D01*
X258759Y149220D01*
X265829Y156290D01*
X267625Y154494D01*
G37*
G36*
X271161Y150959D02*
X264091Y143889D01*
X262295Y145685D01*
X269365Y152755D01*
X271161Y150959D01*
G37*
G36*
X274696Y147423D02*
X267626Y140353D01*
X265830Y142149D01*
X272900Y149219D01*
X274696Y147423D01*
G37*
G36*
X278232Y143888D02*
X271162Y136818D01*
X269366Y138614D01*
X276436Y145684D01*
X278232Y143888D01*
G37*
G36*
X281767Y140352D02*
X274697Y133282D01*
X272901Y135078D01*
X279971Y142148D01*
X281767Y140352D01*
G37*
G36*
X285303Y136817D02*
X278233Y129747D01*
X276437Y131543D01*
X283507Y138613D01*
X285303Y136817D01*
G37*
G36*
X288838Y133281D02*
X281768Y126211D01*
X279972Y128007D01*
X287042Y135077D01*
X288838Y133281D01*
G37*
G36*
X292374Y129746D02*
X285304Y122676D01*
X283508Y124472D01*
X290578Y131542D01*
X292374Y129746D01*
G37*
G36*
X295909Y126210D02*
X288839Y119140D01*
X287043Y120936D01*
X294113Y128006D01*
X295909Y126210D01*
G37*
G36*
X299445Y122675D02*
X292375Y115605D01*
X290579Y117401D01*
X297649Y124471D01*
X299445Y122675D01*
G37*
G36*
X302980Y119139D02*
X295910Y112069D01*
X294114Y113865D01*
X301184Y120935D01*
X302980Y119139D01*
G37*
D17*
X32000Y228650D03*
X32000Y215950D03*
X32000Y203250D03*
X32000Y190550D03*
X86000Y190550D03*
X86000Y203250D03*
X86000Y215950D03*
X86000Y228650D03*
D18*
X220020Y247620D03*
X220020Y260320D03*
X220020Y273020D03*
X220020Y285720D03*
X165780Y285720D03*
X165780Y273020D03*
X165780Y260320D03*
X165780Y247620D03*
D19*
X192900Y266670D03*
D20*
X345864Y118757D03*
X345864Y109757D03*
D18*
X220020Y192150D03*
X220020Y204850D03*
X220020Y217550D03*
X220020Y230250D03*
X165780Y230250D03*
X165780Y217550D03*
X165780Y204850D03*
X165780Y192150D03*
D19*
X192900Y211200D03*
D18*
X220020Y82450D03*
X220020Y95150D03*
X220020Y107850D03*
X220020Y120550D03*
X165780Y120550D03*
X165780Y107850D03*
X165780Y95150D03*
X165780Y82450D03*
D19*
X192900Y101500D03*
D18*
X220020Y27100D03*
X220020Y39800D03*
X220020Y52500D03*
X220020Y65200D03*
X165780Y65200D03*
X165780Y52500D03*
X165780Y39800D03*
X165780Y27100D03*
D19*
X192900Y46150D03*
D18*
X220020Y137420D03*
X220020Y150120D03*
X220020Y162820D03*
X220020Y175520D03*
X165780Y175520D03*
X165780Y162820D03*
X165780Y150120D03*
X165780Y137420D03*
D19*
X192900Y156470D03*
D21*
X143900Y82700D03*
X143900Y107910D03*
X143900Y27200D03*
X143900Y137630D03*
X143900Y162580D03*
X143900Y52200D03*
X143900Y247490D03*
X143900Y273200D03*
X143900Y192060D03*
X143900Y217770D03*
D11*
X139900Y260200D03*
X152900Y260200D03*
X139900Y204700D03*
X152900Y204700D03*
X139900Y39700D03*
X152900Y39700D03*
X139900Y95200D03*
X152900Y95200D03*
X139900Y150200D03*
X152900Y150200D03*
D22*
X44000Y253500D03*
X74000Y253500D03*
D11*
X52500Y240200D03*
X65500Y240200D03*
D22*
X44000Y165700D03*
X74000Y165700D03*
D11*
X52500Y179000D03*
X65500Y179000D03*
D23*
X36500Y125700D03*
X44500Y125700D03*
X52500Y125700D03*
X60500Y125700D03*
X68500Y125700D03*
X76500Y125700D03*
X84500Y125700D03*
X92500Y125700D03*
X92500Y87500D03*
X84500Y87500D03*
X76500Y87500D03*
X68500Y87500D03*
X60500Y87500D03*
X52500Y87500D03*
X44500Y87500D03*
X36500Y87500D03*
X36400Y20400D03*
X44400Y20400D03*
X52400Y20400D03*
X60400Y20400D03*
X68400Y20400D03*
X76400Y20400D03*
X84400Y20400D03*
X92400Y20400D03*
X92400Y67400D03*
X84400Y67400D03*
X76400Y67400D03*
X68400Y67400D03*
X60400Y67400D03*
X52400Y67400D03*
X44400Y67400D03*
X36400Y67400D03*
D20*
X348342Y40625D03*
X348342Y82625D03*
D24*
X340011Y28369D03*
X357011Y28369D03*
X339711Y94959D03*
X356711Y94959D03*
D25*
X358751Y109983D03*
X358751Y126983D03*
D26*
X263257Y272318D02*
X263257Y280224D01*
X274963Y280224D01*
X274963Y272318D01*
X263257Y272318D01*
X263257Y273643D02*
X274963Y273643D01*
X274963Y274968D02*
X263257Y274968D01*
X263257Y276293D02*
X274963Y276293D01*
X274963Y277618D02*
X263257Y277618D01*
X263257Y278943D02*
X274963Y278943D01*
X263257Y257324D02*
X263257Y249418D01*
X263257Y257324D02*
X274963Y257324D01*
X274963Y249418D01*
X263257Y249418D01*
X263257Y250743D02*
X274963Y250743D01*
X274963Y252068D02*
X263257Y252068D01*
X263257Y253393D02*
X274963Y253393D01*
X274963Y254718D02*
X263257Y254718D01*
X263257Y256043D02*
X274963Y256043D01*
X263257Y234424D02*
X263257Y226518D01*
X263257Y234424D02*
X274963Y234424D01*
X274963Y226518D01*
X263257Y226518D01*
X263257Y227843D02*
X274963Y227843D01*
X274963Y229168D02*
X263257Y229168D01*
X263257Y230493D02*
X274963Y230493D01*
X274963Y231818D02*
X263257Y231818D01*
X263257Y233143D02*
X274963Y233143D01*
D27*
X330442Y238153D02*
X330442Y268589D01*
X341578Y268589D01*
X341578Y238153D01*
X330442Y238153D01*
X330442Y240020D02*
X341578Y240020D01*
X341578Y241887D02*
X330442Y241887D01*
X330442Y243754D02*
X341578Y243754D01*
X341578Y245621D02*
X330442Y245621D01*
X330442Y247488D02*
X341578Y247488D01*
X341578Y249355D02*
X330442Y249355D01*
X330442Y251222D02*
X341578Y251222D01*
X341578Y253089D02*
X330442Y253089D01*
X330442Y254956D02*
X341578Y254956D01*
X341578Y256823D02*
X330442Y256823D01*
X330442Y258690D02*
X341578Y258690D01*
X341578Y260557D02*
X330442Y260557D01*
X330442Y262424D02*
X341578Y262424D01*
X341578Y264291D02*
X330442Y264291D01*
X330442Y266158D02*
X341578Y266158D01*
X341578Y268025D02*
X330442Y268025D01*
D28*
X340996Y213525D03*
X340996Y231525D03*
D24*
G36*
X273154Y204455D02*
X265377Y196678D01*
X258306Y203749D01*
X266083Y211526D01*
X273154Y204455D01*
G37*
G36*
X285175Y216476D02*
X277398Y208699D01*
X270327Y215770D01*
X278104Y223547D01*
X285175Y216476D01*
G37*
X273483Y104771D03*
X290483Y104771D03*
X304691Y104871D03*
X321691Y104871D03*
D25*
X356571Y264001D03*
X356571Y247001D03*
X353671Y231293D03*
X353671Y214293D03*
D29*
X284742Y33665D02*
X286230Y32178D01*
X284742Y34725D02*
X281250Y38218D01*
X284742Y34725D02*
X284742Y33665D01*
X260150Y25218D02*
X260050Y25118D01*
X260150Y25218D02*
X270650Y25218D01*
X270650Y26518D02*
X281250Y37118D01*
X270650Y26518D02*
X270650Y25218D01*
X281250Y37118D02*
X281250Y38218D01*
X286230Y32178D02*
X308078Y32178D01*
X309566Y33666D01*
X309566Y42916D01*
X321952Y75769D02*
X318944Y78777D01*
X318944Y88348D02*
X312292Y95000D01*
X318944Y88348D02*
X318944Y78777D01*
X312292Y95000D02*
X303350Y95000D01*
X303125Y94775D01*
X298950Y90600D01*
X310908Y44258D02*
X309566Y42916D01*
X310908Y44258D02*
X316700Y44258D01*
X321952Y49510D01*
X321952Y75769D01*
D30*
X305733Y196486D03*
X283638Y178038D03*
D29*
X263077Y173168D02*
X259656Y176589D01*
X259656Y176606D01*
X263077Y173168D02*
X278768Y173168D01*
X283638Y178038D01*
X321691Y104871D02*
X312292Y95473D01*
X312292Y95000D01*
X321691Y104871D02*
X319761Y106801D01*
X319761Y116502D01*
X348045Y144786D02*
X348045Y144903D01*
X344724Y148224D01*
X319761Y116502D02*
X319744Y116502D01*
X316323Y119923D01*
X340820Y148224D02*
X344724Y148224D01*
X340820Y148224D02*
X316323Y123727D01*
X316323Y119923D01*
D30*
X303125Y94775D03*
X313900Y159200D03*
D29*
X313900Y169737D02*
X314680Y170517D01*
X313900Y169737D02*
X313900Y159200D01*
X314680Y170517D02*
X314680Y178586D01*
X334776Y148224D02*
X340820Y148224D01*
X334776Y148224D02*
X334600Y148400D01*
D30*
X334600Y148400D03*
D29*
X304229Y274271D02*
X290010Y274271D01*
X269819Y254081D02*
X269110Y253371D01*
X269819Y254081D02*
X290010Y274271D01*
X310800Y267700D02*
X310800Y241200D01*
X310800Y267700D02*
X304229Y274271D01*
D30*
X310800Y241200D03*
D29*
X345456Y277475D02*
X345456Y288010D01*
X345502Y288057D01*
D30*
X347507Y267419D03*
D29*
X347507Y275423D01*
X345456Y277475D01*
X347507Y267419D02*
X347507Y264868D01*
D30*
X328432Y229405D03*
D29*
X319761Y215497D02*
X319761Y215397D01*
X305733Y201369D01*
X305733Y196486D01*
X259656Y178289D02*
X259656Y176606D01*
X259656Y178289D02*
X256066Y181880D01*
X256066Y187784D01*
X255550Y188300D01*
X255550Y202412D01*
X255466Y202496D01*
X255466Y204601D01*
X256464Y205599D01*
X269819Y250793D02*
X269819Y254081D01*
X269819Y250793D02*
X256464Y237438D01*
X256464Y205599D01*
D30*
X317300Y226500D03*
D29*
X324865Y218935D02*
X326986Y218935D01*
X332396Y213525D02*
X340996Y213525D01*
X332396Y213525D02*
X326986Y218935D01*
X311956Y181310D02*
X314680Y178586D01*
X306608Y189366D02*
X305733Y190241D01*
X311956Y189366D02*
X311956Y181310D01*
X311956Y189366D02*
X306608Y189366D01*
X305733Y190241D02*
X305733Y196486D01*
X324865Y218935D02*
X317300Y226500D01*
X328432Y229405D02*
X328432Y232603D01*
X336010Y240181D01*
X336010Y253371D02*
X347507Y264868D01*
X336010Y253371D02*
X336010Y240181D01*
X319761Y116502D02*
X298547Y116502D01*
X282458Y115867D02*
X278887Y112296D01*
X278887Y110175D01*
X273483Y104771D01*
X282458Y115867D02*
X283770Y115867D01*
X291476Y123573D01*
X354671Y213293D02*
X353671Y214293D01*
X354671Y213293D02*
X354671Y204992D01*
X353265Y203586D01*
D30*
X353265Y203586D03*
D29*
X357011Y31956D02*
X357011Y28369D01*
X357011Y31956D02*
X348342Y40625D01*
X332736Y56231D01*
D30*
X329700Y92000D03*
D29*
X332736Y85264D02*
X332736Y56231D01*
X332736Y85264D02*
X329700Y88300D01*
X329700Y92000D01*
D30*
X334126Y104023D03*
D29*
X334126Y120204D01*
X337341Y123419D01*
X337341Y126275D01*
X337320Y126296D01*
X337320Y127227D01*
X333903Y130644D01*
X356711Y94959D02*
X356711Y87459D01*
X351677Y82425D01*
X342742Y82425D01*
X342400Y129218D02*
X337438Y134180D01*
X342400Y129218D02*
X342400Y128400D01*
D30*
X342400Y128400D03*
X342742Y82425D03*
D29*
X348142Y82425D02*
X348342Y82625D01*
X348142Y82425D02*
X342742Y82425D01*
X354090Y126983D02*
X358751Y126983D01*
X354090Y126983D02*
X345864Y118757D01*
X345864Y124679D02*
X347480Y126296D01*
X345864Y124679D02*
X345864Y118757D01*
X347480Y131209D02*
X340974Y137715D01*
X347480Y131209D02*
X347480Y126296D01*
X266463Y191013D02*
X266463Y203369D01*
X266463Y191013D02*
X270263Y187213D01*
X266463Y203369D02*
X265730Y204102D01*
D30*
X296660Y266163D03*
D29*
X278300Y247803D01*
X278300Y247678D01*
X262217Y238161D02*
X260020Y235965D01*
X260020Y224878D01*
X265730Y219168D01*
X265730Y204102D01*
X268784Y238161D02*
X278300Y247678D01*
X268784Y238161D02*
X262217Y238161D01*
D30*
X275000Y229800D03*
D29*
X274329Y230471D01*
X269110Y230471D01*
D30*
X316700Y141100D03*
D29*
X313980Y143820D01*
X313980Y146685D01*
X308076Y152590D01*
X308076Y162697D02*
X308800Y163421D01*
D30*
X308800Y163421D03*
D29*
X308076Y162697D02*
X308076Y152590D01*
X337438Y197819D02*
X342300Y202681D01*
X342300Y203000D01*
D30*
X342300Y203000D03*
D29*
X270650Y44418D02*
X270650Y38218D01*
X270650Y44418D02*
X267550Y47518D01*
X267550Y57236D02*
X266750Y58036D01*
X267550Y57236D02*
X267550Y47518D01*
X266750Y58036D02*
X266750Y58400D01*
D30*
X266750Y58036D03*
X316955Y151291D03*
D29*
X316955Y155070D01*
X318980Y157096D01*
X318980Y161304D01*
X318236Y162048D01*
X318236Y199830D02*
X326832Y208426D01*
X318236Y199830D02*
X318236Y162048D01*
X266750Y63400D02*
X262908Y63400D01*
X260050Y60542D02*
X260050Y38118D01*
X260050Y60542D02*
X262558Y63050D01*
X262908Y63400D01*
X268983Y115381D02*
X268983Y127716D01*
D30*
X268983Y127716D03*
X321459Y145821D03*
D29*
X322059Y196582D02*
X330367Y204890D01*
X322059Y196582D02*
X322059Y163255D01*
X322536Y162777D01*
X322536Y146898D01*
X321459Y145821D01*
X256704Y103102D02*
X256704Y68904D01*
X262558Y63050D01*
X256704Y103102D02*
X268983Y115381D01*
D30*
X220020Y260320D03*
X220020Y273020D03*
X225116Y204801D03*
D29*
X225068Y204850D02*
X220020Y204850D01*
X225068Y204850D02*
X225116Y204801D01*
D30*
X332895Y164571D03*
D29*
X348163Y180147D02*
X348163Y180260D01*
X351580Y183677D01*
X348163Y180147D02*
X332895Y164879D01*
X332895Y164571D01*
D30*
X225137Y217550D03*
D29*
X220020Y217550D01*
D30*
X345320Y162520D03*
D29*
X345320Y161520D02*
X354982Y151857D01*
X345320Y161520D02*
X345320Y162520D01*
X354982Y151857D02*
X355116Y151857D01*
D30*
X340800Y157700D03*
D29*
X342400Y157700D02*
X350678Y149422D01*
X342400Y157700D02*
X340800Y157700D01*
X350678Y149422D02*
X350678Y149224D01*
X351580Y148322D01*
X284790Y138100D02*
X280870Y134180D01*
X308100Y141500D02*
X308900Y141500D01*
X308100Y141500D02*
X304700Y138100D01*
X284790Y138100D01*
D30*
X308900Y141500D03*
X281833Y145967D03*
D29*
X281833Y142215D01*
X277334Y137715D01*
X306150Y83875D02*
X306150Y83400D01*
X306150Y83875D02*
X304314Y85711D01*
D30*
X304314Y85711D03*
X274082Y123218D03*
D29*
X270263Y143104D02*
X270263Y144786D01*
X270263Y143104D02*
X266825Y139665D01*
X266825Y137561D01*
X275063Y129323D02*
X275063Y124199D01*
X274082Y123218D01*
X275063Y129323D02*
X266825Y137561D01*
D30*
X220020Y150120D03*
X220020Y162820D03*
X304300Y254991D03*
D29*
X273799Y192431D02*
X273799Y190748D01*
X273799Y192431D02*
X270361Y195869D01*
X270361Y198069D01*
X303116Y230824D01*
X303116Y253807D02*
X304300Y254991D01*
X303116Y253807D02*
X303116Y230824D01*
D30*
X288448Y145244D03*
D29*
X289348Y182312D02*
X279277Y192384D01*
X279234Y192384D01*
X277334Y194284D01*
X289348Y182312D02*
X289348Y145244D01*
X288448Y145244D01*
D30*
X297136Y146418D03*
D29*
X292920Y185651D02*
X281851Y196719D01*
X281851Y196838D02*
X280870Y197819D01*
X281851Y196838D02*
X281851Y196719D01*
X292920Y150634D02*
X297136Y146418D01*
X292920Y150634D02*
X292920Y185651D01*
X223172Y100257D02*
X220020Y97105D01*
X220020Y95150D01*
D30*
X223172Y100257D03*
X209907Y129066D03*
D29*
X209855Y124852D02*
X209855Y116248D01*
X218253Y107850D02*
X220020Y107850D01*
X218253Y107850D02*
X209855Y116248D01*
X209855Y124852D02*
X209907Y124904D01*
X209907Y129066D01*
X284405Y130644D02*
X287941Y127109D01*
X282732Y121900D01*
X280800Y121900D01*
D30*
X280800Y121900D03*
D29*
X310125Y63575D02*
X314440Y59260D01*
X310050Y63500D02*
X306250Y63500D01*
X306150Y63400D01*
X310050Y63500D02*
X310125Y63575D01*
X314440Y52056D02*
X313754Y51370D01*
X307962Y51370D01*
X295310Y42770D02*
X295310Y36100D01*
X297114Y44574D02*
X301166Y44574D01*
X297114Y44574D02*
X295310Y42770D01*
X301166Y44574D02*
X307962Y51370D01*
X293193Y38218D02*
X295310Y36100D01*
X293193Y38218D02*
X291782Y38218D01*
X314440Y52056D02*
X314440Y59260D01*
D30*
X324100Y80899D03*
D29*
X325508Y79491D01*
X325508Y40676D01*
X323050Y38218D01*
X316650Y38218D01*
D30*
X266660Y88764D03*
D29*
X260260Y80048D02*
X261908Y78400D01*
X260260Y80048D02*
X260260Y87452D01*
X261548Y88740D01*
X261908Y78400D02*
X266750Y78400D01*
X266636Y88740D02*
X261548Y88740D01*
X266636Y88740D02*
X266660Y88764D01*
X306010Y41878D02*
X302350Y38218D01*
X306010Y41878D02*
X306010Y44389D01*
X308511Y46889D01*
X308511Y46889D01*
X309435Y47814D01*
X309952Y73440D02*
X306190Y73440D01*
X306150Y73400D01*
X309952Y73440D02*
X312640Y70752D01*
X312640Y66089D01*
X317996Y60733D02*
X317996Y50583D01*
X315227Y47814D01*
X309435Y47814D01*
X317996Y60733D02*
X312640Y66089D01*
D31*
X165780Y285720D02*
X129920Y285720D01*
X126400Y282200D01*
X126400Y230200D01*
X126400Y173506D01*
X165780Y230200D02*
X165780Y230250D01*
X165780Y230200D02*
X168980Y230200D01*
X165780Y230200D02*
X126400Y230200D01*
X165780Y175520D02*
X163766Y173506D01*
X126400Y173506D01*
X126400Y123350D01*
X126400Y121200D02*
X126400Y72200D01*
D32*
X152500Y123350D03*
X146700Y123350D03*
X141300Y123350D03*
D31*
X152500Y123350D02*
X126400Y123350D01*
X162980Y123350D02*
X165780Y120550D01*
X162980Y123350D02*
X152500Y123350D01*
D32*
X125900Y288200D03*
X125900Y271700D03*
X125900Y255200D03*
X125900Y238700D03*
X125900Y222200D03*
X125900Y205700D03*
X125900Y189200D03*
X125900Y172700D03*
X125900Y156200D03*
X125900Y139700D03*
X125900Y123200D03*
X125900Y90200D03*
X125900Y73700D03*
X125900Y57200D03*
X125900Y40700D03*
X125900Y24200D03*
D30*
X168980Y231043D03*
D33*
X168980Y230200D01*
D30*
X127100Y113400D03*
D31*
X126400Y72200D02*
X135146Y63454D01*
X142407Y63454D01*
X143931Y64978D01*
X158993Y64978D01*
X159216Y65200D01*
X165780Y65200D01*
D30*
X127135Y118259D03*
D31*
X165299Y137420D02*
X165780Y137420D01*
X165299Y137420D02*
X165289Y137429D01*
X161800Y137630D01*
X143900Y137630D01*
X144140Y162820D02*
X165780Y162820D01*
X144140Y162820D02*
X143900Y162580D01*
X164780Y107850D02*
X165780Y107850D01*
X164780Y107850D02*
X164777Y107853D01*
X165780Y107850D02*
X143960Y107850D01*
X143900Y107910D01*
X144150Y82450D02*
X165780Y82450D01*
X144150Y82450D02*
X143900Y82700D01*
X143900Y52500D02*
X165780Y52500D01*
X143900Y52500D02*
X143900Y52200D01*
X143900Y27100D02*
X165780Y27100D01*
X143900Y27100D02*
X143900Y27200D01*
X143900Y217770D02*
X165560Y217770D01*
X165780Y217550D01*
X165780Y192150D02*
X164780Y192150D01*
X164776Y192146D01*
X164772Y192060D01*
X143900Y192060D01*
X165780Y273020D02*
X165780Y273200D01*
X143900Y273200D01*
X143900Y247490D02*
X165650Y247490D01*
X165780Y247620D01*
D34*
X165630Y204700D02*
X152900Y204700D01*
X165630Y204700D02*
X165780Y204850D01*
X165680Y39700D02*
X152900Y39700D01*
X165680Y39700D02*
X165780Y39800D01*
X165730Y95200D02*
X152900Y95200D01*
X165730Y95200D02*
X165780Y95150D01*
X165700Y150200D02*
X152900Y150200D01*
X165700Y150200D02*
X165780Y150120D01*
X165660Y260200D02*
X152900Y260200D01*
X165660Y260200D02*
X165780Y260320D01*
D30*
X348000Y199500D03*
D29*
X346190Y199500D01*
X340974Y194284D01*
X327139Y180449D01*
X327139Y168154D01*
D30*
X327139Y168154D03*
X308400Y176177D03*
D29*
X308400Y182545D01*
X300653Y190292D01*
X300653Y205790D01*
X312220Y217358D02*
X312220Y231928D01*
X318700Y238408D01*
X312220Y217358D02*
X300653Y205790D01*
X318700Y254432D02*
X318232Y254900D01*
D30*
X318232Y254900D03*
D29*
X318700Y254432D02*
X318700Y238408D01*
D30*
X352971Y195010D03*
D29*
X351947Y194186D02*
X347947Y194186D01*
X344509Y190748D01*
X352771Y195010D02*
X352971Y195010D01*
X352771Y195010D02*
X351947Y194186D01*
D30*
X343083Y182251D03*
D29*
X343083Y182251D01*
X348045Y187213D01*
D30*
X323338Y281900D03*
D29*
X341376Y220445D02*
X345585Y220445D01*
X359723Y222333D02*
X361211Y220845D01*
X347474Y222333D02*
X345585Y220445D01*
X347474Y222333D02*
X359723Y222333D01*
X341376Y220445D02*
X337496Y224325D01*
X359751Y184777D02*
X355116Y180142D01*
X359751Y200088D02*
X361211Y201548D01*
X361211Y220845D01*
X359751Y200088D02*
X359751Y184777D01*
X337496Y224325D02*
X326328Y224325D01*
X323352Y227300D01*
X323352Y232552D01*
X326920Y236120D01*
X326920Y271418D02*
X326416Y271922D01*
X326416Y278823D01*
X326920Y271418D02*
X326920Y236120D01*
X326416Y278823D02*
X323338Y281900D01*
D30*
X303917Y145864D03*
D29*
X303220Y181360D02*
X284405Y200175D01*
X284405Y201355D01*
X303680Y146101D02*
X303917Y145864D01*
X303220Y163764D02*
X303220Y181360D01*
X303220Y163764D02*
X303680Y163304D01*
X303680Y146101D01*
D30*
X180632Y126234D03*
X176886Y157304D03*
D29*
X178410Y155780D02*
X178410Y143468D01*
X178410Y155780D02*
X176886Y157304D01*
X180632Y141246D02*
X180632Y126234D01*
X180632Y141246D02*
X178410Y143468D01*
X220644Y44915D02*
X220205Y39985D01*
X220020Y39800D01*
D30*
X220644Y44915D03*
D31*
X192400Y100700D02*
X192900Y101200D01*
X192900Y137420D02*
X192900Y156470D01*
X192900Y168203D02*
X192900Y192150D01*
X192900Y211200D02*
X192900Y247620D01*
X192900Y266670D01*
X189577Y87980D02*
X189577Y70858D01*
X189577Y49474D01*
X192900Y46150D01*
X200500Y27100D02*
X220020Y27100D01*
X200500Y27100D02*
X192900Y34700D01*
X192900Y46150D01*
X192900Y101200D02*
X192900Y137420D01*
D30*
X219900Y129200D03*
D31*
X219900Y137300D01*
X220020Y137420D01*
X220020Y192150D02*
X192900Y192150D01*
X192900Y247620D02*
X220020Y247620D01*
X220020Y137420D02*
X192900Y137420D01*
X220020Y82450D02*
X219624Y82054D01*
X216440Y82054D01*
X205243Y70858D01*
X189577Y70858D01*
D30*
X189800Y264200D03*
X134534Y262492D03*
X133623Y205114D03*
X139900Y150200D03*
X139900Y95200D03*
X178711Y178200D03*
D34*
X178711Y170659D01*
X192900Y156470D01*
D30*
X186400Y178200D03*
D34*
X186400Y167242D01*
D35*
X180900Y282700D03*
D36*
X192900Y282700D02*
X192900Y266670D01*
X190900Y282700D02*
X180900Y282700D01*
D35*
X190900Y282700D03*
X190900Y273700D03*
X180900Y273700D03*
D36*
X180900Y282700D01*
X190900Y282700D02*
X192900Y282700D01*
D30*
X136400Y39700D03*
D29*
X139900Y39700D01*
D30*
X192491Y168081D03*
D32*
X181082Y101268D03*
X181014Y94472D03*
D30*
X186291Y167881D03*
X199091Y168081D03*
X185900Y275700D03*
X185900Y270700D03*
X177900Y278200D03*
X185900Y285700D03*
X193900Y278200D03*
X185900Y280700D03*
X183900Y264200D03*
X195800Y264200D03*
X200900Y266200D03*
X200900Y272200D03*
X200900Y278200D03*
D33*
X139486Y205114D02*
X133623Y205114D01*
X139486Y205114D02*
X139900Y204700D01*
D29*
X192900Y266670D02*
X200430Y266670D01*
X200900Y266200D01*
X195370Y264200D02*
X192900Y266670D01*
X195370Y264200D02*
X195800Y264200D01*
X192900Y266670D02*
X192270Y266670D01*
X189800Y264200D01*
X189930Y266670D02*
X185900Y270700D01*
X192900Y266670D02*
X193900Y267670D01*
X193900Y278200D01*
X192900Y266670D02*
X195370Y266670D01*
X200900Y272200D01*
X192900Y266670D02*
X189930Y266670D01*
D31*
X192900Y211200D02*
X192900Y192150D01*
D30*
X216508Y195435D03*
D29*
X219793Y192150D01*
X220020Y192150D01*
D30*
X177324Y213070D03*
D33*
X191030Y213070D01*
X192900Y211200D01*
D30*
X133531Y180630D03*
X147917Y181133D03*
D29*
X147415Y180630D01*
X133531Y180630D01*
X134534Y262492D02*
X137608Y262492D01*
X139900Y260200D01*
X185900Y280700D02*
X185900Y285700D01*
X181082Y101268D02*
X192668Y101268D01*
X192900Y101200D02*
X192900Y101500D01*
X192668Y101268D01*
X192900Y101500D02*
X185872Y94472D01*
X181596Y94472D01*
X181014Y94472D01*
X192900Y156470D02*
X192900Y168203D01*
X192900Y160742D02*
X192900Y156470D01*
X192900Y160742D02*
X186400Y167242D01*
X192900Y161271D02*
X192900Y156470D01*
X192900Y161271D02*
X186291Y167881D01*
X192900Y161890D02*
X192900Y156470D01*
X192900Y161890D02*
X199091Y168081D01*
X192900Y167671D02*
X192900Y156470D01*
X192900Y167671D02*
X192491Y168081D01*
D31*
X192400Y100700D02*
X192400Y90803D01*
X189577Y87980D01*
D30*
X139393Y70634D03*
D29*
X156747Y70634D01*
X174457Y76660D02*
X175945Y78148D01*
X175945Y88821D02*
X181596Y94472D01*
X175945Y88821D02*
X175945Y78148D01*
X162773Y76660D02*
X156747Y70634D01*
X162773Y76660D02*
X174457Y76660D01*
D30*
X219900Y73700D03*
D34*
X229900Y65200D02*
X231400Y66700D01*
X231400Y120700D02*
X231400Y176200D01*
X231400Y229700D01*
X230850Y230250D02*
X220020Y230250D01*
X230850Y230250D02*
X231400Y229700D01*
D29*
X225454Y285700D02*
X220020Y285720D01*
X225434Y285720D01*
X225454Y285700D01*
D34*
X229900Y65200D02*
X220020Y65200D01*
X205080Y175520D02*
X202400Y178200D01*
X205080Y175520D02*
X220020Y175520D01*
D30*
X202400Y178200D03*
D34*
X220020Y120700D02*
X220020Y120550D01*
X220020Y120700D02*
X231400Y120700D01*
X231400Y66700D01*
X231400Y229700D02*
X231400Y281200D01*
X226880Y285720D01*
X220020Y285720D01*
X220020Y176200D02*
X220020Y175520D01*
X220020Y176200D02*
X231400Y176200D01*
X219900Y73700D02*
X219900Y65200D01*
X220020Y65200D01*
D30*
X230292Y88800D03*
X197073Y78019D03*
D29*
X197073Y78181D02*
X207692Y88800D01*
X197073Y78181D02*
X197073Y78019D01*
X207692Y88800D02*
X230292Y88800D01*
X222576Y55820D02*
X220020Y52500D01*
X222456Y55700D02*
X222576Y55820D01*
D30*
X222456Y55700D03*
D29*
X32000Y203250D02*
X32000Y203400D01*
D30*
X32000Y203400D03*
D29*
X52500Y240200D02*
X44000Y253500D01*
D30*
X64100Y231300D03*
D29*
X65006Y253500D02*
X74000Y253500D01*
X65006Y253500D02*
X59006Y247500D01*
X59000Y247500D01*
D30*
X59000Y247500D03*
X32000Y190670D03*
D29*
X32000Y190550D01*
X36534Y190550D02*
X64100Y218116D01*
X36534Y190550D02*
X32000Y190550D01*
X64100Y218116D02*
X64100Y231300D01*
X74000Y165700D02*
X70604Y162304D01*
X58540Y174368D01*
X58540Y185174D01*
X53164Y190550D01*
X32000Y190550D01*
D30*
X74000Y257344D03*
D29*
X74000Y253500D01*
X52500Y179000D02*
X52500Y176757D01*
X44000Y167957D01*
X44000Y165700D01*
X32000Y215950D02*
X32000Y228650D01*
X33400Y227300D01*
X44372Y227300D01*
X53900Y217772D01*
D30*
X53900Y217772D03*
X77200Y236400D03*
D29*
X55410Y193361D02*
X65500Y183270D01*
X55410Y193361D02*
X55410Y204396D01*
X69180Y218167D01*
D30*
X32000Y215950D03*
D29*
X65500Y183270D02*
X65500Y179000D01*
D33*
X65500Y240200D02*
X73400Y240200D01*
X77200Y236400D01*
D29*
X69180Y234145D02*
X65500Y237825D01*
X65500Y240200D01*
X69180Y234145D02*
X69180Y218167D01*
X83250Y228650D02*
X86000Y228650D01*
X83250Y228650D02*
X74000Y219400D01*
X74000Y204100D01*
D30*
X74000Y204100D03*
X36500Y118600D03*
X36500Y127600D03*
D37*
X44476Y125676D02*
X44500Y125700D01*
X44476Y125676D02*
X44476Y118624D01*
X44500Y118600D01*
D30*
X44500Y118600D03*
X44500Y127600D03*
X52500Y118600D03*
X52500Y127600D03*
D37*
X52500Y125700D02*
X52500Y118600D01*
X60500Y118600D02*
X60500Y125700D01*
D30*
X60500Y118600D03*
X60500Y127600D03*
X68500Y118600D03*
D37*
X68500Y125700D01*
D30*
X68500Y127600D03*
D37*
X76500Y125700D02*
X76500Y118600D01*
D30*
X76500Y118600D03*
X76500Y127600D03*
X84500Y118600D03*
D37*
X84500Y125700D01*
D30*
X84500Y127600D03*
D37*
X92500Y125700D02*
X92500Y118600D01*
D30*
X92500Y118600D03*
X92500Y127600D03*
X92500Y94600D03*
X92500Y85600D03*
D37*
X92500Y87500D02*
X92500Y94600D01*
X84500Y94600D02*
X84500Y87500D01*
D30*
X84500Y94600D03*
X84500Y85600D03*
X76500Y94600D03*
X76500Y85600D03*
D37*
X76500Y87500D02*
X76500Y94600D01*
X68500Y94600D02*
X68500Y87500D01*
D30*
X68500Y94600D03*
X68500Y85600D03*
X60500Y94600D03*
D37*
X60500Y87500D01*
D30*
X60500Y85600D03*
D37*
X60500Y94600D01*
X52500Y94600D02*
X52500Y87500D01*
D30*
X52500Y94600D03*
X52500Y85600D03*
X44500Y94600D03*
D37*
X44500Y87500D01*
D30*
X44500Y85600D03*
X36500Y94600D03*
X36500Y85600D03*
D37*
X36500Y87500D02*
X36500Y94600D01*
D30*
X36400Y27800D03*
X36400Y17150D03*
D37*
X36400Y27800D01*
D30*
X44400Y27800D03*
D37*
X44400Y20400D01*
D30*
X44400Y17150D03*
D37*
X44400Y27800D01*
X52400Y27800D02*
X52400Y20400D01*
D30*
X52400Y27800D03*
X52400Y17150D03*
D37*
X52400Y27800D01*
D30*
X60400Y27800D03*
D37*
X60400Y20400D01*
D30*
X60400Y17150D03*
D37*
X60400Y27800D01*
D30*
X68400Y27800D03*
X68400Y17150D03*
D37*
X68400Y20400D01*
X68400Y27800D01*
X76400Y27800D02*
X76400Y20400D01*
D30*
X76400Y27800D03*
X76400Y17150D03*
D37*
X76400Y27800D01*
D30*
X84400Y27800D03*
X84400Y17150D03*
D37*
X84400Y20400D02*
X84400Y27800D01*
X92400Y27800D02*
X92400Y20400D01*
D30*
X92400Y27800D03*
X92400Y17150D03*
D37*
X92400Y27800D01*
D30*
X92400Y60000D03*
X92400Y70150D03*
D37*
X92400Y67400D02*
X92400Y60000D01*
D30*
X84400Y60000D03*
X84400Y70150D03*
D37*
X84400Y67400D01*
X84400Y60000D01*
X76400Y60000D02*
X76400Y67400D01*
D30*
X76400Y60000D03*
X76400Y70150D03*
D37*
X76400Y60000D01*
X68400Y60000D02*
X68400Y67400D01*
D30*
X68400Y60000D03*
X68400Y70150D03*
D37*
X68400Y60000D01*
D30*
X60400Y60000D03*
D37*
X60400Y67400D01*
D30*
X60400Y70150D03*
D37*
X60400Y60000D01*
D30*
X52400Y60000D03*
X52400Y70150D03*
D37*
X52400Y60000D01*
X44400Y60000D02*
X44400Y67400D01*
D30*
X44400Y60000D03*
X44400Y70150D03*
X36400Y60000D03*
X36400Y70150D03*
D37*
X36400Y67400D02*
X36400Y60000D01*
D30*
X356488Y166070D03*
D29*
X358651Y168234D01*
X358651Y176606D01*
X306150Y68400D02*
X288950Y68400D01*
X286450Y70900D01*
X273950Y83700D02*
X273950Y90600D01*
X273950Y58500D02*
X273950Y51200D01*
X286350Y70900D02*
X286450Y70900D01*
X281250Y25218D02*
X291782Y25218D01*
X302350Y25218D01*
X315300Y25218D02*
X316650Y25218D01*
X315300Y25218D02*
X302350Y25218D01*
X336859Y25218D02*
X340011Y28369D01*
X336859Y25218D02*
X316650Y25218D01*
D30*
X309764Y89600D03*
D29*
X337511Y97159D02*
X339711Y94959D01*
X329180Y39098D02*
X315300Y25218D01*
X339711Y103604D02*
X345864Y109757D01*
X339711Y103604D02*
X339711Y94959D01*
X358526Y109757D02*
X358751Y109983D01*
X358526Y109757D02*
X345864Y109757D01*
X329180Y83503D02*
X329180Y39098D01*
X337432Y97080D02*
X337511Y97159D01*
X337432Y97080D02*
X327596Y97080D01*
X324184Y88499D02*
X329180Y83503D01*
X324184Y93669D02*
X327596Y97080D01*
X324184Y93669D02*
X324184Y88499D01*
X324024Y88339D01*
X324024Y88337D01*
D30*
X324024Y88337D03*
D29*
X306310Y78560D02*
X306150Y78400D01*
X306310Y78560D02*
X310152Y78560D01*
X312640Y81048D01*
X312640Y85752D01*
X309764Y88628D02*
X309764Y89600D01*
X309764Y88628D02*
X312640Y85752D01*
X286450Y71200D02*
X273950Y83700D01*
X286450Y71200D02*
X286450Y70900D01*
D30*
X290050Y114962D03*
D29*
X290050Y115076D01*
X295012Y120038D01*
X344509Y141251D02*
X349214Y136547D01*
X359200Y136547D01*
D30*
X359200Y136547D03*
X359479Y115319D03*
D29*
X359479Y115019D01*
X358751Y114291D01*
X358751Y109983D01*
X290050Y114962D02*
X287399Y112311D01*
X283931Y112311D01*
X282443Y110823D01*
X280035Y97231D02*
X273950Y97231D01*
X273950Y90600D01*
X282443Y99639D02*
X282443Y110823D01*
X282443Y99639D02*
X280035Y97231D01*
X259692Y183642D02*
X259692Y189466D01*
X259692Y183642D02*
X263192Y180142D01*
X259692Y189466D02*
X260630Y190404D01*
D30*
X260630Y190404D03*
X262153Y99053D03*
D29*
X263975Y97231D01*
X273950Y97231D01*
X258000Y265161D02*
X269110Y276271D01*
X258000Y265161D02*
X258000Y246700D01*
D30*
X258000Y246700D03*
D29*
X332456Y277475D02*
X332456Y288010D01*
X332502Y288057D01*
X356571Y282471D02*
X356571Y264001D01*
X356571Y282471D02*
X356700Y282600D01*
D30*
X356700Y282600D03*
D29*
X337697Y282862D02*
X332502Y288057D01*
X337697Y282862D02*
X337792Y282862D01*
D30*
X337792Y282862D03*
D29*
X345200Y252630D02*
X345200Y236295D01*
X345200Y252630D02*
X356571Y264001D01*
X340996Y232091D02*
X340996Y231525D01*
X340996Y232091D02*
X345200Y236295D01*
D30*
X343481Y225525D03*
D29*
X340996Y228009D02*
X340996Y231525D01*
X340996Y228009D02*
X343481Y225525D01*
X332502Y288057D02*
X280895Y288057D01*
X269110Y276271D01*
X323296Y211962D02*
X314612Y203277D01*
X314613Y198146D02*
X313013Y196546D01*
X314613Y198146D02*
X314612Y203277D01*
D30*
X313013Y196546D03*
X362796Y226700D03*
D29*
X362796Y239134D02*
X364111Y240449D01*
X362796Y239134D02*
X362796Y226700D01*
X364111Y275189D02*
X356700Y282600D01*
X364111Y275189D02*
X364111Y240449D01*
D30*
X298600Y161200D03*
X298000Y175700D03*
D29*
X298000Y161800D01*
X298600Y161200D01*
X286350Y70900D02*
X273950Y58500D01*
X286450Y70900D02*
X293950Y78400D01*
X306150Y78400D01*
D30*
X296109Y233840D03*
D29*
X278392Y216123D01*
X277751Y216123D01*
X304691Y104871D02*
X304591Y104771D01*
X290483Y104771D01*
X304691Y104871D02*
X307677Y107857D01*
D30*
X307677Y107857D03*
X310100Y122500D03*
D29*
X310100Y130239D01*
D30*
X349920Y167359D03*
D29*
X315881Y136020D02*
X310100Y130239D01*
X349920Y167359D02*
X349920Y167600D01*
X343216Y167600D01*
X318842Y136020D02*
X315881Y136020D01*
X318842Y136020D02*
X329520Y146698D01*
X329520Y153904D01*
X343216Y167600D01*
D30*
X350471Y241124D03*
D29*
X350694Y241124D02*
X356571Y247001D01*
X350694Y241124D02*
X350471Y241124D01*
X353671Y238147D02*
X353671Y231293D01*
X353671Y238147D02*
X350694Y241124D01*
M02*
