G04 EAGLE Gerber RS-274X export*
G75*
%MOMM*%
%FSLAX34Y34*%
%LPD*%
%INSilkscreen Top*%
%IPPOS*%
%AMOC8*
5,1,8,0,0,1.08239X$1,22.5*%
G01*
%ADD10C,0.200000*%
%ADD11C,0.203200*%
%ADD12C,0.001000*%
%ADD13C,0.025400*%
%ADD14C,0.076200*%
%ADD15C,0.120000*%
%ADD16C,0.254000*%
%ADD17C,0.127000*%
%ADD18C,0.508000*%
%ADD19C,0.500000*%
%ADD20C,0.050000*%
%ADD21C,0.152400*%


D10*
X122400Y19200D02*
X122400Y293700D01*
X233900Y293700D01*
X233900Y19200D01*
X122400Y19200D01*
D11*
X253900Y19700D02*
X365900Y19700D01*
X365900Y293700D01*
X253900Y293700D01*
X253900Y19700D01*
D12*
X88498Y151100D02*
X88494Y151240D01*
X88486Y151381D01*
X88474Y151521D01*
X88458Y151661D01*
X88438Y151801D01*
X88414Y151939D01*
X88386Y152077D01*
X88354Y152215D01*
X88319Y152351D01*
X88280Y152486D01*
X88236Y152620D01*
X88189Y152753D01*
X88139Y152884D01*
X88085Y153014D01*
X88027Y153143D01*
X87965Y153269D01*
X87900Y153394D01*
X87831Y153517D01*
X87759Y153638D01*
X87684Y153757D01*
X87605Y153874D01*
X87523Y153988D01*
X87438Y154101D01*
X87350Y154210D01*
X87258Y154317D01*
X87164Y154422D01*
X87067Y154524D01*
X86967Y154623D01*
X86864Y154719D01*
X86758Y154813D01*
X86650Y154903D01*
X86540Y154990D01*
X86427Y155074D01*
X86311Y155155D01*
X86194Y155233D01*
X86074Y155307D01*
X85953Y155378D01*
X85829Y155445D01*
X85703Y155509D01*
X85576Y155569D01*
X85447Y155626D01*
X85317Y155679D01*
X85185Y155728D01*
X85052Y155774D01*
X84917Y155816D01*
X84782Y155854D01*
X84645Y155888D01*
X84507Y155918D01*
X84369Y155945D01*
X84230Y155967D01*
X84090Y155986D01*
X83950Y156001D01*
X83810Y156011D01*
X83669Y156018D01*
X83528Y156021D01*
X83388Y156020D01*
X83247Y156015D01*
X83106Y156006D01*
X82966Y155993D01*
X82826Y155976D01*
X82687Y155955D01*
X82548Y155930D01*
X82411Y155901D01*
X82274Y155869D01*
X82138Y155832D01*
X82003Y155792D01*
X81869Y155748D01*
X81736Y155700D01*
X81605Y155648D01*
X81476Y155593D01*
X81348Y155535D01*
X81221Y155472D01*
X81097Y155406D01*
X80974Y155337D01*
X80854Y155264D01*
X80735Y155188D01*
X80619Y155108D01*
X80505Y155026D01*
X80394Y154940D01*
X80284Y154851D01*
X80178Y154759D01*
X80074Y154664D01*
X79973Y154566D01*
X79874Y154465D01*
X79779Y154362D01*
X79686Y154255D01*
X79597Y154147D01*
X79510Y154036D01*
X79427Y153922D01*
X79347Y153806D01*
X79270Y153688D01*
X79196Y153568D01*
X79126Y153446D01*
X79060Y153322D01*
X78997Y153196D01*
X78937Y153068D01*
X78881Y152939D01*
X78829Y152808D01*
X78781Y152676D01*
X78736Y152542D01*
X78695Y152408D01*
X78658Y152272D01*
X78625Y152135D01*
X78595Y151997D01*
X78570Y151859D01*
X78548Y151720D01*
X78530Y151580D01*
X78517Y151440D01*
X78507Y151299D01*
X78501Y151158D01*
X78499Y151018D01*
X78501Y150877D01*
X78507Y150736D01*
X78517Y150596D01*
X78531Y150456D01*
X78549Y150316D01*
X78571Y150177D01*
X78597Y150038D01*
X78626Y149901D01*
X78660Y149764D01*
X78697Y149628D01*
X78738Y149493D01*
X78783Y149360D01*
X78832Y149228D01*
X78884Y149097D01*
X78940Y148968D01*
X79000Y148840D01*
X88499Y151100D02*
X107750Y151100D01*
X107750Y268100D02*
X88499Y268100D01*
X88498Y268100D02*
X88494Y267960D01*
X88486Y267819D01*
X88474Y267679D01*
X88458Y267539D01*
X88438Y267399D01*
X88414Y267261D01*
X88386Y267123D01*
X88354Y266985D01*
X88319Y266849D01*
X88280Y266714D01*
X88236Y266580D01*
X88189Y266447D01*
X88139Y266316D01*
X88085Y266186D01*
X88027Y266057D01*
X87965Y265931D01*
X87900Y265806D01*
X87831Y265683D01*
X87759Y265562D01*
X87684Y265443D01*
X87605Y265326D01*
X87523Y265212D01*
X87438Y265099D01*
X87350Y264990D01*
X87258Y264883D01*
X87164Y264778D01*
X87067Y264676D01*
X86967Y264577D01*
X86864Y264481D01*
X86758Y264387D01*
X86650Y264297D01*
X86540Y264210D01*
X86427Y264126D01*
X86311Y264045D01*
X86194Y263967D01*
X86074Y263893D01*
X85953Y263822D01*
X85829Y263755D01*
X85703Y263691D01*
X85576Y263631D01*
X85447Y263574D01*
X85317Y263521D01*
X85185Y263472D01*
X85052Y263426D01*
X84917Y263384D01*
X84782Y263346D01*
X84645Y263312D01*
X84507Y263282D01*
X84369Y263255D01*
X84230Y263233D01*
X84090Y263214D01*
X83950Y263199D01*
X83810Y263189D01*
X83669Y263182D01*
X83528Y263179D01*
X83388Y263180D01*
X83247Y263185D01*
X83106Y263194D01*
X82966Y263207D01*
X82826Y263224D01*
X82687Y263245D01*
X82548Y263270D01*
X82411Y263299D01*
X82274Y263331D01*
X82138Y263368D01*
X82003Y263408D01*
X81869Y263452D01*
X81736Y263500D01*
X81605Y263552D01*
X81476Y263607D01*
X81348Y263665D01*
X81221Y263728D01*
X81097Y263794D01*
X80974Y263863D01*
X80854Y263936D01*
X80735Y264012D01*
X80619Y264092D01*
X80505Y264174D01*
X80394Y264260D01*
X80284Y264349D01*
X80178Y264441D01*
X80074Y264536D01*
X79973Y264634D01*
X79874Y264735D01*
X79779Y264838D01*
X79686Y264945D01*
X79597Y265053D01*
X79510Y265164D01*
X79427Y265278D01*
X79347Y265394D01*
X79270Y265512D01*
X79196Y265632D01*
X79126Y265754D01*
X79060Y265878D01*
X78997Y266004D01*
X78937Y266132D01*
X78881Y266261D01*
X78829Y266392D01*
X78781Y266524D01*
X78736Y266658D01*
X78695Y266792D01*
X78658Y266928D01*
X78625Y267065D01*
X78595Y267203D01*
X78570Y267341D01*
X78548Y267480D01*
X78530Y267620D01*
X78517Y267760D01*
X78507Y267901D01*
X78501Y268042D01*
X78499Y268182D01*
X78501Y268323D01*
X78507Y268464D01*
X78517Y268604D01*
X78531Y268744D01*
X78549Y268884D01*
X78571Y269023D01*
X78597Y269162D01*
X78626Y269299D01*
X78660Y269436D01*
X78697Y269572D01*
X78738Y269707D01*
X78783Y269840D01*
X78832Y269972D01*
X78884Y270103D01*
X78940Y270232D01*
X79000Y270360D01*
X79000Y270359D02*
X79000Y279600D01*
X39000Y279600D01*
X39000Y270359D01*
X39000Y270360D02*
X39060Y270232D01*
X39116Y270103D01*
X39168Y269972D01*
X39217Y269840D01*
X39262Y269707D01*
X39303Y269572D01*
X39340Y269436D01*
X39374Y269299D01*
X39403Y269162D01*
X39429Y269023D01*
X39451Y268884D01*
X39469Y268744D01*
X39483Y268604D01*
X39493Y268464D01*
X39499Y268323D01*
X39501Y268182D01*
X39499Y268042D01*
X39493Y267901D01*
X39483Y267760D01*
X39470Y267620D01*
X39452Y267480D01*
X39430Y267341D01*
X39405Y267203D01*
X39375Y267065D01*
X39342Y266928D01*
X39305Y266792D01*
X39264Y266658D01*
X39219Y266524D01*
X39171Y266392D01*
X39119Y266261D01*
X39063Y266132D01*
X39003Y266004D01*
X38940Y265878D01*
X38874Y265754D01*
X38804Y265632D01*
X38730Y265512D01*
X38653Y265394D01*
X38573Y265278D01*
X38490Y265164D01*
X38403Y265053D01*
X38314Y264945D01*
X38221Y264838D01*
X38126Y264735D01*
X38027Y264634D01*
X37926Y264536D01*
X37822Y264441D01*
X37716Y264349D01*
X37606Y264260D01*
X37495Y264174D01*
X37381Y264092D01*
X37265Y264012D01*
X37146Y263936D01*
X37026Y263863D01*
X36903Y263794D01*
X36779Y263728D01*
X36652Y263665D01*
X36524Y263607D01*
X36395Y263552D01*
X36264Y263500D01*
X36131Y263452D01*
X35997Y263408D01*
X35862Y263368D01*
X35726Y263331D01*
X35589Y263299D01*
X35452Y263270D01*
X35313Y263245D01*
X35174Y263224D01*
X35034Y263207D01*
X34894Y263194D01*
X34753Y263185D01*
X34612Y263180D01*
X34472Y263179D01*
X34331Y263182D01*
X34190Y263189D01*
X34050Y263199D01*
X33910Y263214D01*
X33770Y263233D01*
X33631Y263255D01*
X33493Y263282D01*
X33355Y263312D01*
X33218Y263346D01*
X33083Y263384D01*
X32948Y263426D01*
X32815Y263472D01*
X32683Y263521D01*
X32553Y263574D01*
X32424Y263631D01*
X32297Y263691D01*
X32171Y263755D01*
X32047Y263822D01*
X31926Y263893D01*
X31806Y263967D01*
X31689Y264045D01*
X31573Y264126D01*
X31460Y264210D01*
X31350Y264297D01*
X31242Y264387D01*
X31136Y264481D01*
X31033Y264577D01*
X30933Y264676D01*
X30836Y264778D01*
X30742Y264883D01*
X30650Y264990D01*
X30562Y265099D01*
X30477Y265212D01*
X30395Y265326D01*
X30316Y265443D01*
X30241Y265562D01*
X30169Y265683D01*
X30100Y265806D01*
X30035Y265931D01*
X29973Y266057D01*
X29915Y266186D01*
X29861Y266316D01*
X29811Y266447D01*
X29764Y266580D01*
X29720Y266714D01*
X29681Y266849D01*
X29646Y266985D01*
X29614Y267123D01*
X29586Y267261D01*
X29562Y267399D01*
X29542Y267539D01*
X29526Y267679D01*
X29514Y267819D01*
X29506Y267960D01*
X29502Y268100D01*
X29501Y268100D02*
X10250Y268100D01*
X10250Y151100D02*
X29501Y151100D01*
X29502Y151100D02*
X29506Y151240D01*
X29514Y151381D01*
X29526Y151521D01*
X29542Y151661D01*
X29562Y151801D01*
X29586Y151939D01*
X29614Y152077D01*
X29646Y152215D01*
X29681Y152351D01*
X29720Y152486D01*
X29764Y152620D01*
X29811Y152753D01*
X29861Y152884D01*
X29915Y153014D01*
X29973Y153143D01*
X30035Y153269D01*
X30100Y153394D01*
X30169Y153517D01*
X30241Y153638D01*
X30316Y153757D01*
X30395Y153874D01*
X30477Y153988D01*
X30562Y154101D01*
X30650Y154210D01*
X30742Y154317D01*
X30836Y154422D01*
X30933Y154524D01*
X31033Y154623D01*
X31136Y154719D01*
X31242Y154813D01*
X31350Y154903D01*
X31460Y154990D01*
X31573Y155074D01*
X31689Y155155D01*
X31806Y155233D01*
X31926Y155307D01*
X32047Y155378D01*
X32171Y155445D01*
X32297Y155509D01*
X32424Y155569D01*
X32553Y155626D01*
X32683Y155679D01*
X32815Y155728D01*
X32948Y155774D01*
X33083Y155816D01*
X33218Y155854D01*
X33355Y155888D01*
X33493Y155918D01*
X33631Y155945D01*
X33770Y155967D01*
X33910Y155986D01*
X34050Y156001D01*
X34190Y156011D01*
X34331Y156018D01*
X34472Y156021D01*
X34612Y156020D01*
X34753Y156015D01*
X34894Y156006D01*
X35034Y155993D01*
X35174Y155976D01*
X35313Y155955D01*
X35452Y155930D01*
X35589Y155901D01*
X35726Y155869D01*
X35862Y155832D01*
X35997Y155792D01*
X36131Y155748D01*
X36264Y155700D01*
X36395Y155648D01*
X36524Y155593D01*
X36652Y155535D01*
X36779Y155472D01*
X36903Y155406D01*
X37026Y155337D01*
X37146Y155264D01*
X37265Y155188D01*
X37381Y155108D01*
X37495Y155026D01*
X37606Y154940D01*
X37716Y154851D01*
X37822Y154759D01*
X37926Y154664D01*
X38027Y154566D01*
X38126Y154465D01*
X38221Y154362D01*
X38314Y154255D01*
X38403Y154147D01*
X38490Y154036D01*
X38573Y153922D01*
X38653Y153806D01*
X38730Y153688D01*
X38804Y153568D01*
X38874Y153446D01*
X38940Y153322D01*
X39003Y153196D01*
X39063Y153068D01*
X39119Y152939D01*
X39171Y152808D01*
X39219Y152676D01*
X39264Y152542D01*
X39305Y152408D01*
X39342Y152272D01*
X39375Y152135D01*
X39405Y151997D01*
X39430Y151859D01*
X39452Y151720D01*
X39470Y151580D01*
X39483Y151440D01*
X39493Y151299D01*
X39499Y151158D01*
X39501Y151018D01*
X39499Y150877D01*
X39493Y150736D01*
X39483Y150596D01*
X39469Y150456D01*
X39451Y150316D01*
X39429Y150177D01*
X39403Y150038D01*
X39374Y149901D01*
X39340Y149764D01*
X39303Y149628D01*
X39262Y149493D01*
X39217Y149360D01*
X39168Y149228D01*
X39116Y149097D01*
X39060Y148968D01*
X39000Y148840D01*
X39000Y148841D02*
X39000Y139600D01*
X79000Y139600D01*
X79000Y148841D01*
D13*
X132827Y282685D02*
X132827Y284379D01*
X132829Y284443D01*
X132835Y284507D01*
X132844Y284570D01*
X132858Y284632D01*
X132875Y284694D01*
X132896Y284754D01*
X132920Y284813D01*
X132948Y284871D01*
X132980Y284926D01*
X133014Y284980D01*
X133052Y285031D01*
X133093Y285081D01*
X133137Y285127D01*
X133183Y285171D01*
X133233Y285212D01*
X133284Y285250D01*
X133338Y285284D01*
X133393Y285316D01*
X133451Y285344D01*
X133510Y285368D01*
X133570Y285389D01*
X133632Y285406D01*
X133694Y285420D01*
X133757Y285429D01*
X133821Y285435D01*
X133885Y285437D01*
X133949Y285435D01*
X134013Y285429D01*
X134076Y285420D01*
X134138Y285406D01*
X134200Y285389D01*
X134260Y285368D01*
X134319Y285344D01*
X134377Y285316D01*
X134432Y285284D01*
X134486Y285250D01*
X134537Y285212D01*
X134587Y285171D01*
X134633Y285127D01*
X134677Y285081D01*
X134718Y285031D01*
X134756Y284980D01*
X134790Y284926D01*
X134822Y284871D01*
X134850Y284813D01*
X134874Y284754D01*
X134895Y284694D01*
X134912Y284632D01*
X134926Y284570D01*
X134935Y284507D01*
X134941Y284443D01*
X134943Y284379D01*
X134944Y284379D02*
X134944Y282685D01*
X134943Y282685D02*
X134941Y282621D01*
X134935Y282557D01*
X134926Y282494D01*
X134912Y282432D01*
X134895Y282370D01*
X134874Y282310D01*
X134850Y282251D01*
X134822Y282193D01*
X134790Y282138D01*
X134756Y282084D01*
X134718Y282033D01*
X134677Y281983D01*
X134633Y281937D01*
X134587Y281893D01*
X134537Y281852D01*
X134486Y281814D01*
X134432Y281780D01*
X134377Y281748D01*
X134319Y281720D01*
X134260Y281696D01*
X134200Y281675D01*
X134138Y281658D01*
X134076Y281644D01*
X134013Y281635D01*
X133949Y281629D01*
X133885Y281627D01*
X133821Y281629D01*
X133757Y281635D01*
X133694Y281644D01*
X133632Y281658D01*
X133570Y281675D01*
X133510Y281696D01*
X133451Y281720D01*
X133393Y281748D01*
X133338Y281780D01*
X133284Y281814D01*
X133233Y281852D01*
X133183Y281893D01*
X133137Y281937D01*
X133093Y281983D01*
X133052Y282033D01*
X133014Y282084D01*
X132980Y282138D01*
X132948Y282193D01*
X132920Y282251D01*
X132896Y282310D01*
X132875Y282370D01*
X132858Y282432D01*
X132844Y282494D01*
X132835Y282557D01*
X132829Y282621D01*
X132827Y282685D01*
X134520Y282474D02*
X135367Y281627D01*
X136506Y282262D02*
X136506Y284167D01*
X136506Y282262D02*
X136508Y282215D01*
X136513Y282167D01*
X136522Y282121D01*
X136534Y282075D01*
X136550Y282030D01*
X136569Y281986D01*
X136591Y281945D01*
X136616Y281904D01*
X136645Y281866D01*
X136676Y281830D01*
X136709Y281797D01*
X136745Y281766D01*
X136783Y281737D01*
X136824Y281712D01*
X136865Y281690D01*
X136909Y281671D01*
X136954Y281655D01*
X137000Y281643D01*
X137046Y281634D01*
X137094Y281629D01*
X137141Y281627D01*
X138199Y281627D01*
X138199Y284167D01*
X140522Y283109D02*
X141474Y283109D01*
X140522Y283109D02*
X140469Y283107D01*
X140417Y283101D01*
X140364Y283092D01*
X140313Y283079D01*
X140263Y283062D01*
X140214Y283042D01*
X140167Y283018D01*
X140121Y282991D01*
X140078Y282961D01*
X140037Y282928D01*
X139998Y282892D01*
X139962Y282853D01*
X139929Y282812D01*
X139899Y282769D01*
X139872Y282723D01*
X139848Y282676D01*
X139828Y282627D01*
X139811Y282577D01*
X139798Y282526D01*
X139789Y282473D01*
X139783Y282421D01*
X139781Y282368D01*
X139783Y282315D01*
X139789Y282263D01*
X139798Y282210D01*
X139811Y282159D01*
X139828Y282109D01*
X139848Y282060D01*
X139872Y282013D01*
X139899Y281967D01*
X139929Y281924D01*
X139962Y281883D01*
X139998Y281844D01*
X140037Y281808D01*
X140078Y281775D01*
X140121Y281745D01*
X140167Y281718D01*
X140214Y281694D01*
X140263Y281674D01*
X140313Y281657D01*
X140364Y281644D01*
X140417Y281635D01*
X140469Y281629D01*
X140522Y281627D01*
X141474Y281627D01*
X141474Y283532D01*
X141472Y283579D01*
X141467Y283627D01*
X141458Y283673D01*
X141446Y283719D01*
X141430Y283764D01*
X141411Y283808D01*
X141389Y283850D01*
X141364Y283890D01*
X141335Y283928D01*
X141304Y283964D01*
X141271Y283997D01*
X141235Y284028D01*
X141197Y284057D01*
X141157Y284082D01*
X141115Y284104D01*
X141071Y284123D01*
X141026Y284139D01*
X140980Y284151D01*
X140934Y284160D01*
X140886Y284165D01*
X140839Y284167D01*
X139993Y284167D01*
X143729Y281627D02*
X144575Y281627D01*
X143729Y281627D02*
X143682Y281629D01*
X143634Y281634D01*
X143588Y281643D01*
X143542Y281655D01*
X143497Y281671D01*
X143453Y281690D01*
X143412Y281712D01*
X143371Y281737D01*
X143333Y281766D01*
X143297Y281797D01*
X143264Y281830D01*
X143233Y281866D01*
X143204Y281904D01*
X143179Y281945D01*
X143157Y281986D01*
X143138Y282030D01*
X143122Y282075D01*
X143110Y282121D01*
X143101Y282167D01*
X143096Y282215D01*
X143094Y282262D01*
X143094Y283532D01*
X143096Y283579D01*
X143101Y283627D01*
X143110Y283673D01*
X143122Y283719D01*
X143138Y283764D01*
X143157Y283808D01*
X143179Y283850D01*
X143204Y283890D01*
X143233Y283928D01*
X143264Y283964D01*
X143297Y283997D01*
X143333Y284028D01*
X143371Y284057D01*
X143412Y284082D01*
X143453Y284104D01*
X143497Y284123D01*
X143542Y284139D01*
X143588Y284151D01*
X143634Y284160D01*
X143682Y284165D01*
X143729Y284167D01*
X144575Y284167D01*
X146054Y285437D02*
X146054Y281627D01*
X146054Y282897D02*
X147748Y284167D01*
X146795Y283426D02*
X147748Y281627D01*
X151047Y284590D02*
X152105Y285437D01*
X152105Y281627D01*
X151047Y281627D02*
X153163Y281627D01*
X132427Y228979D02*
X132427Y227285D01*
X132427Y228979D02*
X132429Y229043D01*
X132435Y229107D01*
X132444Y229170D01*
X132458Y229232D01*
X132475Y229294D01*
X132496Y229354D01*
X132520Y229413D01*
X132548Y229471D01*
X132580Y229526D01*
X132614Y229580D01*
X132652Y229631D01*
X132693Y229681D01*
X132737Y229727D01*
X132783Y229771D01*
X132833Y229812D01*
X132884Y229850D01*
X132938Y229884D01*
X132993Y229916D01*
X133051Y229944D01*
X133110Y229968D01*
X133170Y229989D01*
X133232Y230006D01*
X133294Y230020D01*
X133357Y230029D01*
X133421Y230035D01*
X133485Y230037D01*
X133549Y230035D01*
X133613Y230029D01*
X133676Y230020D01*
X133738Y230006D01*
X133800Y229989D01*
X133860Y229968D01*
X133919Y229944D01*
X133977Y229916D01*
X134032Y229884D01*
X134086Y229850D01*
X134137Y229812D01*
X134187Y229771D01*
X134233Y229727D01*
X134277Y229681D01*
X134318Y229631D01*
X134356Y229580D01*
X134390Y229526D01*
X134422Y229471D01*
X134450Y229413D01*
X134474Y229354D01*
X134495Y229294D01*
X134512Y229232D01*
X134526Y229170D01*
X134535Y229107D01*
X134541Y229043D01*
X134543Y228979D01*
X134544Y228979D02*
X134544Y227285D01*
X134543Y227285D02*
X134541Y227221D01*
X134535Y227157D01*
X134526Y227094D01*
X134512Y227032D01*
X134495Y226970D01*
X134474Y226910D01*
X134450Y226851D01*
X134422Y226793D01*
X134390Y226738D01*
X134356Y226684D01*
X134318Y226633D01*
X134277Y226583D01*
X134233Y226537D01*
X134187Y226493D01*
X134137Y226452D01*
X134086Y226414D01*
X134032Y226380D01*
X133977Y226348D01*
X133919Y226320D01*
X133860Y226296D01*
X133800Y226275D01*
X133738Y226258D01*
X133676Y226244D01*
X133613Y226235D01*
X133549Y226229D01*
X133485Y226227D01*
X133421Y226229D01*
X133357Y226235D01*
X133294Y226244D01*
X133232Y226258D01*
X133170Y226275D01*
X133110Y226296D01*
X133051Y226320D01*
X132993Y226348D01*
X132938Y226380D01*
X132884Y226414D01*
X132833Y226452D01*
X132783Y226493D01*
X132737Y226537D01*
X132693Y226583D01*
X132652Y226633D01*
X132614Y226684D01*
X132580Y226738D01*
X132548Y226793D01*
X132520Y226851D01*
X132496Y226910D01*
X132475Y226970D01*
X132458Y227032D01*
X132444Y227094D01*
X132435Y227157D01*
X132429Y227221D01*
X132427Y227285D01*
X134120Y227074D02*
X134967Y226227D01*
X136106Y226862D02*
X136106Y228767D01*
X136106Y226862D02*
X136108Y226815D01*
X136113Y226767D01*
X136122Y226721D01*
X136134Y226675D01*
X136150Y226630D01*
X136169Y226586D01*
X136191Y226545D01*
X136216Y226504D01*
X136245Y226466D01*
X136276Y226430D01*
X136309Y226397D01*
X136345Y226366D01*
X136383Y226337D01*
X136424Y226312D01*
X136465Y226290D01*
X136509Y226271D01*
X136554Y226255D01*
X136600Y226243D01*
X136646Y226234D01*
X136694Y226229D01*
X136741Y226227D01*
X137799Y226227D01*
X137799Y228767D01*
X140122Y227709D02*
X141074Y227709D01*
X140122Y227709D02*
X140069Y227707D01*
X140017Y227701D01*
X139964Y227692D01*
X139913Y227679D01*
X139863Y227662D01*
X139814Y227642D01*
X139767Y227618D01*
X139721Y227591D01*
X139678Y227561D01*
X139637Y227528D01*
X139598Y227492D01*
X139562Y227453D01*
X139529Y227412D01*
X139499Y227369D01*
X139472Y227323D01*
X139448Y227276D01*
X139428Y227227D01*
X139411Y227177D01*
X139398Y227126D01*
X139389Y227073D01*
X139383Y227021D01*
X139381Y226968D01*
X139383Y226915D01*
X139389Y226863D01*
X139398Y226810D01*
X139411Y226759D01*
X139428Y226709D01*
X139448Y226660D01*
X139472Y226613D01*
X139499Y226567D01*
X139529Y226524D01*
X139562Y226483D01*
X139598Y226444D01*
X139637Y226408D01*
X139678Y226375D01*
X139721Y226345D01*
X139767Y226318D01*
X139814Y226294D01*
X139863Y226274D01*
X139913Y226257D01*
X139964Y226244D01*
X140017Y226235D01*
X140069Y226229D01*
X140122Y226227D01*
X141074Y226227D01*
X141074Y228132D01*
X141072Y228179D01*
X141067Y228227D01*
X141058Y228273D01*
X141046Y228319D01*
X141030Y228364D01*
X141011Y228408D01*
X140989Y228450D01*
X140964Y228490D01*
X140935Y228528D01*
X140904Y228564D01*
X140871Y228597D01*
X140835Y228628D01*
X140797Y228657D01*
X140757Y228682D01*
X140715Y228704D01*
X140671Y228723D01*
X140626Y228739D01*
X140580Y228751D01*
X140534Y228760D01*
X140486Y228765D01*
X140439Y228767D01*
X139593Y228767D01*
X143329Y226227D02*
X144175Y226227D01*
X143329Y226227D02*
X143282Y226229D01*
X143234Y226234D01*
X143188Y226243D01*
X143142Y226255D01*
X143097Y226271D01*
X143053Y226290D01*
X143012Y226312D01*
X142971Y226337D01*
X142933Y226366D01*
X142897Y226397D01*
X142864Y226430D01*
X142833Y226466D01*
X142804Y226504D01*
X142779Y226545D01*
X142757Y226586D01*
X142738Y226630D01*
X142722Y226675D01*
X142710Y226721D01*
X142701Y226767D01*
X142696Y226815D01*
X142694Y226862D01*
X142694Y228132D01*
X142696Y228179D01*
X142701Y228227D01*
X142710Y228273D01*
X142722Y228319D01*
X142738Y228364D01*
X142757Y228408D01*
X142779Y228450D01*
X142804Y228490D01*
X142833Y228528D01*
X142864Y228564D01*
X142897Y228597D01*
X142933Y228628D01*
X142971Y228657D01*
X143012Y228682D01*
X143053Y228704D01*
X143097Y228723D01*
X143142Y228739D01*
X143188Y228751D01*
X143234Y228760D01*
X143282Y228765D01*
X143329Y228767D01*
X144175Y228767D01*
X145654Y230037D02*
X145654Y226227D01*
X145654Y227497D02*
X147348Y228767D01*
X146395Y228026D02*
X147348Y226227D01*
X151811Y230038D02*
X151871Y230036D01*
X151930Y230030D01*
X151990Y230021D01*
X152048Y230008D01*
X152105Y229991D01*
X152162Y229971D01*
X152217Y229947D01*
X152270Y229920D01*
X152322Y229890D01*
X152371Y229856D01*
X152418Y229819D01*
X152463Y229780D01*
X152506Y229737D01*
X152545Y229692D01*
X152582Y229645D01*
X152616Y229596D01*
X152646Y229544D01*
X152673Y229491D01*
X152697Y229436D01*
X152717Y229379D01*
X152734Y229322D01*
X152747Y229264D01*
X152756Y229204D01*
X152762Y229145D01*
X152764Y229085D01*
X151811Y230037D02*
X151744Y230035D01*
X151677Y230030D01*
X151611Y230021D01*
X151545Y230008D01*
X151481Y229992D01*
X151417Y229972D01*
X151354Y229948D01*
X151292Y229922D01*
X151233Y229892D01*
X151175Y229859D01*
X151118Y229822D01*
X151064Y229783D01*
X151012Y229741D01*
X150963Y229696D01*
X150916Y229648D01*
X150872Y229598D01*
X150830Y229545D01*
X150792Y229490D01*
X150756Y229434D01*
X150724Y229375D01*
X150695Y229315D01*
X150669Y229253D01*
X150647Y229190D01*
X152446Y228344D02*
X152487Y228386D01*
X152526Y228431D01*
X152563Y228477D01*
X152597Y228526D01*
X152628Y228576D01*
X152655Y228628D01*
X152680Y228682D01*
X152702Y228737D01*
X152721Y228793D01*
X152736Y228850D01*
X152748Y228908D01*
X152756Y228967D01*
X152761Y229026D01*
X152763Y229085D01*
X152446Y228344D02*
X150647Y226227D01*
X152763Y226227D01*
X132727Y173779D02*
X132727Y172085D01*
X132727Y173779D02*
X132729Y173843D01*
X132735Y173907D01*
X132744Y173970D01*
X132758Y174032D01*
X132775Y174094D01*
X132796Y174154D01*
X132820Y174213D01*
X132848Y174271D01*
X132880Y174326D01*
X132914Y174380D01*
X132952Y174431D01*
X132993Y174481D01*
X133037Y174527D01*
X133083Y174571D01*
X133133Y174612D01*
X133184Y174650D01*
X133238Y174684D01*
X133293Y174716D01*
X133351Y174744D01*
X133410Y174768D01*
X133470Y174789D01*
X133532Y174806D01*
X133594Y174820D01*
X133657Y174829D01*
X133721Y174835D01*
X133785Y174837D01*
X133849Y174835D01*
X133913Y174829D01*
X133976Y174820D01*
X134038Y174806D01*
X134100Y174789D01*
X134160Y174768D01*
X134219Y174744D01*
X134277Y174716D01*
X134332Y174684D01*
X134386Y174650D01*
X134437Y174612D01*
X134487Y174571D01*
X134533Y174527D01*
X134577Y174481D01*
X134618Y174431D01*
X134656Y174380D01*
X134690Y174326D01*
X134722Y174271D01*
X134750Y174213D01*
X134774Y174154D01*
X134795Y174094D01*
X134812Y174032D01*
X134826Y173970D01*
X134835Y173907D01*
X134841Y173843D01*
X134843Y173779D01*
X134844Y173779D02*
X134844Y172085D01*
X134843Y172085D02*
X134841Y172021D01*
X134835Y171957D01*
X134826Y171894D01*
X134812Y171832D01*
X134795Y171770D01*
X134774Y171710D01*
X134750Y171651D01*
X134722Y171593D01*
X134690Y171538D01*
X134656Y171484D01*
X134618Y171433D01*
X134577Y171383D01*
X134533Y171337D01*
X134487Y171293D01*
X134437Y171252D01*
X134386Y171214D01*
X134332Y171180D01*
X134277Y171148D01*
X134219Y171120D01*
X134160Y171096D01*
X134100Y171075D01*
X134038Y171058D01*
X133976Y171044D01*
X133913Y171035D01*
X133849Y171029D01*
X133785Y171027D01*
X133721Y171029D01*
X133657Y171035D01*
X133594Y171044D01*
X133532Y171058D01*
X133470Y171075D01*
X133410Y171096D01*
X133351Y171120D01*
X133293Y171148D01*
X133238Y171180D01*
X133184Y171214D01*
X133133Y171252D01*
X133083Y171293D01*
X133037Y171337D01*
X132993Y171383D01*
X132952Y171433D01*
X132914Y171484D01*
X132880Y171538D01*
X132848Y171593D01*
X132820Y171651D01*
X132796Y171710D01*
X132775Y171770D01*
X132758Y171832D01*
X132744Y171894D01*
X132735Y171957D01*
X132729Y172021D01*
X132727Y172085D01*
X134420Y171874D02*
X135267Y171027D01*
X136406Y171662D02*
X136406Y173567D01*
X136406Y171662D02*
X136408Y171615D01*
X136413Y171567D01*
X136422Y171521D01*
X136434Y171475D01*
X136450Y171430D01*
X136469Y171386D01*
X136491Y171345D01*
X136516Y171304D01*
X136545Y171266D01*
X136576Y171230D01*
X136609Y171197D01*
X136645Y171166D01*
X136683Y171137D01*
X136724Y171112D01*
X136765Y171090D01*
X136809Y171071D01*
X136854Y171055D01*
X136900Y171043D01*
X136946Y171034D01*
X136994Y171029D01*
X137041Y171027D01*
X138099Y171027D01*
X138099Y173567D01*
X140422Y172509D02*
X141374Y172509D01*
X140422Y172509D02*
X140369Y172507D01*
X140317Y172501D01*
X140264Y172492D01*
X140213Y172479D01*
X140163Y172462D01*
X140114Y172442D01*
X140067Y172418D01*
X140021Y172391D01*
X139978Y172361D01*
X139937Y172328D01*
X139898Y172292D01*
X139862Y172253D01*
X139829Y172212D01*
X139799Y172169D01*
X139772Y172123D01*
X139748Y172076D01*
X139728Y172027D01*
X139711Y171977D01*
X139698Y171926D01*
X139689Y171873D01*
X139683Y171821D01*
X139681Y171768D01*
X139683Y171715D01*
X139689Y171663D01*
X139698Y171610D01*
X139711Y171559D01*
X139728Y171509D01*
X139748Y171460D01*
X139772Y171413D01*
X139799Y171367D01*
X139829Y171324D01*
X139862Y171283D01*
X139898Y171244D01*
X139937Y171208D01*
X139978Y171175D01*
X140021Y171145D01*
X140067Y171118D01*
X140114Y171094D01*
X140163Y171074D01*
X140213Y171057D01*
X140264Y171044D01*
X140317Y171035D01*
X140369Y171029D01*
X140422Y171027D01*
X141374Y171027D01*
X141374Y172932D01*
X141372Y172979D01*
X141367Y173027D01*
X141358Y173073D01*
X141346Y173119D01*
X141330Y173164D01*
X141311Y173208D01*
X141289Y173250D01*
X141264Y173290D01*
X141235Y173328D01*
X141204Y173364D01*
X141171Y173397D01*
X141135Y173428D01*
X141097Y173457D01*
X141057Y173482D01*
X141015Y173504D01*
X140971Y173523D01*
X140926Y173539D01*
X140880Y173551D01*
X140834Y173560D01*
X140786Y173565D01*
X140739Y173567D01*
X139893Y173567D01*
X143629Y171027D02*
X144475Y171027D01*
X143629Y171027D02*
X143582Y171029D01*
X143534Y171034D01*
X143488Y171043D01*
X143442Y171055D01*
X143397Y171071D01*
X143353Y171090D01*
X143312Y171112D01*
X143271Y171137D01*
X143233Y171166D01*
X143197Y171197D01*
X143164Y171230D01*
X143133Y171266D01*
X143104Y171304D01*
X143079Y171345D01*
X143057Y171386D01*
X143038Y171430D01*
X143022Y171475D01*
X143010Y171521D01*
X143001Y171567D01*
X142996Y171615D01*
X142994Y171662D01*
X142994Y172932D01*
X142996Y172979D01*
X143001Y173027D01*
X143010Y173073D01*
X143022Y173119D01*
X143038Y173164D01*
X143057Y173208D01*
X143079Y173250D01*
X143104Y173290D01*
X143133Y173328D01*
X143164Y173364D01*
X143197Y173397D01*
X143233Y173428D01*
X143271Y173457D01*
X143312Y173482D01*
X143353Y173504D01*
X143397Y173523D01*
X143442Y173539D01*
X143488Y173551D01*
X143534Y173560D01*
X143582Y173565D01*
X143629Y173567D01*
X144475Y173567D01*
X145954Y174837D02*
X145954Y171027D01*
X145954Y172297D02*
X147648Y173567D01*
X146695Y172826D02*
X147648Y171027D01*
X150947Y171027D02*
X152005Y171027D01*
X152069Y171029D01*
X152133Y171035D01*
X152196Y171044D01*
X152258Y171058D01*
X152320Y171075D01*
X152380Y171096D01*
X152439Y171120D01*
X152497Y171148D01*
X152552Y171180D01*
X152606Y171214D01*
X152657Y171252D01*
X152707Y171293D01*
X152753Y171337D01*
X152797Y171383D01*
X152838Y171433D01*
X152876Y171484D01*
X152910Y171538D01*
X152942Y171593D01*
X152970Y171651D01*
X152994Y171710D01*
X153015Y171770D01*
X153032Y171832D01*
X153046Y171894D01*
X153055Y171957D01*
X153061Y172021D01*
X153063Y172085D01*
X153061Y172149D01*
X153055Y172213D01*
X153046Y172276D01*
X153032Y172338D01*
X153015Y172400D01*
X152994Y172460D01*
X152970Y172519D01*
X152942Y172577D01*
X152910Y172632D01*
X152876Y172686D01*
X152838Y172737D01*
X152797Y172787D01*
X152753Y172833D01*
X152707Y172877D01*
X152657Y172918D01*
X152606Y172956D01*
X152552Y172990D01*
X152497Y173022D01*
X152439Y173050D01*
X152380Y173074D01*
X152320Y173095D01*
X152258Y173112D01*
X152196Y173126D01*
X152133Y173135D01*
X152069Y173141D01*
X152005Y173143D01*
X152217Y174837D02*
X150947Y174837D01*
X152217Y174837D02*
X152274Y174835D01*
X152330Y174829D01*
X152386Y174820D01*
X152441Y174807D01*
X152495Y174790D01*
X152548Y174770D01*
X152599Y174746D01*
X152649Y174719D01*
X152696Y174688D01*
X152742Y174655D01*
X152785Y174618D01*
X152826Y174579D01*
X152864Y174537D01*
X152899Y174492D01*
X152931Y174446D01*
X152960Y174397D01*
X152985Y174347D01*
X153007Y174294D01*
X153026Y174241D01*
X153041Y174186D01*
X153052Y174131D01*
X153060Y174075D01*
X153064Y174018D01*
X153064Y173962D01*
X153060Y173905D01*
X153052Y173849D01*
X153041Y173794D01*
X153026Y173739D01*
X153007Y173686D01*
X152985Y173633D01*
X152960Y173583D01*
X152931Y173534D01*
X152899Y173488D01*
X152864Y173443D01*
X152826Y173401D01*
X152785Y173362D01*
X152742Y173325D01*
X152696Y173292D01*
X152649Y173261D01*
X152599Y173234D01*
X152548Y173210D01*
X152495Y173190D01*
X152441Y173173D01*
X152386Y173160D01*
X152330Y173151D01*
X152274Y173145D01*
X152217Y173143D01*
X152217Y173144D02*
X151370Y173144D01*
X135163Y63080D02*
X134528Y63080D01*
X135163Y63080D02*
X135163Y60963D01*
X133893Y60963D01*
X133838Y60965D01*
X133782Y60970D01*
X133728Y60979D01*
X133674Y60992D01*
X133621Y61008D01*
X133569Y61027D01*
X133518Y61050D01*
X133470Y61076D01*
X133422Y61106D01*
X133377Y61138D01*
X133335Y61173D01*
X133294Y61211D01*
X133256Y61252D01*
X133221Y61294D01*
X133189Y61339D01*
X133159Y61387D01*
X133133Y61435D01*
X133110Y61486D01*
X133091Y61538D01*
X133075Y61591D01*
X133062Y61645D01*
X133053Y61699D01*
X133048Y61755D01*
X133046Y61810D01*
X133047Y61810D02*
X133047Y63926D01*
X133046Y63926D02*
X133048Y63984D01*
X133054Y64041D01*
X133064Y64098D01*
X133077Y64155D01*
X133095Y64210D01*
X133116Y64263D01*
X133141Y64316D01*
X133169Y64366D01*
X133201Y64414D01*
X133236Y64461D01*
X133274Y64504D01*
X133315Y64545D01*
X133358Y64583D01*
X133405Y64618D01*
X133453Y64650D01*
X133503Y64678D01*
X133556Y64703D01*
X133609Y64724D01*
X133664Y64742D01*
X133721Y64755D01*
X133778Y64765D01*
X133835Y64771D01*
X133893Y64773D01*
X135163Y64773D01*
X136794Y62656D02*
X136794Y61810D01*
X136794Y62656D02*
X136796Y62713D01*
X136802Y62769D01*
X136811Y62825D01*
X136824Y62880D01*
X136841Y62934D01*
X136861Y62987D01*
X136885Y63038D01*
X136912Y63088D01*
X136943Y63135D01*
X136976Y63181D01*
X137013Y63224D01*
X137052Y63265D01*
X137094Y63303D01*
X137139Y63338D01*
X137185Y63370D01*
X137234Y63399D01*
X137284Y63424D01*
X137337Y63446D01*
X137390Y63465D01*
X137445Y63480D01*
X137500Y63491D01*
X137556Y63499D01*
X137613Y63503D01*
X137669Y63503D01*
X137726Y63499D01*
X137782Y63491D01*
X137837Y63480D01*
X137892Y63465D01*
X137945Y63446D01*
X137998Y63424D01*
X138048Y63399D01*
X138097Y63370D01*
X138143Y63338D01*
X138188Y63303D01*
X138230Y63265D01*
X138269Y63224D01*
X138306Y63181D01*
X138339Y63135D01*
X138370Y63088D01*
X138397Y63038D01*
X138421Y62987D01*
X138441Y62934D01*
X138458Y62880D01*
X138471Y62825D01*
X138480Y62769D01*
X138486Y62713D01*
X138488Y62656D01*
X138487Y62656D02*
X138487Y61810D01*
X138488Y61810D02*
X138486Y61753D01*
X138480Y61697D01*
X138471Y61641D01*
X138458Y61586D01*
X138441Y61532D01*
X138421Y61479D01*
X138397Y61428D01*
X138370Y61378D01*
X138339Y61331D01*
X138306Y61285D01*
X138269Y61242D01*
X138230Y61201D01*
X138188Y61163D01*
X138143Y61128D01*
X138097Y61096D01*
X138048Y61067D01*
X137998Y61042D01*
X137945Y61020D01*
X137892Y61001D01*
X137837Y60986D01*
X137782Y60975D01*
X137726Y60967D01*
X137669Y60963D01*
X137613Y60963D01*
X137556Y60967D01*
X137500Y60975D01*
X137445Y60986D01*
X137390Y61001D01*
X137337Y61020D01*
X137284Y61042D01*
X137234Y61067D01*
X137185Y61096D01*
X137139Y61128D01*
X137094Y61163D01*
X137052Y61201D01*
X137013Y61242D01*
X136976Y61285D01*
X136943Y61331D01*
X136912Y61378D01*
X136885Y61428D01*
X136861Y61479D01*
X136841Y61532D01*
X136824Y61586D01*
X136811Y61641D01*
X136802Y61697D01*
X136796Y61753D01*
X136794Y61810D01*
X139964Y61810D02*
X139964Y62656D01*
X139966Y62713D01*
X139972Y62769D01*
X139981Y62825D01*
X139994Y62880D01*
X140011Y62934D01*
X140031Y62987D01*
X140055Y63038D01*
X140082Y63088D01*
X140113Y63135D01*
X140146Y63181D01*
X140183Y63224D01*
X140222Y63265D01*
X140264Y63303D01*
X140309Y63338D01*
X140355Y63370D01*
X140404Y63399D01*
X140454Y63424D01*
X140507Y63446D01*
X140560Y63465D01*
X140615Y63480D01*
X140670Y63491D01*
X140726Y63499D01*
X140783Y63503D01*
X140839Y63503D01*
X140896Y63499D01*
X140952Y63491D01*
X141007Y63480D01*
X141062Y63465D01*
X141115Y63446D01*
X141168Y63424D01*
X141218Y63399D01*
X141267Y63370D01*
X141313Y63338D01*
X141358Y63303D01*
X141400Y63265D01*
X141439Y63224D01*
X141476Y63181D01*
X141509Y63135D01*
X141540Y63088D01*
X141567Y63038D01*
X141591Y62987D01*
X141611Y62934D01*
X141628Y62880D01*
X141641Y62825D01*
X141650Y62769D01*
X141656Y62713D01*
X141658Y62656D01*
X141657Y62656D02*
X141657Y61810D01*
X141658Y61810D02*
X141656Y61753D01*
X141650Y61697D01*
X141641Y61641D01*
X141628Y61586D01*
X141611Y61532D01*
X141591Y61479D01*
X141567Y61428D01*
X141540Y61378D01*
X141509Y61331D01*
X141476Y61285D01*
X141439Y61242D01*
X141400Y61201D01*
X141358Y61163D01*
X141313Y61128D01*
X141267Y61096D01*
X141218Y61067D01*
X141168Y61042D01*
X141115Y61020D01*
X141062Y61001D01*
X141007Y60986D01*
X140952Y60975D01*
X140896Y60967D01*
X140839Y60963D01*
X140783Y60963D01*
X140726Y60967D01*
X140670Y60975D01*
X140615Y60986D01*
X140560Y61001D01*
X140507Y61020D01*
X140454Y61042D01*
X140404Y61067D01*
X140355Y61096D01*
X140309Y61128D01*
X140264Y61163D01*
X140222Y61201D01*
X140183Y61242D01*
X140146Y61285D01*
X140113Y61331D01*
X140082Y61378D01*
X140055Y61428D01*
X140031Y61479D01*
X140011Y61532D01*
X139994Y61586D01*
X139981Y61641D01*
X139972Y61697D01*
X139966Y61753D01*
X139964Y61810D01*
X143451Y62445D02*
X144510Y62021D01*
X143451Y62444D02*
X143409Y62463D01*
X143369Y62486D01*
X143330Y62511D01*
X143294Y62540D01*
X143261Y62572D01*
X143230Y62606D01*
X143202Y62643D01*
X143178Y62682D01*
X143157Y62723D01*
X143139Y62766D01*
X143125Y62810D01*
X143115Y62855D01*
X143109Y62901D01*
X143106Y62947D01*
X143107Y62993D01*
X143113Y63039D01*
X143122Y63084D01*
X143134Y63129D01*
X143151Y63172D01*
X143171Y63213D01*
X143195Y63253D01*
X143221Y63291D01*
X143251Y63326D01*
X143284Y63358D01*
X143319Y63388D01*
X143357Y63415D01*
X143396Y63438D01*
X143438Y63458D01*
X143481Y63475D01*
X143526Y63488D01*
X143571Y63497D01*
X143617Y63502D01*
X143663Y63503D01*
X143662Y63503D02*
X143752Y63500D01*
X143841Y63494D01*
X143930Y63484D01*
X144018Y63471D01*
X144106Y63455D01*
X144193Y63436D01*
X144279Y63413D01*
X144365Y63387D01*
X144449Y63358D01*
X144533Y63326D01*
X144615Y63291D01*
X144510Y62022D02*
X144552Y62003D01*
X144592Y61980D01*
X144631Y61955D01*
X144667Y61926D01*
X144700Y61894D01*
X144731Y61860D01*
X144759Y61823D01*
X144783Y61784D01*
X144804Y61743D01*
X144822Y61700D01*
X144836Y61656D01*
X144846Y61611D01*
X144852Y61565D01*
X144855Y61519D01*
X144854Y61473D01*
X144848Y61427D01*
X144839Y61382D01*
X144827Y61337D01*
X144810Y61294D01*
X144790Y61253D01*
X144766Y61213D01*
X144740Y61175D01*
X144710Y61140D01*
X144677Y61108D01*
X144642Y61078D01*
X144604Y61051D01*
X144565Y61028D01*
X144523Y61008D01*
X144480Y60991D01*
X144435Y60978D01*
X144390Y60969D01*
X144344Y60964D01*
X144298Y60963D01*
X144179Y60967D01*
X144060Y60975D01*
X143942Y60986D01*
X143824Y61002D01*
X143707Y61021D01*
X143590Y61044D01*
X143475Y61071D01*
X143360Y61102D01*
X143246Y61137D01*
X143134Y61175D01*
X146939Y60963D02*
X147997Y60963D01*
X146939Y60963D02*
X146892Y60965D01*
X146844Y60970D01*
X146798Y60979D01*
X146752Y60991D01*
X146707Y61007D01*
X146663Y61026D01*
X146622Y61048D01*
X146581Y61073D01*
X146543Y61102D01*
X146507Y61133D01*
X146474Y61166D01*
X146443Y61202D01*
X146414Y61240D01*
X146389Y61281D01*
X146367Y61322D01*
X146348Y61366D01*
X146332Y61411D01*
X146320Y61457D01*
X146311Y61503D01*
X146306Y61551D01*
X146304Y61598D01*
X146304Y62656D01*
X146303Y62656D02*
X146305Y62713D01*
X146311Y62769D01*
X146320Y62825D01*
X146333Y62880D01*
X146350Y62934D01*
X146370Y62987D01*
X146394Y63038D01*
X146421Y63088D01*
X146452Y63135D01*
X146485Y63181D01*
X146522Y63224D01*
X146561Y63265D01*
X146603Y63303D01*
X146648Y63338D01*
X146694Y63370D01*
X146743Y63399D01*
X146793Y63424D01*
X146846Y63446D01*
X146899Y63465D01*
X146954Y63480D01*
X147009Y63491D01*
X147065Y63499D01*
X147122Y63503D01*
X147178Y63503D01*
X147235Y63499D01*
X147291Y63491D01*
X147346Y63480D01*
X147401Y63465D01*
X147454Y63446D01*
X147507Y63424D01*
X147557Y63399D01*
X147606Y63370D01*
X147652Y63338D01*
X147697Y63303D01*
X147739Y63265D01*
X147778Y63224D01*
X147815Y63181D01*
X147848Y63135D01*
X147879Y63088D01*
X147906Y63038D01*
X147930Y62987D01*
X147950Y62934D01*
X147967Y62880D01*
X147980Y62825D01*
X147989Y62769D01*
X147995Y62713D01*
X147997Y62656D01*
X147997Y62233D01*
X146304Y62233D01*
X151456Y60963D02*
X152726Y60963D01*
X152781Y60965D01*
X152837Y60970D01*
X152891Y60979D01*
X152945Y60992D01*
X152998Y61008D01*
X153050Y61027D01*
X153101Y61050D01*
X153150Y61076D01*
X153197Y61106D01*
X153242Y61138D01*
X153284Y61173D01*
X153325Y61211D01*
X153363Y61252D01*
X153398Y61294D01*
X153430Y61339D01*
X153460Y61387D01*
X153486Y61435D01*
X153509Y61486D01*
X153528Y61538D01*
X153544Y61591D01*
X153557Y61645D01*
X153566Y61699D01*
X153571Y61755D01*
X153573Y61810D01*
X153573Y62233D01*
X153571Y62288D01*
X153566Y62344D01*
X153557Y62398D01*
X153544Y62452D01*
X153528Y62505D01*
X153509Y62557D01*
X153486Y62608D01*
X153460Y62657D01*
X153430Y62704D01*
X153398Y62749D01*
X153363Y62791D01*
X153325Y62832D01*
X153284Y62870D01*
X153242Y62905D01*
X153197Y62937D01*
X153150Y62967D01*
X153101Y62993D01*
X153050Y63016D01*
X152998Y63035D01*
X152945Y63051D01*
X152891Y63064D01*
X152837Y63073D01*
X152781Y63078D01*
X152726Y63080D01*
X151456Y63080D01*
X151456Y64773D01*
X153573Y64773D01*
X133437Y117421D02*
X133437Y119115D01*
X133439Y119179D01*
X133445Y119243D01*
X133454Y119306D01*
X133468Y119368D01*
X133485Y119430D01*
X133506Y119490D01*
X133530Y119549D01*
X133558Y119607D01*
X133590Y119662D01*
X133624Y119716D01*
X133662Y119767D01*
X133703Y119817D01*
X133747Y119863D01*
X133793Y119907D01*
X133843Y119948D01*
X133894Y119986D01*
X133948Y120020D01*
X134003Y120052D01*
X134061Y120080D01*
X134120Y120104D01*
X134180Y120125D01*
X134242Y120142D01*
X134304Y120156D01*
X134367Y120165D01*
X134431Y120171D01*
X134495Y120173D01*
X134559Y120171D01*
X134623Y120165D01*
X134686Y120156D01*
X134748Y120142D01*
X134810Y120125D01*
X134870Y120104D01*
X134929Y120080D01*
X134987Y120052D01*
X135042Y120020D01*
X135096Y119986D01*
X135147Y119948D01*
X135197Y119907D01*
X135243Y119863D01*
X135287Y119817D01*
X135328Y119767D01*
X135366Y119716D01*
X135400Y119662D01*
X135432Y119607D01*
X135460Y119549D01*
X135484Y119490D01*
X135505Y119430D01*
X135522Y119368D01*
X135536Y119306D01*
X135545Y119243D01*
X135551Y119179D01*
X135553Y119115D01*
X135553Y117421D01*
X135551Y117357D01*
X135545Y117293D01*
X135536Y117230D01*
X135522Y117168D01*
X135505Y117106D01*
X135484Y117046D01*
X135460Y116987D01*
X135432Y116929D01*
X135400Y116874D01*
X135366Y116820D01*
X135328Y116769D01*
X135287Y116719D01*
X135243Y116673D01*
X135197Y116629D01*
X135147Y116588D01*
X135096Y116550D01*
X135042Y116516D01*
X134987Y116484D01*
X134929Y116456D01*
X134870Y116432D01*
X134810Y116411D01*
X134748Y116394D01*
X134686Y116380D01*
X134623Y116371D01*
X134559Y116365D01*
X134495Y116363D01*
X134431Y116365D01*
X134367Y116371D01*
X134304Y116380D01*
X134242Y116394D01*
X134180Y116411D01*
X134120Y116432D01*
X134061Y116456D01*
X134003Y116484D01*
X133948Y116516D01*
X133894Y116550D01*
X133843Y116588D01*
X133793Y116629D01*
X133747Y116673D01*
X133703Y116719D01*
X133662Y116769D01*
X133624Y116820D01*
X133590Y116874D01*
X133558Y116929D01*
X133530Y116987D01*
X133506Y117046D01*
X133485Y117106D01*
X133468Y117168D01*
X133454Y117230D01*
X133445Y117293D01*
X133439Y117357D01*
X133437Y117421D01*
X135130Y117210D02*
X135977Y116363D01*
X137116Y116998D02*
X137116Y118903D01*
X137116Y116998D02*
X137118Y116951D01*
X137123Y116903D01*
X137132Y116857D01*
X137144Y116811D01*
X137160Y116766D01*
X137179Y116722D01*
X137201Y116681D01*
X137226Y116640D01*
X137255Y116602D01*
X137286Y116566D01*
X137319Y116533D01*
X137355Y116502D01*
X137393Y116473D01*
X137434Y116448D01*
X137475Y116426D01*
X137519Y116407D01*
X137564Y116391D01*
X137610Y116379D01*
X137656Y116370D01*
X137704Y116365D01*
X137751Y116363D01*
X138809Y116363D01*
X138809Y118903D01*
X141132Y117845D02*
X142084Y117845D01*
X141132Y117845D02*
X141079Y117843D01*
X141027Y117837D01*
X140974Y117828D01*
X140923Y117815D01*
X140873Y117798D01*
X140824Y117778D01*
X140777Y117754D01*
X140731Y117727D01*
X140688Y117697D01*
X140647Y117664D01*
X140608Y117628D01*
X140572Y117589D01*
X140539Y117548D01*
X140509Y117505D01*
X140482Y117459D01*
X140458Y117412D01*
X140438Y117363D01*
X140421Y117313D01*
X140408Y117262D01*
X140399Y117209D01*
X140393Y117157D01*
X140391Y117104D01*
X140393Y117051D01*
X140399Y116999D01*
X140408Y116946D01*
X140421Y116895D01*
X140438Y116845D01*
X140458Y116796D01*
X140482Y116749D01*
X140509Y116703D01*
X140539Y116660D01*
X140572Y116619D01*
X140608Y116580D01*
X140647Y116544D01*
X140688Y116511D01*
X140731Y116481D01*
X140777Y116454D01*
X140824Y116430D01*
X140873Y116410D01*
X140923Y116393D01*
X140974Y116380D01*
X141027Y116371D01*
X141079Y116365D01*
X141132Y116363D01*
X142084Y116363D01*
X142084Y118268D01*
X142082Y118315D01*
X142077Y118363D01*
X142068Y118409D01*
X142056Y118455D01*
X142040Y118500D01*
X142021Y118544D01*
X141999Y118586D01*
X141974Y118626D01*
X141945Y118664D01*
X141914Y118700D01*
X141881Y118733D01*
X141845Y118764D01*
X141807Y118793D01*
X141767Y118818D01*
X141725Y118840D01*
X141681Y118859D01*
X141636Y118875D01*
X141590Y118887D01*
X141544Y118896D01*
X141496Y118901D01*
X141449Y118903D01*
X140603Y118903D01*
X144338Y116363D02*
X145185Y116363D01*
X144338Y116363D02*
X144291Y116365D01*
X144243Y116370D01*
X144197Y116379D01*
X144151Y116391D01*
X144106Y116407D01*
X144062Y116426D01*
X144021Y116448D01*
X143980Y116473D01*
X143942Y116502D01*
X143906Y116533D01*
X143873Y116566D01*
X143842Y116602D01*
X143813Y116640D01*
X143788Y116681D01*
X143766Y116722D01*
X143747Y116766D01*
X143731Y116811D01*
X143719Y116857D01*
X143710Y116903D01*
X143705Y116951D01*
X143703Y116998D01*
X143703Y118268D01*
X143705Y118315D01*
X143710Y118363D01*
X143719Y118409D01*
X143731Y118455D01*
X143747Y118500D01*
X143766Y118544D01*
X143788Y118586D01*
X143813Y118626D01*
X143842Y118664D01*
X143873Y118700D01*
X143906Y118733D01*
X143942Y118764D01*
X143980Y118793D01*
X144021Y118818D01*
X144062Y118840D01*
X144106Y118859D01*
X144151Y118875D01*
X144197Y118887D01*
X144243Y118896D01*
X144291Y118901D01*
X144338Y118903D01*
X145185Y118903D01*
X146664Y120173D02*
X146664Y116363D01*
X146664Y117633D02*
X148357Y118903D01*
X147405Y118162D02*
X148357Y116363D01*
X151656Y117210D02*
X152503Y120173D01*
X151656Y117210D02*
X153773Y117210D01*
X153138Y118056D02*
X153138Y116363D01*
X128617Y274609D02*
X126077Y274609D01*
X127347Y273339D02*
X127347Y275879D01*
X126077Y217609D02*
X128617Y217609D01*
X127347Y216339D02*
X127347Y218879D01*
X126077Y162209D02*
X128617Y162209D01*
X127347Y160939D02*
X127347Y163479D01*
X126077Y108209D02*
X128617Y108209D01*
X127347Y106939D02*
X127347Y109479D01*
X126077Y52109D02*
X128617Y52109D01*
X127347Y50839D02*
X127347Y53379D01*
X126077Y27609D02*
X128617Y27609D01*
X128617Y83309D02*
X126077Y83309D01*
X126077Y137209D02*
X128617Y137209D01*
X128617Y192909D02*
X126077Y192909D01*
X126077Y248409D02*
X128617Y248409D01*
D14*
X283196Y185008D02*
X284833Y177642D01*
X286470Y182553D01*
X288107Y177642D01*
X289744Y185008D01*
X294027Y180507D02*
X295869Y180507D01*
X294027Y180506D02*
X293952Y180504D01*
X293877Y180498D01*
X293803Y180488D01*
X293729Y180475D01*
X293656Y180457D01*
X293584Y180436D01*
X293514Y180411D01*
X293445Y180382D01*
X293377Y180350D01*
X293311Y180314D01*
X293247Y180275D01*
X293185Y180233D01*
X293126Y180187D01*
X293069Y180138D01*
X293014Y180087D01*
X292963Y180032D01*
X292914Y179975D01*
X292868Y179916D01*
X292826Y179854D01*
X292787Y179790D01*
X292751Y179724D01*
X292719Y179656D01*
X292690Y179587D01*
X292665Y179517D01*
X292644Y179445D01*
X292626Y179372D01*
X292613Y179298D01*
X292603Y179224D01*
X292597Y179149D01*
X292595Y179074D01*
X292597Y178999D01*
X292603Y178924D01*
X292613Y178850D01*
X292626Y178776D01*
X292644Y178703D01*
X292665Y178631D01*
X292690Y178561D01*
X292719Y178492D01*
X292751Y178424D01*
X292787Y178358D01*
X292826Y178294D01*
X292868Y178232D01*
X292914Y178173D01*
X292963Y178116D01*
X293014Y178061D01*
X293069Y178010D01*
X293126Y177961D01*
X293185Y177915D01*
X293247Y177873D01*
X293311Y177834D01*
X293377Y177798D01*
X293445Y177766D01*
X293514Y177737D01*
X293584Y177712D01*
X293656Y177691D01*
X293729Y177673D01*
X293803Y177660D01*
X293877Y177650D01*
X293952Y177644D01*
X294027Y177642D01*
X295869Y177642D01*
X295869Y181325D01*
X295867Y181394D01*
X295861Y181462D01*
X295852Y181531D01*
X295838Y181598D01*
X295821Y181665D01*
X295800Y181731D01*
X295776Y181795D01*
X295747Y181858D01*
X295716Y181919D01*
X295681Y181978D01*
X295643Y182036D01*
X295601Y182091D01*
X295557Y182143D01*
X295509Y182193D01*
X295459Y182241D01*
X295407Y182285D01*
X295352Y182327D01*
X295294Y182365D01*
X295235Y182400D01*
X295174Y182431D01*
X295111Y182460D01*
X295047Y182484D01*
X294981Y182505D01*
X294914Y182522D01*
X294847Y182536D01*
X294778Y182545D01*
X294710Y182551D01*
X294641Y182553D01*
X293004Y182553D01*
X299510Y182553D02*
X299510Y177642D01*
X299510Y182553D02*
X301965Y182553D01*
X301965Y181734D01*
X304630Y182553D02*
X304630Y177642D01*
X304630Y182553D02*
X307086Y182553D01*
X307086Y181734D01*
X310852Y180507D02*
X312694Y180507D01*
X310852Y180506D02*
X310777Y180504D01*
X310702Y180498D01*
X310628Y180488D01*
X310554Y180475D01*
X310481Y180457D01*
X310409Y180436D01*
X310339Y180411D01*
X310270Y180382D01*
X310202Y180350D01*
X310136Y180314D01*
X310072Y180275D01*
X310010Y180233D01*
X309951Y180187D01*
X309894Y180138D01*
X309839Y180087D01*
X309788Y180032D01*
X309739Y179975D01*
X309693Y179916D01*
X309651Y179854D01*
X309612Y179790D01*
X309576Y179724D01*
X309544Y179656D01*
X309515Y179587D01*
X309490Y179517D01*
X309469Y179445D01*
X309451Y179372D01*
X309438Y179298D01*
X309428Y179224D01*
X309422Y179149D01*
X309420Y179074D01*
X309422Y178999D01*
X309428Y178924D01*
X309438Y178850D01*
X309451Y178776D01*
X309469Y178703D01*
X309490Y178631D01*
X309515Y178561D01*
X309544Y178492D01*
X309576Y178424D01*
X309612Y178358D01*
X309651Y178294D01*
X309693Y178232D01*
X309739Y178173D01*
X309788Y178116D01*
X309839Y178061D01*
X309894Y178010D01*
X309951Y177961D01*
X310010Y177915D01*
X310072Y177873D01*
X310136Y177834D01*
X310202Y177798D01*
X310270Y177766D01*
X310339Y177737D01*
X310409Y177712D01*
X310481Y177691D01*
X310554Y177673D01*
X310628Y177660D01*
X310702Y177650D01*
X310777Y177644D01*
X310852Y177642D01*
X312694Y177642D01*
X312694Y181325D01*
X312692Y181394D01*
X312686Y181462D01*
X312677Y181531D01*
X312663Y181598D01*
X312646Y181665D01*
X312625Y181731D01*
X312601Y181795D01*
X312572Y181858D01*
X312541Y181919D01*
X312506Y181978D01*
X312468Y182036D01*
X312426Y182091D01*
X312382Y182143D01*
X312334Y182193D01*
X312284Y182241D01*
X312232Y182285D01*
X312177Y182327D01*
X312119Y182365D01*
X312060Y182400D01*
X311999Y182431D01*
X311936Y182460D01*
X311872Y182484D01*
X311806Y182505D01*
X311739Y182522D01*
X311672Y182536D01*
X311603Y182545D01*
X311535Y182551D01*
X311466Y182553D01*
X309829Y182553D01*
X316288Y182553D02*
X316288Y177642D01*
X316288Y182553D02*
X318334Y182553D01*
X318403Y182551D01*
X318471Y182545D01*
X318540Y182536D01*
X318607Y182522D01*
X318674Y182505D01*
X318740Y182484D01*
X318804Y182460D01*
X318867Y182431D01*
X318928Y182400D01*
X318987Y182365D01*
X319045Y182327D01*
X319100Y182285D01*
X319152Y182241D01*
X319202Y182193D01*
X319250Y182143D01*
X319294Y182091D01*
X319336Y182036D01*
X319374Y181978D01*
X319409Y181919D01*
X319440Y181858D01*
X319469Y181795D01*
X319493Y181731D01*
X319514Y181665D01*
X319531Y181598D01*
X319545Y181531D01*
X319554Y181462D01*
X319560Y181394D01*
X319562Y181325D01*
X319562Y177642D01*
X322242Y182553D02*
X324697Y182553D01*
X323060Y185008D02*
X323060Y178870D01*
X323062Y178801D01*
X323068Y178733D01*
X323077Y178664D01*
X323091Y178597D01*
X323108Y178530D01*
X323129Y178464D01*
X323153Y178400D01*
X323182Y178337D01*
X323213Y178276D01*
X323248Y178217D01*
X323286Y178159D01*
X323328Y178104D01*
X323372Y178052D01*
X323420Y178002D01*
X323470Y177954D01*
X323522Y177910D01*
X323577Y177868D01*
X323635Y177830D01*
X323694Y177795D01*
X323755Y177764D01*
X323818Y177735D01*
X323882Y177711D01*
X323948Y177690D01*
X324015Y177673D01*
X324082Y177659D01*
X324151Y177650D01*
X324219Y177644D01*
X324288Y177642D01*
X324697Y177642D01*
X327261Y175187D02*
X328079Y175187D01*
X330535Y182553D01*
X327261Y182553D02*
X328898Y177642D01*
X294343Y165450D02*
X291888Y172816D01*
X296798Y172816D02*
X294343Y165450D01*
X299463Y165450D02*
X299463Y170361D01*
X299259Y172407D02*
X299259Y172816D01*
X299668Y172816D01*
X299668Y172407D01*
X299259Y172407D01*
X302459Y168724D02*
X302459Y167087D01*
X302459Y168724D02*
X302461Y168803D01*
X302467Y168882D01*
X302476Y168961D01*
X302489Y169039D01*
X302507Y169116D01*
X302527Y169192D01*
X302552Y169267D01*
X302580Y169341D01*
X302611Y169414D01*
X302647Y169485D01*
X302685Y169554D01*
X302727Y169621D01*
X302772Y169686D01*
X302820Y169749D01*
X302871Y169810D01*
X302925Y169867D01*
X302981Y169923D01*
X303040Y169975D01*
X303102Y170025D01*
X303166Y170071D01*
X303232Y170115D01*
X303300Y170155D01*
X303370Y170191D01*
X303442Y170225D01*
X303516Y170255D01*
X303590Y170281D01*
X303666Y170304D01*
X303743Y170322D01*
X303820Y170338D01*
X303899Y170349D01*
X303977Y170357D01*
X304056Y170361D01*
X304136Y170361D01*
X304215Y170357D01*
X304293Y170349D01*
X304372Y170338D01*
X304449Y170322D01*
X304526Y170304D01*
X304602Y170281D01*
X304676Y170255D01*
X304750Y170225D01*
X304822Y170191D01*
X304892Y170155D01*
X304960Y170115D01*
X305026Y170071D01*
X305090Y170025D01*
X305152Y169975D01*
X305211Y169923D01*
X305267Y169867D01*
X305321Y169810D01*
X305372Y169749D01*
X305420Y169686D01*
X305465Y169621D01*
X305507Y169554D01*
X305545Y169485D01*
X305581Y169414D01*
X305612Y169341D01*
X305640Y169267D01*
X305665Y169192D01*
X305685Y169116D01*
X305703Y169039D01*
X305716Y168961D01*
X305725Y168882D01*
X305731Y168803D01*
X305733Y168724D01*
X305733Y167087D01*
X305731Y167008D01*
X305725Y166929D01*
X305716Y166850D01*
X305703Y166772D01*
X305685Y166695D01*
X305665Y166619D01*
X305640Y166544D01*
X305612Y166470D01*
X305581Y166397D01*
X305545Y166326D01*
X305507Y166257D01*
X305465Y166190D01*
X305420Y166125D01*
X305372Y166062D01*
X305321Y166001D01*
X305267Y165944D01*
X305211Y165888D01*
X305152Y165836D01*
X305090Y165786D01*
X305026Y165740D01*
X304960Y165696D01*
X304892Y165656D01*
X304822Y165620D01*
X304750Y165586D01*
X304676Y165556D01*
X304602Y165530D01*
X304526Y165507D01*
X304449Y165489D01*
X304372Y165473D01*
X304293Y165462D01*
X304215Y165454D01*
X304136Y165450D01*
X304056Y165450D01*
X303977Y165454D01*
X303899Y165462D01*
X303820Y165473D01*
X303743Y165489D01*
X303666Y165507D01*
X303590Y165530D01*
X303516Y165556D01*
X303442Y165586D01*
X303370Y165620D01*
X303300Y165656D01*
X303232Y165696D01*
X303166Y165740D01*
X303102Y165786D01*
X303040Y165836D01*
X302981Y165888D01*
X302925Y165944D01*
X302871Y166001D01*
X302820Y166062D01*
X302772Y166125D01*
X302727Y166190D01*
X302685Y166257D01*
X302647Y166326D01*
X302611Y166397D01*
X302580Y166470D01*
X302552Y166544D01*
X302527Y166619D01*
X302507Y166695D01*
X302489Y166772D01*
X302476Y166850D01*
X302467Y166929D01*
X302461Y167008D01*
X302459Y167087D01*
X312032Y165450D02*
X312032Y172816D01*
X312032Y165450D02*
X309986Y165450D01*
X309917Y165452D01*
X309849Y165458D01*
X309780Y165467D01*
X309713Y165481D01*
X309646Y165498D01*
X309580Y165519D01*
X309516Y165543D01*
X309453Y165572D01*
X309392Y165603D01*
X309333Y165638D01*
X309275Y165676D01*
X309220Y165718D01*
X309168Y165762D01*
X309118Y165810D01*
X309070Y165860D01*
X309026Y165912D01*
X308984Y165967D01*
X308946Y166025D01*
X308911Y166084D01*
X308880Y166145D01*
X308851Y166208D01*
X308827Y166272D01*
X308806Y166338D01*
X308789Y166405D01*
X308775Y166472D01*
X308766Y166541D01*
X308760Y166609D01*
X308758Y166678D01*
X308758Y169133D01*
X308760Y169202D01*
X308766Y169270D01*
X308775Y169339D01*
X308789Y169406D01*
X308806Y169473D01*
X308827Y169539D01*
X308851Y169603D01*
X308880Y169666D01*
X308911Y169727D01*
X308946Y169786D01*
X308984Y169844D01*
X309026Y169899D01*
X309070Y169951D01*
X309118Y170001D01*
X309168Y170049D01*
X309220Y170093D01*
X309275Y170135D01*
X309333Y170173D01*
X309392Y170208D01*
X309453Y170239D01*
X309516Y170268D01*
X309580Y170292D01*
X309646Y170313D01*
X309713Y170330D01*
X309780Y170344D01*
X309849Y170353D01*
X309917Y170359D01*
X309986Y170361D01*
X312032Y170361D01*
X283401Y158169D02*
X283401Y153258D01*
X283196Y160215D02*
X283196Y160624D01*
X283605Y160624D01*
X283605Y160215D01*
X283196Y160215D01*
X286790Y159396D02*
X286790Y153258D01*
X286790Y159396D02*
X286792Y159465D01*
X286798Y159533D01*
X286807Y159602D01*
X286821Y159669D01*
X286838Y159736D01*
X286859Y159802D01*
X286883Y159866D01*
X286912Y159929D01*
X286943Y159990D01*
X286978Y160049D01*
X287016Y160107D01*
X287058Y160162D01*
X287102Y160214D01*
X287150Y160264D01*
X287200Y160312D01*
X287252Y160356D01*
X287307Y160397D01*
X287365Y160436D01*
X287424Y160471D01*
X287485Y160502D01*
X287548Y160531D01*
X287612Y160555D01*
X287678Y160576D01*
X287745Y160593D01*
X287812Y160607D01*
X287880Y160616D01*
X287949Y160622D01*
X288018Y160624D01*
X288427Y160624D01*
X288427Y158169D02*
X285972Y158169D01*
X294200Y158169D02*
X295837Y153258D01*
X297473Y158169D01*
X300226Y158169D02*
X300226Y153258D01*
X300021Y160215D02*
X300021Y160624D01*
X300430Y160624D01*
X300430Y160215D01*
X300021Y160215D01*
X303836Y156123D02*
X305882Y155304D01*
X303836Y156123D02*
X303777Y156148D01*
X303720Y156177D01*
X303665Y156210D01*
X303612Y156246D01*
X303561Y156284D01*
X303513Y156326D01*
X303467Y156371D01*
X303424Y156418D01*
X303384Y156468D01*
X303347Y156520D01*
X303313Y156575D01*
X303282Y156631D01*
X303255Y156689D01*
X303232Y156749D01*
X303212Y156809D01*
X303196Y156871D01*
X303183Y156934D01*
X303175Y156998D01*
X303170Y157061D01*
X303169Y157125D01*
X303172Y157189D01*
X303179Y157253D01*
X303190Y157316D01*
X303204Y157378D01*
X303222Y157440D01*
X303244Y157500D01*
X303269Y157559D01*
X303298Y157616D01*
X303331Y157671D01*
X303366Y157724D01*
X303405Y157775D01*
X303447Y157824D01*
X303491Y157870D01*
X303539Y157913D01*
X303588Y157953D01*
X303641Y157990D01*
X303695Y158024D01*
X303751Y158055D01*
X303809Y158082D01*
X303868Y158106D01*
X303929Y158125D01*
X303991Y158142D01*
X304054Y158154D01*
X304117Y158163D01*
X304181Y158168D01*
X304245Y158169D01*
X304244Y158169D02*
X304380Y158165D01*
X304515Y158157D01*
X304651Y158145D01*
X304785Y158129D01*
X304920Y158109D01*
X305053Y158086D01*
X305186Y158058D01*
X305318Y158027D01*
X305449Y157992D01*
X305579Y157953D01*
X305708Y157910D01*
X305835Y157863D01*
X305961Y157813D01*
X306086Y157759D01*
X305882Y155304D02*
X305941Y155279D01*
X305998Y155250D01*
X306053Y155217D01*
X306106Y155181D01*
X306157Y155143D01*
X306205Y155101D01*
X306251Y155056D01*
X306294Y155009D01*
X306334Y154959D01*
X306371Y154907D01*
X306405Y154852D01*
X306436Y154796D01*
X306463Y154738D01*
X306486Y154678D01*
X306506Y154618D01*
X306522Y154556D01*
X306535Y154493D01*
X306543Y154429D01*
X306548Y154366D01*
X306549Y154302D01*
X306546Y154238D01*
X306539Y154174D01*
X306528Y154111D01*
X306514Y154049D01*
X306496Y153987D01*
X306474Y153927D01*
X306449Y153868D01*
X306420Y153811D01*
X306387Y153756D01*
X306352Y153703D01*
X306313Y153652D01*
X306271Y153603D01*
X306227Y153557D01*
X306179Y153514D01*
X306130Y153474D01*
X306077Y153437D01*
X306023Y153403D01*
X305967Y153372D01*
X305909Y153345D01*
X305850Y153321D01*
X305789Y153302D01*
X305727Y153285D01*
X305664Y153273D01*
X305601Y153264D01*
X305537Y153259D01*
X305473Y153258D01*
X305309Y153262D01*
X305145Y153270D01*
X304981Y153282D01*
X304818Y153298D01*
X304655Y153318D01*
X304492Y153341D01*
X304331Y153369D01*
X304169Y153400D01*
X304009Y153435D01*
X303850Y153474D01*
X303691Y153517D01*
X303534Y153563D01*
X303377Y153613D01*
X303222Y153667D01*
X309491Y153258D02*
X309491Y158169D01*
X309287Y160215D02*
X309287Y160624D01*
X309696Y160624D01*
X309696Y160215D01*
X309287Y160215D01*
X312772Y160624D02*
X312772Y153258D01*
X314818Y153258D01*
X314887Y153260D01*
X314955Y153266D01*
X315024Y153275D01*
X315091Y153289D01*
X315158Y153306D01*
X315224Y153327D01*
X315288Y153351D01*
X315351Y153380D01*
X315412Y153411D01*
X315471Y153446D01*
X315529Y153484D01*
X315584Y153526D01*
X315636Y153570D01*
X315686Y153618D01*
X315734Y153668D01*
X315778Y153720D01*
X315820Y153775D01*
X315858Y153833D01*
X315893Y153892D01*
X315924Y153953D01*
X315953Y154016D01*
X315977Y154080D01*
X315998Y154146D01*
X316015Y154213D01*
X316029Y154280D01*
X316038Y154349D01*
X316044Y154417D01*
X316046Y154486D01*
X316046Y156941D01*
X316044Y157010D01*
X316038Y157078D01*
X316029Y157147D01*
X316015Y157214D01*
X315998Y157281D01*
X315977Y157347D01*
X315953Y157411D01*
X315924Y157474D01*
X315893Y157535D01*
X315858Y157594D01*
X315820Y157652D01*
X315778Y157707D01*
X315734Y157759D01*
X315686Y157809D01*
X315636Y157857D01*
X315584Y157901D01*
X315529Y157943D01*
X315471Y157981D01*
X315412Y158016D01*
X315351Y158047D01*
X315288Y158076D01*
X315224Y158100D01*
X315158Y158121D01*
X315091Y158138D01*
X315024Y158152D01*
X314955Y158161D01*
X314887Y158167D01*
X314818Y158169D01*
X312772Y158169D01*
X319154Y160624D02*
X319154Y154486D01*
X319156Y154417D01*
X319162Y154349D01*
X319171Y154280D01*
X319185Y154213D01*
X319202Y154146D01*
X319223Y154080D01*
X319247Y154016D01*
X319276Y153953D01*
X319307Y153892D01*
X319342Y153833D01*
X319380Y153775D01*
X319422Y153720D01*
X319466Y153668D01*
X319514Y153618D01*
X319564Y153570D01*
X319616Y153526D01*
X319671Y153484D01*
X319729Y153446D01*
X319788Y153411D01*
X319849Y153380D01*
X319912Y153351D01*
X319976Y153327D01*
X320042Y153306D01*
X320109Y153289D01*
X320176Y153275D01*
X320245Y153266D01*
X320313Y153260D01*
X320382Y153258D01*
X324200Y153258D02*
X326246Y153258D01*
X324200Y153258D02*
X324131Y153260D01*
X324063Y153266D01*
X323994Y153275D01*
X323927Y153289D01*
X323860Y153306D01*
X323794Y153327D01*
X323730Y153351D01*
X323667Y153380D01*
X323606Y153411D01*
X323547Y153446D01*
X323489Y153484D01*
X323434Y153526D01*
X323382Y153570D01*
X323332Y153618D01*
X323284Y153668D01*
X323240Y153720D01*
X323198Y153775D01*
X323160Y153833D01*
X323125Y153892D01*
X323094Y153953D01*
X323065Y154016D01*
X323041Y154080D01*
X323020Y154146D01*
X323003Y154213D01*
X322989Y154280D01*
X322980Y154349D01*
X322974Y154417D01*
X322972Y154486D01*
X322973Y154486D02*
X322973Y156532D01*
X322972Y156532D02*
X322974Y156611D01*
X322980Y156690D01*
X322989Y156769D01*
X323002Y156847D01*
X323020Y156924D01*
X323040Y157000D01*
X323065Y157075D01*
X323093Y157149D01*
X323124Y157222D01*
X323160Y157293D01*
X323198Y157362D01*
X323240Y157429D01*
X323285Y157494D01*
X323333Y157557D01*
X323384Y157618D01*
X323438Y157675D01*
X323494Y157731D01*
X323553Y157783D01*
X323615Y157833D01*
X323679Y157879D01*
X323745Y157923D01*
X323813Y157963D01*
X323883Y157999D01*
X323955Y158033D01*
X324029Y158063D01*
X324103Y158089D01*
X324179Y158112D01*
X324256Y158130D01*
X324333Y158146D01*
X324412Y158157D01*
X324490Y158165D01*
X324569Y158169D01*
X324649Y158169D01*
X324728Y158165D01*
X324806Y158157D01*
X324885Y158146D01*
X324962Y158130D01*
X325039Y158112D01*
X325115Y158089D01*
X325189Y158063D01*
X325263Y158033D01*
X325335Y157999D01*
X325405Y157963D01*
X325473Y157923D01*
X325539Y157879D01*
X325603Y157833D01*
X325665Y157783D01*
X325724Y157731D01*
X325780Y157675D01*
X325834Y157618D01*
X325885Y157557D01*
X325933Y157494D01*
X325978Y157429D01*
X326020Y157362D01*
X326058Y157293D01*
X326094Y157222D01*
X326125Y157149D01*
X326153Y157075D01*
X326178Y157000D01*
X326198Y156924D01*
X326216Y156847D01*
X326229Y156769D01*
X326238Y156690D01*
X326244Y156611D01*
X326246Y156532D01*
X326246Y155713D01*
X322973Y155713D01*
D13*
X306644Y125551D02*
X307991Y124204D01*
X308018Y124178D01*
X308048Y124156D01*
X308080Y124137D01*
X308114Y124121D01*
X308149Y124108D01*
X308186Y124099D01*
X308223Y124094D01*
X308260Y124092D01*
X308297Y124094D01*
X308334Y124099D01*
X308371Y124108D01*
X308406Y124121D01*
X308440Y124137D01*
X308472Y124156D01*
X308502Y124178D01*
X308529Y124204D01*
X308746Y125138D02*
X308387Y125498D01*
X308357Y125530D01*
X308330Y125566D01*
X308306Y125603D01*
X308286Y125642D01*
X308269Y125683D01*
X308255Y125726D01*
X308246Y125769D01*
X308240Y125813D01*
X308238Y125857D01*
X308240Y125901D01*
X308246Y125945D01*
X308255Y125988D01*
X308269Y126031D01*
X308286Y126072D01*
X308306Y126111D01*
X308330Y126148D01*
X308357Y126184D01*
X308387Y126216D01*
X308419Y126246D01*
X308455Y126273D01*
X308492Y126297D01*
X308531Y126317D01*
X308572Y126334D01*
X308615Y126348D01*
X308658Y126357D01*
X308702Y126363D01*
X308746Y126365D01*
X308790Y126363D01*
X308834Y126357D01*
X308877Y126348D01*
X308920Y126334D01*
X308961Y126317D01*
X309000Y126297D01*
X309037Y126273D01*
X309073Y126246D01*
X309105Y126216D01*
X309464Y125857D01*
X309494Y125825D01*
X309521Y125789D01*
X309545Y125752D01*
X309565Y125713D01*
X309582Y125672D01*
X309596Y125629D01*
X309605Y125586D01*
X309611Y125542D01*
X309613Y125498D01*
X309611Y125454D01*
X309605Y125410D01*
X309596Y125367D01*
X309582Y125324D01*
X309565Y125283D01*
X309545Y125244D01*
X309521Y125207D01*
X309494Y125171D01*
X309464Y125139D01*
X309432Y125109D01*
X309396Y125082D01*
X309359Y125058D01*
X309320Y125038D01*
X309279Y125021D01*
X309236Y125007D01*
X309193Y124998D01*
X309149Y124992D01*
X309105Y124990D01*
X309061Y124992D01*
X309017Y124998D01*
X308974Y125007D01*
X308931Y125021D01*
X308890Y125038D01*
X308851Y125058D01*
X308814Y125082D01*
X308778Y125109D01*
X308746Y125139D01*
X310254Y126466D02*
X308907Y127814D01*
X310254Y126467D02*
X310281Y126441D01*
X310311Y126419D01*
X310343Y126400D01*
X310377Y126384D01*
X310412Y126371D01*
X310449Y126362D01*
X310486Y126357D01*
X310523Y126355D01*
X310560Y126357D01*
X310597Y126362D01*
X310634Y126371D01*
X310669Y126384D01*
X310703Y126400D01*
X310735Y126419D01*
X310765Y126441D01*
X310792Y126467D01*
X312450Y127585D02*
X311103Y128932D01*
X312450Y127585D02*
X312476Y127558D01*
X312498Y127528D01*
X312517Y127496D01*
X312533Y127462D01*
X312546Y127427D01*
X312555Y127390D01*
X312560Y127353D01*
X312562Y127316D01*
X312560Y127279D01*
X312555Y127242D01*
X312546Y127205D01*
X312533Y127170D01*
X312517Y127136D01*
X312498Y127104D01*
X312476Y127074D01*
X312450Y127047D01*
X312450Y127046D02*
X312360Y126957D01*
X310609Y129336D02*
X310519Y129426D01*
X310609Y129516D01*
X310699Y129426D01*
X310609Y129336D01*
X311336Y130243D02*
X312952Y128626D01*
X312413Y129165D02*
X312593Y130422D01*
X312503Y129704D02*
X313670Y129344D01*
X313784Y130715D02*
X314412Y130984D01*
X313784Y130716D02*
X313751Y130704D01*
X313717Y130695D01*
X313682Y130690D01*
X313647Y130689D01*
X313612Y130692D01*
X313577Y130698D01*
X313544Y130708D01*
X313511Y130722D01*
X313480Y130739D01*
X313452Y130759D01*
X313425Y130782D01*
X313401Y130807D01*
X313380Y130835D01*
X313362Y130866D01*
X313348Y130898D01*
X313337Y130931D01*
X313329Y130965D01*
X313325Y131000D01*
X313325Y131035D01*
X313329Y131070D01*
X313337Y131104D01*
X313348Y131138D01*
X313362Y131170D01*
X313380Y131200D01*
X313401Y131228D01*
X313425Y131254D01*
X313424Y131254D02*
X313478Y131304D01*
X313535Y131351D01*
X313594Y131395D01*
X313655Y131437D01*
X313718Y131475D01*
X313783Y131509D01*
X313850Y131541D01*
X313918Y131568D01*
X314412Y130984D02*
X314445Y130996D01*
X314479Y131005D01*
X314514Y131010D01*
X314549Y131011D01*
X314584Y131008D01*
X314619Y131002D01*
X314652Y130992D01*
X314685Y130978D01*
X314716Y130961D01*
X314744Y130941D01*
X314771Y130918D01*
X314795Y130893D01*
X314816Y130864D01*
X314834Y130834D01*
X314848Y130802D01*
X314859Y130769D01*
X314867Y130735D01*
X314871Y130700D01*
X314871Y130665D01*
X314867Y130630D01*
X314859Y130596D01*
X314848Y130562D01*
X314834Y130530D01*
X314816Y130500D01*
X314795Y130472D01*
X314771Y130446D01*
X314771Y130445D02*
X314706Y130384D01*
X314638Y130326D01*
X314568Y130271D01*
X314496Y130219D01*
X314422Y130170D01*
X314345Y130124D01*
X314267Y130081D01*
X314188Y130041D01*
X315609Y131283D02*
X315698Y131372D01*
X315609Y131283D02*
X315519Y131372D01*
X315609Y131462D01*
X315698Y131372D01*
X315923Y130879D01*
X317241Y132915D02*
X316163Y133993D01*
X316612Y134442D01*
X316613Y134441D02*
X316640Y134467D01*
X316670Y134489D01*
X316702Y134508D01*
X316736Y134524D01*
X316771Y134537D01*
X316808Y134546D01*
X316845Y134551D01*
X316882Y134553D01*
X316919Y134551D01*
X316956Y134546D01*
X316993Y134537D01*
X317028Y134524D01*
X317062Y134508D01*
X317094Y134489D01*
X317124Y134467D01*
X317151Y134441D01*
X317151Y134442D02*
X317959Y133633D01*
X318336Y134729D02*
X317977Y135088D01*
X317947Y135120D01*
X317920Y135156D01*
X317896Y135193D01*
X317876Y135232D01*
X317859Y135273D01*
X317845Y135316D01*
X317836Y135359D01*
X317830Y135403D01*
X317828Y135447D01*
X317830Y135491D01*
X317836Y135535D01*
X317845Y135578D01*
X317859Y135621D01*
X317876Y135662D01*
X317896Y135701D01*
X317920Y135738D01*
X317947Y135774D01*
X317977Y135806D01*
X318009Y135836D01*
X318045Y135863D01*
X318082Y135887D01*
X318121Y135907D01*
X318162Y135924D01*
X318205Y135938D01*
X318248Y135947D01*
X318292Y135953D01*
X318336Y135955D01*
X318380Y135953D01*
X318424Y135947D01*
X318467Y135938D01*
X318510Y135924D01*
X318551Y135907D01*
X318590Y135887D01*
X318627Y135863D01*
X318663Y135836D01*
X318695Y135806D01*
X318696Y135806D02*
X319055Y135447D01*
X319085Y135415D01*
X319112Y135379D01*
X319136Y135342D01*
X319156Y135303D01*
X319173Y135262D01*
X319187Y135219D01*
X319196Y135176D01*
X319202Y135132D01*
X319204Y135088D01*
X319202Y135044D01*
X319196Y135000D01*
X319187Y134957D01*
X319173Y134914D01*
X319156Y134873D01*
X319136Y134834D01*
X319112Y134797D01*
X319085Y134761D01*
X319055Y134729D01*
X319023Y134699D01*
X318987Y134672D01*
X318950Y134648D01*
X318911Y134628D01*
X318870Y134611D01*
X318827Y134597D01*
X318784Y134588D01*
X318740Y134582D01*
X318696Y134580D01*
X318652Y134582D01*
X318608Y134588D01*
X318565Y134597D01*
X318522Y134611D01*
X318481Y134628D01*
X318442Y134648D01*
X318405Y134672D01*
X318369Y134699D01*
X318337Y134729D01*
X319863Y137692D02*
X321210Y136884D01*
X320761Y137872D01*
X321749Y137423D01*
X320941Y138770D01*
X322359Y139290D02*
X322763Y139694D01*
X322359Y139290D02*
X322331Y139260D01*
X322307Y139227D01*
X322285Y139192D01*
X322267Y139155D01*
X322252Y139117D01*
X322241Y139078D01*
X322233Y139037D01*
X322229Y138996D01*
X322229Y138955D01*
X322233Y138915D01*
X322241Y138874D01*
X322252Y138835D01*
X322267Y138797D01*
X322285Y138760D01*
X322307Y138725D01*
X322331Y138692D01*
X322359Y138662D01*
X322389Y138634D01*
X322422Y138610D01*
X322457Y138588D01*
X322494Y138570D01*
X322532Y138555D01*
X322571Y138544D01*
X322612Y138536D01*
X322652Y138532D01*
X322693Y138532D01*
X322734Y138536D01*
X322775Y138544D01*
X322814Y138555D01*
X322852Y138570D01*
X322889Y138588D01*
X322924Y138610D01*
X322957Y138634D01*
X322987Y138662D01*
X322988Y138662D02*
X323392Y139066D01*
X322583Y139874D01*
X322556Y139900D01*
X322526Y139922D01*
X322494Y139941D01*
X322460Y139957D01*
X322425Y139970D01*
X322388Y139979D01*
X322351Y139984D01*
X322314Y139986D01*
X322277Y139984D01*
X322240Y139979D01*
X322203Y139970D01*
X322168Y139957D01*
X322134Y139941D01*
X322102Y139922D01*
X322072Y139900D01*
X322045Y139874D01*
X321685Y139515D01*
X323124Y140954D02*
X324202Y139876D01*
X323124Y140954D02*
X323663Y141492D01*
X323843Y141313D01*
X324256Y142085D02*
X325333Y141007D01*
X324256Y142085D02*
X324794Y142624D01*
X324974Y142444D01*
X326670Y142344D02*
X327119Y142793D01*
X326669Y142344D02*
X326642Y142318D01*
X326612Y142296D01*
X326580Y142277D01*
X326546Y142261D01*
X326511Y142248D01*
X326474Y142239D01*
X326437Y142234D01*
X326400Y142232D01*
X326363Y142234D01*
X326326Y142239D01*
X326289Y142248D01*
X326254Y142261D01*
X326220Y142277D01*
X326188Y142296D01*
X326158Y142318D01*
X326131Y142344D01*
X325682Y142793D01*
X325652Y142825D01*
X325625Y142861D01*
X325601Y142898D01*
X325581Y142937D01*
X325564Y142978D01*
X325550Y143021D01*
X325541Y143064D01*
X325535Y143108D01*
X325533Y143152D01*
X325535Y143196D01*
X325541Y143240D01*
X325550Y143283D01*
X325564Y143326D01*
X325581Y143367D01*
X325601Y143406D01*
X325625Y143443D01*
X325652Y143479D01*
X325682Y143511D01*
X325714Y143541D01*
X325750Y143568D01*
X325787Y143592D01*
X325826Y143612D01*
X325867Y143629D01*
X325910Y143643D01*
X325953Y143652D01*
X325997Y143658D01*
X326041Y143660D01*
X326085Y143658D01*
X326129Y143652D01*
X326172Y143643D01*
X326215Y143629D01*
X326256Y143612D01*
X326295Y143592D01*
X326332Y143568D01*
X326368Y143541D01*
X326400Y143511D01*
X326580Y143332D01*
X325861Y142613D01*
X327855Y143529D02*
X326777Y144607D01*
X327226Y145056D01*
X327227Y145055D02*
X327254Y145081D01*
X327284Y145103D01*
X327316Y145122D01*
X327350Y145138D01*
X327385Y145151D01*
X327422Y145160D01*
X327459Y145165D01*
X327496Y145167D01*
X327533Y145165D01*
X327570Y145160D01*
X327607Y145151D01*
X327642Y145138D01*
X327676Y145122D01*
X327708Y145103D01*
X327738Y145081D01*
X327765Y145055D01*
X327765Y145056D02*
X328573Y144248D01*
X328092Y145921D02*
X328631Y146460D01*
X327733Y146640D02*
X329080Y145292D01*
X329080Y145293D02*
X329107Y145267D01*
X329137Y145245D01*
X329169Y145226D01*
X329203Y145210D01*
X329238Y145197D01*
X329275Y145188D01*
X329312Y145183D01*
X329349Y145181D01*
X329386Y145183D01*
X329423Y145188D01*
X329460Y145197D01*
X329495Y145210D01*
X329529Y145226D01*
X329561Y145245D01*
X329591Y145267D01*
X329618Y145293D01*
X329618Y145292D02*
X329708Y145382D01*
X329977Y147807D02*
X330516Y148346D01*
X329618Y148525D02*
X330965Y147178D01*
X330966Y147179D02*
X330993Y147153D01*
X331023Y147131D01*
X331055Y147112D01*
X331089Y147096D01*
X331124Y147083D01*
X331161Y147074D01*
X331198Y147069D01*
X331235Y147067D01*
X331272Y147069D01*
X331309Y147074D01*
X331346Y147083D01*
X331381Y147096D01*
X331415Y147112D01*
X331447Y147131D01*
X331477Y147153D01*
X331504Y147179D01*
X331504Y147178D02*
X331594Y147268D01*
X331860Y148253D02*
X331501Y148612D01*
X331471Y148644D01*
X331444Y148680D01*
X331420Y148717D01*
X331400Y148756D01*
X331383Y148797D01*
X331369Y148840D01*
X331360Y148883D01*
X331354Y148927D01*
X331352Y148971D01*
X331354Y149015D01*
X331360Y149059D01*
X331369Y149102D01*
X331383Y149145D01*
X331400Y149186D01*
X331420Y149225D01*
X331444Y149262D01*
X331471Y149298D01*
X331501Y149330D01*
X331533Y149360D01*
X331569Y149387D01*
X331606Y149411D01*
X331645Y149431D01*
X331686Y149448D01*
X331729Y149462D01*
X331772Y149471D01*
X331816Y149477D01*
X331860Y149479D01*
X331904Y149477D01*
X331948Y149471D01*
X331991Y149462D01*
X332034Y149448D01*
X332075Y149431D01*
X332114Y149411D01*
X332151Y149387D01*
X332187Y149360D01*
X332219Y149330D01*
X332578Y148971D01*
X332608Y148939D01*
X332635Y148903D01*
X332659Y148866D01*
X332679Y148827D01*
X332696Y148786D01*
X332710Y148743D01*
X332719Y148700D01*
X332725Y148656D01*
X332727Y148612D01*
X332725Y148568D01*
X332719Y148524D01*
X332710Y148481D01*
X332696Y148438D01*
X332679Y148397D01*
X332659Y148358D01*
X332635Y148321D01*
X332608Y148285D01*
X332578Y148253D01*
X332546Y148223D01*
X332510Y148196D01*
X332473Y148172D01*
X332434Y148152D01*
X332393Y148135D01*
X332350Y148121D01*
X332307Y148112D01*
X332263Y148106D01*
X332219Y148104D01*
X332175Y148106D01*
X332131Y148112D01*
X332088Y148121D01*
X332045Y148135D01*
X332004Y148152D01*
X331965Y148172D01*
X331928Y148196D01*
X331892Y148223D01*
X331860Y148253D01*
X333988Y150920D02*
X334617Y151189D01*
X333989Y150920D02*
X333956Y150908D01*
X333922Y150899D01*
X333887Y150894D01*
X333852Y150893D01*
X333817Y150896D01*
X333782Y150902D01*
X333749Y150912D01*
X333716Y150926D01*
X333685Y150943D01*
X333657Y150963D01*
X333630Y150986D01*
X333606Y151011D01*
X333585Y151039D01*
X333567Y151070D01*
X333553Y151102D01*
X333542Y151135D01*
X333534Y151169D01*
X333530Y151204D01*
X333530Y151239D01*
X333534Y151274D01*
X333542Y151308D01*
X333553Y151342D01*
X333567Y151374D01*
X333585Y151404D01*
X333606Y151432D01*
X333630Y151458D01*
X333629Y151459D02*
X333683Y151509D01*
X333740Y151556D01*
X333799Y151600D01*
X333860Y151642D01*
X333923Y151680D01*
X333988Y151714D01*
X334055Y151746D01*
X334123Y151773D01*
X334617Y151188D02*
X334650Y151200D01*
X334684Y151209D01*
X334719Y151214D01*
X334754Y151215D01*
X334789Y151212D01*
X334824Y151206D01*
X334857Y151196D01*
X334890Y151182D01*
X334921Y151165D01*
X334949Y151145D01*
X334976Y151122D01*
X335000Y151097D01*
X335021Y151068D01*
X335039Y151038D01*
X335053Y151006D01*
X335064Y150973D01*
X335072Y150939D01*
X335076Y150904D01*
X335076Y150869D01*
X335072Y150834D01*
X335064Y150800D01*
X335053Y150766D01*
X335039Y150734D01*
X335021Y150704D01*
X335000Y150676D01*
X334976Y150650D01*
X334911Y150589D01*
X334843Y150531D01*
X334773Y150476D01*
X334701Y150424D01*
X334627Y150375D01*
X334550Y150329D01*
X334472Y150286D01*
X334393Y150246D01*
X334665Y152494D02*
X335204Y153033D01*
X334306Y153213D02*
X335653Y151866D01*
X335680Y151840D01*
X335710Y151818D01*
X335742Y151799D01*
X335776Y151783D01*
X335811Y151770D01*
X335848Y151761D01*
X335885Y151756D01*
X335922Y151754D01*
X335959Y151756D01*
X335996Y151761D01*
X336033Y151770D01*
X336068Y151783D01*
X336102Y151799D01*
X336134Y151818D01*
X336164Y151840D01*
X336191Y151866D01*
X336192Y151866D02*
X336281Y151956D01*
X336583Y153514D02*
X336987Y153919D01*
X336583Y153514D02*
X336555Y153484D01*
X336531Y153451D01*
X336509Y153416D01*
X336491Y153379D01*
X336476Y153341D01*
X336465Y153302D01*
X336457Y153261D01*
X336453Y153220D01*
X336453Y153179D01*
X336457Y153139D01*
X336465Y153098D01*
X336476Y153059D01*
X336491Y153021D01*
X336509Y152984D01*
X336531Y152949D01*
X336555Y152916D01*
X336583Y152886D01*
X336613Y152858D01*
X336646Y152834D01*
X336681Y152812D01*
X336718Y152794D01*
X336756Y152779D01*
X336795Y152768D01*
X336836Y152760D01*
X336876Y152756D01*
X336917Y152756D01*
X336958Y152760D01*
X336999Y152768D01*
X337038Y152779D01*
X337076Y152794D01*
X337113Y152812D01*
X337148Y152834D01*
X337181Y152858D01*
X337211Y152886D01*
X337212Y152886D02*
X337616Y153290D01*
X336808Y154098D01*
X336807Y154098D02*
X336780Y154124D01*
X336750Y154146D01*
X336718Y154165D01*
X336684Y154181D01*
X336649Y154194D01*
X336612Y154203D01*
X336575Y154208D01*
X336538Y154210D01*
X336501Y154208D01*
X336464Y154203D01*
X336427Y154194D01*
X336392Y154181D01*
X336358Y154165D01*
X336326Y154146D01*
X336296Y154124D01*
X336269Y154098D01*
X335910Y153739D01*
X337348Y155178D02*
X338426Y154100D01*
X337348Y155178D02*
X337887Y155717D01*
X338067Y155537D01*
X338275Y156104D02*
X338814Y156643D01*
X337916Y156823D02*
X339263Y155476D01*
X339290Y155450D01*
X339320Y155428D01*
X339352Y155409D01*
X339386Y155393D01*
X339421Y155380D01*
X339458Y155371D01*
X339495Y155366D01*
X339532Y155364D01*
X339569Y155366D01*
X339606Y155371D01*
X339643Y155380D01*
X339678Y155393D01*
X339712Y155409D01*
X339744Y155428D01*
X339774Y155450D01*
X339801Y155476D01*
X339802Y155476D02*
X339891Y155565D01*
X341630Y157304D02*
X340283Y158112D01*
X341181Y158292D02*
X341630Y157304D01*
X342169Y157843D02*
X341181Y158292D01*
X341361Y159190D02*
X342169Y157843D01*
X343085Y158759D02*
X342007Y159837D01*
X341513Y160241D02*
X341424Y160331D01*
X341513Y160420D01*
X341603Y160331D01*
X341513Y160241D01*
X342531Y160361D02*
X343070Y160900D01*
X342172Y161079D02*
X343519Y159732D01*
X343520Y159733D02*
X343547Y159707D01*
X343577Y159685D01*
X343609Y159666D01*
X343643Y159650D01*
X343678Y159637D01*
X343715Y159628D01*
X343752Y159623D01*
X343789Y159621D01*
X343826Y159623D01*
X343863Y159628D01*
X343900Y159637D01*
X343935Y159650D01*
X343969Y159666D01*
X344001Y159685D01*
X344031Y159707D01*
X344058Y159733D01*
X344058Y159732D02*
X344148Y159822D01*
X344827Y160501D02*
X343211Y162118D01*
X343749Y161579D02*
X344198Y162028D01*
X344199Y162027D02*
X344226Y162053D01*
X344256Y162075D01*
X344288Y162094D01*
X344322Y162110D01*
X344357Y162123D01*
X344394Y162132D01*
X344431Y162137D01*
X344468Y162139D01*
X344505Y162137D01*
X344542Y162132D01*
X344579Y162123D01*
X344614Y162110D01*
X344648Y162094D01*
X344680Y162075D01*
X344710Y162053D01*
X344737Y162027D01*
X344737Y162028D02*
X345545Y161219D01*
X259488Y43092D02*
X258169Y42161D01*
X259488Y43092D02*
X258169Y44023D01*
X259488Y43092D02*
X260963Y43092D01*
X260342Y45031D02*
X259721Y45031D01*
X259672Y45033D01*
X259624Y45039D01*
X259576Y45048D01*
X259529Y45061D01*
X259483Y45078D01*
X259439Y45099D01*
X259397Y45123D01*
X259356Y45150D01*
X259318Y45180D01*
X259282Y45213D01*
X259249Y45249D01*
X259219Y45287D01*
X259192Y45328D01*
X259168Y45370D01*
X259147Y45414D01*
X259130Y45460D01*
X259117Y45507D01*
X259108Y45555D01*
X259102Y45603D01*
X259100Y45652D01*
X259102Y45701D01*
X259108Y45749D01*
X259117Y45797D01*
X259130Y45844D01*
X259147Y45890D01*
X259168Y45934D01*
X259192Y45976D01*
X259219Y46017D01*
X259249Y46055D01*
X259282Y46091D01*
X259318Y46124D01*
X259356Y46154D01*
X259397Y46181D01*
X259439Y46205D01*
X259483Y46226D01*
X259529Y46243D01*
X259576Y46256D01*
X259624Y46265D01*
X259672Y46271D01*
X259721Y46273D01*
X260342Y46273D01*
X260391Y46271D01*
X260439Y46265D01*
X260487Y46256D01*
X260534Y46243D01*
X260580Y46226D01*
X260624Y46205D01*
X260666Y46181D01*
X260707Y46154D01*
X260745Y46124D01*
X260781Y46091D01*
X260814Y46055D01*
X260844Y46017D01*
X260871Y45976D01*
X260895Y45934D01*
X260916Y45890D01*
X260933Y45844D01*
X260946Y45797D01*
X260955Y45749D01*
X260961Y45701D01*
X260963Y45652D01*
X260961Y45603D01*
X260955Y45555D01*
X260946Y45507D01*
X260933Y45460D01*
X260916Y45414D01*
X260895Y45370D01*
X260871Y45328D01*
X260844Y45287D01*
X260814Y45249D01*
X260781Y45213D01*
X260745Y45180D01*
X260707Y45150D01*
X260666Y45123D01*
X260624Y45099D01*
X260580Y45078D01*
X260534Y45061D01*
X260487Y45048D01*
X260439Y45039D01*
X260391Y45033D01*
X260342Y45031D01*
X260497Y47500D02*
X259100Y47500D01*
X260497Y47500D02*
X260538Y47502D01*
X260578Y47507D01*
X260618Y47516D01*
X260656Y47528D01*
X260694Y47544D01*
X260730Y47562D01*
X260764Y47584D01*
X260797Y47609D01*
X260827Y47636D01*
X260854Y47666D01*
X260879Y47699D01*
X260901Y47733D01*
X260919Y47769D01*
X260935Y47807D01*
X260947Y47845D01*
X260956Y47885D01*
X260961Y47925D01*
X260963Y47966D01*
X260963Y48742D01*
X259100Y48742D01*
X259876Y51665D02*
X260187Y52441D01*
X259876Y51665D02*
X259860Y51630D01*
X259841Y51596D01*
X259819Y51565D01*
X259793Y51536D01*
X259766Y51510D01*
X259735Y51486D01*
X259703Y51465D01*
X259669Y51448D01*
X259633Y51434D01*
X259596Y51423D01*
X259558Y51416D01*
X259520Y51412D01*
X259481Y51413D01*
X259443Y51416D01*
X259405Y51424D01*
X259369Y51435D01*
X259333Y51450D01*
X259299Y51468D01*
X259267Y51489D01*
X259237Y51513D01*
X259209Y51540D01*
X259184Y51569D01*
X259162Y51600D01*
X259144Y51634D01*
X259128Y51669D01*
X259116Y51706D01*
X259107Y51743D01*
X259102Y51781D01*
X259101Y51820D01*
X259100Y51820D02*
X259103Y51900D01*
X259110Y51980D01*
X259120Y52059D01*
X259134Y52138D01*
X259151Y52216D01*
X259172Y52294D01*
X259196Y52370D01*
X259224Y52445D01*
X259255Y52519D01*
X260188Y52441D02*
X260204Y52476D01*
X260223Y52510D01*
X260245Y52541D01*
X260271Y52570D01*
X260298Y52596D01*
X260329Y52620D01*
X260361Y52641D01*
X260395Y52658D01*
X260431Y52672D01*
X260468Y52683D01*
X260506Y52690D01*
X260544Y52694D01*
X260583Y52693D01*
X260621Y52690D01*
X260659Y52682D01*
X260695Y52671D01*
X260731Y52656D01*
X260765Y52638D01*
X260797Y52617D01*
X260827Y52593D01*
X260855Y52566D01*
X260880Y52537D01*
X260902Y52506D01*
X260920Y52472D01*
X260936Y52437D01*
X260948Y52400D01*
X260957Y52363D01*
X260962Y52325D01*
X260963Y52286D01*
X260964Y52285D02*
X260961Y52189D01*
X260954Y52092D01*
X260944Y51996D01*
X260930Y51900D01*
X260912Y51804D01*
X260892Y51710D01*
X260867Y51616D01*
X260840Y51523D01*
X260808Y51432D01*
X261894Y53915D02*
X259100Y53915D01*
X259100Y54691D01*
X259102Y54732D01*
X259107Y54772D01*
X259116Y54812D01*
X259128Y54850D01*
X259144Y54888D01*
X259162Y54924D01*
X259184Y54958D01*
X259209Y54991D01*
X259236Y55021D01*
X259266Y55048D01*
X259299Y55073D01*
X259333Y55095D01*
X259369Y55113D01*
X259407Y55129D01*
X259445Y55141D01*
X259485Y55150D01*
X259525Y55155D01*
X259566Y55157D01*
X260497Y55157D01*
X260538Y55155D01*
X260578Y55150D01*
X260618Y55141D01*
X260656Y55129D01*
X260694Y55113D01*
X260730Y55095D01*
X260764Y55073D01*
X260797Y55048D01*
X260827Y55021D01*
X260854Y54991D01*
X260879Y54958D01*
X260901Y54924D01*
X260919Y54888D01*
X260935Y54850D01*
X260947Y54812D01*
X260956Y54772D01*
X260961Y54732D01*
X260963Y54691D01*
X260963Y53915D01*
X260963Y56259D02*
X259100Y56259D01*
X258324Y56182D02*
X258169Y56182D01*
X258169Y56337D01*
X258324Y56337D01*
X258324Y56182D01*
X259100Y57467D02*
X260963Y57467D01*
X259100Y57467D02*
X259100Y58243D01*
X259102Y58284D01*
X259107Y58324D01*
X259116Y58364D01*
X259128Y58402D01*
X259144Y58440D01*
X259162Y58476D01*
X259184Y58510D01*
X259209Y58543D01*
X259236Y58573D01*
X259266Y58600D01*
X259299Y58625D01*
X259333Y58647D01*
X259369Y58665D01*
X259407Y58681D01*
X259445Y58693D01*
X259485Y58702D01*
X259525Y58707D01*
X259566Y58709D01*
X260963Y58709D01*
X260963Y61546D02*
X259100Y61546D01*
X259100Y62943D01*
X259102Y62984D01*
X259107Y63024D01*
X259116Y63064D01*
X259128Y63102D01*
X259144Y63140D01*
X259162Y63176D01*
X259184Y63210D01*
X259209Y63243D01*
X259236Y63273D01*
X259266Y63300D01*
X259299Y63325D01*
X259333Y63347D01*
X259369Y63365D01*
X259407Y63381D01*
X259445Y63393D01*
X259485Y63402D01*
X259525Y63407D01*
X259566Y63409D01*
X259566Y63408D02*
X260963Y63408D01*
X260963Y62477D02*
X259100Y62477D01*
X260963Y65156D02*
X260963Y65933D01*
X260963Y65156D02*
X260961Y65113D01*
X260955Y65070D01*
X260945Y65028D01*
X260932Y64988D01*
X260914Y64948D01*
X260893Y64911D01*
X260869Y64875D01*
X260841Y64842D01*
X260811Y64812D01*
X260778Y64784D01*
X260742Y64760D01*
X260705Y64739D01*
X260665Y64721D01*
X260625Y64708D01*
X260583Y64698D01*
X260540Y64692D01*
X260497Y64690D01*
X260497Y64691D02*
X259721Y64691D01*
X259672Y64693D01*
X259624Y64699D01*
X259576Y64708D01*
X259529Y64721D01*
X259483Y64738D01*
X259439Y64759D01*
X259397Y64783D01*
X259356Y64810D01*
X259318Y64840D01*
X259282Y64873D01*
X259249Y64909D01*
X259219Y64947D01*
X259192Y64988D01*
X259168Y65030D01*
X259147Y65074D01*
X259130Y65120D01*
X259117Y65167D01*
X259108Y65215D01*
X259102Y65263D01*
X259100Y65312D01*
X259102Y65361D01*
X259108Y65409D01*
X259117Y65457D01*
X259130Y65504D01*
X259147Y65550D01*
X259168Y65594D01*
X259192Y65636D01*
X259219Y65677D01*
X259249Y65715D01*
X259282Y65751D01*
X259318Y65784D01*
X259356Y65814D01*
X259397Y65841D01*
X259439Y65865D01*
X259483Y65886D01*
X259529Y65903D01*
X259576Y65916D01*
X259624Y65925D01*
X259672Y65931D01*
X259721Y65933D01*
X260032Y65933D01*
X260032Y64691D01*
X260963Y68639D02*
X259100Y68639D01*
X259100Y69570D01*
X259411Y69570D01*
X259100Y70432D02*
X260963Y70432D01*
X258324Y70355D02*
X258169Y70355D01*
X258169Y70510D01*
X258324Y70510D01*
X258324Y70355D01*
X260963Y72000D02*
X260963Y72776D01*
X260963Y72000D02*
X260961Y71957D01*
X260955Y71914D01*
X260945Y71872D01*
X260932Y71832D01*
X260914Y71792D01*
X260893Y71755D01*
X260869Y71719D01*
X260841Y71686D01*
X260811Y71656D01*
X260778Y71628D01*
X260742Y71604D01*
X260705Y71583D01*
X260665Y71565D01*
X260625Y71552D01*
X260583Y71542D01*
X260540Y71536D01*
X260497Y71534D01*
X259566Y71534D01*
X259525Y71536D01*
X259485Y71541D01*
X259445Y71550D01*
X259407Y71562D01*
X259369Y71578D01*
X259333Y71596D01*
X259299Y71618D01*
X259266Y71643D01*
X259236Y71670D01*
X259209Y71700D01*
X259184Y71733D01*
X259162Y71767D01*
X259144Y71803D01*
X259128Y71841D01*
X259116Y71879D01*
X259107Y71919D01*
X259102Y71959D01*
X259100Y72000D01*
X259100Y72776D01*
X261429Y72776D01*
X261470Y72774D01*
X261510Y72769D01*
X261550Y72760D01*
X261588Y72748D01*
X261626Y72732D01*
X261662Y72714D01*
X261696Y72692D01*
X261729Y72667D01*
X261759Y72640D01*
X261786Y72610D01*
X261811Y72577D01*
X261833Y72543D01*
X261851Y72507D01*
X261867Y72469D01*
X261879Y72431D01*
X261888Y72391D01*
X261893Y72351D01*
X261895Y72310D01*
X261894Y72310D02*
X261894Y71689D01*
X260963Y74109D02*
X258169Y74109D01*
X259100Y74109D02*
X259100Y74885D01*
X259102Y74926D01*
X259107Y74966D01*
X259116Y75006D01*
X259128Y75044D01*
X259144Y75082D01*
X259162Y75118D01*
X259184Y75152D01*
X259209Y75185D01*
X259236Y75215D01*
X259266Y75242D01*
X259299Y75267D01*
X259333Y75289D01*
X259369Y75307D01*
X259407Y75323D01*
X259445Y75335D01*
X259485Y75344D01*
X259525Y75349D01*
X259566Y75351D01*
X260963Y75351D01*
X259100Y76345D02*
X259100Y77276D01*
X258169Y76655D02*
X260497Y76655D01*
X260538Y76657D01*
X260578Y76662D01*
X260618Y76671D01*
X260656Y76683D01*
X260694Y76699D01*
X260730Y76717D01*
X260764Y76739D01*
X260797Y76764D01*
X260827Y76791D01*
X260854Y76821D01*
X260879Y76854D01*
X260901Y76888D01*
X260919Y76924D01*
X260935Y76962D01*
X260947Y77000D01*
X260956Y77040D01*
X260961Y77080D01*
X260963Y77121D01*
X260963Y77276D01*
X258169Y79576D02*
X257548Y79576D01*
X259100Y80617D02*
X260963Y80617D01*
X259100Y80617D02*
X259100Y81549D01*
X259411Y81549D01*
X259721Y82430D02*
X260342Y82430D01*
X259721Y82430D02*
X259672Y82432D01*
X259624Y82438D01*
X259576Y82447D01*
X259529Y82460D01*
X259483Y82477D01*
X259439Y82498D01*
X259397Y82522D01*
X259356Y82549D01*
X259318Y82579D01*
X259282Y82612D01*
X259249Y82648D01*
X259219Y82686D01*
X259192Y82727D01*
X259168Y82769D01*
X259147Y82813D01*
X259130Y82859D01*
X259117Y82906D01*
X259108Y82954D01*
X259102Y83002D01*
X259100Y83051D01*
X259102Y83100D01*
X259108Y83148D01*
X259117Y83196D01*
X259130Y83243D01*
X259147Y83289D01*
X259168Y83333D01*
X259192Y83375D01*
X259219Y83416D01*
X259249Y83454D01*
X259282Y83490D01*
X259318Y83523D01*
X259356Y83553D01*
X259397Y83580D01*
X259439Y83604D01*
X259483Y83625D01*
X259529Y83642D01*
X259576Y83655D01*
X259624Y83664D01*
X259672Y83670D01*
X259721Y83672D01*
X260342Y83672D01*
X260391Y83670D01*
X260439Y83664D01*
X260487Y83655D01*
X260534Y83642D01*
X260580Y83625D01*
X260624Y83604D01*
X260666Y83580D01*
X260707Y83553D01*
X260745Y83523D01*
X260781Y83490D01*
X260814Y83454D01*
X260844Y83416D01*
X260871Y83375D01*
X260895Y83333D01*
X260916Y83289D01*
X260933Y83243D01*
X260946Y83196D01*
X260955Y83148D01*
X260961Y83100D01*
X260963Y83051D01*
X260961Y83002D01*
X260955Y82954D01*
X260946Y82906D01*
X260933Y82859D01*
X260916Y82813D01*
X260895Y82769D01*
X260871Y82727D01*
X260844Y82686D01*
X260814Y82648D01*
X260781Y82612D01*
X260745Y82579D01*
X260707Y82549D01*
X260666Y82522D01*
X260624Y82498D01*
X260580Y82477D01*
X260534Y82460D01*
X260487Y82447D01*
X260439Y82438D01*
X260391Y82432D01*
X260342Y82430D01*
X260497Y84899D02*
X259100Y84899D01*
X260497Y84898D02*
X260538Y84900D01*
X260578Y84905D01*
X260618Y84914D01*
X260656Y84926D01*
X260694Y84942D01*
X260730Y84960D01*
X260764Y84982D01*
X260797Y85007D01*
X260827Y85034D01*
X260854Y85064D01*
X260879Y85097D01*
X260901Y85131D01*
X260919Y85167D01*
X260935Y85205D01*
X260947Y85243D01*
X260956Y85283D01*
X260961Y85323D01*
X260963Y85364D01*
X260963Y86141D01*
X259100Y86141D01*
X259100Y87459D02*
X260963Y87459D01*
X259100Y87459D02*
X259100Y88235D01*
X259102Y88276D01*
X259107Y88316D01*
X259116Y88356D01*
X259128Y88394D01*
X259144Y88432D01*
X259162Y88468D01*
X259184Y88502D01*
X259209Y88535D01*
X259236Y88565D01*
X259266Y88592D01*
X259299Y88617D01*
X259333Y88639D01*
X259369Y88657D01*
X259407Y88673D01*
X259445Y88685D01*
X259485Y88694D01*
X259525Y88699D01*
X259566Y88701D01*
X260963Y88701D01*
X260963Y91155D02*
X258169Y91155D01*
X260963Y91155D02*
X260963Y90379D01*
X260961Y90336D01*
X260955Y90293D01*
X260945Y90251D01*
X260932Y90211D01*
X260914Y90171D01*
X260893Y90134D01*
X260869Y90098D01*
X260841Y90065D01*
X260811Y90035D01*
X260778Y90007D01*
X260742Y89983D01*
X260705Y89962D01*
X260665Y89944D01*
X260625Y89931D01*
X260583Y89921D01*
X260540Y89915D01*
X260497Y89913D01*
X260497Y89914D02*
X259566Y89914D01*
X259566Y89913D02*
X259525Y89915D01*
X259485Y89920D01*
X259445Y89929D01*
X259407Y89941D01*
X259369Y89957D01*
X259333Y89975D01*
X259299Y89997D01*
X259266Y90022D01*
X259236Y90049D01*
X259209Y90079D01*
X259184Y90112D01*
X259162Y90146D01*
X259144Y90182D01*
X259128Y90220D01*
X259116Y90258D01*
X259107Y90298D01*
X259102Y90338D01*
X259100Y90379D01*
X259100Y91155D01*
X260963Y92289D02*
X260963Y92445D01*
X260963Y92289D02*
X260808Y92289D01*
X260808Y92445D01*
X260963Y92445D01*
X261584Y92212D01*
X260963Y95063D02*
X258169Y95063D01*
X260963Y95063D02*
X260963Y95839D01*
X260961Y95880D01*
X260956Y95920D01*
X260947Y95960D01*
X260935Y95998D01*
X260919Y96036D01*
X260901Y96072D01*
X260879Y96106D01*
X260854Y96139D01*
X260827Y96169D01*
X260797Y96196D01*
X260764Y96221D01*
X260730Y96243D01*
X260694Y96261D01*
X260656Y96277D01*
X260618Y96289D01*
X260578Y96298D01*
X260538Y96303D01*
X260497Y96305D01*
X259566Y96305D01*
X259523Y96303D01*
X259480Y96297D01*
X259438Y96287D01*
X259398Y96274D01*
X259358Y96256D01*
X259321Y96235D01*
X259285Y96211D01*
X259252Y96183D01*
X259222Y96153D01*
X259194Y96120D01*
X259170Y96084D01*
X259149Y96047D01*
X259131Y96007D01*
X259118Y95967D01*
X259108Y95925D01*
X259102Y95882D01*
X259100Y95839D01*
X259100Y95063D01*
X259876Y97955D02*
X259876Y98653D01*
X259877Y97955D02*
X259879Y97910D01*
X259884Y97866D01*
X259894Y97822D01*
X259906Y97779D01*
X259923Y97737D01*
X259942Y97697D01*
X259965Y97658D01*
X259991Y97621D01*
X260021Y97587D01*
X260052Y97556D01*
X260086Y97526D01*
X260123Y97500D01*
X260162Y97477D01*
X260202Y97458D01*
X260244Y97441D01*
X260287Y97429D01*
X260331Y97419D01*
X260375Y97414D01*
X260420Y97412D01*
X260465Y97414D01*
X260509Y97419D01*
X260553Y97429D01*
X260596Y97441D01*
X260638Y97458D01*
X260678Y97477D01*
X260717Y97500D01*
X260754Y97526D01*
X260788Y97556D01*
X260819Y97587D01*
X260849Y97621D01*
X260875Y97658D01*
X260898Y97697D01*
X260917Y97737D01*
X260934Y97779D01*
X260946Y97822D01*
X260956Y97866D01*
X260961Y97910D01*
X260963Y97955D01*
X260963Y98653D01*
X259566Y98653D01*
X259566Y98654D02*
X259523Y98652D01*
X259480Y98646D01*
X259438Y98636D01*
X259398Y98623D01*
X259358Y98605D01*
X259321Y98584D01*
X259285Y98560D01*
X259252Y98532D01*
X259222Y98502D01*
X259194Y98469D01*
X259170Y98433D01*
X259149Y98396D01*
X259131Y98356D01*
X259118Y98316D01*
X259108Y98274D01*
X259102Y98231D01*
X259100Y98188D01*
X259100Y97567D01*
X258169Y100001D02*
X260963Y100001D01*
X260963Y100777D01*
X260961Y100818D01*
X260956Y100858D01*
X260947Y100898D01*
X260935Y100936D01*
X260919Y100974D01*
X260901Y101010D01*
X260879Y101044D01*
X260854Y101077D01*
X260827Y101107D01*
X260797Y101134D01*
X260764Y101159D01*
X260730Y101181D01*
X260694Y101199D01*
X260656Y101215D01*
X260618Y101227D01*
X260578Y101236D01*
X260538Y101241D01*
X260497Y101243D01*
X260497Y101242D02*
X259566Y101242D01*
X259566Y101243D02*
X259523Y101241D01*
X259480Y101235D01*
X259438Y101225D01*
X259398Y101212D01*
X259358Y101194D01*
X259321Y101173D01*
X259285Y101149D01*
X259252Y101121D01*
X259222Y101091D01*
X259194Y101058D01*
X259170Y101022D01*
X259149Y100985D01*
X259131Y100945D01*
X259118Y100905D01*
X259108Y100863D01*
X259102Y100820D01*
X259100Y100777D01*
X259100Y100001D01*
X261894Y102272D02*
X261894Y102583D01*
X259100Y103514D01*
X259100Y102272D02*
X260963Y102893D01*
X265053Y99154D02*
X265053Y96360D01*
X265053Y99154D02*
X265829Y99154D01*
X265884Y99152D01*
X265939Y99146D01*
X265994Y99136D01*
X266048Y99123D01*
X266100Y99105D01*
X266151Y99084D01*
X266201Y99059D01*
X266249Y99031D01*
X266294Y98999D01*
X266337Y98964D01*
X266378Y98927D01*
X266415Y98886D01*
X266450Y98843D01*
X266482Y98798D01*
X266510Y98750D01*
X266535Y98700D01*
X266556Y98649D01*
X266574Y98597D01*
X266587Y98543D01*
X266597Y98488D01*
X266603Y98433D01*
X266605Y98378D01*
X266603Y98323D01*
X266597Y98268D01*
X266587Y98213D01*
X266574Y98159D01*
X266556Y98107D01*
X266535Y98056D01*
X266510Y98006D01*
X266482Y97958D01*
X266450Y97913D01*
X266415Y97870D01*
X266378Y97829D01*
X266337Y97792D01*
X266294Y97757D01*
X266249Y97725D01*
X266201Y97697D01*
X266151Y97672D01*
X266100Y97651D01*
X266048Y97633D01*
X265994Y97620D01*
X265939Y97610D01*
X265884Y97604D01*
X265829Y97602D01*
X265053Y97602D01*
X265984Y97602D02*
X266605Y96360D01*
X267731Y96360D02*
X267731Y98222D01*
X267653Y98999D02*
X267653Y99154D01*
X267809Y99154D01*
X267809Y98999D01*
X267653Y98999D01*
X269299Y96360D02*
X270075Y96360D01*
X269299Y96359D02*
X269258Y96361D01*
X269218Y96366D01*
X269178Y96375D01*
X269140Y96387D01*
X269102Y96403D01*
X269066Y96421D01*
X269032Y96443D01*
X268999Y96468D01*
X268969Y96495D01*
X268942Y96525D01*
X268917Y96558D01*
X268895Y96592D01*
X268877Y96628D01*
X268861Y96666D01*
X268849Y96704D01*
X268840Y96744D01*
X268835Y96784D01*
X268833Y96825D01*
X268833Y97757D01*
X268835Y97798D01*
X268840Y97838D01*
X268849Y97878D01*
X268861Y97916D01*
X268877Y97954D01*
X268895Y97990D01*
X268917Y98024D01*
X268942Y98057D01*
X268969Y98087D01*
X268999Y98114D01*
X269032Y98139D01*
X269066Y98161D01*
X269102Y98179D01*
X269140Y98195D01*
X269178Y98207D01*
X269218Y98216D01*
X269258Y98221D01*
X269299Y98223D01*
X269299Y98222D02*
X270075Y98222D01*
X270075Y95894D01*
X270073Y95851D01*
X270067Y95808D01*
X270057Y95766D01*
X270044Y95726D01*
X270026Y95686D01*
X270005Y95649D01*
X269981Y95613D01*
X269953Y95580D01*
X269923Y95550D01*
X269890Y95522D01*
X269854Y95498D01*
X269817Y95477D01*
X269777Y95459D01*
X269737Y95446D01*
X269695Y95436D01*
X269652Y95430D01*
X269609Y95428D01*
X269609Y95429D02*
X268988Y95429D01*
X271408Y96360D02*
X271408Y99154D01*
X271408Y98222D02*
X272184Y98222D01*
X272184Y98223D02*
X272225Y98221D01*
X272265Y98216D01*
X272305Y98207D01*
X272343Y98195D01*
X272381Y98179D01*
X272417Y98161D01*
X272451Y98139D01*
X272484Y98114D01*
X272514Y98087D01*
X272541Y98057D01*
X272566Y98024D01*
X272588Y97990D01*
X272606Y97954D01*
X272622Y97916D01*
X272634Y97878D01*
X272643Y97838D01*
X272648Y97798D01*
X272650Y97757D01*
X272650Y96360D01*
X273643Y98222D02*
X274575Y98222D01*
X273954Y99154D02*
X273954Y96825D01*
X273956Y96784D01*
X273961Y96744D01*
X273970Y96704D01*
X273982Y96666D01*
X273998Y96628D01*
X274016Y96592D01*
X274038Y96558D01*
X274063Y96525D01*
X274090Y96495D01*
X274120Y96468D01*
X274153Y96443D01*
X274187Y96421D01*
X274223Y96403D01*
X274261Y96387D01*
X274299Y96375D01*
X274339Y96366D01*
X274379Y96361D01*
X274420Y96359D01*
X274420Y96360D02*
X274575Y96360D01*
X276875Y99154D02*
X276875Y99775D01*
X277916Y98222D02*
X277916Y96360D01*
X277916Y98222D02*
X278848Y98222D01*
X278848Y97912D01*
X279729Y97602D02*
X279729Y96981D01*
X279729Y97602D02*
X279731Y97651D01*
X279737Y97699D01*
X279746Y97747D01*
X279759Y97794D01*
X279776Y97840D01*
X279797Y97884D01*
X279821Y97926D01*
X279848Y97967D01*
X279878Y98005D01*
X279911Y98041D01*
X279947Y98074D01*
X279985Y98104D01*
X280026Y98131D01*
X280068Y98155D01*
X280112Y98176D01*
X280158Y98193D01*
X280205Y98206D01*
X280253Y98215D01*
X280301Y98221D01*
X280350Y98223D01*
X280399Y98221D01*
X280447Y98215D01*
X280495Y98206D01*
X280542Y98193D01*
X280588Y98176D01*
X280632Y98155D01*
X280674Y98131D01*
X280715Y98104D01*
X280753Y98074D01*
X280789Y98041D01*
X280822Y98005D01*
X280852Y97967D01*
X280879Y97926D01*
X280903Y97884D01*
X280924Y97840D01*
X280941Y97794D01*
X280954Y97747D01*
X280963Y97699D01*
X280969Y97651D01*
X280971Y97602D01*
X280970Y97602D02*
X280970Y96981D01*
X280971Y96981D02*
X280969Y96932D01*
X280963Y96884D01*
X280954Y96836D01*
X280941Y96789D01*
X280924Y96743D01*
X280903Y96699D01*
X280879Y96657D01*
X280852Y96616D01*
X280822Y96578D01*
X280789Y96542D01*
X280753Y96509D01*
X280715Y96479D01*
X280674Y96452D01*
X280632Y96428D01*
X280588Y96407D01*
X280542Y96390D01*
X280495Y96377D01*
X280447Y96368D01*
X280399Y96362D01*
X280350Y96360D01*
X280301Y96362D01*
X280253Y96368D01*
X280205Y96377D01*
X280158Y96390D01*
X280112Y96407D01*
X280068Y96428D01*
X280026Y96452D01*
X279985Y96479D01*
X279947Y96509D01*
X279911Y96542D01*
X279878Y96578D01*
X279848Y96616D01*
X279821Y96657D01*
X279797Y96699D01*
X279776Y96743D01*
X279759Y96789D01*
X279746Y96836D01*
X279737Y96884D01*
X279731Y96932D01*
X279729Y96981D01*
X282198Y96825D02*
X282198Y98222D01*
X282197Y96825D02*
X282199Y96784D01*
X282204Y96744D01*
X282213Y96704D01*
X282225Y96666D01*
X282241Y96628D01*
X282259Y96592D01*
X282281Y96558D01*
X282306Y96525D01*
X282333Y96495D01*
X282363Y96468D01*
X282396Y96443D01*
X282430Y96421D01*
X282466Y96403D01*
X282504Y96387D01*
X282542Y96375D01*
X282582Y96366D01*
X282622Y96361D01*
X282663Y96359D01*
X282663Y96360D02*
X283439Y96360D01*
X283439Y98222D01*
X284758Y98222D02*
X284758Y96360D01*
X284758Y98222D02*
X285534Y98222D01*
X285534Y98223D02*
X285575Y98221D01*
X285615Y98216D01*
X285655Y98207D01*
X285693Y98195D01*
X285731Y98179D01*
X285767Y98161D01*
X285801Y98139D01*
X285834Y98114D01*
X285864Y98087D01*
X285891Y98057D01*
X285916Y98024D01*
X285938Y97990D01*
X285956Y97954D01*
X285972Y97916D01*
X285984Y97878D01*
X285993Y97838D01*
X285998Y97798D01*
X286000Y97757D01*
X286000Y96360D01*
X288454Y96360D02*
X288454Y99154D01*
X288454Y96360D02*
X287678Y96360D01*
X287678Y96359D02*
X287637Y96361D01*
X287597Y96366D01*
X287557Y96375D01*
X287519Y96387D01*
X287481Y96403D01*
X287445Y96421D01*
X287411Y96443D01*
X287378Y96468D01*
X287348Y96495D01*
X287321Y96525D01*
X287296Y96558D01*
X287274Y96592D01*
X287256Y96628D01*
X287240Y96666D01*
X287228Y96704D01*
X287219Y96744D01*
X287214Y96784D01*
X287212Y96825D01*
X287212Y97757D01*
X287214Y97798D01*
X287219Y97838D01*
X287228Y97878D01*
X287240Y97916D01*
X287256Y97954D01*
X287274Y97990D01*
X287296Y98024D01*
X287321Y98057D01*
X287348Y98087D01*
X287378Y98114D01*
X287411Y98139D01*
X287445Y98161D01*
X287481Y98179D01*
X287519Y98195D01*
X287557Y98207D01*
X287597Y98216D01*
X287637Y98221D01*
X287678Y98223D01*
X287678Y98222D02*
X288454Y98222D01*
X291193Y99154D02*
X291193Y96825D01*
X291195Y96784D01*
X291200Y96744D01*
X291209Y96704D01*
X291221Y96666D01*
X291237Y96628D01*
X291255Y96592D01*
X291277Y96558D01*
X291302Y96525D01*
X291329Y96495D01*
X291359Y96468D01*
X291392Y96443D01*
X291426Y96421D01*
X291462Y96403D01*
X291500Y96387D01*
X291538Y96375D01*
X291578Y96366D01*
X291618Y96361D01*
X291659Y96359D01*
X292602Y96360D02*
X292602Y98222D01*
X292525Y98999D02*
X292525Y99154D01*
X292680Y99154D01*
X292680Y98999D01*
X292525Y98999D01*
X293844Y99154D02*
X293844Y96360D01*
X293844Y97291D02*
X295085Y98222D01*
X294387Y97679D02*
X295085Y96360D01*
X296562Y96360D02*
X297338Y96360D01*
X296562Y96359D02*
X296521Y96361D01*
X296481Y96366D01*
X296441Y96375D01*
X296403Y96387D01*
X296365Y96403D01*
X296329Y96421D01*
X296295Y96443D01*
X296262Y96468D01*
X296232Y96495D01*
X296205Y96525D01*
X296180Y96558D01*
X296158Y96592D01*
X296140Y96628D01*
X296124Y96666D01*
X296112Y96704D01*
X296103Y96744D01*
X296098Y96784D01*
X296096Y96825D01*
X296096Y97602D01*
X296098Y97651D01*
X296104Y97699D01*
X296113Y97747D01*
X296126Y97794D01*
X296143Y97840D01*
X296164Y97884D01*
X296188Y97926D01*
X296215Y97967D01*
X296245Y98005D01*
X296278Y98041D01*
X296314Y98074D01*
X296352Y98104D01*
X296393Y98131D01*
X296435Y98155D01*
X296479Y98176D01*
X296525Y98193D01*
X296572Y98206D01*
X296620Y98215D01*
X296668Y98221D01*
X296717Y98223D01*
X296766Y98221D01*
X296814Y98215D01*
X296862Y98206D01*
X296909Y98193D01*
X296955Y98176D01*
X296999Y98155D01*
X297041Y98131D01*
X297082Y98104D01*
X297120Y98074D01*
X297156Y98041D01*
X297189Y98005D01*
X297219Y97967D01*
X297246Y97926D01*
X297270Y97884D01*
X297291Y97840D01*
X297308Y97794D01*
X297321Y97747D01*
X297330Y97699D01*
X297336Y97651D01*
X297338Y97602D01*
X297338Y97291D01*
X296096Y97291D01*
X300466Y97446D02*
X301164Y97446D01*
X300466Y97446D02*
X300421Y97444D01*
X300377Y97439D01*
X300333Y97429D01*
X300290Y97417D01*
X300248Y97400D01*
X300208Y97381D01*
X300169Y97358D01*
X300132Y97332D01*
X300098Y97302D01*
X300067Y97271D01*
X300037Y97237D01*
X300011Y97200D01*
X299988Y97161D01*
X299969Y97121D01*
X299952Y97079D01*
X299940Y97036D01*
X299930Y96992D01*
X299925Y96948D01*
X299923Y96903D01*
X299925Y96858D01*
X299930Y96814D01*
X299940Y96770D01*
X299952Y96727D01*
X299969Y96685D01*
X299988Y96645D01*
X300011Y96606D01*
X300037Y96569D01*
X300067Y96535D01*
X300098Y96504D01*
X300132Y96474D01*
X300169Y96448D01*
X300208Y96425D01*
X300248Y96406D01*
X300290Y96389D01*
X300333Y96377D01*
X300377Y96367D01*
X300421Y96362D01*
X300466Y96360D01*
X301164Y96360D01*
X301164Y97757D01*
X301162Y97798D01*
X301157Y97838D01*
X301148Y97878D01*
X301136Y97916D01*
X301120Y97954D01*
X301102Y97990D01*
X301080Y98024D01*
X301055Y98057D01*
X301028Y98087D01*
X300998Y98114D01*
X300965Y98139D01*
X300931Y98161D01*
X300895Y98179D01*
X300857Y98195D01*
X300819Y98207D01*
X300779Y98216D01*
X300739Y98221D01*
X300698Y98223D01*
X300698Y98222D02*
X300078Y98222D01*
X303976Y98222D02*
X303976Y96360D01*
X303976Y98222D02*
X304908Y98222D01*
X304908Y97912D01*
X306254Y96360D02*
X307031Y96360D01*
X306254Y96359D02*
X306213Y96361D01*
X306173Y96366D01*
X306133Y96375D01*
X306095Y96387D01*
X306057Y96403D01*
X306021Y96421D01*
X305987Y96443D01*
X305954Y96468D01*
X305924Y96495D01*
X305897Y96525D01*
X305872Y96558D01*
X305850Y96592D01*
X305832Y96628D01*
X305816Y96666D01*
X305804Y96704D01*
X305795Y96744D01*
X305790Y96784D01*
X305788Y96825D01*
X305789Y96825D02*
X305789Y97602D01*
X305791Y97651D01*
X305797Y97699D01*
X305806Y97747D01*
X305819Y97794D01*
X305836Y97840D01*
X305857Y97884D01*
X305881Y97926D01*
X305908Y97967D01*
X305938Y98005D01*
X305971Y98041D01*
X306007Y98074D01*
X306045Y98104D01*
X306086Y98131D01*
X306128Y98155D01*
X306172Y98176D01*
X306218Y98193D01*
X306265Y98206D01*
X306313Y98215D01*
X306361Y98221D01*
X306410Y98223D01*
X306459Y98221D01*
X306507Y98215D01*
X306555Y98206D01*
X306602Y98193D01*
X306648Y98176D01*
X306692Y98155D01*
X306734Y98131D01*
X306775Y98104D01*
X306813Y98074D01*
X306849Y98041D01*
X306882Y98005D01*
X306912Y97967D01*
X306939Y97926D01*
X306963Y97884D01*
X306984Y97840D01*
X307001Y97794D01*
X307014Y97747D01*
X307023Y97699D01*
X307029Y97651D01*
X307031Y97602D01*
X307031Y97291D01*
X305789Y97291D01*
X308635Y96360D02*
X309256Y96360D01*
X308635Y96359D02*
X308594Y96361D01*
X308554Y96366D01*
X308514Y96375D01*
X308476Y96387D01*
X308438Y96403D01*
X308402Y96421D01*
X308368Y96443D01*
X308335Y96468D01*
X308305Y96495D01*
X308278Y96525D01*
X308253Y96558D01*
X308231Y96592D01*
X308213Y96628D01*
X308197Y96666D01*
X308185Y96704D01*
X308176Y96744D01*
X308171Y96784D01*
X308169Y96825D01*
X308170Y96825D02*
X308170Y97757D01*
X308169Y97757D02*
X308171Y97798D01*
X308176Y97838D01*
X308185Y97878D01*
X308197Y97916D01*
X308213Y97954D01*
X308231Y97990D01*
X308253Y98024D01*
X308278Y98057D01*
X308305Y98087D01*
X308335Y98114D01*
X308368Y98139D01*
X308402Y98161D01*
X308438Y98179D01*
X308476Y98195D01*
X308514Y98207D01*
X308554Y98216D01*
X308594Y98221D01*
X308635Y98223D01*
X308635Y98222D02*
X309256Y98222D01*
X310269Y97602D02*
X310269Y96981D01*
X310269Y97602D02*
X310271Y97651D01*
X310277Y97699D01*
X310286Y97747D01*
X310299Y97794D01*
X310316Y97840D01*
X310337Y97884D01*
X310361Y97926D01*
X310388Y97967D01*
X310418Y98005D01*
X310451Y98041D01*
X310487Y98074D01*
X310525Y98104D01*
X310566Y98131D01*
X310608Y98155D01*
X310652Y98176D01*
X310698Y98193D01*
X310745Y98206D01*
X310793Y98215D01*
X310841Y98221D01*
X310890Y98223D01*
X310939Y98221D01*
X310987Y98215D01*
X311035Y98206D01*
X311082Y98193D01*
X311128Y98176D01*
X311172Y98155D01*
X311214Y98131D01*
X311255Y98104D01*
X311293Y98074D01*
X311329Y98041D01*
X311362Y98005D01*
X311392Y97967D01*
X311419Y97926D01*
X311443Y97884D01*
X311464Y97840D01*
X311481Y97794D01*
X311494Y97747D01*
X311503Y97699D01*
X311509Y97651D01*
X311511Y97602D01*
X311511Y96981D01*
X311509Y96932D01*
X311503Y96884D01*
X311494Y96836D01*
X311481Y96789D01*
X311464Y96743D01*
X311443Y96699D01*
X311419Y96657D01*
X311392Y96616D01*
X311362Y96578D01*
X311329Y96542D01*
X311293Y96509D01*
X311255Y96479D01*
X311214Y96452D01*
X311172Y96428D01*
X311128Y96407D01*
X311082Y96390D01*
X311035Y96377D01*
X310987Y96368D01*
X310939Y96362D01*
X310890Y96360D01*
X310841Y96362D01*
X310793Y96368D01*
X310745Y96377D01*
X310698Y96390D01*
X310652Y96407D01*
X310608Y96428D01*
X310566Y96452D01*
X310525Y96479D01*
X310487Y96509D01*
X310451Y96542D01*
X310418Y96578D01*
X310388Y96616D01*
X310361Y96657D01*
X310337Y96699D01*
X310316Y96743D01*
X310299Y96789D01*
X310286Y96836D01*
X310277Y96884D01*
X310271Y96932D01*
X310269Y96981D01*
X312754Y96360D02*
X312754Y98222D01*
X313686Y98222D01*
X313686Y97912D01*
X315794Y99154D02*
X315794Y96360D01*
X315018Y96360D01*
X315018Y96359D02*
X314977Y96361D01*
X314937Y96366D01*
X314897Y96375D01*
X314859Y96387D01*
X314821Y96403D01*
X314785Y96421D01*
X314751Y96443D01*
X314718Y96468D01*
X314688Y96495D01*
X314661Y96525D01*
X314636Y96558D01*
X314614Y96592D01*
X314596Y96628D01*
X314580Y96666D01*
X314568Y96704D01*
X314559Y96744D01*
X314554Y96784D01*
X314552Y96825D01*
X314553Y96825D02*
X314553Y97757D01*
X314552Y97757D02*
X314554Y97798D01*
X314559Y97838D01*
X314568Y97878D01*
X314580Y97916D01*
X314596Y97954D01*
X314614Y97990D01*
X314636Y98024D01*
X314661Y98057D01*
X314688Y98087D01*
X314718Y98114D01*
X314751Y98139D01*
X314785Y98161D01*
X314821Y98179D01*
X314859Y98195D01*
X314897Y98207D01*
X314937Y98216D01*
X314977Y98221D01*
X315018Y98223D01*
X315018Y98222D02*
X315794Y98222D01*
X316928Y96360D02*
X317084Y96360D01*
X316928Y96360D02*
X316928Y96515D01*
X317084Y96515D01*
X317084Y96360D01*
X316851Y95739D01*
X319702Y96360D02*
X319702Y99154D01*
X319702Y96360D02*
X320478Y96360D01*
X320478Y96359D02*
X320519Y96361D01*
X320559Y96366D01*
X320599Y96375D01*
X320637Y96387D01*
X320675Y96403D01*
X320711Y96421D01*
X320745Y96443D01*
X320778Y96468D01*
X320808Y96495D01*
X320835Y96525D01*
X320860Y96558D01*
X320882Y96592D01*
X320900Y96628D01*
X320916Y96666D01*
X320928Y96704D01*
X320937Y96744D01*
X320942Y96784D01*
X320944Y96825D01*
X320944Y97757D01*
X320942Y97798D01*
X320937Y97838D01*
X320928Y97878D01*
X320916Y97916D01*
X320900Y97954D01*
X320882Y97990D01*
X320860Y98024D01*
X320835Y98057D01*
X320808Y98087D01*
X320778Y98114D01*
X320745Y98139D01*
X320711Y98161D01*
X320675Y98179D01*
X320637Y98195D01*
X320599Y98207D01*
X320559Y98216D01*
X320519Y98221D01*
X320478Y98223D01*
X320478Y98222D02*
X319702Y98222D01*
X322594Y97446D02*
X323292Y97446D01*
X322594Y97446D02*
X322549Y97444D01*
X322505Y97439D01*
X322461Y97429D01*
X322418Y97417D01*
X322376Y97400D01*
X322336Y97381D01*
X322297Y97358D01*
X322260Y97332D01*
X322226Y97302D01*
X322195Y97271D01*
X322165Y97237D01*
X322139Y97200D01*
X322116Y97161D01*
X322097Y97121D01*
X322080Y97079D01*
X322068Y97036D01*
X322058Y96992D01*
X322053Y96948D01*
X322051Y96903D01*
X322053Y96858D01*
X322058Y96814D01*
X322068Y96770D01*
X322080Y96727D01*
X322097Y96685D01*
X322116Y96645D01*
X322139Y96606D01*
X322165Y96569D01*
X322195Y96535D01*
X322226Y96504D01*
X322260Y96474D01*
X322297Y96448D01*
X322336Y96425D01*
X322376Y96406D01*
X322418Y96389D01*
X322461Y96377D01*
X322505Y96367D01*
X322549Y96362D01*
X322594Y96360D01*
X323292Y96360D01*
X323292Y97757D01*
X323293Y97757D02*
X323291Y97798D01*
X323286Y97838D01*
X323277Y97878D01*
X323265Y97916D01*
X323249Y97954D01*
X323231Y97990D01*
X323209Y98024D01*
X323184Y98057D01*
X323157Y98087D01*
X323127Y98114D01*
X323094Y98139D01*
X323060Y98161D01*
X323024Y98179D01*
X322986Y98195D01*
X322948Y98207D01*
X322908Y98216D01*
X322868Y98221D01*
X322827Y98223D01*
X322827Y98222D02*
X322206Y98222D01*
X324640Y99154D02*
X324640Y96360D01*
X325416Y96360D01*
X325416Y96359D02*
X325457Y96361D01*
X325497Y96366D01*
X325537Y96375D01*
X325575Y96387D01*
X325613Y96403D01*
X325649Y96421D01*
X325683Y96443D01*
X325716Y96468D01*
X325746Y96495D01*
X325773Y96525D01*
X325798Y96558D01*
X325820Y96592D01*
X325838Y96628D01*
X325854Y96666D01*
X325866Y96704D01*
X325875Y96744D01*
X325880Y96784D01*
X325882Y96825D01*
X325881Y96825D02*
X325881Y97757D01*
X325882Y97757D02*
X325880Y97798D01*
X325875Y97838D01*
X325866Y97878D01*
X325854Y97916D01*
X325838Y97954D01*
X325820Y97990D01*
X325798Y98024D01*
X325773Y98057D01*
X325746Y98087D01*
X325716Y98114D01*
X325683Y98139D01*
X325649Y98161D01*
X325613Y98179D01*
X325575Y98195D01*
X325537Y98207D01*
X325497Y98216D01*
X325457Y98221D01*
X325416Y98223D01*
X325416Y98222D02*
X324640Y98222D01*
X326911Y95429D02*
X327222Y95429D01*
X328153Y98222D01*
X326911Y98222D02*
X327532Y96360D01*
X321519Y95619D02*
X318725Y95619D01*
X321519Y95619D02*
X321519Y94843D01*
X321517Y94788D01*
X321511Y94733D01*
X321501Y94678D01*
X321488Y94624D01*
X321470Y94572D01*
X321449Y94521D01*
X321424Y94471D01*
X321396Y94423D01*
X321364Y94378D01*
X321329Y94335D01*
X321292Y94294D01*
X321251Y94257D01*
X321208Y94222D01*
X321163Y94190D01*
X321115Y94162D01*
X321065Y94137D01*
X321014Y94116D01*
X320962Y94098D01*
X320908Y94085D01*
X320853Y94075D01*
X320798Y94069D01*
X320743Y94067D01*
X320688Y94069D01*
X320633Y94075D01*
X320578Y94085D01*
X320524Y94098D01*
X320472Y94116D01*
X320421Y94137D01*
X320371Y94162D01*
X320323Y94190D01*
X320278Y94222D01*
X320235Y94257D01*
X320194Y94294D01*
X320157Y94335D01*
X320122Y94378D01*
X320090Y94423D01*
X320062Y94471D01*
X320037Y94521D01*
X320016Y94572D01*
X319998Y94624D01*
X319985Y94678D01*
X319975Y94733D01*
X319969Y94788D01*
X319967Y94843D01*
X319967Y95619D01*
X319967Y94688D02*
X318725Y94067D01*
X318725Y92941D02*
X320588Y92941D01*
X321364Y93019D02*
X321519Y93019D01*
X321519Y92863D01*
X321364Y92863D01*
X321364Y93019D01*
X318725Y91373D02*
X318725Y90597D01*
X318725Y91373D02*
X318727Y91414D01*
X318732Y91454D01*
X318741Y91494D01*
X318753Y91532D01*
X318769Y91570D01*
X318787Y91606D01*
X318809Y91640D01*
X318834Y91673D01*
X318861Y91703D01*
X318891Y91730D01*
X318924Y91755D01*
X318958Y91777D01*
X318994Y91795D01*
X319032Y91811D01*
X319070Y91823D01*
X319110Y91832D01*
X319150Y91837D01*
X319191Y91839D01*
X320122Y91839D01*
X320163Y91837D01*
X320203Y91832D01*
X320243Y91823D01*
X320281Y91811D01*
X320319Y91795D01*
X320355Y91777D01*
X320389Y91755D01*
X320422Y91730D01*
X320452Y91703D01*
X320479Y91673D01*
X320504Y91640D01*
X320526Y91606D01*
X320544Y91570D01*
X320560Y91532D01*
X320572Y91494D01*
X320581Y91454D01*
X320586Y91414D01*
X320588Y91373D01*
X320588Y90597D01*
X318259Y90597D01*
X318218Y90599D01*
X318178Y90604D01*
X318138Y90613D01*
X318100Y90625D01*
X318062Y90641D01*
X318026Y90659D01*
X317992Y90681D01*
X317959Y90706D01*
X317929Y90733D01*
X317902Y90763D01*
X317877Y90796D01*
X317855Y90830D01*
X317837Y90866D01*
X317821Y90904D01*
X317809Y90942D01*
X317800Y90982D01*
X317795Y91022D01*
X317793Y91063D01*
X317794Y91063D02*
X317794Y91684D01*
X318725Y89264D02*
X321519Y89264D01*
X320588Y89264D02*
X320588Y88488D01*
X320586Y88445D01*
X320580Y88402D01*
X320570Y88360D01*
X320557Y88320D01*
X320539Y88280D01*
X320518Y88243D01*
X320494Y88207D01*
X320466Y88174D01*
X320436Y88144D01*
X320403Y88116D01*
X320367Y88092D01*
X320330Y88071D01*
X320290Y88053D01*
X320250Y88040D01*
X320208Y88030D01*
X320165Y88024D01*
X320122Y88022D01*
X318725Y88022D01*
X320588Y87029D02*
X320588Y86097D01*
X321519Y86718D02*
X319191Y86718D01*
X319148Y86716D01*
X319105Y86710D01*
X319063Y86700D01*
X319023Y86687D01*
X318983Y86669D01*
X318946Y86648D01*
X318910Y86624D01*
X318877Y86596D01*
X318847Y86566D01*
X318819Y86533D01*
X318795Y86497D01*
X318774Y86460D01*
X318756Y86420D01*
X318743Y86380D01*
X318733Y86338D01*
X318727Y86295D01*
X318725Y86252D01*
X318725Y86097D01*
X321519Y83797D02*
X322140Y83797D01*
X320588Y82756D02*
X318725Y82756D01*
X320588Y82756D02*
X320588Y81824D01*
X320277Y81824D01*
X319967Y80943D02*
X319346Y80943D01*
X319967Y80943D02*
X320016Y80941D01*
X320064Y80935D01*
X320112Y80926D01*
X320159Y80913D01*
X320205Y80896D01*
X320249Y80875D01*
X320291Y80851D01*
X320332Y80824D01*
X320370Y80794D01*
X320406Y80761D01*
X320439Y80725D01*
X320469Y80687D01*
X320496Y80646D01*
X320520Y80604D01*
X320541Y80560D01*
X320558Y80514D01*
X320571Y80467D01*
X320580Y80419D01*
X320586Y80371D01*
X320588Y80322D01*
X320586Y80273D01*
X320580Y80225D01*
X320571Y80177D01*
X320558Y80130D01*
X320541Y80084D01*
X320520Y80040D01*
X320496Y79998D01*
X320469Y79957D01*
X320439Y79919D01*
X320406Y79883D01*
X320370Y79850D01*
X320332Y79820D01*
X320291Y79793D01*
X320249Y79769D01*
X320205Y79748D01*
X320159Y79731D01*
X320112Y79718D01*
X320064Y79709D01*
X320016Y79703D01*
X319967Y79701D01*
X319967Y79702D02*
X319346Y79702D01*
X319346Y79701D02*
X319297Y79703D01*
X319249Y79709D01*
X319201Y79718D01*
X319154Y79731D01*
X319108Y79748D01*
X319064Y79769D01*
X319022Y79793D01*
X318981Y79820D01*
X318943Y79850D01*
X318907Y79883D01*
X318874Y79919D01*
X318844Y79957D01*
X318817Y79998D01*
X318793Y80040D01*
X318772Y80084D01*
X318755Y80130D01*
X318742Y80177D01*
X318733Y80225D01*
X318727Y80273D01*
X318725Y80322D01*
X318727Y80371D01*
X318733Y80419D01*
X318742Y80467D01*
X318755Y80514D01*
X318772Y80560D01*
X318793Y80604D01*
X318817Y80646D01*
X318844Y80687D01*
X318874Y80725D01*
X318907Y80761D01*
X318943Y80794D01*
X318981Y80824D01*
X319022Y80851D01*
X319064Y80875D01*
X319108Y80896D01*
X319154Y80913D01*
X319201Y80926D01*
X319249Y80935D01*
X319297Y80941D01*
X319346Y80943D01*
X319191Y78474D02*
X320588Y78474D01*
X319191Y78475D02*
X319148Y78473D01*
X319105Y78467D01*
X319063Y78457D01*
X319023Y78444D01*
X318983Y78426D01*
X318946Y78405D01*
X318910Y78381D01*
X318877Y78353D01*
X318847Y78323D01*
X318819Y78290D01*
X318795Y78254D01*
X318774Y78217D01*
X318756Y78177D01*
X318743Y78137D01*
X318733Y78095D01*
X318727Y78052D01*
X318725Y78009D01*
X318725Y77233D01*
X320588Y77233D01*
X320588Y75914D02*
X318725Y75914D01*
X320588Y75914D02*
X320588Y75138D01*
X320586Y75095D01*
X320580Y75052D01*
X320570Y75010D01*
X320557Y74970D01*
X320539Y74930D01*
X320518Y74893D01*
X320494Y74857D01*
X320466Y74824D01*
X320436Y74794D01*
X320403Y74766D01*
X320367Y74742D01*
X320330Y74721D01*
X320290Y74703D01*
X320250Y74690D01*
X320208Y74680D01*
X320165Y74674D01*
X320122Y74672D01*
X318725Y74672D01*
X318725Y72218D02*
X321519Y72218D01*
X318725Y72218D02*
X318725Y72994D01*
X318727Y73035D01*
X318732Y73075D01*
X318741Y73115D01*
X318753Y73153D01*
X318769Y73191D01*
X318787Y73227D01*
X318809Y73261D01*
X318834Y73294D01*
X318861Y73324D01*
X318891Y73351D01*
X318924Y73376D01*
X318958Y73398D01*
X318994Y73416D01*
X319032Y73432D01*
X319070Y73444D01*
X319110Y73453D01*
X319150Y73458D01*
X319191Y73460D01*
X320122Y73460D01*
X320163Y73458D01*
X320203Y73453D01*
X320243Y73444D01*
X320281Y73432D01*
X320319Y73416D01*
X320355Y73398D01*
X320389Y73376D01*
X320422Y73351D01*
X320452Y73324D01*
X320479Y73294D01*
X320504Y73261D01*
X320526Y73227D01*
X320544Y73191D01*
X320560Y73153D01*
X320572Y73115D01*
X320581Y73075D01*
X320586Y73035D01*
X320588Y72994D01*
X320588Y72218D01*
X318725Y71084D02*
X318725Y70929D01*
X318725Y71084D02*
X318880Y71084D01*
X318880Y70929D01*
X318725Y70929D01*
X318104Y71161D01*
X321519Y68618D02*
X322140Y68618D01*
X320588Y67577D02*
X318725Y67577D01*
X320588Y67577D02*
X320588Y66646D01*
X320277Y66646D01*
X319967Y65764D02*
X319346Y65764D01*
X319967Y65765D02*
X320016Y65763D01*
X320064Y65757D01*
X320112Y65748D01*
X320159Y65735D01*
X320205Y65718D01*
X320249Y65697D01*
X320291Y65673D01*
X320332Y65646D01*
X320370Y65616D01*
X320406Y65583D01*
X320439Y65547D01*
X320469Y65509D01*
X320496Y65468D01*
X320520Y65426D01*
X320541Y65382D01*
X320558Y65336D01*
X320571Y65289D01*
X320580Y65241D01*
X320586Y65193D01*
X320588Y65144D01*
X320586Y65095D01*
X320580Y65047D01*
X320571Y64999D01*
X320558Y64952D01*
X320541Y64906D01*
X320520Y64862D01*
X320496Y64820D01*
X320469Y64779D01*
X320439Y64741D01*
X320406Y64705D01*
X320370Y64672D01*
X320332Y64642D01*
X320291Y64615D01*
X320249Y64591D01*
X320205Y64570D01*
X320159Y64553D01*
X320112Y64540D01*
X320064Y64531D01*
X320016Y64525D01*
X319967Y64523D01*
X319346Y64523D01*
X319297Y64525D01*
X319249Y64531D01*
X319201Y64540D01*
X319154Y64553D01*
X319108Y64570D01*
X319064Y64591D01*
X319022Y64615D01*
X318981Y64642D01*
X318943Y64672D01*
X318907Y64705D01*
X318874Y64741D01*
X318844Y64779D01*
X318817Y64820D01*
X318793Y64862D01*
X318772Y64906D01*
X318755Y64952D01*
X318742Y64999D01*
X318733Y65047D01*
X318727Y65095D01*
X318725Y65144D01*
X318727Y65193D01*
X318733Y65241D01*
X318742Y65289D01*
X318755Y65336D01*
X318772Y65382D01*
X318793Y65426D01*
X318817Y65468D01*
X318844Y65509D01*
X318874Y65547D01*
X318907Y65583D01*
X318943Y65616D01*
X318981Y65646D01*
X319022Y65673D01*
X319064Y65697D01*
X319108Y65718D01*
X319154Y65735D01*
X319201Y65748D01*
X319249Y65757D01*
X319297Y65763D01*
X319346Y65765D01*
X319191Y63296D02*
X320588Y63296D01*
X319191Y63296D02*
X319148Y63294D01*
X319105Y63288D01*
X319063Y63278D01*
X319023Y63265D01*
X318983Y63247D01*
X318946Y63226D01*
X318910Y63202D01*
X318877Y63174D01*
X318847Y63144D01*
X318819Y63111D01*
X318795Y63075D01*
X318774Y63038D01*
X318756Y62998D01*
X318743Y62958D01*
X318733Y62916D01*
X318727Y62873D01*
X318725Y62830D01*
X318725Y62054D01*
X320588Y62054D01*
X320588Y60735D02*
X318725Y60735D01*
X320588Y60735D02*
X320588Y59959D01*
X320586Y59916D01*
X320580Y59873D01*
X320570Y59831D01*
X320557Y59791D01*
X320539Y59751D01*
X320518Y59714D01*
X320494Y59678D01*
X320466Y59645D01*
X320436Y59615D01*
X320403Y59587D01*
X320367Y59563D01*
X320330Y59542D01*
X320290Y59524D01*
X320250Y59511D01*
X320208Y59501D01*
X320165Y59495D01*
X320122Y59493D01*
X318725Y59493D01*
X318725Y57039D02*
X321519Y57039D01*
X318725Y57039D02*
X318725Y57815D01*
X318727Y57856D01*
X318732Y57896D01*
X318741Y57936D01*
X318753Y57974D01*
X318769Y58012D01*
X318787Y58048D01*
X318809Y58082D01*
X318834Y58115D01*
X318861Y58145D01*
X318891Y58172D01*
X318924Y58197D01*
X318958Y58219D01*
X318994Y58237D01*
X319032Y58253D01*
X319070Y58265D01*
X319110Y58274D01*
X319150Y58279D01*
X319191Y58281D01*
X320122Y58281D01*
X320163Y58279D01*
X320203Y58274D01*
X320243Y58265D01*
X320281Y58253D01*
X320319Y58237D01*
X320355Y58219D01*
X320389Y58197D01*
X320422Y58172D01*
X320452Y58145D01*
X320479Y58115D01*
X320504Y58082D01*
X320526Y58048D01*
X320544Y58012D01*
X320560Y57974D01*
X320572Y57936D01*
X320581Y57896D01*
X320586Y57856D01*
X320588Y57815D01*
X320588Y57039D01*
X318725Y55905D02*
X318725Y55750D01*
X318725Y55905D02*
X318880Y55905D01*
X318880Y55750D01*
X318725Y55750D01*
X318104Y55982D01*
X321519Y53439D02*
X322140Y53439D01*
X320588Y52398D02*
X318725Y52398D01*
X320588Y52398D02*
X320588Y51467D01*
X320277Y51467D01*
X319967Y50586D02*
X319346Y50586D01*
X319967Y50586D02*
X320016Y50584D01*
X320064Y50578D01*
X320112Y50569D01*
X320159Y50556D01*
X320205Y50539D01*
X320249Y50518D01*
X320291Y50494D01*
X320332Y50467D01*
X320370Y50437D01*
X320406Y50404D01*
X320439Y50368D01*
X320469Y50330D01*
X320496Y50289D01*
X320520Y50247D01*
X320541Y50203D01*
X320558Y50157D01*
X320571Y50110D01*
X320580Y50062D01*
X320586Y50014D01*
X320588Y49965D01*
X320586Y49916D01*
X320580Y49868D01*
X320571Y49820D01*
X320558Y49773D01*
X320541Y49727D01*
X320520Y49683D01*
X320496Y49641D01*
X320469Y49600D01*
X320439Y49562D01*
X320406Y49526D01*
X320370Y49493D01*
X320332Y49463D01*
X320291Y49436D01*
X320249Y49412D01*
X320205Y49391D01*
X320159Y49374D01*
X320112Y49361D01*
X320064Y49352D01*
X320016Y49346D01*
X319967Y49344D01*
X319346Y49344D01*
X319297Y49346D01*
X319249Y49352D01*
X319201Y49361D01*
X319154Y49374D01*
X319108Y49391D01*
X319064Y49412D01*
X319022Y49436D01*
X318981Y49463D01*
X318943Y49493D01*
X318907Y49526D01*
X318874Y49562D01*
X318844Y49600D01*
X318817Y49641D01*
X318793Y49683D01*
X318772Y49727D01*
X318755Y49773D01*
X318742Y49820D01*
X318733Y49868D01*
X318727Y49916D01*
X318725Y49965D01*
X318727Y50014D01*
X318733Y50062D01*
X318742Y50110D01*
X318755Y50157D01*
X318772Y50203D01*
X318793Y50247D01*
X318817Y50289D01*
X318844Y50330D01*
X318874Y50368D01*
X318907Y50404D01*
X318943Y50437D01*
X318981Y50467D01*
X319022Y50494D01*
X319064Y50518D01*
X319108Y50539D01*
X319154Y50556D01*
X319201Y50569D01*
X319249Y50578D01*
X319297Y50584D01*
X319346Y50586D01*
X319191Y48117D02*
X320588Y48117D01*
X319191Y48117D02*
X319148Y48115D01*
X319105Y48109D01*
X319063Y48099D01*
X319023Y48086D01*
X318983Y48068D01*
X318946Y48047D01*
X318910Y48023D01*
X318877Y47995D01*
X318847Y47965D01*
X318819Y47932D01*
X318795Y47896D01*
X318774Y47859D01*
X318756Y47819D01*
X318743Y47779D01*
X318733Y47737D01*
X318727Y47694D01*
X318725Y47651D01*
X318725Y46875D01*
X320588Y46875D01*
X320588Y45556D02*
X318725Y45556D01*
X320588Y45556D02*
X320588Y44780D01*
X320586Y44737D01*
X320580Y44694D01*
X320570Y44652D01*
X320557Y44612D01*
X320539Y44572D01*
X320518Y44535D01*
X320494Y44499D01*
X320466Y44466D01*
X320436Y44436D01*
X320403Y44408D01*
X320367Y44384D01*
X320330Y44363D01*
X320290Y44345D01*
X320250Y44332D01*
X320208Y44322D01*
X320165Y44316D01*
X320122Y44314D01*
X320122Y44315D02*
X318725Y44315D01*
X318725Y41860D02*
X321519Y41860D01*
X318725Y41860D02*
X318725Y42636D01*
X318727Y42677D01*
X318732Y42717D01*
X318741Y42757D01*
X318753Y42795D01*
X318769Y42833D01*
X318787Y42869D01*
X318809Y42903D01*
X318834Y42936D01*
X318861Y42966D01*
X318891Y42993D01*
X318924Y43018D01*
X318958Y43040D01*
X318994Y43058D01*
X319032Y43074D01*
X319070Y43086D01*
X319110Y43095D01*
X319150Y43100D01*
X319191Y43102D01*
X320122Y43102D01*
X320163Y43100D01*
X320203Y43095D01*
X320243Y43086D01*
X320281Y43074D01*
X320319Y43058D01*
X320355Y43040D01*
X320389Y43018D01*
X320422Y42993D01*
X320452Y42966D01*
X320479Y42936D01*
X320504Y42903D01*
X320526Y42869D01*
X320544Y42833D01*
X320560Y42795D01*
X320572Y42757D01*
X320581Y42717D01*
X320586Y42677D01*
X320588Y42636D01*
X320588Y41860D01*
X322870Y42761D02*
X321939Y44080D01*
X321008Y42761D01*
X321939Y44080D02*
X321939Y45555D01*
X320000Y44934D02*
X320000Y44313D01*
X319998Y44264D01*
X319992Y44216D01*
X319983Y44168D01*
X319970Y44121D01*
X319953Y44075D01*
X319932Y44031D01*
X319908Y43989D01*
X319881Y43948D01*
X319851Y43910D01*
X319818Y43874D01*
X319782Y43841D01*
X319744Y43811D01*
X319703Y43784D01*
X319661Y43760D01*
X319617Y43739D01*
X319571Y43722D01*
X319524Y43709D01*
X319476Y43700D01*
X319428Y43694D01*
X319379Y43692D01*
X319330Y43694D01*
X319282Y43700D01*
X319234Y43709D01*
X319187Y43722D01*
X319141Y43739D01*
X319097Y43760D01*
X319055Y43784D01*
X319014Y43811D01*
X318976Y43841D01*
X318940Y43874D01*
X318907Y43910D01*
X318877Y43948D01*
X318850Y43989D01*
X318826Y44031D01*
X318805Y44075D01*
X318788Y44121D01*
X318775Y44168D01*
X318766Y44216D01*
X318760Y44264D01*
X318758Y44313D01*
X318758Y44934D01*
X318760Y44983D01*
X318766Y45031D01*
X318775Y45079D01*
X318788Y45126D01*
X318805Y45172D01*
X318826Y45216D01*
X318850Y45258D01*
X318877Y45299D01*
X318907Y45337D01*
X318940Y45373D01*
X318976Y45406D01*
X319014Y45436D01*
X319055Y45463D01*
X319097Y45487D01*
X319141Y45508D01*
X319187Y45525D01*
X319234Y45538D01*
X319282Y45547D01*
X319330Y45553D01*
X319379Y45555D01*
X319428Y45553D01*
X319476Y45547D01*
X319524Y45538D01*
X319571Y45525D01*
X319617Y45508D01*
X319661Y45487D01*
X319703Y45463D01*
X319744Y45436D01*
X319782Y45406D01*
X319818Y45373D01*
X319851Y45337D01*
X319881Y45299D01*
X319908Y45258D01*
X319932Y45216D01*
X319953Y45172D01*
X319970Y45126D01*
X319983Y45079D01*
X319992Y45031D01*
X319998Y44983D01*
X320000Y44934D01*
X317531Y45089D02*
X317531Y43692D01*
X317531Y45089D02*
X317529Y45130D01*
X317524Y45170D01*
X317515Y45210D01*
X317503Y45248D01*
X317487Y45286D01*
X317469Y45322D01*
X317447Y45356D01*
X317422Y45389D01*
X317395Y45419D01*
X317365Y45446D01*
X317332Y45471D01*
X317298Y45493D01*
X317262Y45511D01*
X317224Y45527D01*
X317186Y45539D01*
X317146Y45548D01*
X317106Y45553D01*
X317065Y45555D01*
X316289Y45555D01*
X316289Y43692D01*
X313366Y44468D02*
X312590Y44779D01*
X313366Y44468D02*
X313401Y44452D01*
X313435Y44433D01*
X313466Y44411D01*
X313495Y44385D01*
X313521Y44358D01*
X313545Y44327D01*
X313566Y44295D01*
X313583Y44261D01*
X313597Y44225D01*
X313608Y44188D01*
X313615Y44150D01*
X313619Y44112D01*
X313618Y44073D01*
X313615Y44035D01*
X313607Y43997D01*
X313596Y43961D01*
X313581Y43925D01*
X313563Y43891D01*
X313542Y43859D01*
X313518Y43829D01*
X313491Y43801D01*
X313462Y43776D01*
X313431Y43754D01*
X313397Y43736D01*
X313362Y43720D01*
X313325Y43708D01*
X313288Y43699D01*
X313250Y43694D01*
X313211Y43693D01*
X313211Y43692D02*
X313131Y43695D01*
X313051Y43702D01*
X312972Y43712D01*
X312893Y43726D01*
X312815Y43743D01*
X312737Y43764D01*
X312661Y43788D01*
X312586Y43816D01*
X312512Y43847D01*
X312590Y44780D02*
X312555Y44796D01*
X312521Y44815D01*
X312490Y44837D01*
X312461Y44863D01*
X312435Y44890D01*
X312411Y44921D01*
X312390Y44953D01*
X312373Y44987D01*
X312359Y45023D01*
X312348Y45060D01*
X312341Y45098D01*
X312337Y45136D01*
X312338Y45175D01*
X312341Y45213D01*
X312349Y45251D01*
X312360Y45287D01*
X312375Y45323D01*
X312393Y45357D01*
X312414Y45389D01*
X312438Y45419D01*
X312465Y45447D01*
X312494Y45472D01*
X312525Y45494D01*
X312559Y45512D01*
X312594Y45528D01*
X312631Y45540D01*
X312668Y45549D01*
X312706Y45554D01*
X312745Y45555D01*
X312746Y45555D02*
X312842Y45552D01*
X312939Y45545D01*
X313035Y45535D01*
X313131Y45521D01*
X313226Y45503D01*
X313321Y45483D01*
X313415Y45458D01*
X313507Y45431D01*
X313599Y45400D01*
X311116Y46486D02*
X311116Y43692D01*
X310340Y43692D01*
X310299Y43694D01*
X310259Y43699D01*
X310219Y43708D01*
X310181Y43720D01*
X310143Y43736D01*
X310107Y43754D01*
X310073Y43776D01*
X310040Y43801D01*
X310010Y43828D01*
X309983Y43858D01*
X309958Y43891D01*
X309936Y43925D01*
X309918Y43961D01*
X309902Y43999D01*
X309890Y44037D01*
X309881Y44077D01*
X309876Y44117D01*
X309874Y44158D01*
X309874Y45089D01*
X309873Y45089D02*
X309875Y45130D01*
X309880Y45170D01*
X309889Y45210D01*
X309901Y45248D01*
X309917Y45286D01*
X309935Y45322D01*
X309957Y45356D01*
X309982Y45389D01*
X310009Y45419D01*
X310039Y45446D01*
X310072Y45471D01*
X310106Y45493D01*
X310142Y45511D01*
X310180Y45527D01*
X310218Y45539D01*
X310258Y45548D01*
X310298Y45553D01*
X310339Y45555D01*
X310340Y45555D02*
X311116Y45555D01*
X308772Y45555D02*
X308772Y43692D01*
X308849Y42916D02*
X308849Y42761D01*
X308694Y42761D01*
X308694Y42916D01*
X308849Y42916D01*
X307564Y43692D02*
X307564Y45555D01*
X307564Y43692D02*
X306788Y43692D01*
X306747Y43694D01*
X306707Y43699D01*
X306667Y43708D01*
X306629Y43720D01*
X306591Y43736D01*
X306555Y43754D01*
X306521Y43776D01*
X306488Y43801D01*
X306458Y43828D01*
X306431Y43858D01*
X306406Y43891D01*
X306384Y43925D01*
X306366Y43961D01*
X306350Y43999D01*
X306338Y44037D01*
X306329Y44077D01*
X306324Y44117D01*
X306322Y44158D01*
X306322Y45555D01*
X303485Y45555D02*
X303485Y43692D01*
X302088Y43692D01*
X302047Y43694D01*
X302007Y43699D01*
X301967Y43708D01*
X301929Y43720D01*
X301891Y43736D01*
X301855Y43754D01*
X301821Y43776D01*
X301788Y43801D01*
X301758Y43828D01*
X301731Y43858D01*
X301706Y43891D01*
X301684Y43925D01*
X301666Y43961D01*
X301650Y43999D01*
X301638Y44037D01*
X301629Y44077D01*
X301624Y44117D01*
X301622Y44158D01*
X301623Y44158D02*
X301623Y45555D01*
X302554Y45555D02*
X302554Y43692D01*
X299875Y45555D02*
X299098Y45555D01*
X299875Y45555D02*
X299916Y45553D01*
X299956Y45548D01*
X299996Y45539D01*
X300034Y45527D01*
X300072Y45511D01*
X300108Y45493D01*
X300142Y45471D01*
X300175Y45446D01*
X300205Y45419D01*
X300232Y45389D01*
X300257Y45356D01*
X300279Y45322D01*
X300297Y45286D01*
X300313Y45248D01*
X300325Y45210D01*
X300334Y45170D01*
X300339Y45130D01*
X300341Y45089D01*
X300340Y45089D02*
X300340Y44313D01*
X300338Y44264D01*
X300332Y44216D01*
X300323Y44168D01*
X300310Y44121D01*
X300293Y44075D01*
X300272Y44031D01*
X300248Y43989D01*
X300221Y43948D01*
X300191Y43910D01*
X300158Y43874D01*
X300122Y43841D01*
X300084Y43811D01*
X300043Y43784D01*
X300001Y43760D01*
X299957Y43739D01*
X299911Y43722D01*
X299864Y43709D01*
X299816Y43700D01*
X299768Y43694D01*
X299719Y43692D01*
X299670Y43694D01*
X299622Y43700D01*
X299574Y43709D01*
X299527Y43722D01*
X299481Y43739D01*
X299437Y43760D01*
X299395Y43784D01*
X299354Y43811D01*
X299316Y43841D01*
X299280Y43874D01*
X299247Y43910D01*
X299217Y43948D01*
X299190Y43989D01*
X299166Y44031D01*
X299145Y44075D01*
X299128Y44121D01*
X299115Y44168D01*
X299106Y44216D01*
X299100Y44264D01*
X299098Y44313D01*
X299098Y44624D01*
X300340Y44624D01*
X296392Y45555D02*
X296392Y43692D01*
X295461Y43692D01*
X295461Y44003D01*
X294599Y43692D02*
X294599Y45555D01*
X294676Y42916D02*
X294676Y42761D01*
X294521Y42761D01*
X294521Y42916D01*
X294676Y42916D01*
X293031Y45555D02*
X292255Y45555D01*
X293031Y45555D02*
X293072Y45553D01*
X293112Y45548D01*
X293152Y45539D01*
X293190Y45527D01*
X293228Y45511D01*
X293264Y45493D01*
X293298Y45471D01*
X293331Y45446D01*
X293361Y45419D01*
X293388Y45389D01*
X293413Y45356D01*
X293435Y45322D01*
X293453Y45286D01*
X293469Y45248D01*
X293481Y45210D01*
X293490Y45170D01*
X293495Y45130D01*
X293497Y45089D01*
X293497Y44158D01*
X293495Y44115D01*
X293489Y44072D01*
X293479Y44030D01*
X293466Y43990D01*
X293448Y43950D01*
X293427Y43913D01*
X293403Y43877D01*
X293375Y43844D01*
X293345Y43814D01*
X293312Y43786D01*
X293276Y43762D01*
X293239Y43741D01*
X293199Y43723D01*
X293159Y43710D01*
X293117Y43700D01*
X293074Y43694D01*
X293031Y43692D01*
X292255Y43692D01*
X292255Y46021D01*
X292257Y46062D01*
X292262Y46102D01*
X292271Y46142D01*
X292283Y46180D01*
X292299Y46218D01*
X292317Y46254D01*
X292339Y46288D01*
X292364Y46321D01*
X292391Y46351D01*
X292421Y46378D01*
X292454Y46403D01*
X292488Y46425D01*
X292524Y46443D01*
X292562Y46459D01*
X292600Y46471D01*
X292640Y46480D01*
X292680Y46485D01*
X292721Y46487D01*
X292721Y46486D02*
X293341Y46486D01*
X290922Y45555D02*
X290922Y42761D01*
X290922Y43692D02*
X290146Y43692D01*
X290105Y43694D01*
X290065Y43699D01*
X290025Y43708D01*
X289987Y43720D01*
X289949Y43736D01*
X289913Y43754D01*
X289879Y43776D01*
X289846Y43801D01*
X289816Y43828D01*
X289789Y43858D01*
X289764Y43891D01*
X289742Y43925D01*
X289724Y43961D01*
X289708Y43999D01*
X289696Y44037D01*
X289687Y44077D01*
X289682Y44117D01*
X289680Y44158D01*
X289680Y45555D01*
X288686Y43692D02*
X287755Y43692D01*
X288376Y42761D02*
X288376Y45089D01*
X288374Y45130D01*
X288369Y45170D01*
X288360Y45210D01*
X288348Y45248D01*
X288332Y45286D01*
X288314Y45322D01*
X288292Y45356D01*
X288267Y45389D01*
X288240Y45419D01*
X288210Y45446D01*
X288177Y45471D01*
X288143Y45493D01*
X288107Y45511D01*
X288069Y45527D01*
X288031Y45539D01*
X287991Y45548D01*
X287951Y45553D01*
X287910Y45555D01*
X287755Y45555D01*
X285455Y42761D02*
X285455Y42140D01*
X284414Y43692D02*
X284414Y45555D01*
X284414Y43692D02*
X283482Y43692D01*
X283482Y44003D01*
X282601Y44313D02*
X282601Y44934D01*
X282601Y44313D02*
X282599Y44264D01*
X282593Y44216D01*
X282584Y44168D01*
X282571Y44121D01*
X282554Y44075D01*
X282533Y44031D01*
X282509Y43989D01*
X282482Y43948D01*
X282452Y43910D01*
X282419Y43874D01*
X282383Y43841D01*
X282345Y43811D01*
X282304Y43784D01*
X282262Y43760D01*
X282218Y43739D01*
X282172Y43722D01*
X282125Y43709D01*
X282077Y43700D01*
X282029Y43694D01*
X281980Y43692D01*
X281931Y43694D01*
X281883Y43700D01*
X281835Y43709D01*
X281788Y43722D01*
X281742Y43739D01*
X281698Y43760D01*
X281656Y43784D01*
X281615Y43811D01*
X281577Y43841D01*
X281541Y43874D01*
X281508Y43910D01*
X281478Y43948D01*
X281451Y43989D01*
X281427Y44031D01*
X281406Y44075D01*
X281389Y44121D01*
X281376Y44168D01*
X281367Y44216D01*
X281361Y44264D01*
X281359Y44313D01*
X281359Y44934D01*
X281361Y44983D01*
X281367Y45031D01*
X281376Y45079D01*
X281389Y45126D01*
X281406Y45172D01*
X281427Y45216D01*
X281451Y45258D01*
X281478Y45299D01*
X281508Y45337D01*
X281541Y45373D01*
X281577Y45406D01*
X281615Y45436D01*
X281656Y45463D01*
X281698Y45487D01*
X281742Y45508D01*
X281788Y45525D01*
X281835Y45538D01*
X281883Y45547D01*
X281931Y45553D01*
X281980Y45555D01*
X282029Y45553D01*
X282077Y45547D01*
X282125Y45538D01*
X282172Y45525D01*
X282218Y45508D01*
X282262Y45487D01*
X282304Y45463D01*
X282345Y45436D01*
X282383Y45406D01*
X282419Y45373D01*
X282452Y45337D01*
X282482Y45299D01*
X282509Y45258D01*
X282533Y45216D01*
X282554Y45172D01*
X282571Y45126D01*
X282584Y45079D01*
X282593Y45031D01*
X282599Y44983D01*
X282601Y44934D01*
X280132Y45089D02*
X280132Y43692D01*
X280132Y45089D02*
X280130Y45130D01*
X280125Y45170D01*
X280116Y45210D01*
X280104Y45248D01*
X280088Y45286D01*
X280070Y45322D01*
X280048Y45356D01*
X280023Y45389D01*
X279996Y45419D01*
X279966Y45446D01*
X279933Y45471D01*
X279899Y45493D01*
X279863Y45511D01*
X279825Y45527D01*
X279787Y45539D01*
X279747Y45548D01*
X279707Y45553D01*
X279666Y45555D01*
X278890Y45555D01*
X278890Y43692D01*
X277572Y43692D02*
X277572Y45555D01*
X277572Y43692D02*
X276796Y43692D01*
X276755Y43694D01*
X276715Y43699D01*
X276675Y43708D01*
X276637Y43720D01*
X276599Y43736D01*
X276563Y43754D01*
X276529Y43776D01*
X276496Y43801D01*
X276466Y43828D01*
X276439Y43858D01*
X276414Y43891D01*
X276392Y43925D01*
X276374Y43961D01*
X276358Y43999D01*
X276346Y44037D01*
X276337Y44077D01*
X276332Y44117D01*
X276330Y44158D01*
X276330Y45555D01*
X273876Y45555D02*
X273876Y42761D01*
X273876Y45555D02*
X274652Y45555D01*
X274693Y45553D01*
X274733Y45548D01*
X274773Y45539D01*
X274811Y45527D01*
X274849Y45511D01*
X274885Y45493D01*
X274919Y45471D01*
X274952Y45446D01*
X274982Y45419D01*
X275009Y45389D01*
X275034Y45356D01*
X275056Y45322D01*
X275074Y45286D01*
X275090Y45248D01*
X275102Y45210D01*
X275111Y45170D01*
X275116Y45130D01*
X275118Y45089D01*
X275117Y45089D02*
X275117Y44158D01*
X275118Y44158D02*
X275116Y44115D01*
X275110Y44072D01*
X275100Y44030D01*
X275087Y43990D01*
X275069Y43950D01*
X275048Y43913D01*
X275024Y43877D01*
X274996Y43844D01*
X274966Y43814D01*
X274933Y43786D01*
X274897Y43762D01*
X274860Y43741D01*
X274820Y43723D01*
X274780Y43710D01*
X274738Y43700D01*
X274695Y43694D01*
X274652Y43692D01*
X273876Y43692D01*
X272742Y45555D02*
X272586Y45555D01*
X272742Y45555D02*
X272742Y45400D01*
X272586Y45400D01*
X272586Y45555D01*
X272819Y46176D01*
X269968Y45555D02*
X269968Y42761D01*
X269968Y45555D02*
X269192Y45555D01*
X269149Y45553D01*
X269106Y45547D01*
X269064Y45537D01*
X269024Y45524D01*
X268984Y45506D01*
X268947Y45485D01*
X268911Y45461D01*
X268878Y45433D01*
X268848Y45403D01*
X268820Y45370D01*
X268796Y45334D01*
X268775Y45297D01*
X268757Y45257D01*
X268744Y45217D01*
X268734Y45175D01*
X268728Y45132D01*
X268726Y45089D01*
X268726Y44158D01*
X268728Y44117D01*
X268733Y44077D01*
X268742Y44037D01*
X268754Y43999D01*
X268770Y43961D01*
X268788Y43925D01*
X268810Y43891D01*
X268835Y43858D01*
X268862Y43828D01*
X268892Y43801D01*
X268925Y43776D01*
X268959Y43754D01*
X268995Y43736D01*
X269033Y43720D01*
X269071Y43708D01*
X269111Y43699D01*
X269151Y43694D01*
X269192Y43692D01*
X269968Y43692D01*
X267076Y44468D02*
X266378Y44468D01*
X267076Y44469D02*
X267121Y44471D01*
X267165Y44476D01*
X267209Y44486D01*
X267252Y44498D01*
X267294Y44515D01*
X267334Y44534D01*
X267373Y44557D01*
X267410Y44583D01*
X267444Y44613D01*
X267475Y44644D01*
X267505Y44678D01*
X267531Y44715D01*
X267554Y44754D01*
X267573Y44794D01*
X267590Y44836D01*
X267602Y44879D01*
X267612Y44923D01*
X267617Y44967D01*
X267619Y45012D01*
X267617Y45057D01*
X267612Y45101D01*
X267602Y45145D01*
X267590Y45188D01*
X267573Y45230D01*
X267554Y45270D01*
X267531Y45309D01*
X267505Y45346D01*
X267475Y45380D01*
X267444Y45411D01*
X267410Y45441D01*
X267373Y45467D01*
X267334Y45490D01*
X267294Y45509D01*
X267252Y45526D01*
X267209Y45538D01*
X267165Y45548D01*
X267121Y45553D01*
X267076Y45555D01*
X266378Y45555D01*
X266378Y44158D01*
X266377Y44158D02*
X266379Y44117D01*
X266384Y44077D01*
X266393Y44037D01*
X266405Y43999D01*
X266421Y43961D01*
X266439Y43925D01*
X266461Y43891D01*
X266486Y43858D01*
X266513Y43828D01*
X266543Y43801D01*
X266576Y43776D01*
X266610Y43754D01*
X266646Y43736D01*
X266684Y43720D01*
X266722Y43708D01*
X266762Y43699D01*
X266802Y43694D01*
X266843Y43692D01*
X267464Y43692D01*
X265030Y42761D02*
X265030Y45555D01*
X264254Y45555D01*
X264211Y45553D01*
X264168Y45547D01*
X264126Y45537D01*
X264086Y45524D01*
X264046Y45506D01*
X264009Y45485D01*
X263973Y45461D01*
X263940Y45433D01*
X263910Y45403D01*
X263882Y45370D01*
X263858Y45334D01*
X263837Y45297D01*
X263819Y45257D01*
X263806Y45217D01*
X263796Y45175D01*
X263790Y45132D01*
X263788Y45089D01*
X263789Y45089D02*
X263789Y44158D01*
X263788Y44158D02*
X263790Y44117D01*
X263795Y44077D01*
X263804Y44037D01*
X263816Y43999D01*
X263832Y43961D01*
X263850Y43925D01*
X263872Y43891D01*
X263897Y43858D01*
X263924Y43828D01*
X263954Y43801D01*
X263987Y43776D01*
X264021Y43754D01*
X264057Y43736D01*
X264095Y43720D01*
X264133Y43708D01*
X264173Y43699D01*
X264213Y43694D01*
X264254Y43692D01*
X265030Y43692D01*
X262759Y46486D02*
X262448Y46486D01*
X261517Y43692D01*
X262759Y43692D02*
X262138Y45555D01*
D15*
X265350Y92000D02*
X270850Y92000D01*
X265350Y92000D02*
X265350Y86500D01*
X302050Y92000D02*
X307550Y92000D01*
X307550Y86500D01*
X307550Y49800D02*
X302050Y49800D01*
X307550Y49800D02*
X307550Y55300D01*
X265350Y55300D02*
X265350Y49800D01*
D16*
X263369Y164055D02*
X263369Y167944D01*
X307209Y211785D01*
X311099Y211785D01*
X354939Y167944D01*
X354939Y164055D01*
X311099Y120214D01*
X307209Y120214D01*
X263369Y164055D01*
X303154Y137715D02*
X303156Y137869D01*
X303162Y138024D01*
X303172Y138178D01*
X303186Y138332D01*
X303204Y138485D01*
X303225Y138638D01*
X303251Y138791D01*
X303281Y138942D01*
X303314Y139093D01*
X303352Y139243D01*
X303393Y139392D01*
X303438Y139540D01*
X303487Y139686D01*
X303540Y139832D01*
X303596Y139975D01*
X303656Y140118D01*
X303720Y140258D01*
X303787Y140398D01*
X303858Y140535D01*
X303932Y140670D01*
X304010Y140804D01*
X304091Y140935D01*
X304176Y141064D01*
X304264Y141192D01*
X304355Y141316D01*
X304449Y141439D01*
X304547Y141559D01*
X304647Y141676D01*
X304751Y141791D01*
X304857Y141903D01*
X304966Y142012D01*
X305078Y142118D01*
X305193Y142222D01*
X305310Y142322D01*
X305430Y142420D01*
X305553Y142514D01*
X305677Y142605D01*
X305805Y142693D01*
X305934Y142778D01*
X306065Y142859D01*
X306199Y142937D01*
X306334Y143011D01*
X306471Y143082D01*
X306611Y143149D01*
X306751Y143213D01*
X306894Y143273D01*
X307037Y143329D01*
X307183Y143382D01*
X307329Y143431D01*
X307477Y143476D01*
X307626Y143517D01*
X307776Y143555D01*
X307927Y143588D01*
X308078Y143618D01*
X308231Y143644D01*
X308384Y143665D01*
X308537Y143683D01*
X308691Y143697D01*
X308845Y143707D01*
X309000Y143713D01*
X309154Y143715D01*
X309308Y143713D01*
X309463Y143707D01*
X309617Y143697D01*
X309771Y143683D01*
X309924Y143665D01*
X310077Y143644D01*
X310230Y143618D01*
X310381Y143588D01*
X310532Y143555D01*
X310682Y143517D01*
X310831Y143476D01*
X310979Y143431D01*
X311125Y143382D01*
X311271Y143329D01*
X311414Y143273D01*
X311557Y143213D01*
X311697Y143149D01*
X311837Y143082D01*
X311974Y143011D01*
X312109Y142937D01*
X312243Y142859D01*
X312374Y142778D01*
X312503Y142693D01*
X312631Y142605D01*
X312755Y142514D01*
X312878Y142420D01*
X312998Y142322D01*
X313115Y142222D01*
X313230Y142118D01*
X313342Y142012D01*
X313451Y141903D01*
X313557Y141791D01*
X313661Y141676D01*
X313761Y141559D01*
X313859Y141439D01*
X313953Y141316D01*
X314044Y141192D01*
X314132Y141064D01*
X314217Y140935D01*
X314298Y140804D01*
X314376Y140670D01*
X314450Y140535D01*
X314521Y140398D01*
X314588Y140258D01*
X314652Y140118D01*
X314712Y139975D01*
X314768Y139832D01*
X314821Y139686D01*
X314870Y139540D01*
X314915Y139392D01*
X314956Y139243D01*
X314994Y139093D01*
X315027Y138942D01*
X315057Y138791D01*
X315083Y138638D01*
X315104Y138485D01*
X315122Y138332D01*
X315136Y138178D01*
X315146Y138024D01*
X315152Y137869D01*
X315154Y137715D01*
X315152Y137561D01*
X315146Y137406D01*
X315136Y137252D01*
X315122Y137098D01*
X315104Y136945D01*
X315083Y136792D01*
X315057Y136639D01*
X315027Y136488D01*
X314994Y136337D01*
X314956Y136187D01*
X314915Y136038D01*
X314870Y135890D01*
X314821Y135744D01*
X314768Y135598D01*
X314712Y135455D01*
X314652Y135312D01*
X314588Y135172D01*
X314521Y135032D01*
X314450Y134895D01*
X314376Y134760D01*
X314298Y134626D01*
X314217Y134495D01*
X314132Y134366D01*
X314044Y134238D01*
X313953Y134114D01*
X313859Y133991D01*
X313761Y133871D01*
X313661Y133754D01*
X313557Y133639D01*
X313451Y133527D01*
X313342Y133418D01*
X313230Y133312D01*
X313115Y133208D01*
X312998Y133108D01*
X312878Y133010D01*
X312755Y132916D01*
X312631Y132825D01*
X312503Y132737D01*
X312374Y132652D01*
X312243Y132571D01*
X312109Y132493D01*
X311974Y132419D01*
X311837Y132348D01*
X311697Y132281D01*
X311557Y132217D01*
X311414Y132157D01*
X311271Y132101D01*
X311125Y132048D01*
X310979Y131999D01*
X310831Y131954D01*
X310682Y131913D01*
X310532Y131875D01*
X310381Y131842D01*
X310230Y131812D01*
X310077Y131786D01*
X309924Y131765D01*
X309771Y131747D01*
X309617Y131733D01*
X309463Y131723D01*
X309308Y131717D01*
X309154Y131715D01*
X309000Y131717D01*
X308845Y131723D01*
X308691Y131733D01*
X308537Y131747D01*
X308384Y131765D01*
X308231Y131786D01*
X308078Y131812D01*
X307927Y131842D01*
X307776Y131875D01*
X307626Y131913D01*
X307477Y131954D01*
X307329Y131999D01*
X307183Y132048D01*
X307037Y132101D01*
X306894Y132157D01*
X306751Y132217D01*
X306611Y132281D01*
X306471Y132348D01*
X306334Y132419D01*
X306199Y132493D01*
X306065Y132571D01*
X305934Y132652D01*
X305805Y132737D01*
X305677Y132825D01*
X305553Y132916D01*
X305430Y133010D01*
X305310Y133108D01*
X305193Y133208D01*
X305078Y133312D01*
X304966Y133418D01*
X304857Y133527D01*
X304751Y133639D01*
X304647Y133754D01*
X304547Y133871D01*
X304449Y133991D01*
X304355Y134114D01*
X304264Y134238D01*
X304176Y134366D01*
X304091Y134495D01*
X304010Y134626D01*
X303932Y134760D01*
X303858Y134895D01*
X303787Y135032D01*
X303720Y135172D01*
X303656Y135312D01*
X303596Y135455D01*
X303540Y135598D01*
X303487Y135744D01*
X303438Y135890D01*
X303393Y136038D01*
X303352Y136187D01*
X303314Y136337D01*
X303281Y136488D01*
X303251Y136639D01*
X303225Y136792D01*
X303204Y136945D01*
X303186Y137098D01*
X303172Y137252D01*
X303162Y137406D01*
X303156Y137561D01*
X303154Y137715D01*
D17*
X79000Y184600D02*
X39000Y184600D01*
X39000Y234600D02*
X79000Y234600D01*
D18*
X36140Y237540D03*
D10*
X212400Y240870D02*
X227650Y240870D01*
D11*
X335864Y122257D02*
X335864Y106257D01*
X352864Y104257D02*
X352962Y104239D01*
X353062Y104225D01*
X353161Y104215D01*
X353261Y104209D01*
X353361Y104207D01*
X353461Y104209D01*
X353561Y104215D01*
X353661Y104224D01*
X353760Y104238D01*
X353859Y104255D01*
X353957Y104277D01*
X354054Y104302D01*
X354149Y104331D01*
X354244Y104364D01*
X354337Y104400D01*
X354429Y104440D01*
X354519Y104484D01*
X354608Y104531D01*
X354694Y104581D01*
X354778Y104635D01*
X354861Y104692D01*
X354941Y104753D01*
X355018Y104816D01*
X355093Y104883D01*
X355165Y104952D01*
X355235Y105024D01*
X355301Y105099D01*
X355365Y105176D01*
X355425Y105256D01*
X355483Y105338D01*
X355537Y105422D01*
X355588Y105509D01*
X355635Y105597D01*
X355679Y105687D01*
X355719Y105779D01*
X355755Y105872D01*
X355788Y105966D01*
X355818Y106062D01*
X355843Y106159D01*
X355864Y106257D01*
X355864Y122257D02*
X355843Y122355D01*
X355818Y122452D01*
X355788Y122548D01*
X355755Y122642D01*
X355719Y122735D01*
X355679Y122827D01*
X355635Y122917D01*
X355588Y123005D01*
X355537Y123092D01*
X355483Y123176D01*
X355425Y123258D01*
X355365Y123338D01*
X355301Y123415D01*
X355235Y123490D01*
X355165Y123562D01*
X355093Y123631D01*
X355018Y123698D01*
X354941Y123761D01*
X354861Y123822D01*
X354778Y123879D01*
X354694Y123933D01*
X354608Y123983D01*
X354519Y124030D01*
X354429Y124074D01*
X354337Y124114D01*
X354244Y124150D01*
X354149Y124183D01*
X354054Y124212D01*
X353957Y124237D01*
X353859Y124259D01*
X353760Y124276D01*
X353661Y124290D01*
X353561Y124299D01*
X353461Y124305D01*
X353361Y124307D01*
X353261Y124305D01*
X353161Y124299D01*
X353062Y124289D01*
X352962Y124275D01*
X352864Y124257D01*
X338864Y124257D02*
X338766Y124275D01*
X338666Y124289D01*
X338567Y124299D01*
X338467Y124305D01*
X338367Y124307D01*
X338267Y124305D01*
X338167Y124299D01*
X338067Y124290D01*
X337968Y124276D01*
X337869Y124259D01*
X337771Y124237D01*
X337674Y124212D01*
X337579Y124183D01*
X337484Y124150D01*
X337391Y124114D01*
X337299Y124074D01*
X337209Y124030D01*
X337120Y123983D01*
X337034Y123933D01*
X336950Y123879D01*
X336867Y123822D01*
X336787Y123761D01*
X336710Y123698D01*
X336635Y123631D01*
X336563Y123562D01*
X336493Y123490D01*
X336427Y123415D01*
X336363Y123338D01*
X336303Y123258D01*
X336245Y123176D01*
X336191Y123092D01*
X336140Y123005D01*
X336093Y122917D01*
X336049Y122827D01*
X336009Y122735D01*
X335973Y122642D01*
X335940Y122548D01*
X335910Y122452D01*
X335885Y122355D01*
X335864Y122257D01*
X335864Y106257D02*
X335885Y106159D01*
X335910Y106062D01*
X335940Y105966D01*
X335973Y105872D01*
X336009Y105779D01*
X336049Y105687D01*
X336093Y105597D01*
X336140Y105509D01*
X336191Y105422D01*
X336245Y105338D01*
X336303Y105256D01*
X336363Y105176D01*
X336427Y105099D01*
X336493Y105024D01*
X336563Y104952D01*
X336635Y104883D01*
X336710Y104816D01*
X336787Y104753D01*
X336867Y104692D01*
X336950Y104635D01*
X337034Y104581D01*
X337120Y104531D01*
X337209Y104484D01*
X337299Y104440D01*
X337391Y104400D01*
X337484Y104364D01*
X337579Y104331D01*
X337674Y104302D01*
X337771Y104277D01*
X337869Y104255D01*
X337968Y104238D01*
X338067Y104224D01*
X338167Y104215D01*
X338267Y104209D01*
X338367Y104207D01*
X338467Y104209D01*
X338567Y104215D01*
X338666Y104225D01*
X338766Y104239D01*
X338864Y104257D01*
X355864Y106257D02*
X355864Y122257D01*
D10*
X227650Y185400D02*
X212400Y185400D01*
X212400Y75700D02*
X227650Y75700D01*
X227650Y20350D02*
X212400Y20350D01*
X212400Y130670D02*
X227650Y130670D01*
D11*
X49000Y263500D02*
X35000Y263500D01*
X35000Y243500D01*
X49000Y243500D01*
X69000Y263500D02*
X83000Y263500D01*
X83000Y243500D01*
X69000Y243500D01*
X62000Y253500D02*
X62000Y260500D01*
X62000Y253500D02*
X62000Y246500D01*
X62000Y253500D02*
X56000Y259500D01*
X56000Y247500D01*
X62000Y253500D01*
X49000Y175700D02*
X35000Y175700D01*
X35000Y155700D01*
X49000Y155700D01*
X69000Y175700D02*
X83000Y175700D01*
X83000Y155700D01*
X69000Y155700D01*
X62000Y165700D02*
X62000Y172700D01*
X62000Y165700D02*
X62000Y158700D01*
X62000Y165700D02*
X56000Y171700D01*
X56000Y159700D01*
X62000Y165700D01*
D19*
X29042Y129510D03*
D15*
X31542Y90100D02*
X24000Y90100D01*
X24000Y123100D01*
X31542Y123100D01*
X97458Y90100D02*
X105000Y90100D01*
X105000Y123100D01*
X97458Y123100D01*
D19*
X28942Y17860D03*
D15*
X31442Y22900D02*
X23900Y22900D01*
X23900Y64900D01*
X31442Y64900D01*
X97358Y22900D02*
X104900Y22900D01*
X104900Y64900D01*
X97358Y64900D01*
D20*
X332342Y86625D02*
X332342Y36625D01*
X332342Y86625D02*
X364342Y86625D01*
X364342Y36625D01*
X332342Y36625D01*
D17*
X321160Y286971D02*
X283960Y286971D01*
X283960Y219771D02*
X321160Y219771D01*
X283960Y284371D02*
X283960Y286971D01*
X283960Y222271D02*
X283960Y219771D01*
X321160Y219771D02*
X321160Y234671D01*
X321160Y270971D02*
X321160Y286971D01*
D10*
X257830Y276271D02*
X257832Y276334D01*
X257838Y276396D01*
X257848Y276458D01*
X257861Y276520D01*
X257879Y276580D01*
X257900Y276639D01*
X257925Y276697D01*
X257954Y276753D01*
X257986Y276807D01*
X258021Y276859D01*
X258059Y276908D01*
X258101Y276956D01*
X258145Y277000D01*
X258193Y277042D01*
X258242Y277080D01*
X258294Y277115D01*
X258348Y277147D01*
X258404Y277176D01*
X258462Y277201D01*
X258521Y277222D01*
X258581Y277240D01*
X258643Y277253D01*
X258705Y277263D01*
X258767Y277269D01*
X258830Y277271D01*
X258893Y277269D01*
X258955Y277263D01*
X259017Y277253D01*
X259079Y277240D01*
X259139Y277222D01*
X259198Y277201D01*
X259256Y277176D01*
X259312Y277147D01*
X259366Y277115D01*
X259418Y277080D01*
X259467Y277042D01*
X259515Y277000D01*
X259559Y276956D01*
X259601Y276908D01*
X259639Y276859D01*
X259674Y276807D01*
X259706Y276753D01*
X259735Y276697D01*
X259760Y276639D01*
X259781Y276580D01*
X259799Y276520D01*
X259812Y276458D01*
X259822Y276396D01*
X259828Y276334D01*
X259830Y276271D01*
X259828Y276208D01*
X259822Y276146D01*
X259812Y276084D01*
X259799Y276022D01*
X259781Y275962D01*
X259760Y275903D01*
X259735Y275845D01*
X259706Y275789D01*
X259674Y275735D01*
X259639Y275683D01*
X259601Y275634D01*
X259559Y275586D01*
X259515Y275542D01*
X259467Y275500D01*
X259418Y275462D01*
X259366Y275427D01*
X259312Y275395D01*
X259256Y275366D01*
X259198Y275341D01*
X259139Y275320D01*
X259079Y275302D01*
X259017Y275289D01*
X258955Y275279D01*
X258893Y275273D01*
X258830Y275271D01*
X258767Y275273D01*
X258705Y275279D01*
X258643Y275289D01*
X258581Y275302D01*
X258521Y275320D01*
X258462Y275341D01*
X258404Y275366D01*
X258348Y275395D01*
X258294Y275427D01*
X258242Y275462D01*
X258193Y275500D01*
X258145Y275542D01*
X258101Y275586D01*
X258059Y275634D01*
X258021Y275683D01*
X257986Y275735D01*
X257954Y275789D01*
X257925Y275845D01*
X257900Y275903D01*
X257879Y275962D01*
X257861Y276022D01*
X257848Y276084D01*
X257838Y276146D01*
X257832Y276208D01*
X257830Y276271D01*
D21*
X334996Y225525D02*
X334996Y219525D01*
X346996Y219525D02*
X346996Y225525D01*
M02*
