G04 EAGLE Gerber RS-274X export*
G75*
%MOMM*%
%FSLAX34Y34*%
%LPD*%
%INSolderpaste Bottom*%
%IPPOS*%
%AMOC8*
5,1,8,0,0,1.08239X$1,22.5*%
G01*
%ADD10R,1.200000X1.400000*%
%ADD11R,0.700000X0.900000*%
%ADD12R,0.483600X1.211800*%
%ADD13R,0.900000X0.700000*%
%ADD14R,1.250000X2.500000*%
%ADD15R,1.270000X2.540000*%
%ADD16R,5.080000X2.540000*%
%ADD17R,2.540000X1.270000*%
%ADD18R,0.550000X1.200000*%
%ADD19R,1.400000X1.600000*%
%ADD20C,0.300000*%
%ADD21R,0.300000X0.850000*%
%ADD22R,0.850000X0.300000*%
%ADD23R,1.270000X0.800000*%
%ADD24R,0.630000X0.830000*%
%ADD25R,1.200000X0.800000*%
%ADD26R,1.100000X1.000000*%
%ADD27R,1.000000X1.400000*%


D10*
X292500Y222776D03*
X262500Y222776D03*
D11*
X290148Y241626D03*
X303148Y241626D03*
X293300Y115050D03*
X280300Y115050D03*
D12*
X210400Y140200D03*
X202400Y140200D03*
X194400Y140200D03*
X186400Y140200D03*
X178400Y140200D03*
X170400Y140200D03*
X162400Y140200D03*
X154400Y140200D03*
X154400Y178200D03*
X162400Y178200D03*
X170400Y178200D03*
X178400Y178200D03*
X186400Y178200D03*
X194400Y178200D03*
X202400Y178200D03*
X210400Y178200D03*
D13*
X317900Y285589D03*
X317900Y272589D03*
X328453Y268889D03*
X328453Y281889D03*
D14*
X159400Y47700D03*
D15*
X189880Y47700D03*
D16*
X169900Y278200D03*
D11*
X52500Y260200D03*
X65500Y260200D03*
D15*
X59000Y236400D03*
X77200Y236400D03*
X41100Y236400D03*
D17*
X348737Y252538D03*
X348737Y282301D03*
X348737Y267419D03*
D12*
X276900Y134160D03*
X284900Y134160D03*
X292900Y134160D03*
X300900Y134160D03*
X308900Y134160D03*
X316900Y134160D03*
X324900Y134160D03*
X332900Y134160D03*
X332900Y186300D03*
X324900Y186300D03*
X316900Y186300D03*
X308900Y186300D03*
X300900Y186300D03*
X292900Y186300D03*
X284900Y186300D03*
X276900Y186300D03*
D14*
X287900Y47700D03*
D15*
X318380Y47700D03*
D17*
X217662Y242935D03*
X214860Y283748D03*
D18*
X169137Y222420D03*
X159637Y222420D03*
X150137Y222420D03*
X150137Y248422D03*
X169137Y248422D03*
D19*
X213964Y224809D03*
X185964Y224809D03*
D20*
X177969Y238990D02*
X177969Y245990D01*
X184969Y245990D01*
X184969Y238990D01*
X177969Y238990D01*
X177969Y241840D02*
X184969Y241840D01*
X184969Y244690D02*
X177969Y244690D01*
X195509Y245990D02*
X195509Y238990D01*
X195509Y245990D02*
X202509Y245990D01*
X202509Y238990D01*
X195509Y238990D01*
X195509Y241840D02*
X202509Y241840D01*
X202509Y244690D02*
X195509Y244690D01*
D19*
X210489Y200935D03*
X182489Y200935D03*
D11*
X162453Y205283D03*
X149453Y205283D03*
X146845Y191267D03*
X159845Y191267D03*
D12*
X36500Y125600D03*
X44500Y125600D03*
X52500Y125600D03*
X60500Y125600D03*
X68500Y125600D03*
X76500Y125600D03*
X84500Y125600D03*
X92500Y125600D03*
X92500Y87600D03*
X84500Y87600D03*
X76500Y87600D03*
X68500Y87600D03*
X60500Y87600D03*
X52500Y87600D03*
X44500Y87600D03*
X36500Y87600D03*
X36400Y20300D03*
X44400Y20300D03*
X52400Y20300D03*
X60400Y20300D03*
X68400Y20300D03*
X76400Y20300D03*
X84400Y20300D03*
X92400Y20300D03*
X92400Y67500D03*
X84400Y67500D03*
X76400Y67500D03*
X68400Y67500D03*
X60400Y67500D03*
X52400Y67500D03*
X44400Y67500D03*
X36400Y67500D03*
D15*
X355100Y90300D03*
D21*
X180449Y84884D03*
X180449Y113884D03*
D22*
X192449Y96884D03*
D21*
X185449Y84884D03*
X185449Y113884D03*
D22*
X192449Y91884D03*
X192449Y101884D03*
X192449Y106884D03*
D23*
X165449Y94384D03*
X165449Y104384D03*
D24*
X307393Y285099D03*
X284393Y285099D03*
D25*
X328296Y255469D03*
X328296Y237469D03*
D26*
X304104Y257359D03*
X287104Y257359D03*
X304096Y272259D03*
X287096Y272259D03*
D27*
X315777Y235282D03*
X306277Y213282D03*
X325277Y213282D03*
X347245Y236650D03*
X337745Y214650D03*
X356745Y214650D03*
D17*
X268104Y242950D03*
X268104Y286070D03*
X268104Y257323D03*
X268104Y271697D03*
M02*
