G04 EAGLE Gerber RS-274X export*
G75*
%MOMM*%
%FSLAX34Y34*%
%LPD*%
%INSoldermask Bottom*%
%IPPOS*%
%AMOC8*
5,1,8,0,0,1.08239X$1,22.5*%
G01*
%ADD10R,1.900000X1.700000*%
%ADD11C,1.203200*%
%ADD12C,0.553200*%
%ADD13R,1.403200X1.603200*%
%ADD14R,0.903200X1.103200*%
%ADD15R,0.838200X1.473200*%
%ADD16R,0.686800X1.415000*%
%ADD17R,1.103200X0.903200*%
%ADD18R,1.453200X2.703200*%
%ADD19R,1.473200X2.743200*%
%ADD20R,5.283200X2.743200*%
%ADD21R,2.743200X1.473200*%
%ADD22R,1.473200X0.838200*%
%ADD23R,0.753200X1.403200*%
%ADD24R,1.603200X1.803200*%
%ADD25C,0.505344*%
%ADD26R,0.503200X1.053200*%
%ADD27R,1.053200X0.503200*%
%ADD28R,1.473200X1.003200*%
%ADD29R,0.833200X1.033200*%
%ADD30R,1.403200X1.003200*%
%ADD31R,1.303200X1.203200*%
%ADD32R,1.203200X1.603200*%
%ADD33C,0.711200*%

G36*
X335987Y21697D02*
X335987Y21697D01*
X336074Y21700D01*
X336127Y21717D01*
X336182Y21725D01*
X336261Y21760D01*
X336345Y21787D01*
X336384Y21815D01*
X336441Y21841D01*
X336554Y21937D01*
X336618Y21982D01*
X337118Y22482D01*
X337170Y22552D01*
X337230Y22616D01*
X337256Y22665D01*
X337289Y22709D01*
X337320Y22791D01*
X337360Y22869D01*
X337368Y22917D01*
X337390Y22975D01*
X337402Y23123D01*
X337415Y23200D01*
X337415Y73700D01*
X337407Y73758D01*
X337409Y73816D01*
X337387Y73898D01*
X337375Y73982D01*
X337352Y74035D01*
X337337Y74091D01*
X337294Y74164D01*
X337259Y74241D01*
X337221Y74286D01*
X337192Y74336D01*
X337130Y74394D01*
X337076Y74458D01*
X337027Y74490D01*
X336984Y74530D01*
X336909Y74569D01*
X336839Y74616D01*
X336783Y74633D01*
X336731Y74660D01*
X336663Y74671D01*
X336568Y74701D01*
X336468Y74704D01*
X336400Y74715D01*
X306400Y74715D01*
X306342Y74707D01*
X306284Y74709D01*
X306202Y74687D01*
X306119Y74675D01*
X306065Y74652D01*
X306009Y74637D01*
X305936Y74594D01*
X305859Y74559D01*
X305814Y74521D01*
X305764Y74492D01*
X305706Y74430D01*
X305642Y74376D01*
X305610Y74327D01*
X305570Y74284D01*
X305531Y74209D01*
X305485Y74139D01*
X305467Y74083D01*
X305440Y74031D01*
X305429Y73963D01*
X305399Y73868D01*
X305396Y73768D01*
X305385Y73700D01*
X305385Y22700D01*
X305393Y22642D01*
X305391Y22584D01*
X305413Y22502D01*
X305425Y22419D01*
X305449Y22365D01*
X305463Y22309D01*
X305506Y22236D01*
X305541Y22159D01*
X305579Y22114D01*
X305609Y22064D01*
X305670Y22006D01*
X305725Y21942D01*
X305773Y21910D01*
X305816Y21870D01*
X305891Y21831D01*
X305961Y21785D01*
X306017Y21767D01*
X306069Y21740D01*
X306137Y21729D01*
X306232Y21699D01*
X306332Y21696D01*
X306400Y21685D01*
X335900Y21685D01*
X335987Y21697D01*
G37*
G36*
X207965Y21577D02*
X207965Y21577D01*
X208031Y21579D01*
X208074Y21597D01*
X208121Y21605D01*
X208178Y21639D01*
X208238Y21664D01*
X208273Y21695D01*
X208314Y21720D01*
X208356Y21771D01*
X208404Y21815D01*
X208426Y21857D01*
X208455Y21894D01*
X208476Y21956D01*
X208507Y22015D01*
X208515Y22069D01*
X208527Y22106D01*
X208526Y22146D01*
X208534Y22200D01*
X208534Y57200D01*
X208527Y57242D01*
X208529Y57284D01*
X208507Y57351D01*
X208495Y57421D01*
X208473Y57457D01*
X208460Y57498D01*
X208406Y57571D01*
X208380Y57614D01*
X208364Y57627D01*
X208348Y57648D01*
X192348Y73648D01*
X192314Y73673D01*
X192285Y73704D01*
X192222Y73736D01*
X192164Y73777D01*
X192123Y73787D01*
X192085Y73807D01*
X191996Y73820D01*
X191947Y73833D01*
X191926Y73830D01*
X191900Y73834D01*
X177900Y73834D01*
X177835Y73823D01*
X177769Y73821D01*
X177726Y73803D01*
X177679Y73795D01*
X177622Y73761D01*
X177562Y73736D01*
X177527Y73705D01*
X177486Y73680D01*
X177445Y73629D01*
X177396Y73585D01*
X177374Y73543D01*
X177345Y73506D01*
X177324Y73444D01*
X177293Y73385D01*
X177285Y73331D01*
X177273Y73294D01*
X177274Y73254D01*
X177266Y73200D01*
X177266Y22200D01*
X177277Y22135D01*
X177279Y22069D01*
X177297Y22026D01*
X177305Y21979D01*
X177339Y21922D01*
X177364Y21862D01*
X177395Y21827D01*
X177420Y21786D01*
X177471Y21745D01*
X177515Y21696D01*
X177557Y21674D01*
X177594Y21645D01*
X177656Y21624D01*
X177715Y21593D01*
X177769Y21585D01*
X177806Y21573D01*
X177846Y21574D01*
X177900Y21566D01*
X207900Y21566D01*
X207965Y21577D01*
G37*
G36*
X171965Y21577D02*
X171965Y21577D01*
X172031Y21579D01*
X172074Y21597D01*
X172121Y21605D01*
X172178Y21639D01*
X172238Y21664D01*
X172273Y21695D01*
X172314Y21720D01*
X172356Y21771D01*
X172404Y21815D01*
X172426Y21857D01*
X172455Y21894D01*
X172476Y21956D01*
X172507Y22015D01*
X172515Y22069D01*
X172527Y22106D01*
X172526Y22146D01*
X172534Y22200D01*
X172534Y72700D01*
X172523Y72765D01*
X172521Y72831D01*
X172503Y72874D01*
X172495Y72921D01*
X172461Y72978D01*
X172436Y73038D01*
X172405Y73073D01*
X172380Y73114D01*
X172329Y73156D01*
X172285Y73204D01*
X172243Y73226D01*
X172206Y73255D01*
X172144Y73276D01*
X172085Y73307D01*
X172031Y73315D01*
X171994Y73327D01*
X171954Y73326D01*
X171900Y73334D01*
X144400Y73334D01*
X144335Y73323D01*
X144269Y73321D01*
X144226Y73303D01*
X144179Y73295D01*
X144122Y73261D01*
X144062Y73236D01*
X144027Y73205D01*
X143986Y73180D01*
X143945Y73129D01*
X143896Y73085D01*
X143874Y73043D01*
X143845Y73006D01*
X143824Y72944D01*
X143793Y72885D01*
X143785Y72831D01*
X143773Y72794D01*
X143774Y72754D01*
X143766Y72700D01*
X143766Y22200D01*
X143777Y22135D01*
X143779Y22069D01*
X143797Y22026D01*
X143805Y21979D01*
X143839Y21922D01*
X143864Y21862D01*
X143895Y21827D01*
X143920Y21786D01*
X143971Y21745D01*
X144015Y21696D01*
X144057Y21674D01*
X144094Y21645D01*
X144156Y21624D01*
X144215Y21593D01*
X144269Y21585D01*
X144306Y21573D01*
X144346Y21574D01*
X144400Y21566D01*
X171900Y21566D01*
X171965Y21577D01*
G37*
G36*
X300458Y22193D02*
X300458Y22193D01*
X300516Y22191D01*
X300598Y22213D01*
X300682Y22225D01*
X300735Y22249D01*
X300791Y22263D01*
X300864Y22306D01*
X300941Y22341D01*
X300986Y22379D01*
X301036Y22409D01*
X301094Y22470D01*
X301158Y22525D01*
X301190Y22573D01*
X301230Y22616D01*
X301269Y22691D01*
X301316Y22761D01*
X301333Y22817D01*
X301360Y22869D01*
X301371Y22937D01*
X301401Y23032D01*
X301404Y23132D01*
X301415Y23200D01*
X301415Y73200D01*
X301407Y73258D01*
X301409Y73316D01*
X301387Y73398D01*
X301375Y73482D01*
X301352Y73535D01*
X301337Y73591D01*
X301294Y73664D01*
X301259Y73741D01*
X301221Y73786D01*
X301192Y73836D01*
X301130Y73894D01*
X301076Y73958D01*
X301027Y73990D01*
X300984Y74030D01*
X300909Y74069D01*
X300839Y74116D01*
X300783Y74133D01*
X300731Y74160D01*
X300663Y74171D01*
X300568Y74201D01*
X300468Y74204D01*
X300400Y74215D01*
X286900Y74215D01*
X286813Y74203D01*
X286726Y74200D01*
X286673Y74183D01*
X286619Y74175D01*
X286539Y74140D01*
X286455Y74113D01*
X286416Y74085D01*
X286359Y74059D01*
X286246Y73963D01*
X286182Y73918D01*
X272182Y59918D01*
X272130Y59848D01*
X272070Y59784D01*
X272044Y59735D01*
X272011Y59691D01*
X271980Y59609D01*
X271940Y59531D01*
X271932Y59484D01*
X271910Y59425D01*
X271898Y59277D01*
X271885Y59200D01*
X271885Y23200D01*
X271893Y23142D01*
X271891Y23084D01*
X271913Y23002D01*
X271925Y22919D01*
X271949Y22865D01*
X271963Y22809D01*
X272006Y22736D01*
X272041Y22659D01*
X272079Y22614D01*
X272109Y22564D01*
X272170Y22506D01*
X272225Y22442D01*
X272273Y22410D01*
X272316Y22370D01*
X272391Y22331D01*
X272461Y22285D01*
X272517Y22267D01*
X272569Y22240D01*
X272637Y22229D01*
X272732Y22199D01*
X272832Y22196D01*
X272900Y22185D01*
X300400Y22185D01*
X300458Y22193D01*
G37*
D10*
X185400Y277700D03*
D11*
X34500Y268100D03*
X83500Y268000D03*
X83500Y150900D03*
X34400Y151000D03*
D12*
X68800Y283300D03*
X74900Y283300D03*
X100300Y203700D03*
X100300Y209700D03*
X100300Y215600D03*
X118800Y203700D03*
X118800Y209700D03*
X118800Y215600D03*
X102000Y111200D03*
X102000Y104800D03*
X117500Y111200D03*
X117500Y104800D03*
X102000Y47450D03*
X102000Y41300D03*
X117500Y41300D03*
X117500Y47450D03*
X237500Y27600D03*
X237500Y21800D03*
X249850Y27600D03*
X249850Y21800D03*
X237500Y292200D03*
X237500Y285650D03*
X249850Y292200D03*
X249850Y285650D03*
X237000Y155000D03*
X237000Y163000D03*
X251000Y163000D03*
X251000Y155000D03*
D13*
X292500Y222776D03*
X262500Y222776D03*
D14*
X290148Y241626D03*
X303148Y241626D03*
X293300Y115050D03*
X280300Y115050D03*
D15*
X281300Y97050D03*
X290300Y97050D03*
D16*
X210400Y140200D03*
X202400Y140200D03*
X194400Y140200D03*
X186400Y140200D03*
X178400Y140200D03*
X170400Y140200D03*
X162400Y140200D03*
X154400Y140200D03*
X154400Y178200D03*
X162400Y178200D03*
X170400Y178200D03*
X178400Y178200D03*
X186400Y178200D03*
X194400Y178200D03*
X202400Y178200D03*
X210400Y178200D03*
D17*
X317900Y285589D03*
X317900Y272589D03*
X328453Y268889D03*
X328453Y281889D03*
D18*
X159400Y47700D03*
D19*
X189880Y47700D03*
D20*
X169900Y278200D03*
D14*
X52500Y260200D03*
X65500Y260200D03*
D19*
X59000Y236400D03*
X77200Y236400D03*
X41100Y236400D03*
D21*
X348737Y252538D03*
X348737Y282301D03*
X348737Y267419D03*
D16*
X276900Y134160D03*
X284900Y134160D03*
X292900Y134160D03*
X300900Y134160D03*
X308900Y134160D03*
X316900Y134160D03*
X324900Y134160D03*
X332900Y134160D03*
X332900Y186300D03*
X324900Y186300D03*
X316900Y186300D03*
X308900Y186300D03*
X300900Y186300D03*
X292900Y186300D03*
X284900Y186300D03*
X276900Y186300D03*
D18*
X287900Y47700D03*
D19*
X318380Y47700D03*
D21*
X217662Y242935D03*
X214860Y283748D03*
D22*
X220400Y36834D03*
X220400Y27834D03*
D23*
X169137Y222420D03*
X159637Y222420D03*
X150137Y222420D03*
X150137Y248422D03*
X169137Y248422D03*
D24*
X213964Y224809D03*
X185964Y224809D03*
D25*
X177979Y239000D02*
X177979Y245980D01*
X184959Y245980D01*
X184959Y239000D01*
X177979Y239000D01*
X177979Y243800D02*
X184959Y243800D01*
X195519Y245980D02*
X195519Y239000D01*
X195519Y245980D02*
X202499Y245980D01*
X202499Y239000D01*
X195519Y239000D01*
X195519Y243800D02*
X202499Y243800D01*
D24*
X210489Y200935D03*
X182489Y200935D03*
D14*
X162453Y205283D03*
X149453Y205283D03*
X146845Y191267D03*
X159845Y191267D03*
D15*
X129354Y133802D03*
X138354Y133802D03*
X63500Y196400D03*
X54500Y196400D03*
X54500Y212100D03*
X63500Y212100D03*
D16*
X36500Y125600D03*
X44500Y125600D03*
X52500Y125600D03*
X60500Y125600D03*
X68500Y125600D03*
X76500Y125600D03*
X84500Y125600D03*
X92500Y125600D03*
X92500Y87600D03*
X84500Y87600D03*
X76500Y87600D03*
X68500Y87600D03*
X60500Y87600D03*
X52500Y87600D03*
X44500Y87600D03*
X36500Y87600D03*
X36400Y20300D03*
X44400Y20300D03*
X52400Y20300D03*
X60400Y20300D03*
X68400Y20300D03*
X76400Y20300D03*
X84400Y20300D03*
X92400Y20300D03*
X92400Y67500D03*
X84400Y67500D03*
X76400Y67500D03*
X68400Y67500D03*
X60400Y67500D03*
X52400Y67500D03*
X44400Y67500D03*
X36400Y67500D03*
D19*
X355100Y90300D03*
D26*
X180449Y84884D03*
X180449Y113884D03*
D27*
X192449Y96884D03*
D26*
X185449Y84884D03*
X185449Y113884D03*
D27*
X192449Y91884D03*
X192449Y101884D03*
X192449Y106884D03*
D28*
X165449Y94384D03*
X165449Y104384D03*
D29*
X307393Y285099D03*
X284393Y285099D03*
D30*
X328296Y255469D03*
X328296Y237469D03*
D31*
X304104Y257359D03*
X287104Y257359D03*
X304096Y272259D03*
X287096Y272259D03*
D32*
X315777Y235282D03*
X306277Y213282D03*
X325277Y213282D03*
X347245Y236650D03*
X337745Y214650D03*
X356745Y214650D03*
D21*
X268104Y242950D03*
X268104Y286070D03*
X268104Y257323D03*
X268104Y271697D03*
D33*
X36500Y118600D03*
X44500Y118600D03*
X52500Y118600D03*
X60500Y118600D03*
X68500Y118600D03*
X76500Y118600D03*
X84500Y118600D03*
X92500Y118600D03*
X92500Y94600D03*
X84500Y94600D03*
X76500Y94600D03*
X68500Y94600D03*
X60500Y94600D03*
X52500Y94600D03*
X44500Y94600D03*
X36500Y94600D03*
X36400Y27800D03*
X44400Y27800D03*
X52400Y27800D03*
X60400Y27800D03*
X68400Y27800D03*
X76400Y27800D03*
X84400Y27800D03*
X92400Y27800D03*
X92400Y60000D03*
X84400Y60000D03*
X76400Y60000D03*
X68400Y60000D03*
X60400Y60000D03*
X52400Y60000D03*
X44400Y60000D03*
X36400Y60000D03*
M02*
