G04 EAGLE Gerber RS-274X export*
G75*
%MOMM*%
%FSLAX34Y34*%
%LPD*%
%INSolderpaste Top*%
%IPPOS*%
%AMOC8*
5,1,8,0,0,1.08239X$1,22.5*%
G01*
%ADD10R,0.900000X0.700000*%
%ADD11R,0.700000X0.900000*%
%ADD12R,0.260000X0.790000*%
%ADD13R,0.790000X0.260000*%
%ADD14R,0.254000X1.000000*%
%ADD15R,1.000000X0.254000*%
%ADD16R,1.400000X0.600000*%
%ADD17R,1.525000X0.650000*%
%ADD18R,2.390000X2.390000*%
%ADD19R,2.540000X1.270000*%
%ADD20R,1.200000X1.400000*%
%ADD21R,0.483600X1.211800*%
%ADD22R,1.270000X0.635000*%
%ADD23R,1.100000X1.000000*%
%ADD24R,1.000000X1.100000*%
%ADD25C,0.139500*%
%ADD26C,0.196500*%
%ADD27R,1.200000X0.800000*%

G36*
X285177Y72207D02*
X285177Y72207D01*
X285172Y72214D01*
X285179Y72220D01*
X285179Y81520D01*
X285143Y81567D01*
X285136Y81562D01*
X285130Y81569D01*
X275330Y81569D01*
X275283Y81533D01*
X275288Y81526D01*
X275281Y81520D01*
X275281Y72220D01*
X275317Y72173D01*
X275324Y72178D01*
X275330Y72171D01*
X285130Y72171D01*
X285177Y72207D01*
G37*
G36*
X297617Y72207D02*
X297617Y72207D01*
X297612Y72214D01*
X297619Y72220D01*
X297619Y81520D01*
X297583Y81567D01*
X297576Y81562D01*
X297570Y81569D01*
X287770Y81569D01*
X287723Y81533D01*
X287728Y81526D01*
X287721Y81520D01*
X287721Y72220D01*
X287757Y72173D01*
X287764Y72178D01*
X287770Y72171D01*
X297570Y72171D01*
X297617Y72207D01*
G37*
G36*
X285177Y60267D02*
X285177Y60267D01*
X285172Y60274D01*
X285179Y60280D01*
X285179Y69580D01*
X285143Y69627D01*
X285136Y69622D01*
X285130Y69629D01*
X275330Y69629D01*
X275283Y69593D01*
X275288Y69586D01*
X275281Y69580D01*
X275281Y60280D01*
X275317Y60233D01*
X275324Y60238D01*
X275330Y60231D01*
X285130Y60231D01*
X285177Y60267D01*
G37*
G36*
X297617Y60267D02*
X297617Y60267D01*
X297612Y60274D01*
X297619Y60280D01*
X297619Y69580D01*
X297583Y69627D01*
X297576Y69622D01*
X297570Y69629D01*
X287770Y69629D01*
X287723Y69593D01*
X287728Y69586D01*
X287721Y69580D01*
X287721Y60280D01*
X287757Y60233D01*
X287764Y60238D01*
X287770Y60231D01*
X297570Y60231D01*
X297617Y60267D01*
G37*
D10*
X291782Y25218D03*
X291782Y38218D03*
X316650Y25218D03*
X316650Y38218D03*
X302350Y25218D03*
X302350Y38218D03*
D11*
X345502Y288057D03*
X332502Y288057D03*
D10*
X281250Y38218D03*
X281250Y25218D03*
D11*
X345456Y277475D03*
X332456Y277475D03*
D10*
X260050Y38118D03*
X260050Y25118D03*
X270650Y38218D03*
X270650Y25218D03*
D12*
X273950Y51200D03*
X278950Y51200D03*
X283950Y51200D03*
X288950Y51200D03*
X293950Y51200D03*
X298950Y51200D03*
D13*
X306150Y58400D03*
X306150Y63400D03*
X306150Y68400D03*
X306150Y73400D03*
X306150Y78400D03*
X306150Y83400D03*
D12*
X298950Y90600D03*
X293950Y90600D03*
X288950Y90600D03*
X283950Y90600D03*
X278950Y90600D03*
X273950Y90600D03*
D13*
X266750Y83400D03*
X266750Y78400D03*
X266750Y73400D03*
X266750Y68400D03*
X266750Y63400D03*
X266750Y58400D03*
D14*
G36*
X324194Y113865D02*
X322398Y112069D01*
X315328Y119139D01*
X317124Y120935D01*
X324194Y113865D01*
G37*
G36*
X327729Y117401D02*
X325933Y115605D01*
X318863Y122675D01*
X320659Y124471D01*
X327729Y117401D01*
G37*
G36*
X331265Y120936D02*
X329469Y119140D01*
X322399Y126210D01*
X324195Y128006D01*
X331265Y120936D01*
G37*
G36*
X334800Y124472D02*
X333004Y122676D01*
X325934Y129746D01*
X327730Y131542D01*
X334800Y124472D01*
G37*
G36*
X338336Y128007D02*
X336540Y126211D01*
X329470Y133281D01*
X331266Y135077D01*
X338336Y128007D01*
G37*
G36*
X341871Y131543D02*
X340075Y129747D01*
X333005Y136817D01*
X334801Y138613D01*
X341871Y131543D01*
G37*
G36*
X345407Y135078D02*
X343611Y133282D01*
X336541Y140352D01*
X338337Y142148D01*
X345407Y135078D01*
G37*
G36*
X348942Y138614D02*
X347146Y136818D01*
X340076Y143888D01*
X341872Y145684D01*
X348942Y138614D01*
G37*
G36*
X352478Y142149D02*
X350682Y140353D01*
X343612Y147423D01*
X345408Y149219D01*
X352478Y142149D01*
G37*
G36*
X356013Y145685D02*
X354217Y143889D01*
X347147Y150959D01*
X348943Y152755D01*
X356013Y145685D01*
G37*
G36*
X359549Y149220D02*
X357753Y147424D01*
X350683Y154494D01*
X352479Y156290D01*
X359549Y149220D01*
G37*
G36*
X363084Y152756D02*
X361288Y150960D01*
X354218Y158030D01*
X356014Y159826D01*
X363084Y152756D01*
G37*
D15*
G36*
X363084Y179243D02*
X356014Y172173D01*
X354218Y173969D01*
X361288Y181039D01*
X363084Y179243D01*
G37*
G36*
X359549Y182779D02*
X352479Y175709D01*
X350683Y177505D01*
X357753Y184575D01*
X359549Y182779D01*
G37*
G36*
X356013Y186314D02*
X348943Y179244D01*
X347147Y181040D01*
X354217Y188110D01*
X356013Y186314D01*
G37*
G36*
X352478Y189850D02*
X345408Y182780D01*
X343612Y184576D01*
X350682Y191646D01*
X352478Y189850D01*
G37*
G36*
X348942Y193385D02*
X341872Y186315D01*
X340076Y188111D01*
X347146Y195181D01*
X348942Y193385D01*
G37*
G36*
X345407Y196921D02*
X338337Y189851D01*
X336541Y191647D01*
X343611Y198717D01*
X345407Y196921D01*
G37*
G36*
X341871Y200456D02*
X334801Y193386D01*
X333005Y195182D01*
X340075Y202252D01*
X341871Y200456D01*
G37*
G36*
X338336Y203992D02*
X331266Y196922D01*
X329470Y198718D01*
X336540Y205788D01*
X338336Y203992D01*
G37*
G36*
X334800Y207527D02*
X327730Y200457D01*
X325934Y202253D01*
X333004Y209323D01*
X334800Y207527D01*
G37*
G36*
X331265Y211063D02*
X324195Y203993D01*
X322399Y205789D01*
X329469Y212859D01*
X331265Y211063D01*
G37*
G36*
X327729Y214599D02*
X320659Y207529D01*
X318863Y209325D01*
X325933Y216395D01*
X327729Y214599D01*
G37*
G36*
X324194Y218134D02*
X317124Y211064D01*
X315328Y212860D01*
X322398Y219930D01*
X324194Y218134D01*
G37*
D14*
G36*
X302980Y212860D02*
X301184Y211064D01*
X294114Y218134D01*
X295910Y219930D01*
X302980Y212860D01*
G37*
G36*
X299445Y209325D02*
X297649Y207529D01*
X290579Y214599D01*
X292375Y216395D01*
X299445Y209325D01*
G37*
G36*
X295909Y205789D02*
X294113Y203993D01*
X287043Y211063D01*
X288839Y212859D01*
X295909Y205789D01*
G37*
G36*
X292374Y202253D02*
X290578Y200457D01*
X283508Y207527D01*
X285304Y209323D01*
X292374Y202253D01*
G37*
G36*
X288838Y198718D02*
X287042Y196922D01*
X279972Y203992D01*
X281768Y205788D01*
X288838Y198718D01*
G37*
G36*
X285303Y195182D02*
X283507Y193386D01*
X276437Y200456D01*
X278233Y202252D01*
X285303Y195182D01*
G37*
G36*
X281767Y191647D02*
X279971Y189851D01*
X272901Y196921D01*
X274697Y198717D01*
X281767Y191647D01*
G37*
G36*
X278232Y188111D02*
X276436Y186315D01*
X269366Y193385D01*
X271162Y195181D01*
X278232Y188111D01*
G37*
G36*
X274696Y184576D02*
X272900Y182780D01*
X265830Y189850D01*
X267626Y191646D01*
X274696Y184576D01*
G37*
G36*
X271161Y181040D02*
X269365Y179244D01*
X262295Y186314D01*
X264091Y188110D01*
X271161Y181040D01*
G37*
G36*
X267625Y177505D02*
X265829Y175709D01*
X258759Y182779D01*
X260555Y184575D01*
X267625Y177505D01*
G37*
G36*
X264089Y173969D02*
X262293Y172173D01*
X255223Y179243D01*
X257019Y181039D01*
X264089Y173969D01*
G37*
D15*
G36*
X264089Y158030D02*
X257019Y150960D01*
X255223Y152756D01*
X262293Y159826D01*
X264089Y158030D01*
G37*
G36*
X267625Y154494D02*
X260555Y147424D01*
X258759Y149220D01*
X265829Y156290D01*
X267625Y154494D01*
G37*
G36*
X271161Y150959D02*
X264091Y143889D01*
X262295Y145685D01*
X269365Y152755D01*
X271161Y150959D01*
G37*
G36*
X274696Y147423D02*
X267626Y140353D01*
X265830Y142149D01*
X272900Y149219D01*
X274696Y147423D01*
G37*
G36*
X278232Y143888D02*
X271162Y136818D01*
X269366Y138614D01*
X276436Y145684D01*
X278232Y143888D01*
G37*
G36*
X281767Y140352D02*
X274697Y133282D01*
X272901Y135078D01*
X279971Y142148D01*
X281767Y140352D01*
G37*
G36*
X285303Y136817D02*
X278233Y129747D01*
X276437Y131543D01*
X283507Y138613D01*
X285303Y136817D01*
G37*
G36*
X288838Y133281D02*
X281768Y126211D01*
X279972Y128007D01*
X287042Y135077D01*
X288838Y133281D01*
G37*
G36*
X292374Y129746D02*
X285304Y122676D01*
X283508Y124472D01*
X290578Y131542D01*
X292374Y129746D01*
G37*
G36*
X295909Y126210D02*
X288839Y119140D01*
X287043Y120936D01*
X294113Y128006D01*
X295909Y126210D01*
G37*
G36*
X299445Y122675D02*
X292375Y115605D01*
X290579Y117401D01*
X297649Y124471D01*
X299445Y122675D01*
G37*
G36*
X302980Y119139D02*
X295910Y112069D01*
X294114Y113865D01*
X301184Y120935D01*
X302980Y119139D01*
G37*
D16*
X32000Y228650D03*
X32000Y215950D03*
X32000Y203250D03*
X32000Y190550D03*
X86000Y190550D03*
X86000Y203250D03*
X86000Y215950D03*
X86000Y228650D03*
D17*
X220020Y247620D03*
X220020Y260320D03*
X220020Y273020D03*
X220020Y285720D03*
X165780Y285720D03*
X165780Y273020D03*
X165780Y260320D03*
X165780Y247620D03*
D18*
X192900Y266670D03*
D17*
X220020Y192150D03*
X220020Y204850D03*
X220020Y217550D03*
X220020Y230250D03*
X165780Y230250D03*
X165780Y217550D03*
X165780Y204850D03*
X165780Y192150D03*
D18*
X192900Y211200D03*
D17*
X220020Y82450D03*
X220020Y95150D03*
X220020Y107850D03*
X220020Y120550D03*
X165780Y120550D03*
X165780Y107850D03*
X165780Y95150D03*
X165780Y82450D03*
D18*
X192900Y101500D03*
D17*
X220020Y27100D03*
X220020Y39800D03*
X220020Y52500D03*
X220020Y65200D03*
X165780Y65200D03*
X165780Y52500D03*
X165780Y39800D03*
X165780Y27100D03*
D18*
X192900Y46150D03*
D17*
X220020Y137420D03*
X220020Y150120D03*
X220020Y162820D03*
X220020Y175520D03*
X165780Y175520D03*
X165780Y162820D03*
X165780Y150120D03*
X165780Y137420D03*
D18*
X192900Y156470D03*
D19*
X143900Y82700D03*
X143900Y107910D03*
X143900Y27200D03*
X143900Y137630D03*
X143900Y162580D03*
X143900Y52200D03*
X143900Y247490D03*
X143900Y273200D03*
X143900Y192060D03*
X143900Y217770D03*
D11*
X139900Y260200D03*
X152900Y260200D03*
X139900Y204700D03*
X152900Y204700D03*
X139900Y39700D03*
X152900Y39700D03*
X139900Y95200D03*
X152900Y95200D03*
X139900Y150200D03*
X152900Y150200D03*
D20*
X44000Y253500D03*
X74000Y253500D03*
D11*
X52500Y240200D03*
X65500Y240200D03*
D20*
X44000Y165700D03*
X74000Y165700D03*
D11*
X52500Y179000D03*
X65500Y179000D03*
D21*
X36500Y125700D03*
X44500Y125700D03*
X52500Y125700D03*
X60500Y125700D03*
X68500Y125700D03*
X76500Y125700D03*
X84500Y125700D03*
X92500Y125700D03*
X92500Y87500D03*
X84500Y87500D03*
X76500Y87500D03*
X68500Y87500D03*
X60500Y87500D03*
X52500Y87500D03*
X44500Y87500D03*
X36500Y87500D03*
X36400Y20400D03*
X44400Y20400D03*
X52400Y20400D03*
X60400Y20400D03*
X68400Y20400D03*
X76400Y20400D03*
X84400Y20400D03*
X92400Y20400D03*
X92400Y67400D03*
X84400Y67400D03*
X76400Y67400D03*
X68400Y67400D03*
X60400Y67400D03*
X52400Y67400D03*
X44400Y67400D03*
X36400Y67400D03*
D22*
X348342Y40625D03*
X348342Y82625D03*
D23*
X340011Y28369D03*
X357011Y28369D03*
X339711Y94959D03*
X356711Y94959D03*
D24*
X358751Y109983D03*
X358751Y126983D03*
D25*
X263257Y272318D02*
X263257Y280224D01*
X274963Y280224D01*
X274963Y272318D01*
X263257Y272318D01*
X263257Y273643D02*
X274963Y273643D01*
X274963Y274968D02*
X263257Y274968D01*
X263257Y276293D02*
X274963Y276293D01*
X274963Y277618D02*
X263257Y277618D01*
X263257Y278943D02*
X274963Y278943D01*
X263257Y257324D02*
X263257Y249418D01*
X263257Y257324D02*
X274963Y257324D01*
X274963Y249418D01*
X263257Y249418D01*
X263257Y250743D02*
X274963Y250743D01*
X274963Y252068D02*
X263257Y252068D01*
X263257Y253393D02*
X274963Y253393D01*
X274963Y254718D02*
X263257Y254718D01*
X263257Y256043D02*
X274963Y256043D01*
X263257Y234424D02*
X263257Y226518D01*
X263257Y234424D02*
X274963Y234424D01*
X274963Y226518D01*
X263257Y226518D01*
X263257Y227843D02*
X274963Y227843D01*
X274963Y229168D02*
X263257Y229168D01*
X263257Y230493D02*
X274963Y230493D01*
X274963Y231818D02*
X263257Y231818D01*
X263257Y233143D02*
X274963Y233143D01*
D26*
X330442Y238153D02*
X330442Y268589D01*
X341578Y268589D01*
X341578Y238153D01*
X330442Y238153D01*
X330442Y240020D02*
X341578Y240020D01*
X341578Y241887D02*
X330442Y241887D01*
X330442Y243754D02*
X341578Y243754D01*
X341578Y245621D02*
X330442Y245621D01*
X330442Y247488D02*
X341578Y247488D01*
X341578Y249355D02*
X330442Y249355D01*
X330442Y251222D02*
X341578Y251222D01*
X341578Y253089D02*
X330442Y253089D01*
X330442Y254956D02*
X341578Y254956D01*
X341578Y256823D02*
X330442Y256823D01*
X330442Y258690D02*
X341578Y258690D01*
X341578Y260557D02*
X330442Y260557D01*
X330442Y262424D02*
X341578Y262424D01*
X341578Y264291D02*
X330442Y264291D01*
X330442Y266158D02*
X341578Y266158D01*
X341578Y268025D02*
X330442Y268025D01*
D27*
X340996Y213525D03*
X340996Y231525D03*
D23*
G36*
X273154Y204455D02*
X265377Y196678D01*
X258306Y203749D01*
X266083Y211526D01*
X273154Y204455D01*
G37*
G36*
X285175Y216476D02*
X277398Y208699D01*
X270327Y215770D01*
X278104Y223547D01*
X285175Y216476D01*
G37*
X273483Y104771D03*
X290483Y104771D03*
X304691Y104871D03*
X321691Y104871D03*
D24*
X356571Y264001D03*
X356571Y247001D03*
X353671Y231293D03*
X353671Y214293D03*
M02*
