G04 EAGLE Gerber RS-274X export*
G75*
%MOMM*%
%FSLAX34Y34*%
%LPD*%
%INSoldermask Top*%
%IPPOS*%
%AMOC8*
5,1,8,0,0,1.08239X$1,22.5*%
G01*
%ADD10C,1.203200*%
%ADD11C,0.553200*%
%ADD12R,1.103200X0.903200*%
%ADD13R,0.903200X1.103200*%
%ADD14R,0.463200X0.993200*%
%ADD15R,0.993200X0.463200*%
%ADD16R,0.457200X1.203200*%
%ADD17R,1.203200X0.457200*%
%ADD18R,1.603200X0.803200*%
%ADD19R,1.728200X0.853200*%
%ADD20R,2.593200X2.593200*%
%ADD21R,1.473200X0.838200*%
%ADD22R,2.743200X1.473200*%
%ADD23R,1.403200X1.603200*%
%ADD24R,0.686800X1.415000*%
%ADD25R,1.303200X1.203200*%
%ADD26R,1.203200X1.303200*%
%ADD27C,0.339959*%
%ADD28C,0.393431*%
%ADD29R,1.403200X1.003200*%
%ADD30C,0.711200*%

G36*
X298204Y57604D02*
X298204Y57604D01*
X298206Y57601D01*
X298724Y57669D01*
X298731Y57676D01*
X298736Y57673D01*
X299219Y57872D01*
X299224Y57881D01*
X299230Y57879D01*
X299644Y58197D01*
X299647Y58206D01*
X299653Y58206D01*
X299971Y58620D01*
X299971Y58630D01*
X299978Y58631D01*
X300177Y59114D01*
X300175Y59123D01*
X300181Y59126D01*
X300249Y59644D01*
X300246Y59648D01*
X300249Y59650D01*
X300249Y82150D01*
X300246Y82154D01*
X300249Y82156D01*
X300181Y82674D01*
X300174Y82681D01*
X300177Y82686D01*
X299978Y83169D01*
X299969Y83174D01*
X299971Y83180D01*
X299653Y83594D01*
X299644Y83597D01*
X299644Y83603D01*
X299230Y83921D01*
X299221Y83921D01*
X299219Y83928D01*
X298736Y84127D01*
X298727Y84125D01*
X298724Y84131D01*
X298206Y84199D01*
X298202Y84196D01*
X298200Y84199D01*
X274700Y84199D01*
X274696Y84196D01*
X274694Y84199D01*
X274176Y84131D01*
X274169Y84124D01*
X274164Y84127D01*
X273681Y83928D01*
X273676Y83919D01*
X273670Y83921D01*
X273256Y83603D01*
X273253Y83594D01*
X273247Y83594D01*
X272929Y83180D01*
X272929Y83171D01*
X272922Y83169D01*
X272723Y82686D01*
X272723Y82684D01*
X272721Y82682D01*
X272725Y82677D01*
X272719Y82674D01*
X272651Y82156D01*
X272654Y82152D01*
X272651Y82150D01*
X272651Y60650D01*
X272667Y60629D01*
X272665Y60615D01*
X275665Y57615D01*
X275692Y57612D01*
X275700Y57601D01*
X298200Y57601D01*
X298204Y57604D01*
G37*
G36*
X360862Y69367D02*
X360862Y69367D01*
X360882Y69365D01*
X360983Y69387D01*
X361085Y69404D01*
X361102Y69413D01*
X361122Y69417D01*
X361211Y69470D01*
X361302Y69519D01*
X361316Y69533D01*
X361333Y69543D01*
X361400Y69622D01*
X361472Y69697D01*
X361480Y69715D01*
X361493Y69730D01*
X361532Y69826D01*
X361575Y69920D01*
X361577Y69940D01*
X361585Y69958D01*
X361603Y70125D01*
X361603Y87125D01*
X361600Y87145D01*
X361602Y87165D01*
X361580Y87266D01*
X361564Y87368D01*
X361554Y87385D01*
X361550Y87405D01*
X361497Y87494D01*
X361449Y87585D01*
X361434Y87599D01*
X361424Y87616D01*
X361345Y87683D01*
X361270Y87755D01*
X361252Y87763D01*
X361237Y87776D01*
X361141Y87815D01*
X361047Y87858D01*
X361027Y87860D01*
X361009Y87868D01*
X360842Y87886D01*
X335342Y87886D01*
X335322Y87883D01*
X335303Y87885D01*
X335201Y87863D01*
X335099Y87847D01*
X335082Y87837D01*
X335062Y87833D01*
X334973Y87780D01*
X334882Y87732D01*
X334868Y87717D01*
X334851Y87707D01*
X334784Y87628D01*
X334713Y87553D01*
X334704Y87535D01*
X334691Y87520D01*
X334653Y87424D01*
X334609Y87330D01*
X334607Y87310D01*
X334599Y87292D01*
X334581Y87125D01*
X334581Y70125D01*
X334584Y70105D01*
X334582Y70086D01*
X334604Y69984D01*
X334621Y69882D01*
X334630Y69865D01*
X334634Y69845D01*
X334687Y69756D01*
X334736Y69665D01*
X334750Y69651D01*
X334760Y69634D01*
X334839Y69567D01*
X334914Y69496D01*
X334932Y69487D01*
X334947Y69474D01*
X335043Y69435D01*
X335137Y69392D01*
X335157Y69390D01*
X335175Y69382D01*
X335342Y69364D01*
X360842Y69364D01*
X360862Y69367D01*
G37*
G36*
X360862Y35367D02*
X360862Y35367D01*
X360882Y35365D01*
X360983Y35387D01*
X361085Y35404D01*
X361102Y35413D01*
X361122Y35417D01*
X361211Y35470D01*
X361302Y35519D01*
X361316Y35533D01*
X361333Y35543D01*
X361400Y35622D01*
X361472Y35697D01*
X361480Y35715D01*
X361493Y35730D01*
X361532Y35826D01*
X361575Y35920D01*
X361577Y35940D01*
X361585Y35958D01*
X361603Y36125D01*
X361603Y53125D01*
X361600Y53145D01*
X361602Y53165D01*
X361580Y53266D01*
X361564Y53368D01*
X361554Y53385D01*
X361550Y53405D01*
X361497Y53494D01*
X361449Y53585D01*
X361434Y53599D01*
X361424Y53616D01*
X361345Y53683D01*
X361270Y53755D01*
X361252Y53763D01*
X361237Y53776D01*
X361141Y53815D01*
X361047Y53858D01*
X361027Y53860D01*
X361009Y53868D01*
X360842Y53886D01*
X335342Y53886D01*
X335322Y53883D01*
X335303Y53885D01*
X335201Y53863D01*
X335099Y53847D01*
X335082Y53837D01*
X335062Y53833D01*
X334973Y53780D01*
X334882Y53732D01*
X334868Y53717D01*
X334851Y53707D01*
X334784Y53628D01*
X334713Y53553D01*
X334704Y53535D01*
X334691Y53520D01*
X334653Y53424D01*
X334609Y53330D01*
X334607Y53310D01*
X334599Y53292D01*
X334581Y53125D01*
X334581Y36125D01*
X334584Y36105D01*
X334582Y36086D01*
X334604Y35984D01*
X334621Y35882D01*
X334630Y35865D01*
X334634Y35845D01*
X334687Y35756D01*
X334736Y35665D01*
X334750Y35651D01*
X334760Y35634D01*
X334839Y35567D01*
X334914Y35496D01*
X334932Y35487D01*
X334947Y35474D01*
X335043Y35435D01*
X335137Y35392D01*
X335157Y35390D01*
X335175Y35382D01*
X335342Y35364D01*
X360842Y35364D01*
X360862Y35367D01*
G37*
D10*
X34500Y268100D03*
X83500Y268000D03*
X83500Y150900D03*
X34400Y151000D03*
D11*
X68800Y283300D03*
X74900Y283300D03*
X100300Y203700D03*
X100300Y209700D03*
X100300Y215600D03*
X118800Y203700D03*
X118800Y209700D03*
X118800Y215600D03*
X102000Y111200D03*
X102000Y104800D03*
X117500Y111200D03*
X117500Y104800D03*
X102000Y47450D03*
X102000Y41300D03*
X117500Y41300D03*
X117500Y47450D03*
X237500Y27600D03*
X237500Y21800D03*
X249850Y27600D03*
X249850Y21800D03*
X237500Y292200D03*
X237500Y285650D03*
X249850Y292200D03*
X249850Y285650D03*
X237000Y155000D03*
X237000Y163000D03*
X251000Y163000D03*
X251000Y155000D03*
D12*
X291782Y25218D03*
X291782Y38218D03*
X316650Y25218D03*
X316650Y38218D03*
X302350Y25218D03*
X302350Y38218D03*
D13*
X345502Y288057D03*
X332502Y288057D03*
D12*
X281250Y38218D03*
X281250Y25218D03*
D13*
X345456Y277475D03*
X332456Y277475D03*
D12*
X260050Y38118D03*
X260050Y25118D03*
X270650Y38218D03*
X270650Y25218D03*
D14*
X273950Y51200D03*
X278950Y51200D03*
X283950Y51200D03*
X288950Y51200D03*
X293950Y51200D03*
X298950Y51200D03*
D15*
X306150Y58400D03*
X306150Y63400D03*
X306150Y68400D03*
X306150Y73400D03*
X306150Y78400D03*
X306150Y83400D03*
D14*
X298950Y90600D03*
X293950Y90600D03*
X288950Y90600D03*
X283950Y90600D03*
X278950Y90600D03*
X273950Y90600D03*
D15*
X266750Y83400D03*
X266750Y78400D03*
X266750Y73400D03*
X266750Y68400D03*
X266750Y63400D03*
X266750Y58400D03*
D16*
G36*
X325631Y113865D02*
X322398Y110632D01*
X313891Y119139D01*
X317124Y122372D01*
X325631Y113865D01*
G37*
G36*
X329166Y117401D02*
X325933Y114168D01*
X317426Y122675D01*
X320659Y125908D01*
X329166Y117401D01*
G37*
G36*
X332702Y120936D02*
X329469Y117703D01*
X320962Y126210D01*
X324195Y129443D01*
X332702Y120936D01*
G37*
G36*
X336237Y124472D02*
X333004Y121239D01*
X324497Y129746D01*
X327730Y132979D01*
X336237Y124472D01*
G37*
G36*
X339773Y128007D02*
X336540Y124774D01*
X328033Y133281D01*
X331266Y136514D01*
X339773Y128007D01*
G37*
G36*
X343308Y131543D02*
X340075Y128310D01*
X331568Y136817D01*
X334801Y140050D01*
X343308Y131543D01*
G37*
G36*
X346844Y135078D02*
X343611Y131845D01*
X335104Y140352D01*
X338337Y143585D01*
X346844Y135078D01*
G37*
G36*
X350379Y138614D02*
X347146Y135381D01*
X338639Y143888D01*
X341872Y147121D01*
X350379Y138614D01*
G37*
G36*
X353915Y142149D02*
X350682Y138916D01*
X342175Y147423D01*
X345408Y150656D01*
X353915Y142149D01*
G37*
G36*
X357450Y145685D02*
X354217Y142452D01*
X345710Y150959D01*
X348943Y154192D01*
X357450Y145685D01*
G37*
G36*
X360986Y149220D02*
X357753Y145987D01*
X349246Y154494D01*
X352479Y157727D01*
X360986Y149220D01*
G37*
G36*
X364521Y152756D02*
X361288Y149523D01*
X352781Y158030D01*
X356014Y161263D01*
X364521Y152756D01*
G37*
D17*
G36*
X364521Y179243D02*
X356014Y170736D01*
X352781Y173969D01*
X361288Y182476D01*
X364521Y179243D01*
G37*
G36*
X360986Y182779D02*
X352479Y174272D01*
X349246Y177505D01*
X357753Y186012D01*
X360986Y182779D01*
G37*
G36*
X357450Y186314D02*
X348943Y177807D01*
X345710Y181040D01*
X354217Y189547D01*
X357450Y186314D01*
G37*
G36*
X353915Y189850D02*
X345408Y181343D01*
X342175Y184576D01*
X350682Y193083D01*
X353915Y189850D01*
G37*
G36*
X350379Y193385D02*
X341872Y184878D01*
X338639Y188111D01*
X347146Y196618D01*
X350379Y193385D01*
G37*
G36*
X346844Y196921D02*
X338337Y188414D01*
X335104Y191647D01*
X343611Y200154D01*
X346844Y196921D01*
G37*
G36*
X343308Y200456D02*
X334801Y191949D01*
X331568Y195182D01*
X340075Y203689D01*
X343308Y200456D01*
G37*
G36*
X339773Y203992D02*
X331266Y195485D01*
X328033Y198718D01*
X336540Y207225D01*
X339773Y203992D01*
G37*
G36*
X336237Y207527D02*
X327730Y199020D01*
X324497Y202253D01*
X333004Y210760D01*
X336237Y207527D01*
G37*
G36*
X332702Y211063D02*
X324195Y202556D01*
X320962Y205789D01*
X329469Y214296D01*
X332702Y211063D01*
G37*
G36*
X329166Y214599D02*
X320659Y206092D01*
X317426Y209325D01*
X325933Y217832D01*
X329166Y214599D01*
G37*
G36*
X325631Y218134D02*
X317124Y209627D01*
X313891Y212860D01*
X322398Y221367D01*
X325631Y218134D01*
G37*
D16*
G36*
X304417Y212860D02*
X301184Y209627D01*
X292677Y218134D01*
X295910Y221367D01*
X304417Y212860D01*
G37*
G36*
X300882Y209325D02*
X297649Y206092D01*
X289142Y214599D01*
X292375Y217832D01*
X300882Y209325D01*
G37*
G36*
X297346Y205789D02*
X294113Y202556D01*
X285606Y211063D01*
X288839Y214296D01*
X297346Y205789D01*
G37*
G36*
X293811Y202253D02*
X290578Y199020D01*
X282071Y207527D01*
X285304Y210760D01*
X293811Y202253D01*
G37*
G36*
X290275Y198718D02*
X287042Y195485D01*
X278535Y203992D01*
X281768Y207225D01*
X290275Y198718D01*
G37*
G36*
X286740Y195182D02*
X283507Y191949D01*
X275000Y200456D01*
X278233Y203689D01*
X286740Y195182D01*
G37*
G36*
X283204Y191647D02*
X279971Y188414D01*
X271464Y196921D01*
X274697Y200154D01*
X283204Y191647D01*
G37*
G36*
X279669Y188111D02*
X276436Y184878D01*
X267929Y193385D01*
X271162Y196618D01*
X279669Y188111D01*
G37*
G36*
X276133Y184576D02*
X272900Y181343D01*
X264393Y189850D01*
X267626Y193083D01*
X276133Y184576D01*
G37*
G36*
X272598Y181040D02*
X269365Y177807D01*
X260858Y186314D01*
X264091Y189547D01*
X272598Y181040D01*
G37*
G36*
X269062Y177505D02*
X265829Y174272D01*
X257322Y182779D01*
X260555Y186012D01*
X269062Y177505D01*
G37*
G36*
X265526Y173969D02*
X262293Y170736D01*
X253786Y179243D01*
X257019Y182476D01*
X265526Y173969D01*
G37*
D17*
G36*
X265526Y158030D02*
X257019Y149523D01*
X253786Y152756D01*
X262293Y161263D01*
X265526Y158030D01*
G37*
G36*
X269062Y154494D02*
X260555Y145987D01*
X257322Y149220D01*
X265829Y157727D01*
X269062Y154494D01*
G37*
G36*
X272598Y150959D02*
X264091Y142452D01*
X260858Y145685D01*
X269365Y154192D01*
X272598Y150959D01*
G37*
G36*
X276133Y147423D02*
X267626Y138916D01*
X264393Y142149D01*
X272900Y150656D01*
X276133Y147423D01*
G37*
G36*
X279669Y143888D02*
X271162Y135381D01*
X267929Y138614D01*
X276436Y147121D01*
X279669Y143888D01*
G37*
G36*
X283204Y140352D02*
X274697Y131845D01*
X271464Y135078D01*
X279971Y143585D01*
X283204Y140352D01*
G37*
G36*
X286740Y136817D02*
X278233Y128310D01*
X275000Y131543D01*
X283507Y140050D01*
X286740Y136817D01*
G37*
G36*
X290275Y133281D02*
X281768Y124774D01*
X278535Y128007D01*
X287042Y136514D01*
X290275Y133281D01*
G37*
G36*
X293811Y129746D02*
X285304Y121239D01*
X282071Y124472D01*
X290578Y132979D01*
X293811Y129746D01*
G37*
G36*
X297346Y126210D02*
X288839Y117703D01*
X285606Y120936D01*
X294113Y129443D01*
X297346Y126210D01*
G37*
G36*
X300882Y122675D02*
X292375Y114168D01*
X289142Y117401D01*
X297649Y125908D01*
X300882Y122675D01*
G37*
G36*
X304417Y119139D02*
X295910Y110632D01*
X292677Y113865D01*
X301184Y122372D01*
X304417Y119139D01*
G37*
D18*
X32000Y228650D03*
X32000Y215950D03*
X32000Y203250D03*
X32000Y190550D03*
X86000Y190550D03*
X86000Y203250D03*
X86000Y215950D03*
X86000Y228650D03*
D19*
X220020Y247620D03*
X220020Y260320D03*
X220020Y273020D03*
X220020Y285720D03*
X165780Y285720D03*
X165780Y273020D03*
X165780Y260320D03*
X165780Y247620D03*
D20*
X192900Y266670D03*
D21*
X345864Y118757D03*
X345864Y109757D03*
D19*
X220020Y192150D03*
X220020Y204850D03*
X220020Y217550D03*
X220020Y230250D03*
X165780Y230250D03*
X165780Y217550D03*
X165780Y204850D03*
X165780Y192150D03*
D20*
X192900Y211200D03*
D19*
X220020Y82450D03*
X220020Y95150D03*
X220020Y107850D03*
X220020Y120550D03*
X165780Y120550D03*
X165780Y107850D03*
X165780Y95150D03*
X165780Y82450D03*
D20*
X192900Y101500D03*
D19*
X220020Y27100D03*
X220020Y39800D03*
X220020Y52500D03*
X220020Y65200D03*
X165780Y65200D03*
X165780Y52500D03*
X165780Y39800D03*
X165780Y27100D03*
D20*
X192900Y46150D03*
D19*
X220020Y137420D03*
X220020Y150120D03*
X220020Y162820D03*
X220020Y175520D03*
X165780Y175520D03*
X165780Y162820D03*
X165780Y150120D03*
X165780Y137420D03*
D20*
X192900Y156470D03*
D22*
X143900Y82700D03*
X143900Y107910D03*
X143900Y27200D03*
X143900Y137630D03*
X143900Y162580D03*
X143900Y52200D03*
X143900Y247490D03*
X143900Y273200D03*
X143900Y192060D03*
X143900Y217770D03*
D13*
X139900Y260200D03*
X152900Y260200D03*
X139900Y204700D03*
X152900Y204700D03*
X139900Y39700D03*
X152900Y39700D03*
X139900Y95200D03*
X152900Y95200D03*
X139900Y150200D03*
X152900Y150200D03*
D23*
X44000Y253500D03*
X74000Y253500D03*
D13*
X52500Y240200D03*
X65500Y240200D03*
D23*
X44000Y165700D03*
X74000Y165700D03*
D13*
X52500Y179000D03*
X65500Y179000D03*
D24*
X36500Y125700D03*
X44500Y125700D03*
X52500Y125700D03*
X60500Y125700D03*
X68500Y125700D03*
X76500Y125700D03*
X84500Y125700D03*
X92500Y125700D03*
X92500Y87500D03*
X84500Y87500D03*
X76500Y87500D03*
X68500Y87500D03*
X60500Y87500D03*
X52500Y87500D03*
X44500Y87500D03*
X36500Y87500D03*
X36400Y20400D03*
X44400Y20400D03*
X52400Y20400D03*
X60400Y20400D03*
X68400Y20400D03*
X76400Y20400D03*
X84400Y20400D03*
X92400Y20400D03*
X92400Y67400D03*
X84400Y67400D03*
X76400Y67400D03*
X68400Y67400D03*
X60400Y67400D03*
X52400Y67400D03*
X44400Y67400D03*
X36400Y67400D03*
D21*
X348342Y40625D03*
X348342Y82625D03*
D25*
X340011Y28369D03*
X357011Y28369D03*
X339711Y94959D03*
X356711Y94959D03*
D26*
X358751Y109983D03*
X358751Y126983D03*
D27*
X263244Y272305D02*
X263244Y280237D01*
X274976Y280237D01*
X274976Y272305D01*
X263244Y272305D01*
X263244Y275535D02*
X274976Y275535D01*
X274976Y278765D02*
X263244Y278765D01*
X263244Y257337D02*
X263244Y249405D01*
X263244Y257337D02*
X274976Y257337D01*
X274976Y249405D01*
X263244Y249405D01*
X263244Y252635D02*
X274976Y252635D01*
X274976Y255865D02*
X263244Y255865D01*
X263244Y234437D02*
X263244Y226505D01*
X263244Y234437D02*
X274976Y234437D01*
X274976Y226505D01*
X263244Y226505D01*
X263244Y229735D02*
X274976Y229735D01*
X274976Y232965D02*
X263244Y232965D01*
D28*
X330411Y238122D02*
X330411Y268620D01*
X341609Y268620D01*
X341609Y238122D01*
X330411Y238122D01*
X330411Y241859D02*
X341609Y241859D01*
X341609Y245596D02*
X330411Y245596D01*
X330411Y249333D02*
X341609Y249333D01*
X341609Y253070D02*
X330411Y253070D01*
X330411Y256807D02*
X341609Y256807D01*
X341609Y260544D02*
X330411Y260544D01*
X330411Y264281D02*
X341609Y264281D01*
X341609Y268018D02*
X330411Y268018D01*
D29*
X340996Y213525D03*
X340996Y231525D03*
D25*
G36*
X274591Y204455D02*
X265377Y195241D01*
X256869Y203749D01*
X266083Y212963D01*
X274591Y204455D01*
G37*
G36*
X286612Y216476D02*
X277398Y207262D01*
X268890Y215770D01*
X278104Y224984D01*
X286612Y216476D01*
G37*
X273483Y104771D03*
X290483Y104771D03*
X304691Y104871D03*
X321691Y104871D03*
D26*
X356571Y264001D03*
X356571Y247001D03*
X353671Y231293D03*
X353671Y214293D03*
D30*
X36500Y118600D03*
X44500Y118600D03*
X52500Y118600D03*
X60500Y118600D03*
X68500Y118600D03*
X76500Y118600D03*
X84500Y118600D03*
X92500Y118600D03*
X92500Y94600D03*
X84500Y94600D03*
X76500Y94600D03*
X68500Y94600D03*
X60500Y94600D03*
X52500Y94600D03*
X44500Y94600D03*
X36500Y94600D03*
X36400Y27800D03*
X44400Y27800D03*
X52400Y27800D03*
X60400Y27800D03*
X68400Y27800D03*
X76400Y27800D03*
X84400Y27800D03*
X92400Y27800D03*
X92400Y60000D03*
X84400Y60000D03*
X76400Y60000D03*
X68400Y60000D03*
X60400Y60000D03*
X52400Y60000D03*
X44400Y60000D03*
X36400Y60000D03*
M02*
